<svg id="Layer_1" data-name="Layer 1" xmlns="http://www.w3.org/2000/svg" viewBox="0 0 40.07 38.32"><defs><style>.cls-1{fill:#eaeaea;}.cls-2{fill:#b20022;}.cls-3{fill:#990025;}.cls-4{fill:#6d001f;}.cls-5{fill:#51001b;}.cls-6{fill:#fff;}.cls-7{fill:#e0e0e0;}</style></defs><title>cristmas-logo2</title><path class="cls-1" d="M21.4,18.2v2.5c0,.3-.4.5-.6.3l-5.3-5.3a.28.28,0,0,1,.2-.5H30.8V0H17.2A17.2,17.2,0,0,0,0,17.2H0A17.2,17.2,0,0,0,17.2,34.4H30.8V18.2Z" transform="translate(9.27 3.92)"/><path class="cls-2" d="M-9.08,11.64c.27.14.72.37,1.51.81a15.77,15.77,0,0,1,2.8,1.81L-2.86,16h0c0-1.58.38-2.74,1.27-2.71l3.28-3.4.19-.19,2-2.1,8.4-8.75-1-1a3,3,0,0,0-1-.66C8.12-3.78.44-6.15-6.36,1.73a2.15,2.15,0,0,0-.28.35l0,0a.76.76,0,0,1-.11.14L-7,2.64c-.27.39-.64,1-.94,1.51-.14.27-.29.54-.37.75a.82.82,0,0,1,0,.11,1.61,1.61,0,0,0-.18.39A12.49,12.49,0,0,0-9.08,11.64Z" transform="translate(9.27 3.92)"/><path class="cls-3" d="M-8.39,5A9.13,9.13,0,0,1-3.32,6.23,19,19,0,0,1,.31,8.59l1.4,1.27.19-.19,2-2.1L8.78,2.46s-9-6.62-15.42-.38l0,0-.06.07a.3.3,0,0,0,0,.07L-7,2.64c-.27.39-.64,1-.94,1.51-.14.27-.29.54-.37.75A.82.82,0,0,1-8.39,5Z" transform="translate(9.27 3.92)"/><path class="cls-4" d="M-9.08,11.64a2.49,2.49,0,0,1,.34.14c.27.15.38.23,1.17.67a15.77,15.77,0,0,1,2.8,1.81L-2.86,16h0c0-1.58.38-2.74,1.27-2.71l3.28-3.4.19-.19S-4.16,4.12-8.35,4.9a.82.82,0,0,1,0,.11,1.61,1.61,0,0,0-.18.39A11.74,11.74,0,0,0-9.08,11.64Z" transform="translate(9.27 3.92)"/><path class="cls-5" d="M-3.21,23.33l1.1-.33a38.5,38.5,0,0,1-.75-7l-1.91-1.72a15.77,15.77,0,0,0-2.8-1.81c-.79-.44-1.27-.88-1.54-1C-8.1,17.75-3.21,23.33-3.21,23.33Z" transform="translate(9.27 3.92)"/><path class="cls-6" d="M14.64.53.21,15a1.65,1.65,0,0,1-2.28-.3h0a1.66,1.66,0,0,1-.3-2.28L12.06-2a1.65,1.65,0,0,1,2.28.3h0A1.65,1.65,0,0,1,14.64.53Z" transform="translate(9.27 3.92)"/><path class="cls-7" d="M-5.53,26.22a3.4,3.4,0,0,0,4.82,0,2.59,2.59,0,0,0,.38-.48,3.4,3.4,0,0,1-4.28-.43A3.41,3.41,0,0,1-5,21a2.59,2.59,0,0,0-.48.38A3.4,3.4,0,0,0-5.53,26.22Z" transform="translate(9.27 3.92)"/><path class="cls-6" d="M-4.61,25.3a3.4,3.4,0,0,0,4.28.43l0-.05a3.4,3.4,0,0,0-.43-4.27A3.43,3.43,0,0,0-5,21L-5,21A3.41,3.41,0,0,0-4.61,25.3Z" transform="translate(9.27 3.92)"/><path class="cls-6" d="M-4.61,25.3a3.4,3.4,0,0,0,4.28.43l0-.05a3.4,3.4,0,0,0-.43-4.27A3.43,3.43,0,0,0-5,21L-5,21A3.41,3.41,0,0,0-4.61,25.3Z" transform="translate(9.27 3.92)"/></svg>