<?xml version="1.0" encoding="utf-8"?>
<!-- Generator: Adobe Illustrator 22.1.0, SVG Export Plug-In . SVG Version: 6.00 Build 0)  -->
<svg version="1.1" id="Layer_1" xmlns="http://www.w3.org/2000/svg" xmlns:xlink="http://www.w3.org/1999/xlink" x="0px" y="0px"
	 viewBox="0 0 86.3 54.8" style="enable-background:new 0 0 86.3 54.8;" xml:space="preserve">
<style type="text/css">
	.st0{fill:none;stroke:#4285F4;stroke-width:20;stroke-miterlimit:10;}
	.st1{fill:#4285F4;}
	.st2{fill:none;stroke:#4285F4;stroke-width:20;stroke-linejoin:round;stroke-miterlimit:10;}
	.st3{fill:none;stroke:#4285F4;stroke-width:20;stroke-linecap:round;stroke-miterlimit:10;}
	.st4{fill:#FFFFFF;stroke:#4285F4;stroke-width:9;stroke-miterlimit:10;}
	.st5{fill:none;stroke:#FFFFFF;stroke-width:10;stroke-linecap:round;stroke-linejoin:round;stroke-miterlimit:10;}
	.st6{fill:none;stroke:#4285F4;stroke-width:10;stroke-miterlimit:10;}
	.st7{fill:none;stroke:#4285F4;stroke-width:4;stroke-miterlimit:10;}
	.st8{fill:none;stroke:#4285F4;stroke-width:9;stroke-miterlimit:10;}
	.st9{fill:#4285F4;stroke:#4285F4;stroke-miterlimit:10;}
	.st10{fill:#FFFFFF;stroke:#FFFFFF;stroke-miterlimit:10;}
	.st11{fill:none;stroke:#4285F4;stroke-width:7;stroke-miterlimit:10;}
	.st12{opacity:0.4;fill:#4285F4;}
	.st13{fill:#3A76CC;}
	.st14{fill:none;stroke:#4285F4;stroke-width:12;stroke-miterlimit:10;}
	.st15{fill:none;stroke:#4285F4;stroke-width:11;stroke-miterlimit:10;}
	.st16{fill:none;stroke:#4285F4;stroke-width:11;stroke-linejoin:round;stroke-miterlimit:10;}
	.st17{fill:none;stroke:#4285F4;stroke-width:15;stroke-miterlimit:10;}
	.st18{fill:none;stroke:#4285F4;stroke-width:6;stroke-miterlimit:10;}
	.st19{fill:none;stroke:#4285F4;stroke-width:5;stroke-miterlimit:10;}
	.st20{fill:none;stroke:#4285F4;stroke-width:23;stroke-linecap:round;stroke-linejoin:round;stroke-miterlimit:10;}
	.st21{fill:none;stroke:#4285F4;stroke-width:16;stroke-linecap:round;stroke-linejoin:round;stroke-miterlimit:10;}
	.st22{fill:#3164AD;}
	.st23{fill:none;stroke:#3164AD;stroke-width:13;stroke-miterlimit:10;}
	.st24{fill:none;stroke:#4285F4;stroke-width:7;stroke-linecap:round;stroke-linejoin:round;stroke-miterlimit:10;}
	.st25{fill:none;stroke:#4285F4;stroke-width:4;stroke-linecap:round;stroke-linejoin:round;stroke-miterlimit:10;}
	.st26{fill:#006DF0;}
	.st27{fill:#EAEAEA;}
</style>
<g>
	<path class="st0" d="M325.6-4628.4c0,10.8-8.8,19.6-19.6,19.6H19.3h-243.9c-10.8,0-19.6-8.8-19.6-19.6v-347.8
		c0-10.8,8.8-19.6,19.6-19.6h530.7c10.8,0,19.6,8.8,19.6,19.6V-4628.4z"/>
	<path class="st0" d="M278-4666.5c0,8.5-7.3,15.3-16.3,15.3H22.9h-203.2c-9,0-16.3-6.9-16.3-15.3v-271.7c0-8.5,7.3-15.3,16.3-15.3
		h442c9,0,16.3,6.9,16.3,15.3V-4666.5z"/>
	<polyline class="st0" points="7.9,-4608.9 7.9,-4520.5 57.3,-4520.5 57.3,-4608.9 	"/>
	<line class="st0" x1="-0.5" y1="-4520.5" x2="-114.2" y2="-4520.5"/>
	<line class="st0" x1="189.9" y1="-4520.5" x2="67.3" y2="-4520.5"/>
</g>
<g>
	<g>
		<path class="st1" d="M276.2-4441.1l40.6,132.4l-552.6-1.8l40.8-130.6H276.2 M285.7-4461.1h-490.3c-3.2,0-6,2.3-6.9,5.6
			l-48.3,154.6c-1.5,5.2,2,10.4,6.9,10.4l586.5,1.9c4.9,0,8.4-5.2,7-10.4l-48-156.5C291.7-4458.9,288.9-4461.1,285.7-4461.1
			L285.7-4461.1z"/>
	</g>
	<polyline class="st2" points="-245.7,-4304 -245.7,-4257.3 325.8,-4257.3 325.8,-4304 	"/>
	<g>
		<path class="st1" d="M247.2-4392l10.3,36.7h-432.8l12.7-36.7H247.2 M253.8-4412h-422.6c-4.8,0-9.2,3.1-10.7,7.6l-18.7,54
			c-2.6,7.4,2.9,15.1,10.7,15.1h456.4c7.5,0,13-7.2,10.9-14.4l-15.1-54C263.3-4408.6,258.8-4412,253.8-4412L253.8-4412z"/>
	</g>
</g>
<path class="st0" d="M639.7-4526.7h-229c-5.2,0-9.5-4.3-9.5-9.5v-452c0-5.2,4.3-9.5,9.5-9.5h229c5.2,0,9.5,4.3,9.5,9.5v452
	C649.2-4530.9,644.9-4526.7,639.7-4526.7z"/>
<line class="st3" x1="450.5" y1="-4961" x2="599.8" y2="-4961"/>
<line class="st3" x1="450.5" y1="-4921" x2="599.8" y2="-4921"/>
<line class="st3" x1="450.5" y1="-4881" x2="599.8" y2="-4881"/>
<line class="st3" x1="450.5" y1="-4604.4" x2="599.8" y2="-4604.4"/>
<line class="st3" x1="450.5" y1="-4564.4" x2="599.8" y2="-4564.4"/>
<path class="st3" d="M589.9-4749.2h-15.3c-10.1,0-18.3-8.2-18.3-18.3v-15.3c0-10.1,8.2-18.3,18.3-18.3h15.3
	c10.1,0,18.3,8.2,18.3,18.3v15.3C608.3-4757.4,600.1-4749.2,589.9-4749.2z"/>
<path class="st3" d="M401.2-4580.7c0,0-57,34-32,77c16.6,19.4,57,25.1,63.2,25.9c0.5,0.1,1,0.1,1.5,0.1c7.3,0,71.5,0.9,91.3,48"/>
<ellipse transform="matrix(0.908 -0.4189 0.4189 0.908 1870.9966 -173.0314)" class="st3" cx="541.5" cy="-4347.3" rx="59.7" ry="76"/>
<line class="st3" x1="481.1" y1="-4339.9" x2="592.8" y2="-4377.9"/>
<line class="st3" x1="517.8" y1="-4419.1" x2="537" y2="-4358.9"/>
<line class="st4" x1="517.8" y1="-4419.1" x2="537" y2="-4358.9"/>
<line class="st5" x1="524.3" y1="-4398" x2="531" y2="-4377.1"/>
<path class="st0" d="M2706.9-4240.6H1892c-13.8,0-25-11.2-25-25v-723.9c0-13.8,11.2-25,25-25h814.8c13.8,0,25,11.2,25,25v723.9
	C2731.9-4251.8,2720.7-4240.6,2706.9-4240.6z"/>
<path class="st0" d="M1867.1-4867.2"/>
<rect x="1867.1" y="-4815.4" class="st0" width="864.8" height="375.8"/>
<g>
	<polyline class="st6" points="2066.5,-4978.9 2049.4,-4978.9 2037.5,-4962.5 2037.5,-4927.3 2095.4,-4927.3 2095.4,-4962.5 
		2083.5,-4978.9 2066.5,-4978.9 	"/>
	<line class="st7" x1="2047.7" y1="-4927.3" x2="2047.7" y2="-4947.4"/>
	<line class="st7" x1="2056.7" y1="-4927.3" x2="2056.7" y2="-4947.4"/>
	<line class="st7" x1="2065.6" y1="-4927.3" x2="2065.6" y2="-4947.4"/>
	<line class="st7" x1="2074.5" y1="-4927.3" x2="2074.5" y2="-4947.4"/>
	<line class="st7" x1="2083.4" y1="-4927.3" x2="2083.4" y2="-4947.4"/>
</g>
<g>
	<polyline class="st6" points="1974.9,-4978.9 1957.9,-4978.9 1945.9,-4962.5 1945.9,-4927.3 2003.8,-4927.3 2003.8,-4962.5 
		1991.9,-4978.9 1974.9,-4978.9 	"/>
	<line class="st7" x1="1956.1" y1="-4927.3" x2="1956.1" y2="-4947.4"/>
	<line class="st7" x1="1965.1" y1="-4927.3" x2="1965.1" y2="-4947.4"/>
	<line class="st7" x1="1974" y1="-4927.3" x2="1974" y2="-4947.4"/>
	<line class="st7" x1="1982.9" y1="-4927.3" x2="1982.9" y2="-4947.4"/>
	<line class="st7" x1="1991.8" y1="-4927.3" x2="1991.8" y2="-4947.4"/>
</g>
<g>
	<polyline class="st6" points="2066.3,-4896.8 2049.2,-4896.8 2037.3,-4880.4 2037.3,-4845.3 2095.2,-4845.3 2095.2,-4880.4 
		2083.3,-4896.8 2066.3,-4896.8 	"/>
	<line class="st7" x1="2047.5" y1="-4845.3" x2="2047.5" y2="-4865.4"/>
	<line class="st7" x1="2056.4" y1="-4845.3" x2="2056.4" y2="-4865.4"/>
	<line class="st7" x1="2065.4" y1="-4845.3" x2="2065.4" y2="-4865.4"/>
	<line class="st7" x1="2074.3" y1="-4845.3" x2="2074.3" y2="-4865.4"/>
	<line class="st7" x1="2083.2" y1="-4845.3" x2="2083.2" y2="-4865.4"/>
</g>
<g>
	<polyline class="st6" points="1974.5,-4896.8 1957.5,-4896.8 1945.6,-4880.4 1945.6,-4845.3 2003.5,-4845.3 2003.5,-4880.4 
		1991.5,-4896.8 1974.5,-4896.8 	"/>
	<line class="st7" x1="1955.8" y1="-4845.3" x2="1955.8" y2="-4865.4"/>
	<line class="st7" x1="1964.7" y1="-4845.3" x2="1964.7" y2="-4865.4"/>
	<line class="st7" x1="1973.6" y1="-4845.3" x2="1973.6" y2="-4865.4"/>
	<line class="st7" x1="1982.5" y1="-4845.3" x2="1982.5" y2="-4865.4"/>
	<line class="st7" x1="1991.5" y1="-4845.3" x2="1991.5" y2="-4865.4"/>
</g>
<g>
	<polyline class="st6" points="2157.5,-4978.9 2140.4,-4978.9 2128.5,-4962.5 2128.5,-4927.3 2186.4,-4927.3 2186.4,-4962.5 
		2174.5,-4978.9 2157.5,-4978.9 	"/>
	<line class="st7" x1="2138.7" y1="-4927.3" x2="2138.7" y2="-4947.4"/>
	<line class="st7" x1="2147.7" y1="-4927.3" x2="2147.7" y2="-4947.4"/>
	<line class="st7" x1="2156.6" y1="-4927.3" x2="2156.6" y2="-4947.4"/>
	<line class="st7" x1="2165.5" y1="-4927.3" x2="2165.5" y2="-4947.4"/>
	<line class="st7" x1="2174.4" y1="-4927.3" x2="2174.4" y2="-4947.4"/>
</g>
<g>
	<polyline class="st6" points="2157.3,-4896.8 2140.2,-4896.8 2128.3,-4880.4 2128.3,-4845.3 2186.2,-4845.3 2186.2,-4880.4 
		2174.3,-4896.8 2157.3,-4896.8 	"/>
	<line class="st7" x1="2138.5" y1="-4845.3" x2="2138.5" y2="-4865.4"/>
	<line class="st7" x1="2147.4" y1="-4845.3" x2="2147.4" y2="-4865.4"/>
	<line class="st7" x1="2156.4" y1="-4845.3" x2="2156.4" y2="-4865.4"/>
	<line class="st7" x1="2165.3" y1="-4845.3" x2="2165.3" y2="-4865.4"/>
	<line class="st7" x1="2174.2" y1="-4845.3" x2="2174.2" y2="-4865.4"/>
</g>
<g>
	<polyline class="st6" points="2248.5,-4978.9 2231.4,-4978.9 2219.5,-4962.5 2219.5,-4927.3 2277.4,-4927.3 2277.4,-4962.5 
		2265.5,-4978.9 2248.5,-4978.9 	"/>
	<line class="st7" x1="2229.7" y1="-4927.3" x2="2229.7" y2="-4947.4"/>
	<line class="st7" x1="2238.7" y1="-4927.3" x2="2238.7" y2="-4947.4"/>
	<line class="st7" x1="2247.6" y1="-4927.3" x2="2247.6" y2="-4947.4"/>
	<line class="st7" x1="2256.5" y1="-4927.3" x2="2256.5" y2="-4947.4"/>
	<line class="st7" x1="2265.4" y1="-4927.3" x2="2265.4" y2="-4947.4"/>
</g>
<g>
	<polyline class="st6" points="2248.3,-4896.8 2231.2,-4896.8 2219.3,-4880.4 2219.3,-4845.3 2277.2,-4845.3 2277.2,-4880.4 
		2265.3,-4896.8 2248.3,-4896.8 	"/>
	<line class="st7" x1="2229.5" y1="-4845.3" x2="2229.5" y2="-4865.4"/>
	<line class="st7" x1="2238.4" y1="-4845.3" x2="2238.4" y2="-4865.4"/>
	<line class="st7" x1="2247.4" y1="-4845.3" x2="2247.4" y2="-4865.4"/>
	<line class="st7" x1="2256.3" y1="-4845.3" x2="2256.3" y2="-4865.4"/>
	<line class="st7" x1="2265.2" y1="-4845.3" x2="2265.2" y2="-4865.4"/>
</g>
<line class="st8" x1="1867.1" y1="-4910.5" x2="2731.9" y2="-4910.5"/>
<line class="st8" x1="2021.1" y1="-5014.4" x2="2021.1" y2="-4815.4"/>
<line class="st8" x1="2112.1" y1="-5010" x2="2112.1" y2="-4811"/>
<line class="st8" x1="2203.1" y1="-5005.5" x2="2203.1" y2="-4806.5"/>
<line class="st8" x1="2294.1" y1="-5012.3" x2="2294.1" y2="-4813.3"/>
<rect x="2524.6" y="-4872.7" class="st9" width="158" height="30.9"/>
<rect x="2332" y="-4872.7" class="st9" width="158" height="30.9"/>
<g>
	<rect x="2610.1" y="-4984.6" class="st9" width="72.5" height="59.7"/>
	<rect x="2629" y="-4969" class="st10" width="34.6" height="28.5"/>
</g>
<line class="st4" x1="2452.8" y1="-4910.5" x2="2542.9" y2="-5011.8"/>
<g>
	<path class="st1" d="M2069.8-4804.3v167.8h-93.4v-167.8H2069.8 M2078.8-4813.3h-111.4v185.8h111.4V-4813.3L2078.8-4813.3z"/>
</g>
<g>
	<path class="st1" d="M1972.1-4804.3v167.8h-93.4v-167.8H1972.1 M1981.1-4813.3h-111.4v185.8h111.4V-4813.3L1981.1-4813.3z"/>
</g>
<g>
	<path class="st1" d="M2178.4-4804.3v167.8H2085v-167.8H2178.4 M2187.4-4813.3H2076v185.8h111.4V-4813.3L2187.4-4813.3z"/>
</g>
<g>
	<path class="st1" d="M2287.1-4804.3v167.8h-93.4v-167.8H2287.1 M2296.1-4813.3h-111.4v185.8h111.4V-4813.3L2296.1-4813.3z"/>
</g>
<g>
	<path class="st1" d="M2395.8-4804.3v167.8h-93.4v-167.8H2395.8 M2404.8-4813.3h-111.4v185.8h111.4V-4813.3L2404.8-4813.3z"/>
</g>
<g>
	<path class="st1" d="M2504.4-4804.3v167.8H2411v-167.8H2504.4 M2513.4-4813.3H2402v185.8h111.4V-4813.3L2513.4-4813.3z"/>
</g>
<g>
	<path class="st1" d="M2613.1-4804.3v167.8h-93.4v-167.8H2613.1 M2622.1-4813.3h-111.4v185.8h111.4V-4813.3L2622.1-4813.3z"/>
</g>
<g>
	<path class="st1" d="M2721.7-4804.3v167.8h-93.4v-167.8H2721.7 M2730.7-4813.3h-111.4v185.8h111.4V-4813.3L2730.7-4813.3z"/>
</g>
<rect x="1894.7" y="-4778.7" class="st11" width="60.4" height="41.2"/>
<rect x="1992.3" y="-4778.7" class="st11" width="60.4" height="41.2"/>
<rect x="2101.5" y="-4778.7" class="st11" width="60.4" height="41.2"/>
<rect x="2210.7" y="-4778.7" class="st11" width="60.4" height="41.2"/>
<rect x="2319.9" y="-4778.7" class="st11" width="60.4" height="41.2"/>
<rect x="2426.9" y="-4778.7" class="st11" width="60.4" height="41.2"/>
<g>
	<rect x="2535.6" y="-4778.7" class="st11" width="60.4" height="41.2"/>
</g>
<g>
	<rect x="2644.3" y="-4778.7" class="st11" width="60.4" height="41.2"/>
</g>
<g>
	<path class="st1" d="M2069.8-4619.7v165.2h-93.6v-165.2H2069.8 M2078.8-4628.7h-111.6v183.2h111.6V-4628.7L2078.8-4628.7z"/>
</g>
<g>
	<path class="st1" d="M1972-4619.7v165.2h-93.6v-165.2H1972 M1981-4628.7h-111.6v183.2H1981V-4628.7L1981-4628.7z"/>
</g>
<g>
	<path class="st1" d="M2178.6-4619.7v165.2H2085v-165.2H2178.6 M2187.6-4628.7H2076v183.2h111.6V-4628.7L2187.6-4628.7z"/>
</g>
<g>
	<path class="st1" d="M2287.5-4619.7v165.2h-93.6v-165.2H2287.5 M2296.5-4628.7h-111.6v183.2h111.6V-4628.7L2296.5-4628.7z"/>
</g>
<g>
	<path class="st1" d="M2396.3-4619.7v165.2h-93.6v-165.2H2396.3 M2405.3-4628.7h-111.6v183.2h111.6V-4628.7L2405.3-4628.7z"/>
</g>
<g>
	<path class="st1" d="M2505.2-4619.7v165.2h-93.6v-165.2H2505.2 M2514.2-4628.7h-111.6v183.2h111.6V-4628.7L2514.2-4628.7z"/>
</g>
<g>
	<path class="st1" d="M2614-4619.7v165.2h-93.6v-165.2H2614 M2623-4628.7h-111.6v183.2H2623V-4628.7L2623-4628.7z"/>
</g>
<g>
	<path class="st1" d="M2722.8-4619.7v165.2h-93.6v-165.2H2722.8 M2731.8-4628.7h-111.6v183.2h111.6V-4628.7L2731.8-4628.7z"/>
</g>
<rect x="1892.5" y="-4603.4" class="st11" width="60.5" height="41.2"/>
<rect x="1990.2" y="-4603.4" class="st11" width="60.5" height="41.2"/>
<rect x="2099.6" y="-4603.4" class="st11" width="60.5" height="41.2"/>
<rect x="2209" y="-4603.4" class="st11" width="60.5" height="41.2"/>
<rect x="2318.4" y="-4603.4" class="st11" width="60.5" height="41.2"/>
<rect x="2425.6" y="-4603.4" class="st11" width="60.5" height="41.2"/>
<g>
	<rect x="2534.5" y="-4603.4" class="st11" width="60.5" height="41.2"/>
</g>
<g>
	<rect x="2643.3" y="-4603.4" class="st11" width="60.5" height="41.2"/>
</g>
<rect x="1929" y="-4389.1" class="st11" width="214" height="104.6"/>
<rect x="2183.7" y="-4392.4" class="st11" width="214" height="104.6"/>
<rect x="2438.4" y="-4395.7" class="st11" width="214" height="104.6"/>
<g>
	<g>
		<path class="st0" d="M588.9-3134.5h-788.9c-21,0-38-17-38-38V-3457c0-21,17-38,38-38h788.9c21,0,38,17,38,38v284.5
			C626.9-3151.5,609.9-3134.5,588.9-3134.5z"/>
		<path class="st0" d="M19-3625"/>
		<g>
			<path class="st1" d="M18-3635h-53.5c-4.1,0-8.1,1.3-11.3,3.8l-182,135.4l11.9,16L-35.1-3615H18V-3635z"/>
			<path class="st1" d="M435.1-3631.2c-3.3-2.4-7.3-3.8-11.3-3.8H375v20h48.4l181.7,135.2l11.9-16L435.1-3631.2z"/>
		</g>
	</g>
	<path class="st11" d="M374.2-3575c6.1,0,13.4,5.1,16.2,11.5l3.2,7.3c3,6.8,0.1,12.5-6.5,12.5H5.9c-6.6,0-9.5-5.7-6.5-12.5l3.2-7.3
		c2.8-6.4,10.1-11.5,16.2-11.5"/>
	<polygon class="st1" points="371.5,-3752.7 371.5,-3547.1 21.5,-3547.1 21.5,-3823.5 290.7,-3823.5 290.7,-3830.5 14.5,-3830.5 
		14.5,-3540.1 378.5,-3540.1 378.5,-3752.7 	"/>
	<rect x="140" y="-3799" class="st1" width="113" height="18.5"/>
	<rect x="90.5" y="-3762" class="st1" width="182.2" height="18.5"/>
	<rect x="90.5" y="-3736.5" class="st1" width="136.5" height="18.5"/>
	<rect x="90.5" y="-3707.5" class="st1" width="136.5" height="18.5"/>
	<rect x="90.5" y="-3678.5" class="st1" width="212" height="18.5"/>
	<rect x="90.5" y="-3649.5" class="st1" width="212" height="18.5"/>
	<rect x="90.5" y="-3620.5" class="st1" width="212" height="18.5"/>
	<rect x="90.5" y="-3591.5" class="st1" width="126.5" height="18.5"/>
	<polygon class="st1" points="290.7,-3830.5 290.7,-3752.7 378.5,-3752.7 	"/>
	<polygon class="st12" points="290.7,-3752.7 372.8,-3672.3 372.8,-3752.7 	"/>
	<circle class="st1" cx="526" cy="-3388" r="25.5"/>
	<circle class="st13" cx="526" cy="-3309" r="36"/>
	<rect x="-87.3" y="-3202.3" class="st14" width="563.7" height="67.8"/>
	<polygon class="st14" points="418.5,-3202.3 -29.5,-3202.3 -87.3,-3134.5 476.3,-3134.5 	"/>
</g>
<g>
	<path class="st0" d="M2696-3096h-788.9c-21,0-38-17-38-38v-697.4c0-21,17-38,38-38H2696c21,0,38,17,38,38v697.4
		C2733.9-3113,2716.9-3096,2696-3096z"/>
	<g>
		<path class="st15" d="M2586.9-3717h-108.7c-6.6,0-12-5.4-12-12v-81.4c0-6.6,5.4-12,12-12h108.7c6.6,0,12,5.4,12,12v81.4
			C2598.9-3722.4,2593.5-3717,2586.9-3717z"/>
		<polygon class="st16" points="2598.9,-3769.7 2653,-3823.8 2653,-3717 		"/>
	</g>
	<line class="st16" x1="1869.1" y1="-3375" x2="2733.9" y2="-3375"/>
	<circle class="st16" cx="2298.2" cy="-3238.3" r="81"/>
	<g id="call_1_">
		<path class="st1" d="M2313.3-3259.7c-1-1.5-1.5-3.4-1-4.9c1.9-5.8,2.9-11.7,2.9-17.5c0-2.9,1.9-4.9,4.9-4.9h17
			c2.9,0,4.9,1.9,4.9,4.9c0,45.8-37,82.8-82.8,82.8c-2.9,0-4.9-1.9-4.9-4.9v-16.6c0-2.9,1.9-4.9,4.9-4.9c6.3,0,12.2-1,17.5-2.9
			c1.5-1,3.4-0.5,4.9,1l10.7,10.7c13.6-7.3,25.3-18.5,32.1-32.1L2313.3-3259.7z"/>
	</g>
	<path class="st17" d="M2350.9-3550.2c32.5-15.5,54.9-48.7,54.9-87c0-53.3-43.2-96.4-96.4-96.4s-96.4,43.2-96.4,96.4
		c0,38.7,22.8,72.1,55.8,87.5c-122.9,27.9-140.9,174.8-140.9,174.8h347.5C2475.3-3375,2472.7-3523.4,2350.9-3550.2z"/>
	<circle class="st7" cx="2564.8" cy="-3798.5" r="11.8"/>
</g>
<g>
	<path class="st0" d="M2587.1-2279.3c0,10.8-8.8,19.6-19.6,19.6h-286.8h-243.9c-10.8,0-19.6-8.8-19.6-19.6v-347.8
		c0-10.8,8.8-19.6,19.6-19.6h530.7c10.8,0,19.6,8.8,19.6,19.6V-2279.3z"/>
	<path class="st0" d="M2688.7-2017.4c4.1,9.8-4.6,17.9-19.6,17.9h-397.3h-338c-15,0-23.7-8.1-19.6-17.9l98.2-232.7
		c2.3-5.4,12.8-9.6,23.7-9.6h530.7c10.8,0,21.4,4.3,23.7,9.6L2688.7-2017.4z"/>
	<path class="st0" d="M2539.5-2317.4c0,8.5-7.3,15.3-16.3,15.3h-238.8h-203.2c-9,0-16.3-6.9-16.3-15.3v-271.7
		c0-8.5,7.3-15.3,16.3-15.3h442c9,0,16.3,6.9,16.3,15.3V-2317.4z"/>
	<polygon class="st18" points="2368.5,-2007.4 2240.6,-2007.4 2243.7,-2089.7 2365.2,-2089.7 	"/>
	<g>
		<polygon class="st19" points="2046,-2197.8 2016.3,-2197.8 2024.6,-2221.8 2053.4,-2221.8 		"/>
		<polygon class="st19" points="2091.5,-2197.8 2061.9,-2197.8 2068.8,-2221.8 2097.6,-2221.8 		"/>
		<polygon class="st19" points="2137.1,-2197.8 2107.4,-2197.8 2113,-2221.8 2141.9,-2221.8 		"/>
		<polygon class="st19" points="2182.6,-2197.8 2153,-2197.8 2157.3,-2221.8 2186.1,-2221.8 		"/>
		<polygon class="st19" points="2228.2,-2197.8 2198.5,-2197.8 2201.5,-2221.8 2230.3,-2221.8 		"/>
		<polygon class="st19" points="2273.7,-2197.8 2244,-2197.8 2245.7,-2221.8 2274.5,-2221.8 		"/>
		<polygon class="st19" points="2319.3,-2197.8 2289.6,-2197.8 2289.9,-2221.8 2318.8,-2221.8 		"/>
		<polygon class="st19" points="2364.8,-2197.8 2335.1,-2197.8 2334.2,-2221.8 2363,-2221.8 		"/>
		<polygon class="st19" points="2410.4,-2197.8 2380.7,-2197.8 2378.4,-2221.8 2407.2,-2221.8 		"/>
		<polygon class="st19" points="2455.9,-2197.8 2426.2,-2197.8 2422.6,-2221.8 2451.4,-2221.8 		"/>
		<polygon class="st19" points="2501.4,-2197.8 2471.8,-2197.8 2466.8,-2221.8 2495.6,-2221.8 		"/>
		<polygon class="st19" points="2547,-2197.8 2517.3,-2197.8 2511.1,-2221.8 2539.9,-2221.8 		"/>
		<polygon class="st19" points="2586.7,-2197.8 2557,-2197.8 2549.6,-2221.8 2578.4,-2221.8 		"/>
		<polygon class="st19" points="2034.1,-2159.3 2003.1,-2159.3 2012.1,-2185.6 2042.2,-2185.6 		"/>
		<polygon class="st19" points="2081.8,-2159.3 2050.7,-2159.3 2058.3,-2185.6 2088.4,-2185.6 		"/>
		<polygon class="st19" points="2129.4,-2159.3 2098.4,-2159.3 2104.6,-2185.6 2134.7,-2185.6 		"/>
		<polygon class="st19" points="2177.1,-2159.3 2146.1,-2159.3 2150.8,-2185.6 2180.9,-2185.6 		"/>
		<polygon class="st19" points="2224.8,-2159.3 2193.7,-2159.3 2197,-2185.6 2227.1,-2185.6 		"/>
		<polygon class="st19" points="2272.4,-2159.3 2241.4,-2159.3 2243.2,-2185.6 2273.3,-2185.6 		"/>
		<polygon class="st19" points="2320.1,-2159.3 2289,-2159.3 2289.4,-2185.6 2319.5,-2185.6 		"/>
		<polygon class="st19" points="2367.8,-2159.3 2336.7,-2159.3 2335.6,-2185.6 2365.7,-2185.6 		"/>
		<polygon class="st19" points="2415.4,-2159.3 2384.4,-2159.3 2381.9,-2185.6 2412,-2185.6 		"/>
		<polygon class="st19" points="2510.7,-2159.3 2432,-2159.3 2428.1,-2185.6 2504.4,-2185.6 		"/>
		<polygon class="st19" points="2558.4,-2159.3 2527.3,-2159.3 2520.5,-2185.6 2550.6,-2185.6 		"/>
		<polygon class="st19" points="2599.1,-2159.3 2568.1,-2159.3 2560,-2185.6 2590.1,-2185.6 		"/>
		<polygon class="st19" points="2021.8,-2119.3 1989.3,-2119.3 1999.2,-2148.1 2030.7,-2148.1 		"/>
		<polygon class="st19" points="2071.7,-2119.3 2039.2,-2119.3 2047.5,-2148.1 2079,-2148.1 		"/>
		<polygon class="st19" points="2121.5,-2119.3 2089,-2119.3 2095.8,-2148.1 2127.2,-2148.1 		"/>
		<polygon class="st19" points="2390.6,-2119.3 2138.9,-2119.3 2144.1,-2148.1 2387.8,-2148.1 		"/>
		<polygon class="st19" points="2470.5,-2119.3 2406.7,-2119.3 2403.4,-2148.1 2465.2,-2148.1 		"/>
		<polygon class="st19" points="2526.6,-2119.3 2494.2,-2119.3 2488.1,-2148.1 2519.5,-2148.1 		"/>
		<polygon class="st19" points="2570.2,-2119.3 2537.7,-2119.3 2530.3,-2148.1 2561.7,-2148.1 		"/>
		<polygon class="st19" points="2613.7,-2119.3 2581.2,-2119.3 2572.3,-2148.1 2603.8,-2148.1 		"/>
	</g>
</g>
<g>
	<circle class="st0" cx="-126.5" cy="-1189.3" r="42.5"/>
	<circle class="st0" cx="523" cy="-1189.3" r="42.5"/>
	<circle class="st0" cx="277.5" cy="-1410.2" r="34.5"/>
	<circle class="st0" cx="248.5" cy="-1317.7" r="29"/>
	<circle class="st0" cx="350" cy="-1038.4" r="29"/>
	<path class="st0" d="M-126.5-1231.8c0,0,28-85.9,94.8-85.9s186.8,0,186.8,0"/>
	<path class="st0" d="M-98.4-1157.4c0,0,3.6,80.5,80.5,80.5s172.9,0,172.9,0"/>
	<path class="st0" d="M3-1311.3c0,0,25.3-98.9,83.6-98.9s156.4,0,156.4,0"/>
	<path class="st0" d="M523-1234.1c0,0-25.3-83.6-83.6-83.6s-156.4,0-156.4,0"/>
	<path class="st0" d="M77-1076.9c0,0,25.9-79.4,73.9-79.4s170.1,0,170.1,0"/>
	<path class="st0" d="M115-1076.9c0,0,7.1,38.6,38.6,38.6s167.4,0,167.4,0"/>
	<polygon class="st1" points="151.3,-1101.9 176.3,-1076.9 151.3,-1051.9 	"/>
	<polygon class="st1" points="439,-1013.1 414,-1038.1 439,-1063.1 	"/>
	<polygon class="st1" points="321,-1181.3 346,-1156.3 321,-1131.3 	"/>
	<polygon class="st1" points="151.3,-1342.7 176.3,-1317.7 151.3,-1292.7 	"/>
	<path class="st0" d="M480.5-1189.3c0,0-3.5,33-22.4,33c-18.9,0-34.7,0-34.7,0"/>
	<circle class="st0" cx="396.3" cy="-1156.3" r="27.1"/>
	<path class="st0" d="M523-1146.8v69.9c0,0,6.4,38.8-38.8,38.8s-45.2,0-45.2,0"/>
</g>
<g>
	<g>
		<path class="st0" d="M478.8-2014.2c0,8.1-6.6,14.7-14.7,14.7H248.9H65.8c-8.1,0-14.7-6.6-14.7-14.7v-261.1
			c0-8.1,6.6-14.7,14.7-14.7h398.4c8.1,0,14.7,6.6,14.7,14.7V-2014.2z"/>
		<path class="st0" d="M443.1-2042.7c0,6.3-5.5,11.5-12.2,11.5H251.6H99.1c-6.8,0-12.2-5.1-12.2-11.5v-203.9
			c0-6.3,5.5-11.5,12.2-11.5h331.8c6.8,0,12.2,5.1,12.2,11.5V-2042.7z"/>
	</g>
	<path class="st20" d="M560.9-2645.7v70.6c0,0,0.5,8.9-6.9,14.8c-7.4,5.9-15.5,4.8-15.5,4.8H481"/>
	<path class="st20" d="M319.4-2675.5h301.8L481-2606.3v71.9H199.8c0,0-103.3-5.9-103.3-70.6c0-74.7,116.6-70.6,116.6-70.6"/>
	<path class="st21" d="M238.7-2534.4v83.2c0,0,2.5,15.4-10,23c-12.5,7.7-28.5,7.7-28.5,7.7h-49v-34.8c0,0-7.5-17.2-32.4-17.2
		s-32.1,14.8-32.1,14.8v72c0,0,2.5,18.3,31.3,18.3s31.8-16.4,31.8-16.4l1.4-36.7"/>
	<path class="st21" d="M86.8-2419.8c0,0-188.5-25.1-188.5,129.8s152.8,138.6,152.8,138.6"/>
	<path class="st22" d="M295.4-2082h-66.1c-9.7,0-17.5-7.9-17.5-17.5v-46.7c0-9.7,7.9-17.5,17.5-17.5h66.1c9.7,0,17.5,7.9,17.5,17.5
		v46.7C313-2089.9,305.1-2082,295.4-2082z"/>
	<path class="st23" d="M225.9-2158.6c0,0-4.1-50.1,36.5-50.1s36.8,50.1,36.8,50.1H225.9z"/>
	<circle class="st24" cx="430.6" cy="-2575.5" r="20.1"/>
	<circle class="st25" cx="380.9" cy="-2566.7" r="12.8"/>
</g>
<g>
	<path class="st26" d="M2089.9-1453.6c-27.1,0-49.2,22.1-49.2,49.2c0,27.1,22.1,49.2,49.2,49.2s49.2-22.1,49.2-49.2
		C2139.1-1431.5,2117-1453.6,2089.9-1453.6z M2089.9-1377c-15.1,0-27.3-12.3-27.3-27.3s12.3-27.3,27.3-27.3s27.3,12.3,27.3,27.3
		S2105-1377,2089.9-1377z"/>
	<circle class="st26" cx="2521.7" cy="-1420.8" r="10.9"/>
	<circle class="st26" cx="2478" cy="-1420.8" r="10.9"/>
	<circle class="st26" cx="2543.5" cy="-1388" r="10.9"/>
	<circle class="st26" cx="2499.8" cy="-1388" r="10.9"/>
	<circle class="st26" cx="2434.2" cy="-1420.8" r="10.9"/>
	<circle class="st26" cx="2456.1" cy="-1388" r="10.9"/>
	<circle class="st26" cx="2390.5" cy="-1420.8" r="10.9"/>
	<circle class="st26" cx="2412.4" cy="-1388" r="10.9"/>
	<circle class="st26" cx="2346.8" cy="-1420.8" r="10.9"/>
	<circle class="st26" cx="2368.6" cy="-1388" r="10.9"/>
	<path class="st26" d="M2089.9-1245.9c-27.1,0-49.2,22.1-49.2,49.2c0,27.1,22.1,49.2,49.2,49.2s49.2-22.1,49.2-49.2
		C2139.1-1223.8,2117-1245.9,2089.9-1245.9z M2089.9-1169.3c-15.1,0-27.3-12.3-27.3-27.3s12.3-27.3,27.3-27.3s27.3,12.3,27.3,27.3
		S2105-1169.3,2089.9-1169.3z"/>
	<path class="st26" d="M2089.9-1038.2c-27.1,0-49.2,22.1-49.2,49.2s22.1,49.2,49.2,49.2s49.2-22.1,49.2-49.2
		S2117-1038.2,2089.9-1038.2z M2089.9-961.7c-15.1,0-27.3-12.3-27.3-27.3c0-15.1,12.3-27.3,27.3-27.3s27.3,12.3,27.3,27.3
		C2117.2-973.9,2105-961.7,2089.9-961.7z"/>
	<path class="st26" d="M2631-1340v-128.8c0-27.8-22.6-50.4-50.4-50.4h-555.1c-27.8,0-50.4,22.6-50.4,50.4v128.8
		c0,16.1,7.7,30.2,19.4,39.4c-11.7,9.2-19.4,23.4-19.4,39.5v128.8c0,16.1,7.7,30.2,19.4,39.4c-11.7,9.2-19.4,23.4-19.4,39.5v128.8
		c0,27.8,22.6,50.4,50.4,50.4h304.7c29.3,5.4,61.5,8.2,93.1,8.2c94.8,0,194.8-24.6,206.5-71.6c0.7-1.5,1.1-3.1,1.1-4.9v-98.4v-4.1
		v-4.1v-90.2v-4.1v-4.1v-94.3v-4.1c0-1.6-0.4-3.2-1-4.5c-3.8-16-18-29.5-38.9-40.3C2613.8-1295.5,2631-1315.8,2631-1340z
		 M1997-1132.3v-128.8c0-15.7,12.8-28.5,28.5-28.5h228c-19.8,10.6-33.2,23.7-36.9,39.2c-0.6,1.4-1,2.9-1,4.5v4.1v94.3v4.1v4.1v35.5
		h-190.1C2009.8-1103.8,1997-1116.5,1997-1132.3z M2244.3-1199.4c0.5,0.3,1,0.6,1.5,1c1.9,1.2,3.9,2.4,6,3.5c0.6,0.3,1.2,0.7,1.8,1
		c2.5,1.4,5.2,2.7,7.9,4c0.4,0.2,0.9,0.4,1.3,0.6c2.4,1.1,4.9,2.2,7.5,3.2c0.8,0.3,1.5,0.6,2.3,0.9c3,1.2,6.1,2.3,9.3,3.4
		c0.2,0.1,0.3,0.1,0.5,0.2c3,1,6.2,2,9.3,3c0.9,0.3,1.7,0.5,2.6,0.8c3.1,0.9,6.3,1.8,9.6,2.7c0.3,0.1,0.5,0.1,0.8,0.2
		c3.5,0.9,7.1,1.7,10.8,2.6c0.9,0.2,1.8,0.4,2.8,0.6c3.1,0.7,6.3,1.3,9.5,1.9c0.6,0.1,1.3,0.3,1.9,0.4c3.7,0.7,7.5,1.3,11.4,2
		c0.9,0.1,1.8,0.3,2.7,0.4c3.2,0.5,6.4,1,9.6,1.4c0.9,0.1,1.8,0.2,2.7,0.3c3.9,0.5,7.8,1,11.8,1.4c0.8,0.1,1.6,0.2,2.4,0.2
		c3.3,0.3,6.7,0.6,10,0.9c1,0.1,2,0.2,3,0.2c4,0.3,8,0.6,12.1,0.8c0.6,0,1.1,0,1.7,0.1c3.6,0.2,7.1,0.3,10.7,0.4
		c1.1,0,2.1,0.1,3.2,0.1c4.1,0.1,8.2,0.2,12.2,0.2c4.1,0,8.1-0.1,12.2-0.2c1.1,0,2.1-0.1,3.2-0.1c3.6-0.1,7.1-0.2,10.7-0.4
		c0.6,0,1.1,0,1.7-0.1c4-0.2,8.1-0.5,12.1-0.8c1-0.1,2-0.2,3-0.2c3.4-0.3,6.7-0.6,10-0.9c0.8-0.1,1.6-0.2,2.4-0.2
		c4-0.4,7.9-0.9,11.8-1.4c0.9-0.1,1.8-0.2,2.7-0.3c3.2-0.4,6.4-0.9,9.6-1.4c0.9-0.1,1.8-0.3,2.7-0.4c3.8-0.6,7.6-1.3,11.4-2
		c0.6-0.1,1.3-0.3,1.9-0.4c3.2-0.6,6.4-1.3,9.5-1.9c0.9-0.2,1.8-0.4,2.8-0.6c3.6-0.8,7.2-1.7,10.8-2.6c0.3-0.1,0.5-0.1,0.8-0.2
		c3.3-0.8,6.5-1.7,9.6-2.7c0.9-0.3,1.7-0.5,2.6-0.8c3.2-1,6.3-2,9.3-3c0.2-0.1,0.3-0.1,0.5-0.2c3.2-1.1,6.3-2.3,9.3-3.4
		c0.8-0.3,1.5-0.6,2.3-0.9c2.6-1,5-2.1,7.5-3.2c0.4-0.2,0.9-0.4,1.3-0.6c2.8-1.3,5.4-2.6,7.9-4c0.6-0.3,1.2-0.7,1.8-1
		c2.1-1.1,4.1-2.3,6-3.5c0.5-0.3,1-0.6,1.5-1c2.3-1.5,4.4-3,6.4-4.5c0.1-0.1,0.3-0.2,0.4-0.3v54.5c-0.3,1.3-0.4,2.6-0.2,3.9
		c0.2,0.8,0.3,1.6,0.3,2.4c0,1.2-0.3,2.4-0.6,3.6c-0.2,0.9-0.5,1.9-0.9,2.8c-0.3,0.8-0.8,1.7-1.3,2.5c-0.5,0.8-1,1.7-1.6,2.5
		c-0.8,1.1-1.8,2.3-2.9,3.4c-0.4,0.4-0.8,0.9-1.2,1.3c-23.1,22.4-91.4,42.6-177.3,42.6c-85.8,0-154.1-20.2-177.3-42.6
		c-0.5-0.5-0.9-1-1.4-1.4c-1-1.1-2-2.2-2.8-3.3c-0.6-0.9-1.2-1.7-1.7-2.6c-0.4-0.8-0.9-1.6-1.2-2.3c-0.4-1-0.7-2-1-3
		c-0.3-1.2-0.6-2.4-0.6-3.6c0-0.8,0.1-1.6,0.2-2.3c0.2-1.4,0.1-2.8-0.2-4.2v-54.3c0.1,0.1,0.3,0.2,0.4,0.3
		C2239.9-1202.3,2242-1200.8,2244.3-1199.4z M2607.6-1038.5c-0.3,0.8-0.8,1.7-1.3,2.5c-0.5,0.8-1,1.7-1.6,2.5
		c-0.8,1.1-1.8,2.3-2.9,3.4c-0.4,0.4-0.8,0.9-1.2,1.3c-23.1,22.4-91.4,42.6-177.3,42.6c-85.8,0-154.1-20.2-177.3-42.6
		c-0.5-0.5-0.9-1-1.4-1.4c-1-1.1-2-2.2-2.8-3.3c-0.6-0.9-1.2-1.7-1.7-2.6c-0.4-0.8-0.9-1.6-1.2-2.3c-0.4-1-0.7-2-1-3
		c-0.3-1-0.5-2.1-0.5-3.1v-1.3c0-0.5,0.1-1,0.1-1.5c0.2-0.9-0.1-1.9-0.2-2.8l-0.1-53.6v-2c0.4,0.3,1,0.7,1.4,1c1.4,1,2.8,2,4.3,3
		c1.2,0.8,2.4,1.6,3.7,2.4c2,1.2,3.9,2.4,6,3.5c0,0,0,0,0.1,0c22.8,12.4,54.2,21.4,88.8,26.8c0.3,0,0.5,0.1,0.8,0.1
		c11.2,1.7,22.7,3.1,34.3,4.1c2.5,0.2,5,0.4,7.5,0.6c2.4,0.2,4.9,0.3,7.3,0.5c3.3,0.2,6.6,0.3,9.9,0.5c1.9,0.1,3.8,0.2,5.8,0.2
		c5.3,0.2,10.6,0.3,15.9,0.3c5.3,0,10.6-0.1,15.9-0.3c1.9-0.1,3.9-0.1,5.8-0.2c3.3-0.1,6.5-0.3,9.8-0.5c2.5-0.1,4.9-0.3,7.4-0.5
		c2.5-0.2,4.9-0.4,7.3-0.6c11.8-1,23.4-2.4,34.7-4.1c0.2,0,0.3-0.1,0.5-0.1c37.9-5.9,71.8-16.1,94.9-30.4c1.3-0.8,2.5-1.6,3.7-2.4
		c1.5-1,2.9-2,4.3-3c0.5-0.4,1-0.7,1.5-1.1v54.5c-0.3,1.3-0.4,2.6-0.2,3.9c0.1,0.8,0.2,1.6,0.2,2.4c0,1.2-0.3,2.4-0.6,3.6
		C2608.3-1040.4,2608-1039.5,2607.6-1038.5z M2025.5-896.1c-15.7,0-28.5-12.8-28.5-28.5v-128.8c0-15.7,12.8-28.5,28.5-28.5h190.1
		v32.8v4.1v4.1v98.4v10.9h3.2c0.2,0.4,0.4,0.8,0.6,1.2c0.4,0.8,0.8,1.6,1.2,2.4c0.9,1.6,1.9,3.2,3,4.8c1.1,1.6,2.4,3.1,3.7,4.6
		c0.7,0.8,1.4,1.5,2.1,2.3c4.2,4.3,9.2,8.4,15,12.1c0.2,0.1,0.4,0.3,0.6,0.4c4.2,2.7,8.7,5.3,13.6,7.7L2025.5-896.1L2025.5-896.1z
		 M2609.1-945.3c-0.1,0.3-0.2,0.7-0.2,1c-4.5,27.3-80.1,56.4-185.6,56.4c-33.7,0-64.2-3-90.5-7.9l0-0.1
		c-54.4-10.3-84.4-27.7-92.9-42.3c0,0,0,0,0,0c-0.4-0.7-0.7-1.3-1-2c-0.6-1.4-1.1-2.7-1.3-4.1l-0.1-63c0.4,0.3,0.9,0.6,1.3,0.9
		c1.4,1,2.8,2,4.3,3c1.2,0.8,2.4,1.6,3.7,2.4c2,1.2,3.9,2.4,6,3.5c0,0,0,0,0.1,0c22.8,12.4,54.2,21.4,88.8,26.8
		c0.3,0,0.5,0.1,0.8,0.1c11.2,1.7,22.7,3.1,34.3,4.1c2.5,0.2,5,0.4,7.5,0.6c2.4,0.2,4.9,0.3,7.3,0.5c3.3,0.2,6.6,0.3,9.9,0.5
		c1.9,0.1,3.8,0.2,5.8,0.2c5.3,0.2,10.6,0.3,15.9,0.3c5.3,0,10.6-0.1,15.9-0.3c1.9-0.1,3.9-0.1,5.8-0.2c3.3-0.1,6.5-0.3,9.8-0.5
		c2.5-0.1,4.9-0.3,7.4-0.5c2.5-0.2,4.9-0.4,7.3-0.6c11.8-1,23.4-2.4,34.7-4.1c0.2,0,0.3-0.1,0.5-0.1c37.9-5.9,71.8-16.1,94.9-30.4
		c1.3-0.8,2.5-1.6,3.7-2.4c1.5-1,2.9-2,4.3-3c0.5-0.4,1-0.7,1.5-1.1L2609.1-945.3L2609.1-945.3z M2609.1-1241.8
		c0,27.7-79.5,58.8-185.8,58.8c-106.4,0-185.8-31-185.8-58.8c0-1.4,0.3-2.8,0.7-4.2c0.4-1.4,1-2.9,1.9-4.3c0-0.1,0.1-0.1,0.1-0.2
		c3.6-6.1,11-12.6,22.3-18.9c0.5-0.3,1-0.5,1.5-0.8c1.9-1,4-2.1,6.1-3.1c2.5-1.2,5.1-2.3,7.8-3.5c0.5-0.2,1.1-0.4,1.7-0.7
		c12.7-5.1,28-9.6,45.2-13.2c5.4-1.1,10.9-2.2,16.5-3.1c1.5-0.3,3-0.5,4.5-0.8c48.9-7.5,106-7.5,155,0c1.5,0.2,3,0.5,4.5,0.8
		c5.6,0.9,11.1,2,16.4,3.1C2575-1279.4,2609.1-1259.9,2609.1-1241.8z M2609.1-1340c0,15.7-12.8,28.5-28.5,28.5H2530
		c-0.6-0.1-1.3-0.2-2-0.4c-7.2-1.6-14.5-2.9-22.1-4.1c-0.7-0.1-1.5-0.2-2.2-0.3c-25.8-4-53.4-6.1-80.5-6.1s-54.6,2.1-80.4,6.1
		c-0.8,0.1-1.5,0.2-2.3,0.3c-7.5,1.2-14.9,2.6-22,4.1c-0.6,0.1-1.4,0.2-2,0.4h-291.1c-15.7,0-28.5-12.8-28.5-28.5v-128.8
		c0-15.7,12.8-28.5,28.5-28.5h555.1c15.7,0,28.5,12.8,28.5,28.5V-1340z"/>
</g>
<path class="st27" d="M26,27.9v2.5c0,0.3-0.4,0.5-0.6,0.3l-5.3-5.3c-0.2-0.2-0.1-0.5,0.2-0.5h15.1v-15H21.8
	C12.3,9.7,4.6,17.4,4.6,27l0,0c0,9.5,7.7,17.2,17.2,17.2h13.6V27.9H26z"/>
<image style="overflow:visible;" width="967" height="466" xlink:href="../../../../Users/robin/Desktop/ახალი ლოგო (PNG) NEW.png"  transform="matrix(8.635192e-02 0 0 8.635192e-02 2.7477 7.255)">
</image>
</svg>
