<?xml version="1.0" encoding="utf-8"?>
<!-- Generator: Adobe Illustrator 22.1.0, SVG Export Plug-In . SVG Version: 6.00 Build 0)  -->
<svg version="1.1" id="Layer_1" xmlns="http://www.w3.org/2000/svg" xmlns:xlink="http://www.w3.org/1999/xlink" x="0px" y="0px"
	 viewBox="0 0 2087 1125" style="enable-background:new 0 0 2087 1125;" xml:space="preserve">
<style type="text/css">
	.st0{fill:none;stroke:#4285F4;stroke-width:20;stroke-miterlimit:10;}
	.st1{fill:#4285F4;}
	.st2{fill:none;stroke:#4285F4;stroke-width:20;stroke-linejoin:round;stroke-miterlimit:10;}
	.st3{fill:none;stroke:#4285F4;stroke-width:20;stroke-linecap:round;stroke-miterlimit:10;}
	.st4{fill:#FFFFFF;stroke:#4285F4;stroke-width:9;stroke-miterlimit:10;}
	.st5{fill:none;stroke:#FFFFFF;stroke-width:10;stroke-linecap:round;stroke-linejoin:round;stroke-miterlimit:10;}
	.st6{fill:none;stroke:#4285F4;stroke-width:10;stroke-miterlimit:10;}
	.st7{fill:none;stroke:#4285F4;stroke-width:4;stroke-miterlimit:10;}
	.st8{fill:none;stroke:#4285F4;stroke-width:9;stroke-miterlimit:10;}
	.st9{fill:#4285F4;stroke:#4285F4;stroke-miterlimit:10;}
	.st10{fill:#FFFFFF;stroke:#FFFFFF;stroke-miterlimit:10;}
	.st11{fill:none;stroke:#4285F4;stroke-width:7;stroke-miterlimit:10;}
	.st12{opacity:0.4;fill:#4285F4;}
	.st13{fill:#3A76CC;}
	.st14{fill:none;stroke:#4285F4;stroke-width:12;stroke-miterlimit:10;}
	.st15{opacity:0.33;fill:#4285F4;}
	.st16{fill:none;stroke:#4285F4;stroke-width:11;stroke-miterlimit:10;}
	.st17{fill:none;stroke:#4285F4;stroke-width:11;stroke-linejoin:round;stroke-miterlimit:10;}
	.st18{fill:none;stroke:#4285F4;stroke-width:15;stroke-miterlimit:10;}
	.st19{fill:none;stroke:#4285F4;stroke-width:6;stroke-miterlimit:10;}
	.st20{fill:none;stroke:#4285F4;stroke-width:5;stroke-miterlimit:10;}
	.st21{fill:none;stroke:#4285F4;stroke-width:23;stroke-linecap:round;stroke-linejoin:round;stroke-miterlimit:10;}
	.st22{fill:none;stroke:#4285F4;stroke-width:16;stroke-linecap:round;stroke-linejoin:round;stroke-miterlimit:10;}
	.st23{fill:#3164AD;}
	.st24{fill:none;stroke:#3164AD;stroke-width:13;stroke-miterlimit:10;}
	.st25{fill:none;stroke:#4285F4;stroke-width:7;stroke-linecap:round;stroke-linejoin:round;stroke-miterlimit:10;}
	.st26{fill:none;stroke:#4285F4;stroke-width:4;stroke-linecap:round;stroke-linejoin:round;stroke-miterlimit:10;}
	.st27{fill:#006DF0;}
</style>
<g>
	<path class="st0" d="M1174.6-1728.4c0,10.8-8.8,19.6-19.6,19.6H868.3H624.3c-10.8,0-19.6-8.8-19.6-19.6v-347.8
		c0-10.8,8.8-19.6,19.6-19.6h530.7c10.8,0,19.6,8.8,19.6,19.6V-1728.4z"/>
	<path class="st0" d="M1127-1766.5c0,8.5-7.3,15.3-16.3,15.3H871.9H668.7c-9,0-16.3-6.9-16.3-15.3v-271.7c0-8.5,7.3-15.3,16.3-15.3
		h442c9,0,16.3,6.9,16.3,15.3V-1766.5z"/>
	<polyline class="st0" points="856.9,-1708.9 856.9,-1620.5 906.3,-1620.5 906.3,-1708.9 	"/>
	<line class="st0" x1="848.5" y1="-1620.5" x2="734.8" y2="-1620.5"/>
	<line class="st0" x1="1038.9" y1="-1620.5" x2="916.3" y2="-1620.5"/>
</g>
<g>
	<g>
		<path class="st1" d="M1125.2-1541.1l40.6,132.4l-552.6-1.8l40.8-130.6H1125.2 M1134.7-1561.1H644.4c-3.2,0-6,2.3-6.9,5.6
			L589.2-1401c-1.5,5.2,2,10.4,6.9,10.4l586.5,1.9c4.9,0,8.4-5.2,7-10.4l-48-156.5C1140.7-1558.9,1137.9-1561.1,1134.7-1561.1
			L1134.7-1561.1z"/>
	</g>
	<polyline class="st2" points="603.3,-1404 603.3,-1357.3 1174.8,-1357.3 1174.8,-1404 	"/>
	<g>
		<path class="st1" d="M1096.2-1492l10.3,36.7H673.6l12.7-36.7H1096.2 M1102.8-1512H680.2c-4.8,0-9.2,3.1-10.7,7.6l-18.7,54
			c-2.6,7.4,2.9,15.1,10.7,15.1h456.4c7.5,0,13-7.2,10.9-14.4l-15.1-54C1112.3-1508.6,1107.8-1512,1102.8-1512L1102.8-1512z"/>
	</g>
</g>
<path class="st0" d="M1488.7-1626.7h-229c-5.2,0-9.5-4.3-9.5-9.5v-452c0-5.2,4.3-9.5,9.5-9.5h229c5.2,0,9.5,4.3,9.5,9.5v452
	C1498.2-1630.9,1493.9-1626.7,1488.7-1626.7z"/>
<line class="st3" x1="1299.5" y1="-2061" x2="1448.8" y2="-2061"/>
<line class="st3" x1="1299.5" y1="-2021" x2="1448.8" y2="-2021"/>
<line class="st3" x1="1299.5" y1="-1981" x2="1448.8" y2="-1981"/>
<line class="st3" x1="1299.5" y1="-1704.4" x2="1448.8" y2="-1704.4"/>
<line class="st3" x1="1299.5" y1="-1664.4" x2="1448.8" y2="-1664.4"/>
<path class="st3" d="M1438.9-1849.2h-15.3c-10.1,0-18.3-8.2-18.3-18.3v-15.3c0-10.1,8.2-18.3,18.3-18.3h15.3
	c10.1,0,18.3,8.2,18.3,18.3v15.3C1457.3-1857.4,1449.1-1849.2,1438.9-1849.2z"/>
<path class="st3" d="M1250.2-1680.7c0,0-57,34-32,77c16.6,19.4,57,25.1,63.2,25.9c0.5,0.1,1,0.1,1.5,0.1c7.3,0,71.5,0.9,91.3,48"/>
<ellipse transform="matrix(0.908 -0.4189 0.4189 0.908 734.1941 449.3845)" class="st3" cx="1390.5" cy="-1447.3" rx="59.7" ry="76"/>
<line class="st3" x1="1330.1" y1="-1439.9" x2="1441.8" y2="-1477.9"/>
<line class="st3" x1="1366.8" y1="-1519.1" x2="1386" y2="-1458.9"/>
<line class="st4" x1="1366.8" y1="-1519.1" x2="1386" y2="-1458.9"/>
<line class="st5" x1="1373.3" y1="-1498" x2="1380" y2="-1477.1"/>
<path class="st0" d="M3555.9-1340.6H2741c-13.8,0-25-11.2-25-25v-723.9c0-13.8,11.2-25,25-25h814.8c13.8,0,25,11.2,25,25v723.9
	C3580.9-1351.8,3569.7-1340.6,3555.9-1340.6z"/>
<path class="st0" d="M2716.1-1967.2"/>
<rect x="2716.1" y="-1915.4" class="st0" width="864.8" height="375.8"/>
<g>
	<polyline class="st6" points="2915.5,-2078.9 2898.4,-2078.9 2886.5,-2062.5 2886.5,-2027.3 2944.4,-2027.3 2944.4,-2062.5 
		2932.5,-2078.9 2915.5,-2078.9 	"/>
	<line class="st7" x1="2896.7" y1="-2027.3" x2="2896.7" y2="-2047.4"/>
	<line class="st7" x1="2905.7" y1="-2027.3" x2="2905.7" y2="-2047.4"/>
	<line class="st7" x1="2914.6" y1="-2027.3" x2="2914.6" y2="-2047.4"/>
	<line class="st7" x1="2923.5" y1="-2027.3" x2="2923.5" y2="-2047.4"/>
	<line class="st7" x1="2932.4" y1="-2027.3" x2="2932.4" y2="-2047.4"/>
</g>
<g>
	<polyline class="st6" points="2823.9,-2078.9 2806.9,-2078.9 2794.9,-2062.5 2794.9,-2027.3 2852.8,-2027.3 2852.8,-2062.5 
		2840.9,-2078.9 2823.9,-2078.9 	"/>
	<line class="st7" x1="2805.1" y1="-2027.3" x2="2805.1" y2="-2047.4"/>
	<line class="st7" x1="2814.1" y1="-2027.3" x2="2814.1" y2="-2047.4"/>
	<line class="st7" x1="2823" y1="-2027.3" x2="2823" y2="-2047.4"/>
	<line class="st7" x1="2831.9" y1="-2027.3" x2="2831.9" y2="-2047.4"/>
	<line class="st7" x1="2840.8" y1="-2027.3" x2="2840.8" y2="-2047.4"/>
</g>
<g>
	<polyline class="st6" points="2915.3,-1996.8 2898.2,-1996.8 2886.3,-1980.4 2886.3,-1945.3 2944.2,-1945.3 2944.2,-1980.4 
		2932.3,-1996.8 2915.3,-1996.8 	"/>
	<line class="st7" x1="2896.5" y1="-1945.3" x2="2896.5" y2="-1965.4"/>
	<line class="st7" x1="2905.4" y1="-1945.3" x2="2905.4" y2="-1965.4"/>
	<line class="st7" x1="2914.4" y1="-1945.3" x2="2914.4" y2="-1965.4"/>
	<line class="st7" x1="2923.3" y1="-1945.3" x2="2923.3" y2="-1965.4"/>
	<line class="st7" x1="2932.2" y1="-1945.3" x2="2932.2" y2="-1965.4"/>
</g>
<g>
	<polyline class="st6" points="2823.5,-1996.8 2806.5,-1996.8 2794.6,-1980.4 2794.6,-1945.3 2852.5,-1945.3 2852.5,-1980.4 
		2840.5,-1996.8 2823.5,-1996.8 	"/>
	<line class="st7" x1="2804.8" y1="-1945.3" x2="2804.8" y2="-1965.4"/>
	<line class="st7" x1="2813.7" y1="-1945.3" x2="2813.7" y2="-1965.4"/>
	<line class="st7" x1="2822.6" y1="-1945.3" x2="2822.6" y2="-1965.4"/>
	<line class="st7" x1="2831.5" y1="-1945.3" x2="2831.5" y2="-1965.4"/>
	<line class="st7" x1="2840.5" y1="-1945.3" x2="2840.5" y2="-1965.4"/>
</g>
<g>
	<polyline class="st6" points="3006.5,-2078.9 2989.4,-2078.9 2977.5,-2062.5 2977.5,-2027.3 3035.4,-2027.3 3035.4,-2062.5 
		3023.5,-2078.9 3006.5,-2078.9 	"/>
	<line class="st7" x1="2987.7" y1="-2027.3" x2="2987.7" y2="-2047.4"/>
	<line class="st7" x1="2996.7" y1="-2027.3" x2="2996.7" y2="-2047.4"/>
	<line class="st7" x1="3005.6" y1="-2027.3" x2="3005.6" y2="-2047.4"/>
	<line class="st7" x1="3014.5" y1="-2027.3" x2="3014.5" y2="-2047.4"/>
	<line class="st7" x1="3023.4" y1="-2027.3" x2="3023.4" y2="-2047.4"/>
</g>
<g>
	<polyline class="st6" points="3006.3,-1996.8 2989.2,-1996.8 2977.3,-1980.4 2977.3,-1945.3 3035.2,-1945.3 3035.2,-1980.4 
		3023.3,-1996.8 3006.3,-1996.8 	"/>
	<line class="st7" x1="2987.5" y1="-1945.3" x2="2987.5" y2="-1965.4"/>
	<line class="st7" x1="2996.4" y1="-1945.3" x2="2996.4" y2="-1965.4"/>
	<line class="st7" x1="3005.4" y1="-1945.3" x2="3005.4" y2="-1965.4"/>
	<line class="st7" x1="3014.3" y1="-1945.3" x2="3014.3" y2="-1965.4"/>
	<line class="st7" x1="3023.2" y1="-1945.3" x2="3023.2" y2="-1965.4"/>
</g>
<g>
	<polyline class="st6" points="3097.5,-2078.9 3080.4,-2078.9 3068.5,-2062.5 3068.5,-2027.3 3126.4,-2027.3 3126.4,-2062.5 
		3114.5,-2078.9 3097.5,-2078.9 	"/>
	<line class="st7" x1="3078.7" y1="-2027.3" x2="3078.7" y2="-2047.4"/>
	<line class="st7" x1="3087.7" y1="-2027.3" x2="3087.7" y2="-2047.4"/>
	<line class="st7" x1="3096.6" y1="-2027.3" x2="3096.6" y2="-2047.4"/>
	<line class="st7" x1="3105.5" y1="-2027.3" x2="3105.5" y2="-2047.4"/>
	<line class="st7" x1="3114.4" y1="-2027.3" x2="3114.4" y2="-2047.4"/>
</g>
<g>
	<polyline class="st6" points="3097.3,-1996.8 3080.2,-1996.8 3068.3,-1980.4 3068.3,-1945.3 3126.2,-1945.3 3126.2,-1980.4 
		3114.3,-1996.8 3097.3,-1996.8 	"/>
	<line class="st7" x1="3078.5" y1="-1945.3" x2="3078.5" y2="-1965.4"/>
	<line class="st7" x1="3087.4" y1="-1945.3" x2="3087.4" y2="-1965.4"/>
	<line class="st7" x1="3096.4" y1="-1945.3" x2="3096.4" y2="-1965.4"/>
	<line class="st7" x1="3105.3" y1="-1945.3" x2="3105.3" y2="-1965.4"/>
	<line class="st7" x1="3114.2" y1="-1945.3" x2="3114.2" y2="-1965.4"/>
</g>
<line class="st8" x1="2716.1" y1="-2010.5" x2="3580.9" y2="-2010.5"/>
<line class="st8" x1="2870.1" y1="-2114.4" x2="2870.1" y2="-1915.4"/>
<line class="st8" x1="2961.1" y1="-2110" x2="2961.1" y2="-1911"/>
<line class="st8" x1="3052.1" y1="-2105.5" x2="3052.1" y2="-1906.5"/>
<line class="st8" x1="3143.1" y1="-2112.3" x2="3143.1" y2="-1913.3"/>
<rect x="3373.6" y="-1972.7" class="st9" width="158" height="30.9"/>
<rect x="3181" y="-1972.7" class="st9" width="158" height="30.9"/>
<g>
	<rect x="3459.1" y="-2084.6" class="st9" width="72.5" height="59.7"/>
	<rect x="3478" y="-2069" class="st10" width="34.6" height="28.5"/>
</g>
<line class="st4" x1="3301.8" y1="-2010.5" x2="3391.9" y2="-2111.8"/>
<g>
	<path class="st1" d="M2918.8-1904.3v167.8h-93.4v-167.8H2918.8 M2927.8-1913.3h-111.4v185.8h111.4V-1913.3L2927.8-1913.3z"/>
</g>
<g>
	<path class="st1" d="M2821.1-1904.3v167.8h-93.4v-167.8H2821.1 M2830.1-1913.3h-111.4v185.8h111.4V-1913.3L2830.1-1913.3z"/>
</g>
<g>
	<path class="st1" d="M3027.4-1904.3v167.8H2934v-167.8H3027.4 M3036.4-1913.3H2925v185.8h111.4V-1913.3L3036.4-1913.3z"/>
</g>
<g>
	<path class="st1" d="M3136.1-1904.3v167.8h-93.4v-167.8H3136.1 M3145.1-1913.3h-111.4v185.8h111.4V-1913.3L3145.1-1913.3z"/>
</g>
<g>
	<path class="st1" d="M3244.8-1904.3v167.8h-93.4v-167.8H3244.8 M3253.8-1913.3h-111.4v185.8h111.4V-1913.3L3253.8-1913.3z"/>
</g>
<g>
	<path class="st1" d="M3353.4-1904.3v167.8H3260v-167.8H3353.4 M3362.4-1913.3H3251v185.8h111.4V-1913.3L3362.4-1913.3z"/>
</g>
<g>
	<path class="st1" d="M3462.1-1904.3v167.8h-93.4v-167.8H3462.1 M3471.1-1913.3h-111.4v185.8h111.4V-1913.3L3471.1-1913.3z"/>
</g>
<g>
	<path class="st1" d="M3570.7-1904.3v167.8h-93.4v-167.8H3570.7 M3579.7-1913.3h-111.4v185.8h111.4V-1913.3L3579.7-1913.3z"/>
</g>
<rect x="2743.7" y="-1878.7" class="st11" width="60.4" height="41.2"/>
<rect x="2841.3" y="-1878.7" class="st11" width="60.4" height="41.2"/>
<rect x="2950.5" y="-1878.7" class="st11" width="60.4" height="41.2"/>
<rect x="3059.7" y="-1878.7" class="st11" width="60.4" height="41.2"/>
<rect x="3168.9" y="-1878.7" class="st11" width="60.4" height="41.2"/>
<rect x="3275.9" y="-1878.7" class="st11" width="60.4" height="41.2"/>
<g>
	<rect x="3384.6" y="-1878.7" class="st11" width="60.4" height="41.2"/>
</g>
<g>
	<rect x="3493.3" y="-1878.7" class="st11" width="60.4" height="41.2"/>
</g>
<g>
	<path class="st1" d="M2918.8-1719.7v165.2h-93.6v-165.2H2918.8 M2927.8-1728.7h-111.6v183.2h111.6V-1728.7L2927.8-1728.7z"/>
</g>
<g>
	<path class="st1" d="M2821-1719.7v165.2h-93.6v-165.2H2821 M2830-1728.7h-111.6v183.2H2830V-1728.7L2830-1728.7z"/>
</g>
<g>
	<path class="st1" d="M3027.6-1719.7v165.2H2934v-165.2H3027.6 M3036.6-1728.7H2925v183.2h111.6V-1728.7L3036.6-1728.7z"/>
</g>
<g>
	<path class="st1" d="M3136.5-1719.7v165.2h-93.6v-165.2H3136.5 M3145.5-1728.7h-111.6v183.2h111.6V-1728.7L3145.5-1728.7z"/>
</g>
<g>
	<path class="st1" d="M3245.3-1719.7v165.2h-93.6v-165.2H3245.3 M3254.3-1728.7h-111.6v183.2h111.6V-1728.7L3254.3-1728.7z"/>
</g>
<g>
	<path class="st1" d="M3354.2-1719.7v165.2h-93.6v-165.2H3354.2 M3363.2-1728.7h-111.6v183.2h111.6V-1728.7L3363.2-1728.7z"/>
</g>
<g>
	<path class="st1" d="M3463-1719.7v165.2h-93.6v-165.2H3463 M3472-1728.7h-111.6v183.2H3472V-1728.7L3472-1728.7z"/>
</g>
<g>
	<path class="st1" d="M3571.8-1719.7v165.2h-93.6v-165.2H3571.8 M3580.8-1728.7h-111.6v183.2h111.6V-1728.7L3580.8-1728.7z"/>
</g>
<rect x="2741.5" y="-1703.4" class="st11" width="60.5" height="41.2"/>
<rect x="2839.2" y="-1703.4" class="st11" width="60.5" height="41.2"/>
<rect x="2948.6" y="-1703.4" class="st11" width="60.5" height="41.2"/>
<rect x="3058" y="-1703.4" class="st11" width="60.5" height="41.2"/>
<rect x="3167.4" y="-1703.4" class="st11" width="60.5" height="41.2"/>
<rect x="3274.6" y="-1703.4" class="st11" width="60.5" height="41.2"/>
<g>
	<rect x="3383.5" y="-1703.4" class="st11" width="60.5" height="41.2"/>
</g>
<g>
	<rect x="3492.3" y="-1703.4" class="st11" width="60.5" height="41.2"/>
</g>
<rect x="2778" y="-1489.1" class="st11" width="214" height="104.6"/>
<rect x="3032.7" y="-1492.4" class="st11" width="214" height="104.6"/>
<rect x="3287.4" y="-1495.7" class="st11" width="214" height="104.6"/>
<g>
	<g>
		<path class="st0" d="M1437.9-234.5H649.1c-21,0-38-17-38-38V-557c0-21,17-38,38-38h788.9c21,0,38,17,38,38v284.5
			C1475.9-251.5,1458.9-234.5,1437.9-234.5z"/>
		<path class="st0" d="M868-725"/>
		<g>
			<path class="st1" d="M867-735h-53.5c-4.1,0-8.1,1.3-11.3,3.8l-182,135.4l11.9,16L813.9-715H867V-735z"/>
			<path class="st1" d="M1284.1-731.2c-3.3-2.4-7.3-3.8-11.3-3.8H1224v20h48.4l181.7,135.2l11.9-16L1284.1-731.2z"/>
		</g>
	</g>
	<path class="st11" d="M1223.2-675c6.1,0,13.4,5.1,16.2,11.5l3.2,7.3c3,6.8,0.1,12.5-6.5,12.5H854.9c-6.6,0-9.5-5.7-6.5-12.5
		l3.2-7.3c2.8-6.4,10.1-11.5,16.2-11.5"/>
	<polygon class="st1" points="1220.5,-852.7 1220.5,-647.1 870.5,-647.1 870.5,-923.5 1139.7,-923.5 1139.7,-930.5 863.5,-930.5 
		863.5,-640.1 1227.5,-640.1 1227.5,-852.7 	"/>
	<rect x="989" y="-899" class="st1" width="113" height="18.5"/>
	<rect x="939.5" y="-862" class="st1" width="182.2" height="18.5"/>
	<rect x="939.5" y="-836.5" class="st1" width="136.5" height="18.5"/>
	<rect x="939.5" y="-807.5" class="st1" width="136.5" height="18.5"/>
	<rect x="939.5" y="-778.5" class="st1" width="212" height="18.5"/>
	<rect x="939.5" y="-749.5" class="st1" width="212" height="18.5"/>
	<rect x="939.5" y="-720.5" class="st1" width="212" height="18.5"/>
	<rect x="939.5" y="-691.5" class="st1" width="126.5" height="18.5"/>
	<polygon class="st1" points="1139.7,-930.5 1139.7,-852.7 1227.5,-852.7 	"/>
	<polygon class="st12" points="1139.7,-852.7 1221.8,-772.3 1221.8,-852.7 	"/>
	<circle class="st1" cx="1375" cy="-488" r="25.5"/>
	<circle class="st13" cx="1375" cy="-409" r="36"/>
	<rect x="761.7" y="-302.3" class="st14" width="563.7" height="67.8"/>
	<polygon class="st14" points="1267.5,-302.3 819.5,-302.3 761.7,-234.5 1325.3,-234.5 	"/>
</g>
<polygon class="st15" points="2718.2,-673.1 3031.7,-971.6 3253,-971.6 2717.8,-462 "/>
<path class="st0" d="M3545-196h-788.9c-21,0-38-17-38-38v-697.4c0-21,17-38,38-38H3545c21,0,38,17,38,38V-234
	C3582.9-213,3565.9-196,3545-196z"/>
<g>
	<path class="st16" d="M3435.9-817h-108.7c-6.6,0-12-5.4-12-12v-81.4c0-6.6,5.4-12,12-12h108.7c6.6,0,12,5.4,12,12v81.4
		C3447.9-822.4,3442.5-817,3435.9-817z"/>
	<polygon class="st17" points="3447.9,-869.7 3502,-923.8 3502,-817 	"/>
</g>
<line class="st17" x1="2718.1" y1="-475" x2="3582.9" y2="-475"/>
<circle class="st17" cx="3147.2" cy="-338.3" r="81"/>
<g id="call_1_">
	<path class="st1" d="M3162.3-359.7c-1-1.5-1.5-3.4-1-4.9c1.9-5.8,2.9-11.7,2.9-17.5c0-2.9,1.9-4.9,4.9-4.9h17
		c2.9,0,4.9,1.9,4.9,4.9c0,45.8-37,82.8-82.8,82.8c-2.9,0-4.9-1.9-4.9-4.9v-16.6c0-2.9,1.9-4.9,4.9-4.9c6.3,0,12.2-1,17.5-2.9
		c1.5-1,3.4-0.5,4.9,1l10.7,10.7c13.6-7.3,25.3-18.5,32.1-32.1L3162.3-359.7z"/>
</g>
<path class="st18" d="M3199.9-650.2c32.5-15.5,54.9-48.7,54.9-87c0-53.3-43.2-96.4-96.4-96.4s-96.4,43.2-96.4,96.4
	c0,38.7,22.8,72.1,55.8,87.5C2994.8-621.8,2976.8-475,2976.8-475h347.5C3324.3-475,3321.7-623.4,3199.9-650.2z"/>
<circle class="st7" cx="3413.8" cy="-898.5" r="11.8"/>
<text transform="matrix(0.7071 -0.7071 0.7071 0.7071 2843.7571 -616.6008)" style="opacity:0.55;fill:#4285F4; font-family:'MyriadPro-Regular'; font-size:146.5113px;">IPTEL</text>
<g>
	<path class="st0" d="M3436.1,620.7c0,10.8-8.8,19.6-19.6,19.6h-286.8h-243.9c-10.8,0-19.6-8.8-19.6-19.6V272.9
		c0-10.8,8.8-19.6,19.6-19.6h530.7c10.8,0,19.6,8.8,19.6,19.6V620.7z"/>
	<path class="st0" d="M3537.7,882.6c4.1,9.8-4.6,17.9-19.6,17.9h-397.3h-338c-15,0-23.7-8.1-19.6-17.9l98.2-232.7
		c2.3-5.4,12.8-9.6,23.7-9.6h530.7c10.8,0,21.4,4.3,23.7,9.6L3537.7,882.6z"/>
	<path class="st0" d="M3388.5,582.6c0,8.5-7.3,15.3-16.3,15.3h-238.8h-203.2c-9,0-16.3-6.9-16.3-15.3V310.9
		c0-8.5,7.3-15.3,16.3-15.3h442c9,0,16.3,6.9,16.3,15.3V582.6z"/>
	<polygon class="st19" points="3217.5,892.6 3089.6,892.6 3092.7,810.3 3214.2,810.3 	"/>
	<g>
		<polygon class="st20" points="2895,702.2 2865.3,702.2 2873.6,678.2 2902.4,678.2 		"/>
		<polygon class="st20" points="2940.5,702.2 2910.9,702.2 2917.8,678.2 2946.6,678.2 		"/>
		<polygon class="st20" points="2986.1,702.2 2956.4,702.2 2962,678.2 2990.9,678.2 		"/>
		<polygon class="st20" points="3031.6,702.2 3002,702.2 3006.3,678.2 3035.1,678.2 		"/>
		<polygon class="st20" points="3077.2,702.2 3047.5,702.2 3050.5,678.2 3079.3,678.2 		"/>
		<polygon class="st20" points="3122.7,702.2 3093,702.2 3094.7,678.2 3123.5,678.2 		"/>
		<polygon class="st20" points="3168.3,702.2 3138.6,702.2 3138.9,678.2 3167.8,678.2 		"/>
		<polygon class="st20" points="3213.8,702.2 3184.1,702.2 3183.2,678.2 3212,678.2 		"/>
		<polygon class="st20" points="3259.4,702.2 3229.7,702.2 3227.4,678.2 3256.2,678.2 		"/>
		<polygon class="st20" points="3304.9,702.2 3275.2,702.2 3271.6,678.2 3300.4,678.2 		"/>
		<polygon class="st20" points="3350.4,702.2 3320.8,702.2 3315.8,678.2 3344.6,678.2 		"/>
		<polygon class="st20" points="3396,702.2 3366.3,702.2 3360.1,678.2 3388.9,678.2 		"/>
		<polygon class="st20" points="3435.7,702.2 3406,702.2 3398.6,678.2 3427.4,678.2 		"/>
		<polygon class="st20" points="2883.1,740.7 2852.1,740.7 2861.1,714.4 2891.2,714.4 		"/>
		<polygon class="st20" points="2930.8,740.7 2899.7,740.7 2907.3,714.4 2937.4,714.4 		"/>
		<polygon class="st20" points="2978.4,740.7 2947.4,740.7 2953.6,714.4 2983.7,714.4 		"/>
		<polygon class="st20" points="3026.1,740.7 2995.1,740.7 2999.8,714.4 3029.9,714.4 		"/>
		<polygon class="st20" points="3073.8,740.7 3042.7,740.7 3046,714.4 3076.1,714.4 		"/>
		<polygon class="st20" points="3121.4,740.7 3090.4,740.7 3092.2,714.4 3122.3,714.4 		"/>
		<polygon class="st20" points="3169.1,740.7 3138,740.7 3138.4,714.4 3168.5,714.4 		"/>
		<polygon class="st20" points="3216.8,740.7 3185.7,740.7 3184.6,714.4 3214.7,714.4 		"/>
		<polygon class="st20" points="3264.4,740.7 3233.4,740.7 3230.9,714.4 3261,714.4 		"/>
		<polygon class="st20" points="3359.7,740.7 3281,740.7 3277.1,714.4 3353.4,714.4 		"/>
		<polygon class="st20" points="3407.4,740.7 3376.3,740.7 3369.5,714.4 3399.6,714.4 		"/>
		<polygon class="st20" points="3448.1,740.7 3417.1,740.7 3409,714.4 3439.1,714.4 		"/>
		<polygon class="st20" points="2870.8,780.7 2838.3,780.7 2848.2,751.9 2879.7,751.9 		"/>
		<polygon class="st20" points="2920.7,780.7 2888.2,780.7 2896.5,751.9 2928,751.9 		"/>
		<polygon class="st20" points="2970.5,780.7 2938,780.7 2944.8,751.9 2976.2,751.9 		"/>
		<polygon class="st20" points="3239.6,780.7 2987.9,780.7 2993.1,751.9 3236.8,751.9 		"/>
		<polygon class="st20" points="3319.5,780.7 3255.7,780.7 3252.4,751.9 3314.2,751.9 		"/>
		<polygon class="st20" points="3375.6,780.7 3343.2,780.7 3337.1,751.9 3368.5,751.9 		"/>
		<polygon class="st20" points="3419.2,780.7 3386.7,780.7 3379.3,751.9 3410.7,751.9 		"/>
		<polygon class="st20" points="3462.7,780.7 3430.2,780.7 3421.3,751.9 3452.8,751.9 		"/>
	</g>
</g>
<g>
	<circle class="st0" cx="722.5" cy="1710.7" r="42.5"/>
	<circle class="st0" cx="1372" cy="1710.7" r="42.5"/>
	<circle class="st0" cx="1126.5" cy="1489.8" r="34.5"/>
	<circle class="st0" cx="1097.5" cy="1582.3" r="29"/>
	<circle class="st0" cx="1199" cy="1861.6" r="29"/>
	<path class="st0" d="M722.5,1668.2c0,0,28-85.9,94.8-85.9s186.8,0,186.8,0"/>
	<path class="st0" d="M750.6,1742.6c0,0,3.6,80.5,80.5,80.5s172.9,0,172.9,0"/>
	<path class="st0" d="M852,1588.7c0,0,25.3-98.9,83.6-98.9s156.4,0,156.4,0"/>
	<path class="st0" d="M1372,1665.9c0,0-25.3-83.6-83.6-83.6s-156.4,0-156.4,0"/>
	<path class="st0" d="M926,1823.1c0,0,25.9-79.4,73.9-79.4c48.1,0,170.1,0,170.1,0"/>
	<path class="st0" d="M964,1823.1c0,0,7.1,38.6,38.6,38.6c31.4,0,167.4,0,167.4,0"/>
	<polygon class="st1" points="1000.3,1798.1 1025.3,1823.1 1000.3,1848.1 	"/>
	<polygon class="st1" points="1288,1886.9 1263,1861.9 1288,1836.9 	"/>
	<polygon class="st1" points="1170,1718.7 1195,1743.7 1170,1768.7 	"/>
	<polygon class="st1" points="1000.3,1557.3 1025.3,1582.3 1000.3,1607.3 	"/>
	<path class="st0" d="M1329.5,1710.7c0,0-3.5,33-22.4,33c-18.9,0-34.7,0-34.7,0"/>
	<circle class="st0" cx="1245.3" cy="1743.7" r="27.1"/>
	<path class="st0" d="M1372,1753.2v69.9c0,0,6.4,38.8-38.8,38.8s-45.2,0-45.2,0"/>
</g>
<g>
	<g>
		<path class="st0" d="M1327.8,885.8c0,8.1-6.6,14.7-14.7,14.7h-215.3H914.8c-8.1,0-14.7-6.6-14.7-14.7V624.7
			c0-8.1,6.6-14.7,14.7-14.7h398.4c8.1,0,14.7,6.6,14.7,14.7V885.8z"/>
		<path class="st0" d="M1292.1,857.3c0,6.3-5.5,11.5-12.2,11.5h-179.3H948.1c-6.8,0-12.2-5.1-12.2-11.5V653.3
			c0-6.3,5.5-11.5,12.2-11.5h331.8c6.8,0,12.2,5.1,12.2,11.5V857.3z"/>
	</g>
	<path class="st21" d="M1409.9,254.3v70.6c0,0,0.5,8.9-6.9,14.8c-7.4,5.9-15.5,4.8-15.5,4.8H1330"/>
	<path class="st21" d="M1168.4,224.5h301.8L1330,293.7v71.9h-281.2c0,0-103.3-5.9-103.3-70.6c0-74.7,116.6-70.6,116.6-70.6"/>
	<path class="st22" d="M1087.7,365.6v83.2c0,0,2.5,15.4-10,23c-12.5,7.7-28.5,7.7-28.5,7.7h-49v-34.8c0,0-7.5-17.2-32.4-17.2
		s-32.1,14.8-32.1,14.8v72c0,0,2.5,18.3,31.3,18.3c28.8,0,31.8-16.4,31.8-16.4l1.4-36.7"/>
	<path class="st22" d="M935.8,480.2c0,0-188.5-25.1-188.5,129.8s152.8,138.6,152.8,138.6"/>
	<path class="st23" d="M1144.4,818h-66.1c-9.7,0-17.5-7.9-17.5-17.5v-46.7c0-9.7,7.9-17.5,17.5-17.5h66.1c9.7,0,17.5,7.9,17.5,17.5
		v46.7C1162,810.1,1154.1,818,1144.4,818z"/>
	<path class="st24" d="M1074.9,741.4c0,0-4.1-50.1,36.5-50.1s36.8,50.1,36.8,50.1H1074.9z"/>
	<circle class="st25" cx="1279.6" cy="324.5" r="20.1"/>
	<circle class="st26" cx="1229.9" cy="333.3" r="12.8"/>
</g>
<g>
	<path class="st27" d="M2938.9,1446.4c-27.1,0-49.2,22.1-49.2,49.2c0,27.1,22.1,49.2,49.2,49.2s49.2-22.1,49.2-49.2
		C2988.1,1468.5,2966,1446.4,2938.9,1446.4z M2938.9,1523c-15.1,0-27.3-12.3-27.3-27.3s12.3-27.3,27.3-27.3s27.3,12.3,27.3,27.3
		S2954,1523,2938.9,1523z"/>
	<circle class="st27" cx="3370.7" cy="1479.2" r="10.9"/>
	<circle class="st27" cx="3327" cy="1479.2" r="10.9"/>
	<circle class="st27" cx="3392.5" cy="1512" r="10.9"/>
	<circle class="st27" cx="3348.8" cy="1512" r="10.9"/>
	<circle class="st27" cx="3283.2" cy="1479.2" r="10.9"/>
	<circle class="st27" cx="3305.1" cy="1512" r="10.9"/>
	<circle class="st27" cx="3239.5" cy="1479.2" r="10.9"/>
	<circle class="st27" cx="3261.4" cy="1512" r="10.9"/>
	<circle class="st27" cx="3195.8" cy="1479.2" r="10.9"/>
	<circle class="st27" cx="3217.6" cy="1512" r="10.9"/>
	<path class="st27" d="M2938.9,1654.1c-27.1,0-49.2,22.1-49.2,49.2c0,27.1,22.1,49.2,49.2,49.2s49.2-22.1,49.2-49.2
		C2988.1,1676.2,2966,1654.1,2938.9,1654.1z M2938.9,1730.7c-15.1,0-27.3-12.3-27.3-27.3s12.3-27.3,27.3-27.3s27.3,12.3,27.3,27.3
		S2954,1730.7,2938.9,1730.7z"/>
	<path class="st27" d="M2938.9,1861.8c-27.1,0-49.2,22.1-49.2,49.2c0,27.1,22.1,49.2,49.2,49.2s49.2-22.1,49.2-49.2
		C2988.1,1883.9,2966,1861.8,2938.9,1861.8z M2938.9,1938.3c-15.1,0-27.3-12.3-27.3-27.3c0-15.1,12.3-27.3,27.3-27.3
		s27.3,12.3,27.3,27.3C2966.2,1926.1,2954,1938.3,2938.9,1938.3z"/>
	<path class="st27" d="M3480,1560v-128.8c0-27.8-22.6-50.4-50.4-50.4h-555.1c-27.8,0-50.4,22.6-50.4,50.4V1560
		c0,16.1,7.7,30.2,19.4,39.4c-11.7,9.2-19.4,23.4-19.4,39.5v128.8c0,16.1,7.7,30.2,19.4,39.4c-11.7,9.2-19.4,23.4-19.4,39.5v128.8
		c0,27.8,22.6,50.4,50.4,50.4h304.7c29.3,5.4,61.5,8.2,93.1,8.2c94.8,0,194.8-24.6,206.5-71.6c0.7-1.5,1.1-3.1,1.1-4.9v-98.4v-4.1
		v-4.1v-90.2v-4.1v-4.1v-94.3v-4.1c0-1.6-0.4-3.2-1-4.5c-3.8-16-18-29.5-38.9-40.3C3462.8,1604.5,3480,1584.2,3480,1560z
		 M2846,1767.7v-128.8c0-15.7,12.8-28.5,28.5-28.5h228c-19.8,10.6-33.2,23.7-36.9,39.2c-0.6,1.4-1,2.9-1,4.5v4.1v94.3v4.1v4.1v35.5
		h-190.1C2858.8,1796.2,2846,1783.5,2846,1767.7z M3093.3,1700.6c0.5,0.3,1,0.6,1.5,1c1.9,1.2,3.9,2.4,6,3.5c0.6,0.3,1.2,0.7,1.8,1
		c2.5,1.4,5.2,2.7,7.9,4c0.4,0.2,0.9,0.4,1.3,0.6c2.4,1.1,4.9,2.2,7.5,3.2c0.8,0.3,1.5,0.6,2.3,0.9c3,1.2,6.1,2.3,9.3,3.4
		c0.2,0.1,0.3,0.1,0.5,0.2c3,1,6.2,2,9.3,3c0.9,0.3,1.7,0.5,2.6,0.8c3.1,0.9,6.3,1.8,9.6,2.7c0.3,0.1,0.5,0.1,0.8,0.2
		c3.5,0.9,7.1,1.7,10.8,2.6c0.9,0.2,1.8,0.4,2.8,0.6c3.1,0.7,6.3,1.3,9.5,1.9c0.6,0.1,1.3,0.3,1.9,0.4c3.7,0.7,7.5,1.3,11.4,2
		c0.9,0.1,1.8,0.3,2.7,0.4c3.2,0.5,6.4,1,9.6,1.4c0.9,0.1,1.8,0.2,2.7,0.3c3.9,0.5,7.8,1,11.8,1.4c0.8,0.1,1.6,0.2,2.4,0.2
		c3.3,0.3,6.7,0.6,10,0.9c1,0.1,2,0.2,3,0.2c4,0.3,8,0.6,12.1,0.8c0.6,0,1.1,0,1.7,0.1c3.6,0.2,7.1,0.3,10.7,0.4
		c1.1,0,2.1,0.1,3.2,0.1c4.1,0.1,8.2,0.2,12.2,0.2c4.1,0,8.1-0.1,12.2-0.2c1.1,0,2.1-0.1,3.2-0.1c3.6-0.1,7.1-0.2,10.7-0.4
		c0.6,0,1.1,0,1.7-0.1c4-0.2,8.1-0.5,12.1-0.8c1-0.1,2-0.2,3-0.2c3.4-0.3,6.7-0.6,10-0.9c0.8-0.1,1.6-0.2,2.4-0.2
		c4-0.4,7.9-0.9,11.8-1.4c0.9-0.1,1.8-0.2,2.7-0.3c3.2-0.4,6.4-0.9,9.6-1.4c0.9-0.1,1.8-0.3,2.7-0.4c3.8-0.6,7.6-1.3,11.4-2
		c0.6-0.1,1.3-0.3,1.9-0.4c3.2-0.6,6.4-1.3,9.5-1.9c0.9-0.2,1.8-0.4,2.8-0.6c3.6-0.8,7.2-1.7,10.8-2.6c0.3-0.1,0.5-0.1,0.8-0.2
		c3.3-0.8,6.5-1.7,9.6-2.7c0.9-0.3,1.7-0.5,2.6-0.8c3.2-1,6.3-2,9.3-3c0.2-0.1,0.3-0.1,0.5-0.2c3.2-1.1,6.3-2.3,9.3-3.4
		c0.8-0.3,1.5-0.6,2.3-0.9c2.6-1,5-2.1,7.5-3.2c0.4-0.2,0.9-0.4,1.3-0.6c2.8-1.3,5.4-2.6,7.9-4c0.6-0.3,1.2-0.7,1.8-1
		c2.1-1.1,4.1-2.3,6-3.5c0.5-0.3,1-0.6,1.5-1c2.3-1.5,4.4-3,6.4-4.5c0.1-0.1,0.3-0.2,0.4-0.3v54.5c-0.3,1.3-0.4,2.6-0.2,3.9
		c0.2,0.8,0.3,1.6,0.3,2.4c0,1.2-0.3,2.4-0.6,3.6c-0.2,0.9-0.5,1.9-0.9,2.8c-0.3,0.8-0.8,1.7-1.3,2.5c-0.5,0.8-1,1.7-1.6,2.5
		c-0.8,1.1-1.8,2.3-2.9,3.4c-0.4,0.4-0.8,0.9-1.2,1.3c-23.1,22.4-91.4,42.6-177.3,42.6c-85.8,0-154.1-20.2-177.3-42.6
		c-0.5-0.5-0.9-1-1.4-1.4c-1-1.1-2-2.2-2.8-3.3c-0.6-0.9-1.2-1.7-1.7-2.6c-0.4-0.8-0.9-1.6-1.2-2.3c-0.4-1-0.7-2-1-3
		c-0.3-1.2-0.6-2.4-0.6-3.6c0-0.8,0.1-1.6,0.2-2.3c0.2-1.4,0.1-2.8-0.2-4.2v-54.3c0.1,0.1,0.3,0.2,0.4,0.3
		C3088.9,1697.7,3091,1699.2,3093.3,1700.6z M3456.6,1861.5c-0.3,0.8-0.8,1.7-1.3,2.5c-0.5,0.8-1,1.7-1.6,2.5
		c-0.8,1.1-1.8,2.3-2.9,3.4c-0.4,0.4-0.8,0.9-1.2,1.3c-23.1,22.4-91.4,42.6-177.3,42.6c-85.8,0-154.1-20.2-177.3-42.6
		c-0.5-0.5-0.9-1-1.4-1.4c-1-1.1-2-2.2-2.8-3.3c-0.6-0.9-1.2-1.7-1.7-2.6c-0.4-0.8-0.9-1.6-1.2-2.3c-0.4-1-0.7-2-1-3
		c-0.3-1-0.5-2.1-0.5-3.1v-1.3c0-0.5,0.1-1,0.1-1.5c0.2-0.9-0.1-1.9-0.2-2.8l-0.1-53.6v-2c0.4,0.3,1,0.7,1.4,1c1.4,1,2.8,2,4.3,3
		c1.2,0.8,2.4,1.6,3.7,2.4c2,1.2,3.9,2.4,6,3.5c0,0,0,0,0.1,0c22.8,12.4,54.2,21.4,88.8,26.8c0.3,0,0.5,0.1,0.8,0.1
		c11.2,1.7,22.7,3.1,34.3,4.1c2.5,0.2,5,0.4,7.5,0.6c2.4,0.2,4.9,0.3,7.3,0.5c3.3,0.2,6.6,0.3,9.9,0.5c1.9,0.1,3.8,0.2,5.8,0.2
		c5.3,0.2,10.6,0.3,15.9,0.3c5.3,0,10.6-0.1,15.9-0.3c1.9-0.1,3.9-0.1,5.8-0.2c3.3-0.1,6.5-0.3,9.8-0.5c2.5-0.1,4.9-0.3,7.4-0.5
		c2.5-0.2,4.9-0.4,7.3-0.6c11.8-1,23.4-2.4,34.7-4.1c0.2,0,0.3-0.1,0.5-0.1c37.9-5.9,71.8-16.1,94.9-30.4c1.3-0.8,2.5-1.6,3.7-2.4
		c1.5-1,2.9-2,4.3-3c0.5-0.4,1-0.7,1.5-1.1v54.5c-0.3,1.3-0.4,2.6-0.2,3.9c0.1,0.8,0.2,1.6,0.2,2.4c0,1.2-0.3,2.4-0.6,3.6
		C3457.3,1859.6,3457,1860.5,3456.6,1861.5z M2874.5,2003.9c-15.7,0-28.5-12.8-28.5-28.5v-128.8c0-15.7,12.8-28.5,28.5-28.5h190.1
		v32.8v4.1v4.1v98.4v10.9h3.2c0.2,0.4,0.4,0.8,0.6,1.2c0.4,0.8,0.8,1.6,1.2,2.4c0.9,1.6,1.9,3.2,3,4.8c1.1,1.6,2.4,3.1,3.7,4.6
		c0.7,0.8,1.4,1.5,2.1,2.3c4.2,4.3,9.2,8.4,15,12.1c0.2,0.1,0.4,0.3,0.6,0.4c4.2,2.7,8.7,5.3,13.6,7.7L2874.5,2003.9L2874.5,2003.9z
		 M3458.1,1954.7c-0.1,0.3-0.2,0.7-0.2,1c-4.5,27.3-80.1,56.4-185.6,56.4c-33.7,0-64.2-3-90.5-7.9l0-0.1
		c-54.4-10.3-84.4-27.7-92.9-42.3c0,0,0,0,0,0c-0.4-0.7-0.7-1.3-1-2c-0.6-1.4-1.1-2.7-1.3-4.1l-0.1-63c0.4,0.3,0.9,0.6,1.3,0.9
		c1.4,1,2.8,2,4.3,3c1.2,0.8,2.4,1.6,3.7,2.4c2,1.2,3.9,2.4,6,3.5c0,0,0,0,0.1,0c22.8,12.4,54.2,21.4,88.8,26.8
		c0.3,0,0.5,0.1,0.8,0.1c11.2,1.7,22.7,3.1,34.3,4.1c2.5,0.2,5,0.4,7.5,0.6c2.4,0.2,4.9,0.3,7.3,0.5c3.3,0.2,6.6,0.3,9.9,0.5
		c1.9,0.1,3.8,0.2,5.8,0.2c5.3,0.2,10.6,0.3,15.9,0.3c5.3,0,10.6-0.1,15.9-0.3c1.9-0.1,3.9-0.1,5.8-0.2c3.3-0.1,6.5-0.3,9.8-0.5
		c2.5-0.1,4.9-0.3,7.4-0.5s4.9-0.4,7.3-0.6c11.8-1,23.4-2.4,34.7-4.1c0.2,0,0.3-0.1,0.5-0.1c37.9-5.9,71.8-16.1,94.9-30.4
		c1.3-0.8,2.5-1.6,3.7-2.4c1.5-1,2.9-2,4.3-3c0.5-0.4,1-0.7,1.5-1.1L3458.1,1954.7L3458.1,1954.7z M3458.1,1658.2
		c0,27.7-79.5,58.8-185.8,58.8c-106.4,0-185.8-31-185.8-58.8c0-1.4,0.3-2.8,0.7-4.2c0.4-1.4,1-2.9,1.9-4.3c0-0.1,0.1-0.1,0.1-0.2
		c3.6-6.1,11-12.6,22.3-18.9c0.5-0.3,1-0.5,1.5-0.8c1.9-1,4-2.1,6.1-3.1c2.5-1.2,5.1-2.3,7.8-3.5c0.5-0.2,1.1-0.4,1.7-0.7
		c12.7-5.1,28-9.6,45.2-13.2c5.4-1.1,10.9-2.2,16.5-3.1c1.5-0.3,3-0.5,4.5-0.8c48.9-7.5,106-7.5,155,0c1.5,0.2,3,0.5,4.5,0.8
		c5.6,0.9,11.1,2,16.4,3.1C3424,1620.6,3458.1,1640.1,3458.1,1658.2z M3458.1,1560c0,15.7-12.8,28.5-28.5,28.5H3379
		c-0.6-0.1-1.3-0.2-2-0.4c-7.2-1.6-14.5-2.9-22.1-4.1c-0.7-0.1-1.5-0.2-2.2-0.3c-25.8-4-53.4-6.1-80.5-6.1s-54.6,2.1-80.4,6.1
		c-0.8,0.1-1.5,0.2-2.3,0.3c-7.5,1.2-14.9,2.6-22,4.1c-0.6,0.1-1.4,0.2-2,0.4h-291.1c-15.7,0-28.5-12.8-28.5-28.5v-128.8
		c0-15.7,12.8-28.5,28.5-28.5h555.1c15.7,0,28.5,12.8,28.5,28.5V1560z"/>
</g>
</svg>
