<svg id="Layer_1" data-name="Layer 1" xmlns="http://www.w3.org/2000/svg" viewBox="0 0 2087 1125"><defs><style>.cls-1,.cls-2,.cls-3{fill:none;stroke:#4285f4;stroke-miterlimit:10;}.cls-1{stroke-width:20px;}.cls-2{stroke-width:6px;}.cls-3{stroke-width:5px;}</style></defs><title>Artboard 3 copy 5</title><path class="cls-1" d="M1329.14,620.69a19.59,19.59,0,0,1-19.59,19.59H778.84a19.59,19.59,0,0,1-19.58-19.59V272.88a19.58,19.58,0,0,1,19.58-19.58h530.71a19.58,19.58,0,0,1,19.59,19.58Z"/><path class="cls-1" d="M1430.75,882.62c4.13,9.8-4.6,17.9-19.59,17.9H675.84c-15,0-23.72-8.1-19.59-17.9l98.24-232.7c2.26-5.36,12.84-9.64,23.66-9.64h530.7c10.82,0,21.4,4.28,23.66,9.64Z"/><path class="cls-1" d="M1281.52,582.64c0,8.45-7.3,15.3-16.31,15.3h-442c-9,0-16.32-6.85-16.32-15.3V310.93c0-8.45,7.31-15.3,16.32-15.3h442c9,0,16.31,6.85,16.31,15.3Z"/><polygon class="cls-2" points="1110.47 892.58 982.57 892.58 985.72 810.33 1107.2 810.33 1110.47 892.58"/><polygon class="cls-3" points="787.99 702.22 758.32 702.22 766.59 678.16 795.4 678.16 787.99 702.22"/><polygon class="cls-3" points="833.54 702.22 803.86 702.22 810.82 678.16 839.63 678.16 833.54 702.22"/><polygon class="cls-3" points="879.08 702.22 849.41 702.22 855.04 678.16 883.85 678.16 879.08 702.22"/><polygon class="cls-3" points="924.63 702.22 894.96 702.22 899.26 678.16 928.08 678.16 924.63 702.22"/><polygon class="cls-3" points="970.17 702.22 940.5 702.22 943.49 678.16 972.3 678.16 970.17 702.22"/><polygon class="cls-3" points="1015.72 702.22 986.05 702.22 987.71 678.16 1016.53 678.16 1015.72 702.22"/><polygon class="cls-3" points="1061.27 702.22 1031.59 702.22 1031.94 678.16 1060.75 678.16 1061.27 702.22"/><polygon class="cls-3" points="1106.81 702.22 1077.14 702.22 1076.16 678.16 1104.97 678.16 1106.81 702.22"/><polygon class="cls-3" points="1152.36 702.22 1122.68 702.22 1120.39 678.16 1149.2 678.16 1152.36 702.22"/><polygon class="cls-3" points="1197.9 702.22 1168.23 702.22 1164.61 678.16 1193.42 678.16 1197.9 702.22"/><polygon class="cls-3" points="1243.45 702.22 1213.78 702.22 1208.84 678.16 1237.65 678.16 1243.45 702.22"/><polygon class="cls-3" points="1288.99 702.22 1259.32 702.22 1253.06 678.16 1281.87 678.16 1288.99 702.22"/><polygon class="cls-3" points="1328.68 702.22 1299.01 702.22 1291.6 678.16 1320.41 678.16 1328.68 702.22"/><polygon class="cls-3" points="776.12 740.74 745.07 740.74 754.12 714.43 784.23 714.43 776.12 740.74"/><polygon class="cls-3" points="823.78 740.74 792.73 740.74 800.33 714.43 830.44 714.43 823.78 740.74"/><polygon class="cls-3" points="871.44 740.74 840.39 740.74 846.55 714.43 876.66 714.43 871.44 740.74"/><polygon class="cls-3" points="919.11 740.74 888.05 740.74 892.77 714.43 922.88 714.43 919.11 740.74"/><polygon class="cls-3" points="966.77 740.74 935.72 740.74 938.98 714.43 969.09 714.43 966.77 740.74"/><polygon class="cls-3" points="1014.43 740.74 983.38 740.74 985.2 714.43 1015.31 714.43 1014.43 740.74"/><polygon class="cls-3" points="1062.09 740.74 1031.04 740.74 1031.42 714.43 1061.53 714.43 1062.09 740.74"/><polygon class="cls-3" points="1109.75 740.74 1078.7 740.74 1077.63 714.43 1107.74 714.43 1109.75 740.74"/><polygon class="cls-3" points="1157.41 740.74 1126.36 740.74 1123.85 714.43 1153.96 714.43 1157.41 740.74"/><polygon class="cls-3" points="1252.74 740.74 1174.03 740.74 1170.07 714.43 1246.39 714.43 1252.74 740.74"/><polygon class="cls-3" points="1300.4 740.74 1269.35 740.74 1262.5 714.43 1292.61 714.43 1300.4 740.74"/><polygon class="cls-3" points="1341.14 740.74 1310.09 740.74 1302.01 714.43 1332.12 714.43 1341.14 740.74"/><polygon class="cls-3" points="763.82 780.65 731.34 780.65 741.23 751.91 772.68 751.91 763.82 780.65"/><polygon class="cls-3" points="813.67 780.65 781.19 780.65 789.5 751.91 820.95 751.91 813.67 780.65"/><polygon class="cls-3" points="863.53 780.65 831.05 780.65 837.78 751.91 869.23 751.91 863.53 780.65"/><polygon class="cls-3" points="1132.58 780.65 880.9 780.65 886.05 751.91 1129.76 751.91 1132.58 780.65"/><polygon class="cls-3" points="1212.51 780.65 1148.7 780.65 1145.36 751.91 1207.16 751.91 1212.51 780.65"/><polygon class="cls-3" points="1268.63 780.65 1236.15 780.65 1230.05 751.91 1261.5 751.91 1268.63 780.65"/><polygon class="cls-3" points="1312.22 780.65 1279.74 780.65 1272.26 751.91 1303.71 751.91 1312.22 780.65"/><polygon class="cls-3" points="1355.66 780.65 1323.18 780.65 1314.32 751.91 1345.77 751.91 1355.66 780.65"/></svg>