<?xml version="1.0" encoding="utf-8"?>
<!-- Generator: Adobe Illustrator 22.1.0, SVG Export Plug-In . SVG Version: 6.00 Build 0)  -->
<svg version="1.1" id="Layer_1" xmlns="http://www.w3.org/2000/svg" xmlns:xlink="http://www.w3.org/1999/xlink" x="0px" y="0px"
	 viewBox="0 0 2087 1125" style="enable-background:new 0 0 2087 1125;" xml:space="preserve">
<style type="text/css">
	.st0{fill:none;stroke:#4285F4;stroke-width:20;stroke-miterlimit:10;}
	.st1{fill:#4285F4;}
	.st2{fill:none;stroke:#4285F4;stroke-width:20;stroke-linejoin:round;stroke-miterlimit:10;}
	.st3{fill:none;stroke:#4285F4;stroke-width:20;stroke-linecap:round;stroke-miterlimit:10;}
	.st4{fill:#FFFFFF;stroke:#4285F4;stroke-width:9;stroke-miterlimit:10;}
	.st5{fill:none;stroke:#FFFFFF;stroke-width:10;stroke-linecap:round;stroke-linejoin:round;stroke-miterlimit:10;}
	.st6{fill:none;stroke:#4285F4;stroke-width:10;stroke-miterlimit:10;}
	.st7{fill:none;stroke:#4285F4;stroke-width:4;stroke-miterlimit:10;}
	.st8{fill:none;stroke:#4285F4;stroke-width:9;stroke-miterlimit:10;}
	.st9{fill:#4285F4;stroke:#4285F4;stroke-miterlimit:10;}
	.st10{fill:#FFFFFF;stroke:#FFFFFF;stroke-miterlimit:10;}
	.st11{fill:none;stroke:#4285F4;stroke-width:7;stroke-miterlimit:10;}
	.st12{opacity:0.4;fill:#4285F4;}
	.st13{fill:#3A76CC;}
	.st14{fill:none;stroke:#4285F4;stroke-width:12;stroke-miterlimit:10;}
	.st15{fill:none;stroke:#4285F4;stroke-width:11;stroke-miterlimit:10;}
	.st16{fill:none;stroke:#4285F4;stroke-width:11;stroke-linejoin:round;stroke-miterlimit:10;}
	.st17{fill:none;stroke:#4285F4;stroke-width:15;stroke-miterlimit:10;}
	.st18{fill:none;stroke:#4285F4;stroke-width:6;stroke-miterlimit:10;}
	.st19{fill:none;stroke:#4285F4;stroke-width:5;stroke-miterlimit:10;}
	.st20{fill:none;stroke:#4285F4;stroke-width:23;stroke-linecap:round;stroke-linejoin:round;stroke-miterlimit:10;}
	.st21{fill:none;stroke:#4285F4;stroke-width:16;stroke-linecap:round;stroke-linejoin:round;stroke-miterlimit:10;}
	.st22{fill:#3164AD;}
	.st23{fill:none;stroke:#3164AD;stroke-width:13;stroke-miterlimit:10;}
	.st24{fill:none;stroke:#4285F4;stroke-width:7;stroke-linecap:round;stroke-linejoin:round;stroke-miterlimit:10;}
	.st25{fill:none;stroke:#4285F4;stroke-width:4;stroke-linecap:round;stroke-linejoin:round;stroke-miterlimit:10;}
	.st26{fill:#006DF0;}
</style>
<g>
	<path class="st0" d="M-932.4-583.4c0,10.8-8.8,19.6-19.6,19.6h-286.8h-243.9c-10.8,0-19.6-8.8-19.6-19.6v-347.8
		c0-10.8,8.8-19.6,19.6-19.6h530.7c10.8,0,19.6,8.8,19.6,19.6V-583.4z"/>
	<path class="st0" d="M-980-621.5c0,8.5-7.3,15.3-16.3,15.3h-238.8h-203.2c-9,0-16.3-6.9-16.3-15.3v-271.7c0-8.5,7.3-15.3,16.3-15.3
		h442c9,0,16.3,6.9,16.3,15.3V-621.5z"/>
	<polyline class="st0" points="-1250.1,-563.9 -1250.1,-475.5 -1200.7,-475.5 -1200.7,-563.9 	"/>
	<line class="st0" x1="-1258.5" y1="-475.5" x2="-1372.2" y2="-475.5"/>
	<line class="st0" x1="-1068.1" y1="-475.5" x2="-1190.7" y2="-475.5"/>
</g>
<g>
	<g>
		<path class="st1" d="M-981.8-396.1l40.6,132.4l-552.6-1.8l40.8-130.6H-981.8 M-972.3-416.1h-490.3c-3.2,0-6,2.3-6.9,5.6
			l-48.3,154.6c-1.5,5.2,2,10.4,6.9,10.4l586.5,1.9c4.9,0,8.4-5.2,7-10.4l-48-156.5C-966.3-413.9-969.1-416.1-972.3-416.1
			L-972.3-416.1z"/>
	</g>
	<polyline class="st2" points="-1503.7,-259 -1503.7,-212.3 -932.2,-212.3 -932.2,-259 	"/>
	<g>
		<path class="st1" d="M-1010.8-347l10.3,36.7h-432.8l12.7-36.7H-1010.8 M-1004.2-367h-422.6c-4.8,0-9.2,3.1-10.7,7.6l-18.7,54
			c-2.6,7.4,2.9,15.1,10.7,15.1h456.4c7.5,0,13-7.2,10.9-14.4l-15.1-54C-994.7-363.6-999.2-367-1004.2-367L-1004.2-367z"/>
	</g>
</g>
<path class="st0" d="M-618.3-481.7h-229c-5.2,0-9.5-4.3-9.5-9.5v-452c0-5.2,4.3-9.5,9.5-9.5h229c5.2,0,9.5,4.3,9.5,9.5v452
	C-608.8-485.9-613.1-481.7-618.3-481.7z"/>
<line class="st3" x1="-807.5" y1="-916" x2="-658.2" y2="-916"/>
<line class="st3" x1="-807.5" y1="-876" x2="-658.2" y2="-876"/>
<line class="st3" x1="-807.5" y1="-836" x2="-658.2" y2="-836"/>
<line class="st3" x1="-807.5" y1="-559.4" x2="-658.2" y2="-559.4"/>
<line class="st3" x1="-807.5" y1="-519.4" x2="-658.2" y2="-519.4"/>
<path class="st3" d="M-668.1-704.2h-15.3c-10.1,0-18.3-8.2-18.3-18.3v-15.3c0-10.1,8.2-18.3,18.3-18.3h15.3
	c10.1,0,18.3,8.2,18.3,18.3v15.3C-649.7-712.4-657.9-704.2-668.1-704.2z"/>
<path class="st3" d="M-856.8-535.7c0,0-57,34-32,77c16.6,19.4,57,25.1,63.2,25.9c0.5,0.1,1,0.1,1.5,0.1c7.3,0,71.5,0.9,91.3,48"/>
<ellipse transform="matrix(0.908 -0.4189 0.4189 0.908 60.7162 -327.9808)" class="st3" cx="-716.5" cy="-302.3" rx="59.7" ry="76"/>
<line class="st3" x1="-776.9" y1="-294.9" x2="-665.2" y2="-332.9"/>
<line class="st3" x1="-740.2" y1="-374.1" x2="-721" y2="-313.9"/>
<line class="st4" x1="-740.2" y1="-374.1" x2="-721" y2="-313.9"/>
<line class="st5" x1="-733.7" y1="-353" x2="-727" y2="-332.1"/>
<path class="st0" d="M1448.9-195.6H634c-13.8,0-25-11.2-25-25v-723.9c0-13.8,11.2-25,25-25h814.8c13.8,0,25,11.2,25,25v723.9
	C1473.9-206.8,1462.7-195.6,1448.9-195.6z"/>
<path class="st0" d="M609.1-822.2"/>
<rect x="609.1" y="-770.4" class="st0" width="864.8" height="375.8"/>
<g>
	<polyline class="st6" points="808.5,-933.9 791.4,-933.9 779.5,-917.5 779.5,-882.3 837.4,-882.3 837.4,-917.5 825.5,-933.9 
		808.5,-933.9 	"/>
	<line class="st7" x1="789.7" y1="-882.3" x2="789.7" y2="-902.4"/>
	<line class="st7" x1="798.7" y1="-882.3" x2="798.7" y2="-902.4"/>
	<line class="st7" x1="807.6" y1="-882.3" x2="807.6" y2="-902.4"/>
	<line class="st7" x1="816.5" y1="-882.3" x2="816.5" y2="-902.4"/>
	<line class="st7" x1="825.4" y1="-882.3" x2="825.4" y2="-902.4"/>
</g>
<g>
	<polyline class="st6" points="716.9,-933.9 699.9,-933.9 687.9,-917.5 687.9,-882.3 745.8,-882.3 745.8,-917.5 733.9,-933.9 
		716.9,-933.9 	"/>
	<line class="st7" x1="698.1" y1="-882.3" x2="698.1" y2="-902.4"/>
	<line class="st7" x1="707.1" y1="-882.3" x2="707.1" y2="-902.4"/>
	<line class="st7" x1="716" y1="-882.3" x2="716" y2="-902.4"/>
	<line class="st7" x1="724.9" y1="-882.3" x2="724.9" y2="-902.4"/>
	<line class="st7" x1="733.8" y1="-882.3" x2="733.8" y2="-902.4"/>
</g>
<g>
	<polyline class="st6" points="808.3,-851.8 791.2,-851.8 779.3,-835.4 779.3,-800.3 837.2,-800.3 837.2,-835.4 825.3,-851.8 
		808.3,-851.8 	"/>
	<line class="st7" x1="789.5" y1="-800.3" x2="789.5" y2="-820.4"/>
	<line class="st7" x1="798.4" y1="-800.3" x2="798.4" y2="-820.4"/>
	<line class="st7" x1="807.4" y1="-800.3" x2="807.4" y2="-820.4"/>
	<line class="st7" x1="816.3" y1="-800.3" x2="816.3" y2="-820.4"/>
	<line class="st7" x1="825.2" y1="-800.3" x2="825.2" y2="-820.4"/>
</g>
<g>
	<polyline class="st6" points="716.5,-851.8 699.5,-851.8 687.6,-835.4 687.6,-800.3 745.5,-800.3 745.5,-835.4 733.5,-851.8 
		716.5,-851.8 	"/>
	<line class="st7" x1="697.8" y1="-800.3" x2="697.8" y2="-820.4"/>
	<line class="st7" x1="706.7" y1="-800.3" x2="706.7" y2="-820.4"/>
	<line class="st7" x1="715.6" y1="-800.3" x2="715.6" y2="-820.4"/>
	<line class="st7" x1="724.5" y1="-800.3" x2="724.5" y2="-820.4"/>
	<line class="st7" x1="733.5" y1="-800.3" x2="733.5" y2="-820.4"/>
</g>
<g>
	<polyline class="st6" points="899.5,-933.9 882.4,-933.9 870.5,-917.5 870.5,-882.3 928.4,-882.3 928.4,-917.5 916.5,-933.9 
		899.5,-933.9 	"/>
	<line class="st7" x1="880.7" y1="-882.3" x2="880.7" y2="-902.4"/>
	<line class="st7" x1="889.7" y1="-882.3" x2="889.7" y2="-902.4"/>
	<line class="st7" x1="898.6" y1="-882.3" x2="898.6" y2="-902.4"/>
	<line class="st7" x1="907.5" y1="-882.3" x2="907.5" y2="-902.4"/>
	<line class="st7" x1="916.4" y1="-882.3" x2="916.4" y2="-902.4"/>
</g>
<g>
	<polyline class="st6" points="899.3,-851.8 882.2,-851.8 870.3,-835.4 870.3,-800.3 928.2,-800.3 928.2,-835.4 916.3,-851.8 
		899.3,-851.8 	"/>
	<line class="st7" x1="880.5" y1="-800.3" x2="880.5" y2="-820.4"/>
	<line class="st7" x1="889.4" y1="-800.3" x2="889.4" y2="-820.4"/>
	<line class="st7" x1="898.4" y1="-800.3" x2="898.4" y2="-820.4"/>
	<line class="st7" x1="907.3" y1="-800.3" x2="907.3" y2="-820.4"/>
	<line class="st7" x1="916.2" y1="-800.3" x2="916.2" y2="-820.4"/>
</g>
<g>
	<polyline class="st6" points="990.5,-933.9 973.4,-933.9 961.5,-917.5 961.5,-882.3 1019.4,-882.3 1019.4,-917.5 1007.5,-933.9 
		990.5,-933.9 	"/>
	<line class="st7" x1="971.7" y1="-882.3" x2="971.7" y2="-902.4"/>
	<line class="st7" x1="980.7" y1="-882.3" x2="980.7" y2="-902.4"/>
	<line class="st7" x1="989.6" y1="-882.3" x2="989.6" y2="-902.4"/>
	<line class="st7" x1="998.5" y1="-882.3" x2="998.5" y2="-902.4"/>
	<line class="st7" x1="1007.4" y1="-882.3" x2="1007.4" y2="-902.4"/>
</g>
<g>
	<polyline class="st6" points="990.3,-851.8 973.2,-851.8 961.3,-835.4 961.3,-800.3 1019.2,-800.3 1019.2,-835.4 1007.3,-851.8 
		990.3,-851.8 	"/>
	<line class="st7" x1="971.5" y1="-800.3" x2="971.5" y2="-820.4"/>
	<line class="st7" x1="980.4" y1="-800.3" x2="980.4" y2="-820.4"/>
	<line class="st7" x1="989.4" y1="-800.3" x2="989.4" y2="-820.4"/>
	<line class="st7" x1="998.3" y1="-800.3" x2="998.3" y2="-820.4"/>
	<line class="st7" x1="1007.2" y1="-800.3" x2="1007.2" y2="-820.4"/>
</g>
<line class="st8" x1="609.1" y1="-865.5" x2="1473.9" y2="-865.5"/>
<line class="st8" x1="763.1" y1="-969.4" x2="763.1" y2="-770.4"/>
<line class="st8" x1="854.1" y1="-965" x2="854.1" y2="-766"/>
<line class="st8" x1="945.1" y1="-960.5" x2="945.1" y2="-761.5"/>
<line class="st8" x1="1036.1" y1="-967.3" x2="1036.1" y2="-768.3"/>
<rect x="1266.6" y="-827.7" class="st9" width="158" height="30.9"/>
<rect x="1074" y="-827.7" class="st9" width="158" height="30.9"/>
<g>
	<rect x="1352.1" y="-939.6" class="st9" width="72.5" height="59.7"/>
	<rect x="1371" y="-924" class="st10" width="34.6" height="28.5"/>
</g>
<line class="st4" x1="1194.8" y1="-865.5" x2="1284.9" y2="-966.8"/>
<g>
	<path class="st1" d="M811.8-759.3v167.8h-93.4v-167.8H811.8 M820.8-768.3H709.4v185.8h111.4V-768.3L820.8-768.3z"/>
</g>
<g>
	<path class="st1" d="M714.1-759.3v167.8h-93.4v-167.8H714.1 M723.1-768.3H611.7v185.8h111.4V-768.3L723.1-768.3z"/>
</g>
<g>
	<path class="st1" d="M920.4-759.3v167.8H827v-167.8H920.4 M929.4-768.3H818v185.8h111.4V-768.3L929.4-768.3z"/>
</g>
<g>
	<path class="st1" d="M1029.1-759.3v167.8h-93.4v-167.8H1029.1 M1038.1-768.3H926.7v185.8h111.4V-768.3L1038.1-768.3z"/>
</g>
<g>
	<path class="st1" d="M1137.8-759.3v167.8h-93.4v-167.8H1137.8 M1146.8-768.3h-111.4v185.8h111.4V-768.3L1146.8-768.3z"/>
</g>
<g>
	<path class="st1" d="M1246.4-759.3v167.8H1153v-167.8H1246.4 M1255.4-768.3H1144v185.8h111.4V-768.3L1255.4-768.3z"/>
</g>
<g>
	<path class="st1" d="M1355.1-759.3v167.8h-93.4v-167.8H1355.1 M1364.1-768.3h-111.4v185.8h111.4V-768.3L1364.1-768.3z"/>
</g>
<g>
	<path class="st1" d="M1463.7-759.3v167.8h-93.4v-167.8H1463.7 M1472.7-768.3h-111.4v185.8h111.4V-768.3L1472.7-768.3z"/>
</g>
<rect x="636.7" y="-733.7" class="st11" width="60.4" height="41.2"/>
<rect x="734.3" y="-733.7" class="st11" width="60.4" height="41.2"/>
<rect x="843.5" y="-733.7" class="st11" width="60.4" height="41.2"/>
<rect x="952.7" y="-733.7" class="st11" width="60.4" height="41.2"/>
<rect x="1061.9" y="-733.7" class="st11" width="60.4" height="41.2"/>
<rect x="1168.9" y="-733.7" class="st11" width="60.4" height="41.2"/>
<g>
	<rect x="1277.6" y="-733.7" class="st11" width="60.4" height="41.2"/>
</g>
<g>
	<rect x="1386.3" y="-733.7" class="st11" width="60.4" height="41.2"/>
</g>
<g>
	<path class="st1" d="M811.8-574.7v165.2h-93.6v-165.2H811.8 M820.8-583.7H709.2v183.2h111.6V-583.7L820.8-583.7z"/>
</g>
<g>
	<path class="st1" d="M714-574.7v165.2h-93.6v-165.2H714 M723-583.7H611.4v183.2H723V-583.7L723-583.7z"/>
</g>
<g>
	<path class="st1" d="M920.6-574.7v165.2H827v-165.2H920.6 M929.6-583.7H818v183.2h111.6V-583.7L929.6-583.7z"/>
</g>
<g>
	<path class="st1" d="M1029.5-574.7v165.2h-93.6v-165.2H1029.5 M1038.5-583.7H926.9v183.2h111.6V-583.7L1038.5-583.7z"/>
</g>
<g>
	<path class="st1" d="M1138.3-574.7v165.2h-93.6v-165.2H1138.3 M1147.3-583.7h-111.6v183.2h111.6V-583.7L1147.3-583.7z"/>
</g>
<g>
	<path class="st1" d="M1247.2-574.7v165.2h-93.6v-165.2H1247.2 M1256.2-583.7h-111.6v183.2h111.6V-583.7L1256.2-583.7z"/>
</g>
<g>
	<path class="st1" d="M1356-574.7v165.2h-93.6v-165.2H1356 M1365-583.7h-111.6v183.2H1365V-583.7L1365-583.7z"/>
</g>
<g>
	<path class="st1" d="M1464.8-574.7v165.2h-93.6v-165.2H1464.8 M1473.8-583.7h-111.6v183.2h111.6V-583.7L1473.8-583.7z"/>
</g>
<rect x="634.5" y="-558.4" class="st11" width="60.5" height="41.2"/>
<rect x="732.2" y="-558.4" class="st11" width="60.5" height="41.2"/>
<rect x="841.6" y="-558.4" class="st11" width="60.5" height="41.2"/>
<rect x="951" y="-558.4" class="st11" width="60.5" height="41.2"/>
<rect x="1060.4" y="-558.4" class="st11" width="60.5" height="41.2"/>
<rect x="1167.6" y="-558.4" class="st11" width="60.5" height="41.2"/>
<g>
	<rect x="1276.5" y="-558.4" class="st11" width="60.5" height="41.2"/>
</g>
<g>
	<rect x="1385.3" y="-558.4" class="st11" width="60.5" height="41.2"/>
</g>
<rect x="671" y="-344.1" class="st11" width="214" height="104.6"/>
<rect x="925.7" y="-347.4" class="st11" width="214" height="104.6"/>
<rect x="1180.4" y="-350.7" class="st11" width="214" height="104.6"/>
<g>
	<g>
		<path class="st0" d="M-669.1,910.5h-788.9c-21,0-38-17-38-38V588c0-21,17-38,38-38h788.9c21,0,38,17,38,38v284.5
			C-631.1,893.5-648.1,910.5-669.1,910.5z"/>
		<path class="st0" d="M-1239,420"/>
		<g>
			<path class="st1" d="M-1240,410h-53.5c-4.1,0-8.1,1.3-11.3,3.8l-182,135.4l11.9,16l181.7-135.2h53.2V410z"/>
			<path class="st1" d="M-822.9,413.8c-3.3-2.4-7.3-3.8-11.3-3.8H-883v20h48.4l181.7,135.2l11.9-16L-822.9,413.8z"/>
		</g>
	</g>
	<path class="st11" d="M-883.8,470c6.1,0,13.4,5.1,16.2,11.5l3.2,7.3c3,6.8,0.1,12.5-6.5,12.5h-381.3c-6.6,0-9.5-5.7-6.5-12.5
		l3.2-7.3c2.8-6.4,10.1-11.5,16.2-11.5"/>
	<polygon class="st1" points="-886.5,292.3 -886.5,497.9 -1236.5,497.9 -1236.5,221.5 -967.3,221.5 -967.3,214.5 -1243.5,214.5 
		-1243.5,504.9 -879.5,504.9 -879.5,292.3 	"/>
	<rect x="-1118" y="246" class="st1" width="113" height="18.5"/>
	<rect x="-1167.5" y="283" class="st1" width="182.2" height="18.5"/>
	<rect x="-1167.5" y="308.5" class="st1" width="136.5" height="18.5"/>
	<rect x="-1167.5" y="337.5" class="st1" width="136.5" height="18.5"/>
	<rect x="-1167.5" y="366.5" class="st1" width="212" height="18.5"/>
	<rect x="-1167.5" y="395.5" class="st1" width="212" height="18.5"/>
	<rect x="-1167.5" y="424.5" class="st1" width="212" height="18.5"/>
	<rect x="-1167.5" y="453.5" class="st1" width="126.5" height="18.5"/>
	<polygon class="st1" points="-967.3,214.5 -967.3,292.3 -879.5,292.3 	"/>
	<polygon class="st12" points="-967.3,292.3 -885.2,372.7 -885.2,292.3 	"/>
	<circle class="st1" cx="-732" cy="657" r="25.5"/>
	<circle class="st13" cx="-732" cy="736" r="36"/>
	<rect x="-1345.3" y="842.7" class="st14" width="563.7" height="67.8"/>
	<polygon class="st14" points="-839.5,842.7 -1287.5,842.7 -1345.3,910.5 -781.7,910.5 	"/>
</g>
<g>
	<path class="st0" d="M1438,949H649.1c-21,0-38-17-38-38V213.6c0-21,17-38,38-38H1438c21,0,38,17,38,38V911
		C1475.9,932,1458.9,949,1438,949z"/>
	<g>
		<path class="st15" d="M1328.9,328h-108.7c-6.6,0-12-5.4-12-12v-81.4c0-6.6,5.4-12,12-12h108.7c6.6,0,12,5.4,12,12V316
			C1340.9,322.6,1335.5,328,1328.9,328z"/>
		<polygon class="st16" points="1340.9,275.3 1395,221.2 1395,328 		"/>
	</g>
	<line class="st16" x1="611.1" y1="670" x2="1475.9" y2="670"/>
	<circle class="st16" cx="1040.2" cy="806.7" r="81"/>
	<g id="call_1_">
		<path class="st1" d="M1055.3,785.3c-1-1.5-1.5-3.4-1-4.9c1.9-5.8,2.9-11.7,2.9-17.5c0-2.9,1.9-4.9,4.9-4.9h17
			c2.9,0,4.9,1.9,4.9,4.9c0,45.8-37,82.8-82.8,82.8c-2.9,0-4.9-1.9-4.9-4.9v-16.6c0-2.9,1.9-4.9,4.9-4.9c6.3,0,12.2-1,17.5-2.9
			c1.5-1,3.4-0.5,4.9,1l10.7,10.7c13.6-7.3,25.3-18.5,32.1-32.1L1055.3,785.3z"/>
	</g>
	<path class="st17" d="M1092.9,494.8c32.5-15.5,54.9-48.7,54.9-87c0-53.3-43.2-96.4-96.4-96.4s-96.4,43.2-96.4,96.4
		c0,38.7,22.8,72.1,55.8,87.5C887.8,523.2,869.8,670,869.8,670h347.5C1217.3,670,1214.7,521.6,1092.9,494.8z"/>
	<circle class="st7" cx="1306.8" cy="246.5" r="11.8"/>
</g>
<g>
	<path class="st0" d="M1329.1,1765.7c0,10.8-8.8,19.6-19.6,19.6h-286.8H778.8c-10.8,0-19.6-8.8-19.6-19.6v-347.8
		c0-10.8,8.8-19.6,19.6-19.6h530.7c10.8,0,19.6,8.8,19.6,19.6V1765.7z"/>
	<path class="st0" d="M1430.7,2027.6c4.1,9.8-4.6,17.9-19.6,17.9h-397.3h-338c-15,0-23.7-8.1-19.6-17.9l98.2-232.7
		c2.3-5.4,12.8-9.6,23.7-9.6h530.7c10.8,0,21.4,4.3,23.7,9.6L1430.7,2027.6z"/>
	<path class="st0" d="M1281.5,1727.6c0,8.5-7.3,15.3-16.3,15.3h-238.8H823.2c-9,0-16.3-6.9-16.3-15.3v-271.7
		c0-8.5,7.3-15.3,16.3-15.3h442c9,0,16.3,6.9,16.3,15.3V1727.6z"/>
	<polygon class="st18" points="1110.5,2037.6 982.6,2037.6 985.7,1955.3 1107.2,1955.3 	"/>
	<g>
		<polygon class="st19" points="788,1847.2 758.3,1847.2 766.6,1823.2 795.4,1823.2 		"/>
		<polygon class="st19" points="833.5,1847.2 803.9,1847.2 810.8,1823.2 839.6,1823.2 		"/>
		<polygon class="st19" points="879.1,1847.2 849.4,1847.2 855,1823.2 883.9,1823.2 		"/>
		<polygon class="st19" points="924.6,1847.2 895,1847.2 899.3,1823.2 928.1,1823.2 		"/>
		<polygon class="st19" points="970.2,1847.2 940.5,1847.2 943.5,1823.2 972.3,1823.2 		"/>
		<polygon class="st19" points="1015.7,1847.2 986,1847.2 987.7,1823.2 1016.5,1823.2 		"/>
		<polygon class="st19" points="1061.3,1847.2 1031.6,1847.2 1031.9,1823.2 1060.8,1823.2 		"/>
		<polygon class="st19" points="1106.8,1847.2 1077.1,1847.2 1076.2,1823.2 1105,1823.2 		"/>
		<polygon class="st19" points="1152.4,1847.2 1122.7,1847.2 1120.4,1823.2 1149.2,1823.2 		"/>
		<polygon class="st19" points="1197.9,1847.2 1168.2,1847.2 1164.6,1823.2 1193.4,1823.2 		"/>
		<polygon class="st19" points="1243.4,1847.2 1213.8,1847.2 1208.8,1823.2 1237.6,1823.2 		"/>
		<polygon class="st19" points="1289,1847.2 1259.3,1847.2 1253.1,1823.2 1281.9,1823.2 		"/>
		<polygon class="st19" points="1328.7,1847.2 1299,1847.2 1291.6,1823.2 1320.4,1823.2 		"/>
		<polygon class="st19" points="776.1,1885.7 745.1,1885.7 754.1,1859.4 784.2,1859.4 		"/>
		<polygon class="st19" points="823.8,1885.7 792.7,1885.7 800.3,1859.4 830.4,1859.4 		"/>
		<polygon class="st19" points="871.4,1885.7 840.4,1885.7 846.6,1859.4 876.7,1859.4 		"/>
		<polygon class="st19" points="919.1,1885.7 888.1,1885.7 892.8,1859.4 922.9,1859.4 		"/>
		<polygon class="st19" points="966.8,1885.7 935.7,1885.7 939,1859.4 969.1,1859.4 		"/>
		<polygon class="st19" points="1014.4,1885.7 983.4,1885.7 985.2,1859.4 1015.3,1859.4 		"/>
		<polygon class="st19" points="1062.1,1885.7 1031,1885.7 1031.4,1859.4 1061.5,1859.4 		"/>
		<polygon class="st19" points="1109.8,1885.7 1078.7,1885.7 1077.6,1859.4 1107.7,1859.4 		"/>
		<polygon class="st19" points="1157.4,1885.7 1126.4,1885.7 1123.9,1859.4 1154,1859.4 		"/>
		<polygon class="st19" points="1252.7,1885.7 1174,1885.7 1170.1,1859.4 1246.4,1859.4 		"/>
		<polygon class="st19" points="1300.4,1885.7 1269.3,1885.7 1262.5,1859.4 1292.6,1859.4 		"/>
		<polygon class="st19" points="1341.1,1885.7 1310.1,1885.7 1302,1859.4 1332.1,1859.4 		"/>
		<polygon class="st19" points="763.8,1925.7 731.3,1925.7 741.2,1896.9 772.7,1896.9 		"/>
		<polygon class="st19" points="813.7,1925.7 781.2,1925.7 789.5,1896.9 821,1896.9 		"/>
		<polygon class="st19" points="863.5,1925.7 831,1925.7 837.8,1896.9 869.2,1896.9 		"/>
		<polygon class="st19" points="1132.6,1925.7 880.9,1925.7 886.1,1896.9 1129.8,1896.9 		"/>
		<polygon class="st19" points="1212.5,1925.7 1148.7,1925.7 1145.4,1896.9 1207.2,1896.9 		"/>
		<polygon class="st19" points="1268.6,1925.7 1236.2,1925.7 1230.1,1896.9 1261.5,1896.9 		"/>
		<polygon class="st19" points="1312.2,1925.7 1279.7,1925.7 1272.3,1896.9 1303.7,1896.9 		"/>
		<polygon class="st19" points="1355.7,1925.7 1323.2,1925.7 1314.3,1896.9 1345.8,1896.9 		"/>
	</g>
</g>
<g>
	<circle class="st0" cx="-1384.5" cy="2855.7" r="42.5"/>
	<circle class="st0" cx="-735" cy="2855.7" r="42.5"/>
	<circle class="st0" cx="-980.5" cy="2634.8" r="34.5"/>
	<circle class="st0" cx="-1009.5" cy="2727.3" r="29"/>
	<circle class="st0" cx="-908" cy="3006.6" r="29"/>
	<path class="st0" d="M-1384.5,2813.2c0,0,28-85.9,94.8-85.9s186.8,0,186.8,0"/>
	<path class="st0" d="M-1356.4,2887.6c0,0,3.6,80.5,80.5,80.5c76.9,0,172.9,0,172.9,0"/>
	<path class="st0" d="M-1255,2733.7c0,0,25.3-98.9,83.6-98.9s156.4,0,156.4,0"/>
	<path class="st0" d="M-735,2810.9c0,0-25.3-83.6-83.6-83.6s-156.4,0-156.4,0"/>
	<path class="st0" d="M-1181,2968.1c0,0,25.9-79.4,73.9-79.4c48.1,0,170.1,0,170.1,0"/>
	<path class="st0" d="M-1143,2968.1c0,0,7.1,38.6,38.6,38.6c31.4,0,167.4,0,167.4,0"/>
	<polygon class="st1" points="-1106.7,2943.1 -1081.7,2968.1 -1106.7,2993.1 	"/>
	<polygon class="st1" points="-819,3031.9 -844,3006.9 -819,2981.9 	"/>
	<polygon class="st1" points="-937,2863.7 -912,2888.7 -937,2913.7 	"/>
	<polygon class="st1" points="-1106.7,2702.3 -1081.7,2727.3 -1106.7,2752.3 	"/>
	<path class="st0" d="M-777.5,2855.7c0,0-3.5,33-22.4,33s-34.7,0-34.7,0"/>
	<circle class="st0" cx="-861.7" cy="2888.7" r="27.1"/>
	<path class="st0" d="M-735,2898.2v69.9c0,0,6.4,38.8-38.8,38.8c-45.2,0-45.2,0-45.2,0"/>
</g>
<g>
	<g>
		<path class="st0" d="M-779.2,2030.8c0,8.1-6.6,14.7-14.7,14.7h-215.3h-183.1c-8.1,0-14.7-6.6-14.7-14.7v-261.1
			c0-8.1,6.6-14.7,14.7-14.7h398.4c8.1,0,14.7,6.6,14.7,14.7V2030.8z"/>
		<path class="st0" d="M-814.9,2002.3c0,6.3-5.5,11.5-12.2,11.5h-179.3h-152.5c-6.8,0-12.2-5.1-12.2-11.5v-203.9
			c0-6.3,5.5-11.5,12.2-11.5h331.8c6.8,0,12.2,5.1,12.2,11.5V2002.3z"/>
	</g>
	<path class="st20" d="M-697.1,1399.3v70.6c0,0,0.5,8.9-6.9,14.8c-7.4,5.9-15.5,4.8-15.5,4.8H-777"/>
	<path class="st20" d="M-938.6,1369.5h301.8l-140.2,69.2v71.9h-281.2c0,0-103.3-5.9-103.3-70.6c0-74.7,116.6-70.6,116.6-70.6"/>
	<path class="st21" d="M-1019.3,1510.6v83.2c0,0,2.5,15.4-10,23c-12.5,7.7-28.5,7.7-28.5,7.7h-49v-34.8c0,0-7.5-17.2-32.4-17.2
		c-24.9,0-32.1,14.8-32.1,14.8v72c0,0,2.5,18.3,31.3,18.3s31.8-16.4,31.8-16.4l1.4-36.7"/>
	<path class="st21" d="M-1171.2,1625.2c0,0-188.5-25.1-188.5,129.8s152.8,138.6,152.8,138.6"/>
	<path class="st22" d="M-962.6,1963h-66.1c-9.7,0-17.5-7.9-17.5-17.5v-46.7c0-9.7,7.9-17.5,17.5-17.5h66.1c9.7,0,17.5,7.9,17.5,17.5
		v46.7C-945,1955.1-952.9,1963-962.6,1963z"/>
	<path class="st23" d="M-1032.1,1886.4c0,0-4.1-50.1,36.5-50.1c40.6,0,36.8,50.1,36.8,50.1H-1032.1z"/>
	<circle class="st24" cx="-827.4" cy="1469.5" r="20.1"/>
	<circle class="st25" cx="-877.1" cy="1478.3" r="12.8"/>
</g>
<g>
	<path class="st26" d="M831.9,2591.4c-27.1,0-49.2,22.1-49.2,49.2c0,27.1,22.1,49.2,49.2,49.2c27.1,0,49.2-22.1,49.2-49.2
		C881.1,2613.5,859,2591.4,831.9,2591.4z M831.9,2668c-15.1,0-27.3-12.3-27.3-27.3s12.3-27.3,27.3-27.3s27.3,12.3,27.3,27.3
		S847,2668,831.9,2668z"/>
	<circle class="st26" cx="1263.7" cy="2624.2" r="10.9"/>
	<circle class="st26" cx="1220" cy="2624.2" r="10.9"/>
	<circle class="st26" cx="1285.5" cy="2657" r="10.9"/>
	<circle class="st26" cx="1241.8" cy="2657" r="10.9"/>
	<circle class="st26" cx="1176.2" cy="2624.2" r="10.9"/>
	<circle class="st26" cx="1198.1" cy="2657" r="10.9"/>
	<circle class="st26" cx="1132.5" cy="2624.2" r="10.9"/>
	<circle class="st26" cx="1154.4" cy="2657" r="10.9"/>
	<circle class="st26" cx="1088.8" cy="2624.2" r="10.9"/>
	<circle class="st26" cx="1110.6" cy="2657" r="10.9"/>
	<path class="st26" d="M831.9,2799.1c-27.1,0-49.2,22.1-49.2,49.2c0,27.1,22.1,49.2,49.2,49.2c27.1,0,49.2-22.1,49.2-49.2
		C881.1,2821.2,859,2799.1,831.9,2799.1z M831.9,2875.7c-15.1,0-27.3-12.3-27.3-27.3s12.3-27.3,27.3-27.3s27.3,12.3,27.3,27.3
		S847,2875.7,831.9,2875.7z"/>
	<path class="st26" d="M831.9,3006.8c-27.1,0-49.2,22.1-49.2,49.2c0,27.1,22.1,49.2,49.2,49.2c27.1,0,49.2-22.1,49.2-49.2
		C881.1,3028.9,859,3006.8,831.9,3006.8z M831.9,3083.3c-15.1,0-27.3-12.3-27.3-27.3s12.3-27.3,27.3-27.3s27.3,12.3,27.3,27.3
		S847,3083.3,831.9,3083.3z"/>
	<path class="st26" d="M1373,2705v-128.8c0-27.8-22.6-50.4-50.4-50.4H767.5c-27.8,0-50.4,22.6-50.4,50.4V2705
		c0,16.1,7.7,30.2,19.4,39.4c-11.7,9.2-19.4,23.4-19.4,39.5v128.8c0,16.1,7.7,30.2,19.4,39.4c-11.7,9.2-19.4,23.4-19.4,39.5v128.8
		c0,27.8,22.6,50.4,50.4,50.4h304.7c29.3,5.4,61.5,8.2,93.1,8.2c94.8,0,194.8-24.6,206.5-71.6c0.7-1.5,1.1-3.1,1.1-4.9v-98.4v-4.1
		v-4.1v-90.2v-4.1v-4.1v-94.3v-4.1c0-1.6-0.4-3.2-1-4.5c-3.8-16-18-29.5-38.9-40.3C1355.8,2749.5,1373,2729.2,1373,2705z
		 M739,2912.7v-128.8c0-15.7,12.8-28.5,28.5-28.5h228c-19.8,10.6-33.2,23.7-36.9,39.2c-0.6,1.4-1,2.9-1,4.5v4.1v94.3v4.1v4.1v35.5
		H767.5C751.8,2941.2,739,2928.5,739,2912.7z M986.3,2845.6c0.5,0.3,1,0.6,1.5,1c1.9,1.2,3.9,2.4,6,3.5c0.6,0.3,1.2,0.7,1.8,1
		c2.5,1.4,5.2,2.7,7.9,4c0.4,0.2,0.9,0.4,1.3,0.6c2.4,1.1,4.9,2.2,7.5,3.2c0.8,0.3,1.5,0.6,2.3,0.9c3,1.2,6.1,2.3,9.3,3.4
		c0.2,0.1,0.3,0.1,0.5,0.2c3,1,6.2,2,9.3,3c0.9,0.3,1.7,0.5,2.6,0.8c3.1,0.9,6.3,1.8,9.6,2.7c0.3,0.1,0.5,0.1,0.8,0.2
		c3.5,0.9,7.1,1.7,10.8,2.6c0.9,0.2,1.8,0.4,2.8,0.6c3.1,0.7,6.3,1.3,9.5,1.9c0.6,0.1,1.3,0.3,1.9,0.4c3.7,0.7,7.5,1.3,11.4,2
		c0.9,0.1,1.8,0.3,2.7,0.4c3.2,0.5,6.4,1,9.6,1.4c0.9,0.1,1.8,0.2,2.7,0.3c3.9,0.5,7.8,1,11.8,1.4c0.8,0.1,1.6,0.2,2.4,0.2
		c3.3,0.3,6.7,0.6,10,0.9c1,0.1,2,0.2,3,0.2c4,0.3,8,0.6,12.1,0.8c0.6,0,1.1,0,1.7,0.1c3.6,0.2,7.1,0.3,10.7,0.4
		c1.1,0,2.1,0.1,3.2,0.1c4.1,0.1,8.2,0.2,12.2,0.2s8.1-0.1,12.2-0.2c1.1,0,2.1-0.1,3.2-0.1c3.6-0.1,7.1-0.2,10.7-0.4
		c0.6,0,1.1,0,1.7-0.1c4-0.2,8.1-0.5,12.1-0.8c1-0.1,2-0.2,3-0.2c3.4-0.3,6.7-0.6,10-0.9c0.8-0.1,1.6-0.2,2.4-0.2
		c4-0.4,7.9-0.9,11.8-1.4c0.9-0.1,1.8-0.2,2.7-0.3c3.2-0.4,6.4-0.9,9.6-1.4c0.9-0.1,1.8-0.3,2.7-0.4c3.8-0.6,7.6-1.3,11.4-2
		c0.6-0.1,1.3-0.3,1.9-0.4c3.2-0.6,6.4-1.3,9.5-1.9c0.9-0.2,1.8-0.4,2.8-0.6c3.6-0.8,7.2-1.7,10.8-2.6c0.3-0.1,0.5-0.1,0.8-0.2
		c3.3-0.8,6.5-1.7,9.6-2.7c0.9-0.3,1.7-0.5,2.6-0.8c3.2-1,6.3-2,9.3-3c0.2-0.1,0.3-0.1,0.5-0.2c3.2-1.1,6.3-2.3,9.3-3.4
		c0.8-0.3,1.5-0.6,2.3-0.9c2.6-1,5-2.1,7.5-3.2c0.4-0.2,0.9-0.4,1.3-0.6c2.8-1.3,5.4-2.6,7.9-4c0.6-0.3,1.2-0.7,1.8-1
		c2.1-1.1,4.1-2.3,6-3.5c0.5-0.3,1-0.6,1.5-1c2.3-1.5,4.4-3,6.4-4.5c0.1-0.1,0.3-0.2,0.4-0.3v54.5c-0.3,1.3-0.4,2.6-0.2,3.9
		c0.2,0.8,0.3,1.6,0.3,2.4c0,1.2-0.3,2.4-0.6,3.6c-0.2,0.9-0.5,1.9-0.9,2.8c-0.3,0.8-0.8,1.7-1.3,2.5c-0.5,0.8-1,1.7-1.6,2.5
		c-0.8,1.1-1.8,2.3-2.9,3.4c-0.4,0.4-0.8,0.9-1.2,1.3c-23.1,22.4-91.4,42.6-177.3,42.6c-85.8,0-154.1-20.2-177.3-42.6
		c-0.5-0.5-0.9-1-1.4-1.4c-1-1.1-2-2.2-2.8-3.3c-0.6-0.9-1.2-1.7-1.7-2.6c-0.4-0.8-0.9-1.6-1.2-2.3c-0.4-1-0.7-2-1-3
		c-0.3-1.2-0.6-2.4-0.6-3.6c0-0.8,0.1-1.6,0.2-2.3c0.2-1.4,0.1-2.8-0.2-4.2v-54.3c0.1,0.1,0.3,0.2,0.4,0.3
		C981.9,2842.7,984,2844.2,986.3,2845.6z M1349.6,3006.5c-0.3,0.8-0.8,1.7-1.3,2.5c-0.5,0.8-1,1.7-1.6,2.5c-0.8,1.1-1.8,2.3-2.9,3.4
		c-0.4,0.4-0.8,0.9-1.2,1.3c-23.1,22.4-91.4,42.6-177.3,42.6c-85.8,0-154.1-20.2-177.3-42.6c-0.5-0.5-0.9-1-1.4-1.4
		c-1-1.1-2-2.2-2.8-3.3c-0.6-0.9-1.2-1.7-1.7-2.6c-0.4-0.8-0.9-1.6-1.2-2.3c-0.4-1-0.7-2-1-3c-0.3-1-0.5-2.1-0.5-3.1v-1.3
		c0-0.5,0.1-1,0.1-1.5c0.2-0.9-0.1-1.9-0.2-2.8l-0.1-53.6v-2c0.4,0.3,1,0.7,1.4,1c1.4,1,2.8,2,4.3,3c1.2,0.8,2.4,1.6,3.7,2.4
		c2,1.2,3.9,2.4,6,3.5c0,0,0,0,0.1,0c22.8,12.4,54.2,21.4,88.8,26.8c0.3,0,0.5,0.1,0.8,0.1c11.2,1.7,22.7,3.1,34.3,4.1
		c2.5,0.2,5,0.4,7.5,0.6c2.4,0.2,4.9,0.3,7.3,0.5c3.3,0.2,6.6,0.3,9.9,0.5c1.9,0.1,3.8,0.2,5.8,0.2c5.3,0.2,10.6,0.3,15.9,0.3
		c5.3,0,10.6-0.1,15.9-0.3c1.9-0.1,3.9-0.1,5.8-0.2c3.3-0.1,6.5-0.3,9.8-0.5c2.5-0.1,4.9-0.3,7.4-0.5c2.5-0.2,4.9-0.4,7.3-0.6
		c11.8-1,23.4-2.4,34.7-4.1c0.2,0,0.3-0.1,0.5-0.1c37.9-5.9,71.8-16.1,94.9-30.4c1.3-0.8,2.5-1.6,3.7-2.4c1.5-1,2.9-2,4.3-3
		c0.5-0.4,1-0.7,1.5-1.1v54.5c-0.3,1.3-0.4,2.6-0.2,3.9c0.1,0.8,0.2,1.6,0.2,2.4c0,1.2-0.3,2.4-0.6,3.6
		C1350.3,3004.6,1350,3005.5,1349.6,3006.5z M767.5,3148.9c-15.7,0-28.5-12.8-28.5-28.5v-128.8c0-15.7,12.8-28.5,28.5-28.5h190.1
		v32.8v4.1v4.1v98.4v10.9h3.2c0.2,0.4,0.4,0.8,0.6,1.2c0.4,0.8,0.8,1.6,1.2,2.4c0.9,1.6,1.9,3.2,3,4.8c1.1,1.6,2.4,3.1,3.7,4.6
		c0.7,0.8,1.4,1.5,2.1,2.3c4.2,4.3,9.2,8.4,15,12.1c0.2,0.1,0.4,0.3,0.6,0.4c4.2,2.7,8.7,5.3,13.6,7.7L767.5,3148.9L767.5,3148.9z
		 M1351.1,3099.7c-0.1,0.3-0.2,0.7-0.2,1c-4.5,27.3-80.1,56.4-185.6,56.4c-33.7,0-64.2-3-90.5-7.9l0-0.1
		c-54.4-10.3-84.4-27.7-92.9-42.3c0,0,0,0,0,0c-0.4-0.7-0.7-1.3-1-2c-0.6-1.4-1.1-2.7-1.3-4.1l-0.1-63c0.4,0.3,0.9,0.6,1.3,0.9
		c1.4,1,2.8,2,4.3,3c1.2,0.8,2.4,1.6,3.7,2.4c2,1.2,3.9,2.4,6,3.5c0,0,0,0,0.1,0c22.8,12.4,54.2,21.4,88.8,26.8
		c0.3,0,0.5,0.1,0.8,0.1c11.2,1.7,22.7,3.1,34.3,4.1c2.5,0.2,5,0.4,7.5,0.6c2.4,0.2,4.9,0.3,7.3,0.5c3.3,0.2,6.6,0.3,9.9,0.5
		c1.9,0.1,3.8,0.2,5.8,0.2c5.3,0.2,10.6,0.3,15.9,0.3c5.3,0,10.6-0.1,15.9-0.3c1.9-0.1,3.9-0.1,5.8-0.2c3.3-0.1,6.5-0.3,9.8-0.5
		c2.5-0.1,4.9-0.3,7.4-0.5c2.5-0.2,4.9-0.4,7.3-0.6c11.8-1,23.4-2.4,34.7-4.1c0.2,0,0.3-0.1,0.5-0.1c37.9-5.9,71.8-16.1,94.9-30.4
		c1.3-0.8,2.5-1.6,3.7-2.4c1.5-1,2.9-2,4.3-3c0.5-0.4,1-0.7,1.5-1.1L1351.1,3099.7L1351.1,3099.7z M1351.1,2803.2
		c0,27.7-79.5,58.8-185.8,58.8c-106.4,0-185.8-31-185.8-58.8c0-1.4,0.3-2.8,0.7-4.2c0.4-1.4,1-2.9,1.9-4.3c0-0.1,0.1-0.1,0.1-0.2
		c3.6-6.1,11-12.6,22.3-18.9c0.5-0.3,1-0.5,1.5-0.8c1.9-1,4-2.1,6.1-3.1c2.5-1.2,5.1-2.3,7.8-3.5c0.5-0.2,1.1-0.4,1.7-0.7
		c12.7-5.1,28-9.6,45.2-13.2c5.4-1.1,10.9-2.2,16.5-3.1c1.5-0.3,3-0.5,4.5-0.8c48.9-7.5,106-7.5,155,0c1.5,0.2,3,0.5,4.5,0.8
		c5.6,0.9,11.1,2,16.4,3.1C1317,2765.6,1351.1,2785.1,1351.1,2803.2z M1351.1,2705c0,15.7-12.8,28.5-28.5,28.5H1272
		c-0.6-0.1-1.3-0.2-2-0.4c-7.2-1.6-14.5-2.9-22.1-4.1c-0.7-0.1-1.5-0.2-2.2-0.3c-25.8-4-53.4-6.1-80.5-6.1
		c-27.1,0-54.6,2.1-80.4,6.1c-0.8,0.1-1.5,0.2-2.3,0.3c-7.5,1.2-14.9,2.6-22,4.1c-0.6,0.1-1.4,0.2-2,0.4H767.5
		c-15.7,0-28.5-12.8-28.5-28.5v-128.8c0-15.7,12.8-28.5,28.5-28.5h555.1c15.7,0,28.5,12.8,28.5,28.5V2705z"/>
</g>
</svg>
