<?xml version="1.0" encoding="utf-8"?>
<!-- Generator: Adobe Illustrator 22.1.0, SVG Export Plug-In . SVG Version: 6.00 Build 0)  -->
<svg version="1.1" id="Layer_1" xmlns="http://www.w3.org/2000/svg" xmlns:xlink="http://www.w3.org/1999/xlink" x="0px" y="0px"
	 viewBox="0 0 2087 1125" style="enable-background:new 0 0 2087 1125;" xml:space="preserve">
<style type="text/css">
	.st0{fill:none;stroke:#4285F4;stroke-width:20;stroke-miterlimit:10;}
	.st1{fill:#4285F4;}
	.st2{fill:none;stroke:#4285F4;stroke-width:20;stroke-linejoin:round;stroke-miterlimit:10;}
	.st3{fill:none;stroke:#4285F4;stroke-width:20;stroke-linecap:round;stroke-miterlimit:10;}
	.st4{fill:#FFFFFF;stroke:#4285F4;stroke-width:9;stroke-miterlimit:10;}
	.st5{fill:none;stroke:#FFFFFF;stroke-width:10;stroke-linecap:round;stroke-linejoin:round;stroke-miterlimit:10;}
	.st6{fill:none;stroke:#4285F4;stroke-width:10;stroke-miterlimit:10;}
	.st7{fill:none;stroke:#4285F4;stroke-width:4;stroke-miterlimit:10;}
	.st8{fill:none;stroke:#4285F4;stroke-width:9;stroke-miterlimit:10;}
	.st9{fill:#4285F4;stroke:#4285F4;stroke-miterlimit:10;}
	.st10{fill:#FFFFFF;stroke:#FFFFFF;stroke-miterlimit:10;}
	.st11{fill:none;stroke:#4285F4;stroke-width:7;stroke-miterlimit:10;}
	.st12{opacity:0.4;fill:#4285F4;}
	.st13{fill:#3A76CC;}
	.st14{fill:none;stroke:#4285F4;stroke-width:12;stroke-miterlimit:10;}
	.st15{opacity:0.33;fill:#4285F4;}
	.st16{fill:none;stroke:#4285F4;stroke-width:11;stroke-miterlimit:10;}
	.st17{fill:none;stroke:#4285F4;stroke-width:11;stroke-linejoin:round;stroke-miterlimit:10;}
	.st18{fill:none;stroke:#4285F4;stroke-width:15;stroke-miterlimit:10;}
	.st19{fill:none;stroke:#4285F4;stroke-width:6;stroke-miterlimit:10;}
	.st20{fill:none;stroke:#4285F4;stroke-width:5;stroke-miterlimit:10;}
	.st21{fill:none;stroke:#4285F4;stroke-width:23;stroke-linecap:round;stroke-linejoin:round;stroke-miterlimit:10;}
	.st22{fill:none;stroke:#4285F4;stroke-width:16;stroke-linecap:round;stroke-linejoin:round;stroke-miterlimit:10;}
	.st23{fill:#3164AD;}
	.st24{fill:none;stroke:#3164AD;stroke-width:13;stroke-miterlimit:10;}
	.st25{fill:none;stroke:#4285F4;stroke-width:7;stroke-linecap:round;stroke-linejoin:round;stroke-miterlimit:10;}
	.st26{fill:none;stroke:#4285F4;stroke-width:4;stroke-linecap:round;stroke-linejoin:round;stroke-miterlimit:10;}
	.st27{fill:#006DF0;}
</style>
<g>
	<path class="st0" d="M1174.6-2873.4c0,10.8-8.8,19.6-19.6,19.6H868.3H624.3c-10.8,0-19.6-8.8-19.6-19.6v-347.8
		c0-10.8,8.8-19.6,19.6-19.6h530.7c10.8,0,19.6,8.8,19.6,19.6V-2873.4z"/>
	<path class="st0" d="M1127-2911.5c0,8.5-7.3,15.3-16.3,15.3H871.9H668.7c-9,0-16.3-6.9-16.3-15.3v-271.7c0-8.5,7.3-15.3,16.3-15.3
		h442c9,0,16.3,6.9,16.3,15.3V-2911.5z"/>
	<polyline class="st0" points="856.9,-2853.9 856.9,-2765.5 906.3,-2765.5 906.3,-2853.9 	"/>
	<line class="st0" x1="848.5" y1="-2765.5" x2="734.8" y2="-2765.5"/>
	<line class="st0" x1="1038.9" y1="-2765.5" x2="916.3" y2="-2765.5"/>
</g>
<g>
	<g>
		<path class="st1" d="M1125.2-2686.1l40.6,132.4l-552.6-1.8l40.8-130.6H1125.2 M1134.7-2706.1H644.4c-3.2,0-6,2.3-6.9,5.6
			L589.2-2546c-1.5,5.2,2,10.4,6.9,10.4l586.5,1.9c4.9,0,8.4-5.2,7-10.4l-48-156.5C1140.7-2703.9,1137.9-2706.1,1134.7-2706.1
			L1134.7-2706.1z"/>
	</g>
	<polyline class="st2" points="603.3,-2549 603.3,-2502.3 1174.8,-2502.3 1174.8,-2549 	"/>
	<g>
		<path class="st1" d="M1096.2-2637l10.3,36.7H673.6l12.7-36.7H1096.2 M1102.8-2657H680.2c-4.8,0-9.2,3.1-10.7,7.6l-18.7,54
			c-2.6,7.4,2.9,15.1,10.7,15.1h456.4c7.5,0,13-7.2,10.9-14.4l-15.1-54C1112.3-2653.6,1107.8-2657,1102.8-2657L1102.8-2657z"/>
	</g>
</g>
<path class="st0" d="M1488.7-2771.7h-229c-5.2,0-9.5-4.3-9.5-9.5v-452c0-5.2,4.3-9.5,9.5-9.5h229c5.2,0,9.5,4.3,9.5,9.5v452
	C1498.2-2775.9,1493.9-2771.7,1488.7-2771.7z"/>
<line class="st3" x1="1299.5" y1="-3206" x2="1448.8" y2="-3206"/>
<line class="st3" x1="1299.5" y1="-3166" x2="1448.8" y2="-3166"/>
<line class="st3" x1="1299.5" y1="-3126" x2="1448.8" y2="-3126"/>
<line class="st3" x1="1299.5" y1="-2849.4" x2="1448.8" y2="-2849.4"/>
<line class="st3" x1="1299.5" y1="-2809.4" x2="1448.8" y2="-2809.4"/>
<path class="st3" d="M1438.9-2994.2h-15.3c-10.1,0-18.3-8.2-18.3-18.3v-15.3c0-10.1,8.2-18.3,18.3-18.3h15.3
	c10.1,0,18.3,8.2,18.3,18.3v15.3C1457.3-3002.4,1449.1-2994.2,1438.9-2994.2z"/>
<path class="st3" d="M1250.2-2825.7c0,0-57,34-32,77c16.6,19.4,57,25.1,63.2,25.9c0.5,0.1,1,0.1,1.5,0.1c7.3,0,71.5,0.9,91.3,48"/>
<ellipse transform="matrix(0.908 -0.4189 0.4189 0.908 1213.8679 344.0662)" class="st3" cx="1390.5" cy="-2592.3" rx="59.7" ry="76"/>
<line class="st3" x1="1330.1" y1="-2584.9" x2="1441.8" y2="-2622.9"/>
<line class="st3" x1="1366.8" y1="-2664.1" x2="1386" y2="-2603.9"/>
<line class="st4" x1="1366.8" y1="-2664.1" x2="1386" y2="-2603.9"/>
<line class="st5" x1="1373.3" y1="-2643" x2="1380" y2="-2622.1"/>
<path class="st0" d="M3555.9-2485.6H2741c-13.8,0-25-11.2-25-25v-723.9c0-13.8,11.2-25,25-25h814.8c13.8,0,25,11.2,25,25v723.9
	C3580.9-2496.8,3569.7-2485.6,3555.9-2485.6z"/>
<path class="st0" d="M2716.1-3112.2"/>
<rect x="2716.1" y="-3060.4" class="st0" width="864.8" height="375.8"/>
<g>
	<polyline class="st6" points="2915.5,-3223.9 2898.4,-3223.9 2886.5,-3207.5 2886.5,-3172.3 2944.4,-3172.3 2944.4,-3207.5 
		2932.5,-3223.9 2915.5,-3223.9 	"/>
	<line class="st7" x1="2896.7" y1="-3172.3" x2="2896.7" y2="-3192.4"/>
	<line class="st7" x1="2905.7" y1="-3172.3" x2="2905.7" y2="-3192.4"/>
	<line class="st7" x1="2914.6" y1="-3172.3" x2="2914.6" y2="-3192.4"/>
	<line class="st7" x1="2923.5" y1="-3172.3" x2="2923.5" y2="-3192.4"/>
	<line class="st7" x1="2932.4" y1="-3172.3" x2="2932.4" y2="-3192.4"/>
</g>
<g>
	<polyline class="st6" points="2823.9,-3223.9 2806.9,-3223.9 2794.9,-3207.5 2794.9,-3172.3 2852.8,-3172.3 2852.8,-3207.5 
		2840.9,-3223.9 2823.9,-3223.9 	"/>
	<line class="st7" x1="2805.1" y1="-3172.3" x2="2805.1" y2="-3192.4"/>
	<line class="st7" x1="2814.1" y1="-3172.3" x2="2814.1" y2="-3192.4"/>
	<line class="st7" x1="2823" y1="-3172.3" x2="2823" y2="-3192.4"/>
	<line class="st7" x1="2831.9" y1="-3172.3" x2="2831.9" y2="-3192.4"/>
	<line class="st7" x1="2840.8" y1="-3172.3" x2="2840.8" y2="-3192.4"/>
</g>
<g>
	<polyline class="st6" points="2915.3,-3141.8 2898.2,-3141.8 2886.3,-3125.4 2886.3,-3090.3 2944.2,-3090.3 2944.2,-3125.4 
		2932.3,-3141.8 2915.3,-3141.8 	"/>
	<line class="st7" x1="2896.5" y1="-3090.3" x2="2896.5" y2="-3110.4"/>
	<line class="st7" x1="2905.4" y1="-3090.3" x2="2905.4" y2="-3110.4"/>
	<line class="st7" x1="2914.4" y1="-3090.3" x2="2914.4" y2="-3110.4"/>
	<line class="st7" x1="2923.3" y1="-3090.3" x2="2923.3" y2="-3110.4"/>
	<line class="st7" x1="2932.2" y1="-3090.3" x2="2932.2" y2="-3110.4"/>
</g>
<g>
	<polyline class="st6" points="2823.5,-3141.8 2806.5,-3141.8 2794.6,-3125.4 2794.6,-3090.3 2852.5,-3090.3 2852.5,-3125.4 
		2840.5,-3141.8 2823.5,-3141.8 	"/>
	<line class="st7" x1="2804.8" y1="-3090.3" x2="2804.8" y2="-3110.4"/>
	<line class="st7" x1="2813.7" y1="-3090.3" x2="2813.7" y2="-3110.4"/>
	<line class="st7" x1="2822.6" y1="-3090.3" x2="2822.6" y2="-3110.4"/>
	<line class="st7" x1="2831.5" y1="-3090.3" x2="2831.5" y2="-3110.4"/>
	<line class="st7" x1="2840.5" y1="-3090.3" x2="2840.5" y2="-3110.4"/>
</g>
<g>
	<polyline class="st6" points="3006.5,-3223.9 2989.4,-3223.9 2977.5,-3207.5 2977.5,-3172.3 3035.4,-3172.3 3035.4,-3207.5 
		3023.5,-3223.9 3006.5,-3223.9 	"/>
	<line class="st7" x1="2987.7" y1="-3172.3" x2="2987.7" y2="-3192.4"/>
	<line class="st7" x1="2996.7" y1="-3172.3" x2="2996.7" y2="-3192.4"/>
	<line class="st7" x1="3005.6" y1="-3172.3" x2="3005.6" y2="-3192.4"/>
	<line class="st7" x1="3014.5" y1="-3172.3" x2="3014.5" y2="-3192.4"/>
	<line class="st7" x1="3023.4" y1="-3172.3" x2="3023.4" y2="-3192.4"/>
</g>
<g>
	<polyline class="st6" points="3006.3,-3141.8 2989.2,-3141.8 2977.3,-3125.4 2977.3,-3090.3 3035.2,-3090.3 3035.2,-3125.4 
		3023.3,-3141.8 3006.3,-3141.8 	"/>
	<line class="st7" x1="2987.5" y1="-3090.3" x2="2987.5" y2="-3110.4"/>
	<line class="st7" x1="2996.4" y1="-3090.3" x2="2996.4" y2="-3110.4"/>
	<line class="st7" x1="3005.4" y1="-3090.3" x2="3005.4" y2="-3110.4"/>
	<line class="st7" x1="3014.3" y1="-3090.3" x2="3014.3" y2="-3110.4"/>
	<line class="st7" x1="3023.2" y1="-3090.3" x2="3023.2" y2="-3110.4"/>
</g>
<g>
	<polyline class="st6" points="3097.5,-3223.9 3080.4,-3223.9 3068.5,-3207.5 3068.5,-3172.3 3126.4,-3172.3 3126.4,-3207.5 
		3114.5,-3223.9 3097.5,-3223.9 	"/>
	<line class="st7" x1="3078.7" y1="-3172.3" x2="3078.7" y2="-3192.4"/>
	<line class="st7" x1="3087.7" y1="-3172.3" x2="3087.7" y2="-3192.4"/>
	<line class="st7" x1="3096.6" y1="-3172.3" x2="3096.6" y2="-3192.4"/>
	<line class="st7" x1="3105.5" y1="-3172.3" x2="3105.5" y2="-3192.4"/>
	<line class="st7" x1="3114.4" y1="-3172.3" x2="3114.4" y2="-3192.4"/>
</g>
<g>
	<polyline class="st6" points="3097.3,-3141.8 3080.2,-3141.8 3068.3,-3125.4 3068.3,-3090.3 3126.2,-3090.3 3126.2,-3125.4 
		3114.3,-3141.8 3097.3,-3141.8 	"/>
	<line class="st7" x1="3078.5" y1="-3090.3" x2="3078.5" y2="-3110.4"/>
	<line class="st7" x1="3087.4" y1="-3090.3" x2="3087.4" y2="-3110.4"/>
	<line class="st7" x1="3096.4" y1="-3090.3" x2="3096.4" y2="-3110.4"/>
	<line class="st7" x1="3105.3" y1="-3090.3" x2="3105.3" y2="-3110.4"/>
	<line class="st7" x1="3114.2" y1="-3090.3" x2="3114.2" y2="-3110.4"/>
</g>
<line class="st8" x1="2716.1" y1="-3155.5" x2="3580.9" y2="-3155.5"/>
<line class="st8" x1="2870.1" y1="-3259.4" x2="2870.1" y2="-3060.4"/>
<line class="st8" x1="2961.1" y1="-3255" x2="2961.1" y2="-3056"/>
<line class="st8" x1="3052.1" y1="-3250.5" x2="3052.1" y2="-3051.5"/>
<line class="st8" x1="3143.1" y1="-3257.3" x2="3143.1" y2="-3058.3"/>
<rect x="3373.6" y="-3117.7" class="st9" width="158" height="30.9"/>
<rect x="3181" y="-3117.7" class="st9" width="158" height="30.9"/>
<g>
	<rect x="3459.1" y="-3229.6" class="st9" width="72.5" height="59.7"/>
	<rect x="3478" y="-3214" class="st10" width="34.6" height="28.5"/>
</g>
<line class="st4" x1="3301.8" y1="-3155.5" x2="3391.9" y2="-3256.8"/>
<g>
	<path class="st1" d="M2918.8-3049.3v167.8h-93.4v-167.8H2918.8 M2927.8-3058.3h-111.4v185.8h111.4V-3058.3L2927.8-3058.3z"/>
</g>
<g>
	<path class="st1" d="M2821.1-3049.3v167.8h-93.4v-167.8H2821.1 M2830.1-3058.3h-111.4v185.8h111.4V-3058.3L2830.1-3058.3z"/>
</g>
<g>
	<path class="st1" d="M3027.4-3049.3v167.8H2934v-167.8H3027.4 M3036.4-3058.3H2925v185.8h111.4V-3058.3L3036.4-3058.3z"/>
</g>
<g>
	<path class="st1" d="M3136.1-3049.3v167.8h-93.4v-167.8H3136.1 M3145.1-3058.3h-111.4v185.8h111.4V-3058.3L3145.1-3058.3z"/>
</g>
<g>
	<path class="st1" d="M3244.8-3049.3v167.8h-93.4v-167.8H3244.8 M3253.8-3058.3h-111.4v185.8h111.4V-3058.3L3253.8-3058.3z"/>
</g>
<g>
	<path class="st1" d="M3353.4-3049.3v167.8H3260v-167.8H3353.4 M3362.4-3058.3H3251v185.8h111.4V-3058.3L3362.4-3058.3z"/>
</g>
<g>
	<path class="st1" d="M3462.1-3049.3v167.8h-93.4v-167.8H3462.1 M3471.1-3058.3h-111.4v185.8h111.4V-3058.3L3471.1-3058.3z"/>
</g>
<g>
	<path class="st1" d="M3570.7-3049.3v167.8h-93.4v-167.8H3570.7 M3579.7-3058.3h-111.4v185.8h111.4V-3058.3L3579.7-3058.3z"/>
</g>
<rect x="2743.7" y="-3023.7" class="st11" width="60.4" height="41.2"/>
<rect x="2841.3" y="-3023.7" class="st11" width="60.4" height="41.2"/>
<rect x="2950.5" y="-3023.7" class="st11" width="60.4" height="41.2"/>
<rect x="3059.7" y="-3023.7" class="st11" width="60.4" height="41.2"/>
<rect x="3168.9" y="-3023.7" class="st11" width="60.4" height="41.2"/>
<rect x="3275.9" y="-3023.7" class="st11" width="60.4" height="41.2"/>
<g>
	<rect x="3384.6" y="-3023.7" class="st11" width="60.4" height="41.2"/>
</g>
<g>
	<rect x="3493.3" y="-3023.7" class="st11" width="60.4" height="41.2"/>
</g>
<g>
	<path class="st1" d="M2918.8-2864.7v165.2h-93.6v-165.2H2918.8 M2927.8-2873.7h-111.6v183.2h111.6V-2873.7L2927.8-2873.7z"/>
</g>
<g>
	<path class="st1" d="M2821-2864.7v165.2h-93.6v-165.2H2821 M2830-2873.7h-111.6v183.2H2830V-2873.7L2830-2873.7z"/>
</g>
<g>
	<path class="st1" d="M3027.6-2864.7v165.2H2934v-165.2H3027.6 M3036.6-2873.7H2925v183.2h111.6V-2873.7L3036.6-2873.7z"/>
</g>
<g>
	<path class="st1" d="M3136.5-2864.7v165.2h-93.6v-165.2H3136.5 M3145.5-2873.7h-111.6v183.2h111.6V-2873.7L3145.5-2873.7z"/>
</g>
<g>
	<path class="st1" d="M3245.3-2864.7v165.2h-93.6v-165.2H3245.3 M3254.3-2873.7h-111.6v183.2h111.6V-2873.7L3254.3-2873.7z"/>
</g>
<g>
	<path class="st1" d="M3354.2-2864.7v165.2h-93.6v-165.2H3354.2 M3363.2-2873.7h-111.6v183.2h111.6V-2873.7L3363.2-2873.7z"/>
</g>
<g>
	<path class="st1" d="M3463-2864.7v165.2h-93.6v-165.2H3463 M3472-2873.7h-111.6v183.2H3472V-2873.7L3472-2873.7z"/>
</g>
<g>
	<path class="st1" d="M3571.8-2864.7v165.2h-93.6v-165.2H3571.8 M3580.8-2873.7h-111.6v183.2h111.6V-2873.7L3580.8-2873.7z"/>
</g>
<rect x="2741.5" y="-2848.4" class="st11" width="60.5" height="41.2"/>
<rect x="2839.2" y="-2848.4" class="st11" width="60.5" height="41.2"/>
<rect x="2948.6" y="-2848.4" class="st11" width="60.5" height="41.2"/>
<rect x="3058" y="-2848.4" class="st11" width="60.5" height="41.2"/>
<rect x="3167.4" y="-2848.4" class="st11" width="60.5" height="41.2"/>
<rect x="3274.6" y="-2848.4" class="st11" width="60.5" height="41.2"/>
<g>
	<rect x="3383.5" y="-2848.4" class="st11" width="60.5" height="41.2"/>
</g>
<g>
	<rect x="3492.3" y="-2848.4" class="st11" width="60.5" height="41.2"/>
</g>
<rect x="2778" y="-2634.1" class="st11" width="214" height="104.6"/>
<rect x="3032.7" y="-2637.4" class="st11" width="214" height="104.6"/>
<rect x="3287.4" y="-2640.7" class="st11" width="214" height="104.6"/>
<g>
	<g>
		<path class="st0" d="M1437.9-1379.5H649.1c-21,0-38-17-38-38V-1702c0-21,17-38,38-38h788.9c21,0,38,17,38,38v284.5
			C1475.9-1396.5,1458.9-1379.5,1437.9-1379.5z"/>
		<path class="st0" d="M868-1870"/>
		<g>
			<path class="st1" d="M867-1880h-53.5c-4.1,0-8.1,1.3-11.3,3.8l-182,135.4l11.9,16L813.9-1860H867V-1880z"/>
			<path class="st1" d="M1284.1-1876.2c-3.3-2.4-7.3-3.8-11.3-3.8H1224v20h48.4l181.7,135.2l11.9-16L1284.1-1876.2z"/>
		</g>
	</g>
	<path class="st11" d="M1223.2-1820c6.1,0,13.4,5.1,16.2,11.5l3.2,7.3c3,6.8,0.1,12.5-6.5,12.5H854.9c-6.6,0-9.5-5.7-6.5-12.5
		l3.2-7.3c2.8-6.4,10.1-11.5,16.2-11.5"/>
	<polygon class="st1" points="1220.5,-1997.7 1220.5,-1792.1 870.5,-1792.1 870.5,-2068.5 1139.7,-2068.5 1139.7,-2075.5 
		863.5,-2075.5 863.5,-1785.1 1227.5,-1785.1 1227.5,-1997.7 	"/>
	<rect x="989" y="-2044" class="st1" width="113" height="18.5"/>
	<rect x="939.5" y="-2007" class="st1" width="182.2" height="18.5"/>
	<rect x="939.5" y="-1981.5" class="st1" width="136.5" height="18.5"/>
	<rect x="939.5" y="-1952.5" class="st1" width="136.5" height="18.5"/>
	<rect x="939.5" y="-1923.5" class="st1" width="212" height="18.5"/>
	<rect x="939.5" y="-1894.5" class="st1" width="212" height="18.5"/>
	<rect x="939.5" y="-1865.5" class="st1" width="212" height="18.5"/>
	<rect x="939.5" y="-1836.5" class="st1" width="126.5" height="18.5"/>
	<polygon class="st1" points="1139.7,-2075.5 1139.7,-1997.7 1227.5,-1997.7 	"/>
	<polygon class="st12" points="1139.7,-1997.7 1221.8,-1917.3 1221.8,-1997.7 	"/>
	<circle class="st1" cx="1375" cy="-1633" r="25.5"/>
	<circle class="st13" cx="1375" cy="-1554" r="36"/>
	<rect x="761.7" y="-1447.3" class="st14" width="563.7" height="67.8"/>
	<polygon class="st14" points="1267.5,-1447.3 819.5,-1447.3 761.7,-1379.5 1325.3,-1379.5 	"/>
</g>
<polygon class="st15" points="2718.2,-1818.1 3031.7,-2116.6 3253,-2116.6 2717.8,-1607 "/>
<path class="st0" d="M3545-1341h-788.9c-21,0-38-17-38-38v-697.4c0-21,17-38,38-38H3545c21,0,38,17,38,38v697.4
	C3582.9-1358,3565.9-1341,3545-1341z"/>
<g>
	<path class="st16" d="M3435.9-1962h-108.7c-6.6,0-12-5.4-12-12v-81.4c0-6.6,5.4-12,12-12h108.7c6.6,0,12,5.4,12,12v81.4
		C3447.9-1967.4,3442.5-1962,3435.9-1962z"/>
	<polygon class="st17" points="3447.9,-2014.7 3502,-2068.8 3502,-1962 	"/>
</g>
<line class="st17" x1="2718.1" y1="-1620" x2="3582.9" y2="-1620"/>
<circle class="st17" cx="3147.2" cy="-1483.3" r="81"/>
<g id="call_1_">
	<path class="st1" d="M3162.3-1504.7c-1-1.5-1.5-3.4-1-4.9c1.9-5.8,2.9-11.7,2.9-17.5c0-2.9,1.9-4.9,4.9-4.9h17
		c2.9,0,4.9,1.9,4.9,4.9c0,45.8-37,82.8-82.8,82.8c-2.9,0-4.9-1.9-4.9-4.9v-16.6c0-2.9,1.9-4.9,4.9-4.9c6.3,0,12.2-1,17.5-2.9
		c1.5-1,3.4-0.5,4.9,1l10.7,10.7c13.6-7.3,25.3-18.5,32.1-32.1L3162.3-1504.7z"/>
</g>
<path class="st18" d="M3199.9-1795.2c32.5-15.5,54.9-48.7,54.9-87c0-53.3-43.2-96.4-96.4-96.4s-96.4,43.2-96.4,96.4
	c0,38.7,22.8,72.1,55.8,87.5c-122.9,27.9-140.9,174.8-140.9,174.8h347.5C3324.3-1620,3321.7-1768.4,3199.9-1795.2z"/>
<circle class="st7" cx="3413.8" cy="-2043.5" r="11.8"/>
<text transform="matrix(0.7071 -0.7071 0.7071 0.7071 2843.7571 -1761.6007)" style="opacity:0.55;fill:#4285F4; font-family:'MyriadPro-Regular'; font-size:146.5113px;">IPTEL</text>
<g>
	<path class="st0" d="M3436.1-524.3c0,10.8-8.8,19.6-19.6,19.6h-286.8h-243.9c-10.8,0-19.6-8.8-19.6-19.6v-347.8
		c0-10.8,8.8-19.6,19.6-19.6h530.7c10.8,0,19.6,8.8,19.6,19.6V-524.3z"/>
	<path class="st0" d="M3537.7-262.4c4.1,9.8-4.6,17.9-19.6,17.9h-397.3h-338c-15,0-23.7-8.1-19.6-17.9l98.2-232.7
		c2.3-5.4,12.8-9.6,23.7-9.6h530.7c10.8,0,21.4,4.3,23.7,9.6L3537.7-262.4z"/>
	<path class="st0" d="M3388.5-562.4c0,8.5-7.3,15.3-16.3,15.3h-238.8h-203.2c-9,0-16.3-6.9-16.3-15.3v-271.7
		c0-8.5,7.3-15.3,16.3-15.3h442c9,0,16.3,6.9,16.3,15.3V-562.4z"/>
	<polygon class="st19" points="3217.5,-252.4 3089.6,-252.4 3092.7,-334.7 3214.2,-334.7 	"/>
	<g>
		<polygon class="st20" points="2895,-442.8 2865.3,-442.8 2873.6,-466.8 2902.4,-466.8 		"/>
		<polygon class="st20" points="2940.5,-442.8 2910.9,-442.8 2917.8,-466.8 2946.6,-466.8 		"/>
		<polygon class="st20" points="2986.1,-442.8 2956.4,-442.8 2962,-466.8 2990.9,-466.8 		"/>
		<polygon class="st20" points="3031.6,-442.8 3002,-442.8 3006.3,-466.8 3035.1,-466.8 		"/>
		<polygon class="st20" points="3077.2,-442.8 3047.5,-442.8 3050.5,-466.8 3079.3,-466.8 		"/>
		<polygon class="st20" points="3122.7,-442.8 3093,-442.8 3094.7,-466.8 3123.5,-466.8 		"/>
		<polygon class="st20" points="3168.3,-442.8 3138.6,-442.8 3138.9,-466.8 3167.8,-466.8 		"/>
		<polygon class="st20" points="3213.8,-442.8 3184.1,-442.8 3183.2,-466.8 3212,-466.8 		"/>
		<polygon class="st20" points="3259.4,-442.8 3229.7,-442.8 3227.4,-466.8 3256.2,-466.8 		"/>
		<polygon class="st20" points="3304.9,-442.8 3275.2,-442.8 3271.6,-466.8 3300.4,-466.8 		"/>
		<polygon class="st20" points="3350.4,-442.8 3320.8,-442.8 3315.8,-466.8 3344.6,-466.8 		"/>
		<polygon class="st20" points="3396,-442.8 3366.3,-442.8 3360.1,-466.8 3388.9,-466.8 		"/>
		<polygon class="st20" points="3435.7,-442.8 3406,-442.8 3398.6,-466.8 3427.4,-466.8 		"/>
		<polygon class="st20" points="2883.1,-404.3 2852.1,-404.3 2861.1,-430.6 2891.2,-430.6 		"/>
		<polygon class="st20" points="2930.8,-404.3 2899.7,-404.3 2907.3,-430.6 2937.4,-430.6 		"/>
		<polygon class="st20" points="2978.4,-404.3 2947.4,-404.3 2953.6,-430.6 2983.7,-430.6 		"/>
		<polygon class="st20" points="3026.1,-404.3 2995.1,-404.3 2999.8,-430.6 3029.9,-430.6 		"/>
		<polygon class="st20" points="3073.8,-404.3 3042.7,-404.3 3046,-430.6 3076.1,-430.6 		"/>
		<polygon class="st20" points="3121.4,-404.3 3090.4,-404.3 3092.2,-430.6 3122.3,-430.6 		"/>
		<polygon class="st20" points="3169.1,-404.3 3138,-404.3 3138.4,-430.6 3168.5,-430.6 		"/>
		<polygon class="st20" points="3216.8,-404.3 3185.7,-404.3 3184.6,-430.6 3214.7,-430.6 		"/>
		<polygon class="st20" points="3264.4,-404.3 3233.4,-404.3 3230.9,-430.6 3261,-430.6 		"/>
		<polygon class="st20" points="3359.7,-404.3 3281,-404.3 3277.1,-430.6 3353.4,-430.6 		"/>
		<polygon class="st20" points="3407.4,-404.3 3376.3,-404.3 3369.5,-430.6 3399.6,-430.6 		"/>
		<polygon class="st20" points="3448.1,-404.3 3417.1,-404.3 3409,-430.6 3439.1,-430.6 		"/>
		<polygon class="st20" points="2870.8,-364.3 2838.3,-364.3 2848.2,-393.1 2879.7,-393.1 		"/>
		<polygon class="st20" points="2920.7,-364.3 2888.2,-364.3 2896.5,-393.1 2928,-393.1 		"/>
		<polygon class="st20" points="2970.5,-364.3 2938,-364.3 2944.8,-393.1 2976.2,-393.1 		"/>
		<polygon class="st20" points="3239.6,-364.3 2987.9,-364.3 2993.1,-393.1 3236.8,-393.1 		"/>
		<polygon class="st20" points="3319.5,-364.3 3255.7,-364.3 3252.4,-393.1 3314.2,-393.1 		"/>
		<polygon class="st20" points="3375.6,-364.3 3343.2,-364.3 3337.1,-393.1 3368.5,-393.1 		"/>
		<polygon class="st20" points="3419.2,-364.3 3386.7,-364.3 3379.3,-393.1 3410.7,-393.1 		"/>
		<polygon class="st20" points="3462.7,-364.3 3430.2,-364.3 3421.3,-393.1 3452.8,-393.1 		"/>
	</g>
</g>
<g>
	<circle class="st0" cx="722.5" cy="565.7" r="42.5"/>
	<circle class="st0" cx="1372" cy="565.7" r="42.5"/>
	<circle class="st0" cx="1126.5" cy="344.8" r="34.5"/>
	<circle class="st0" cx="1097.5" cy="437.3" r="29"/>
	<circle class="st0" cx="1199" cy="716.6" r="29"/>
	<path class="st0" d="M722.5,523.2c0,0,28-85.9,94.8-85.9s186.8,0,186.8,0"/>
	<path class="st0" d="M750.6,597.6c0,0,3.6,80.5,80.5,80.5s172.9,0,172.9,0"/>
	<path class="st0" d="M852,443.7c0,0,25.3-98.9,83.6-98.9s156.4,0,156.4,0"/>
	<path class="st0" d="M1372,520.9c0,0-25.3-83.6-83.6-83.6s-156.4,0-156.4,0"/>
	<path class="st0" d="M926,678.1c0,0,25.9-79.4,73.9-79.4c48.1,0,170.1,0,170.1,0"/>
	<path class="st0" d="M964,678.1c0,0,7.1,38.6,38.6,38.6c31.4,0,167.4,0,167.4,0"/>
	<polygon class="st1" points="1000.3,653.1 1025.3,678.1 1000.3,703.1 	"/>
	<polygon class="st1" points="1288,741.9 1263,716.9 1288,691.9 	"/>
	<polygon class="st1" points="1170,573.7 1195,598.7 1170,623.7 	"/>
	<polygon class="st1" points="1000.3,412.3 1025.3,437.3 1000.3,462.3 	"/>
	<path class="st0" d="M1329.5,565.7c0,0-3.5,33-22.4,33c-18.9,0-34.7,0-34.7,0"/>
	<circle class="st0" cx="1245.3" cy="598.7" r="27.1"/>
	<path class="st0" d="M1372,608.2v69.9c0,0,6.4,38.8-38.8,38.8s-45.2,0-45.2,0"/>
</g>
<g>
	<g>
		<path class="st0" d="M1327.8-259.2c0,8.1-6.6,14.7-14.7,14.7h-215.3H914.8c-8.1,0-14.7-6.6-14.7-14.7v-261.1
			c0-8.1,6.6-14.7,14.7-14.7h398.4c8.1,0,14.7,6.6,14.7,14.7V-259.2z"/>
		<path class="st0" d="M1292.1-287.7c0,6.3-5.5,11.5-12.2,11.5h-179.3H948.1c-6.8,0-12.2-5.1-12.2-11.5v-203.9
			c0-6.3,5.5-11.5,12.2-11.5h331.8c6.8,0,12.2,5.1,12.2,11.5V-287.7z"/>
	</g>
	<path class="st21" d="M1409.9-890.7v70.6c0,0,0.5,8.9-6.9,14.8s-15.5,4.8-15.5,4.8H1330"/>
	<path class="st21" d="M1168.4-920.5h301.8L1330-851.3v71.9h-281.2c0,0-103.3-5.9-103.3-70.6c0-74.7,116.6-70.6,116.6-70.6"/>
	<path class="st22" d="M1087.7-779.4v83.2c0,0,2.5,15.4-10,23c-12.5,7.7-28.5,7.7-28.5,7.7h-49v-34.8c0,0-7.5-17.2-32.4-17.2
		s-32.1,14.8-32.1,14.8v72c0,0,2.5,18.3,31.3,18.3c28.8,0,31.8-16.4,31.8-16.4l1.4-36.7"/>
	<path class="st22" d="M935.8-664.8c0,0-188.5-25.1-188.5,129.8s152.8,138.6,152.8,138.6"/>
	<path class="st23" d="M1144.4-327h-66.1c-9.7,0-17.5-7.9-17.5-17.5v-46.7c0-9.7,7.9-17.5,17.5-17.5h66.1c9.7,0,17.5,7.9,17.5,17.5
		v46.7C1162-334.9,1154.1-327,1144.4-327z"/>
	<path class="st24" d="M1074.9-403.6c0,0-4.1-50.1,36.5-50.1s36.8,50.1,36.8,50.1H1074.9z"/>
	<circle class="st25" cx="1279.6" cy="-820.5" r="20.1"/>
	<circle class="st26" cx="1229.9" cy="-811.7" r="12.8"/>
</g>
<g>
	<path class="st27" d="M2938.9,301.4c-27.1,0-49.2,22.1-49.2,49.2c0,27.1,22.1,49.2,49.2,49.2s49.2-22.1,49.2-49.2
		C2988.1,323.5,2966,301.4,2938.9,301.4z M2938.9,378c-15.1,0-27.3-12.3-27.3-27.3s12.3-27.3,27.3-27.3s27.3,12.3,27.3,27.3
		S2954,378,2938.9,378z"/>
	<circle class="st27" cx="3370.7" cy="334.2" r="10.9"/>
	<circle class="st27" cx="3327" cy="334.2" r="10.9"/>
	<circle class="st27" cx="3392.5" cy="367" r="10.9"/>
	<circle class="st27" cx="3348.8" cy="367" r="10.9"/>
	<circle class="st27" cx="3283.2" cy="334.2" r="10.9"/>
	<circle class="st27" cx="3305.1" cy="367" r="10.9"/>
	<circle class="st27" cx="3239.5" cy="334.2" r="10.9"/>
	<circle class="st27" cx="3261.4" cy="367" r="10.9"/>
	<circle class="st27" cx="3195.8" cy="334.2" r="10.9"/>
	<circle class="st27" cx="3217.6" cy="367" r="10.9"/>
	<path class="st27" d="M2938.9,509.1c-27.1,0-49.2,22.1-49.2,49.2s22.1,49.2,49.2,49.2s49.2-22.1,49.2-49.2S2966,509.1,2938.9,509.1
		z M2938.9,585.7c-15.1,0-27.3-12.3-27.3-27.3s12.3-27.3,27.3-27.3s27.3,12.3,27.3,27.3S2954,585.7,2938.9,585.7z"/>
	<path class="st27" d="M2938.9,716.8c-27.1,0-49.2,22.1-49.2,49.2s22.1,49.2,49.2,49.2s49.2-22.1,49.2-49.2S2966,716.8,2938.9,716.8
		z M2938.9,793.3c-15.1,0-27.3-12.3-27.3-27.3c0-15.1,12.3-27.3,27.3-27.3s27.3,12.3,27.3,27.3
		C2966.2,781.1,2954,793.3,2938.9,793.3z"/>
	<path class="st27" d="M3480,415V286.2c0-27.8-22.6-50.4-50.4-50.4h-555.1c-27.8,0-50.4,22.6-50.4,50.4V415
		c0,16.1,7.7,30.2,19.4,39.4c-11.7,9.2-19.4,23.4-19.4,39.5v128.8c0,16.1,7.7,30.2,19.4,39.4c-11.7,9.2-19.4,23.4-19.4,39.5v128.8
		c0,27.8,22.6,50.4,50.4,50.4h304.7c29.3,5.4,61.5,8.2,93.1,8.2c94.8,0,194.8-24.6,206.5-71.6c0.7-1.5,1.1-3.1,1.1-4.9v-98.4V710
		v-4.1v-90.2v-4.1v-4.1v-94.3v-4.1c0-1.6-0.4-3.2-1-4.5c-3.8-16-18-29.5-38.9-40.3C3462.8,459.5,3480,439.2,3480,415z M2846,622.7
		V493.9c0-15.7,12.8-28.5,28.5-28.5h228c-19.8,10.6-33.2,23.7-36.9,39.2c-0.6,1.4-1,2.9-1,4.5v4.1v94.3v4.1v4.1v35.5h-190.1
		C2858.8,651.2,2846,638.5,2846,622.7z M3093.3,555.6c0.5,0.3,1,0.6,1.5,1c1.9,1.2,3.9,2.4,6,3.5c0.6,0.3,1.2,0.7,1.8,1
		c2.5,1.4,5.2,2.7,7.9,4c0.4,0.2,0.9,0.4,1.3,0.6c2.4,1.1,4.9,2.2,7.5,3.2c0.8,0.3,1.5,0.6,2.3,0.9c3,1.2,6.1,2.3,9.3,3.4
		c0.2,0.1,0.3,0.1,0.5,0.2c3,1,6.2,2,9.3,3c0.9,0.3,1.7,0.5,2.6,0.8c3.1,0.9,6.3,1.8,9.6,2.7c0.3,0.1,0.5,0.1,0.8,0.2
		c3.5,0.9,7.1,1.7,10.8,2.6c0.9,0.2,1.8,0.4,2.8,0.6c3.1,0.7,6.3,1.3,9.5,1.9c0.6,0.1,1.3,0.3,1.9,0.4c3.7,0.7,7.5,1.3,11.4,2
		c0.9,0.1,1.8,0.3,2.7,0.4c3.2,0.5,6.4,1,9.6,1.4c0.9,0.1,1.8,0.2,2.7,0.3c3.9,0.5,7.8,1,11.8,1.4c0.8,0.1,1.6,0.2,2.4,0.2
		c3.3,0.3,6.7,0.6,10,0.9c1,0.1,2,0.2,3,0.2c4,0.3,8,0.6,12.1,0.8c0.6,0,1.1,0,1.7,0.1c3.6,0.2,7.1,0.3,10.7,0.4
		c1.1,0,2.1,0.1,3.2,0.1c4.1,0.1,8.2,0.2,12.2,0.2c4.1,0,8.1-0.1,12.2-0.2c1.1,0,2.1-0.1,3.2-0.1c3.6-0.1,7.1-0.2,10.7-0.4
		c0.6,0,1.1,0,1.7-0.1c4-0.2,8.1-0.5,12.1-0.8c1-0.1,2-0.2,3-0.2c3.4-0.3,6.7-0.6,10-0.9c0.8-0.1,1.6-0.2,2.4-0.2
		c4-0.4,7.9-0.9,11.8-1.4c0.9-0.1,1.8-0.2,2.7-0.3c3.2-0.4,6.4-0.9,9.6-1.4c0.9-0.1,1.8-0.3,2.7-0.4c3.8-0.6,7.6-1.3,11.4-2
		c0.6-0.1,1.3-0.3,1.9-0.4c3.2-0.6,6.4-1.3,9.5-1.9c0.9-0.2,1.8-0.4,2.8-0.6c3.6-0.8,7.2-1.7,10.8-2.6c0.3-0.1,0.5-0.1,0.8-0.2
		c3.3-0.8,6.5-1.7,9.6-2.7c0.9-0.3,1.7-0.5,2.6-0.8c3.2-1,6.3-2,9.3-3c0.2-0.1,0.3-0.1,0.5-0.2c3.2-1.1,6.3-2.3,9.3-3.4
		c0.8-0.3,1.5-0.6,2.3-0.9c2.6-1,5-2.1,7.5-3.2c0.4-0.2,0.9-0.4,1.3-0.6c2.8-1.3,5.4-2.6,7.9-4c0.6-0.3,1.2-0.7,1.8-1
		c2.1-1.1,4.1-2.3,6-3.5c0.5-0.3,1-0.6,1.5-1c2.3-1.5,4.4-3,6.4-4.5c0.1-0.1,0.3-0.2,0.4-0.3v54.5c-0.3,1.3-0.4,2.6-0.2,3.9
		c0.2,0.8,0.3,1.6,0.3,2.4c0,1.2-0.3,2.4-0.6,3.6c-0.2,0.9-0.5,1.9-0.9,2.8c-0.3,0.8-0.8,1.7-1.3,2.5c-0.5,0.8-1,1.7-1.6,2.5
		c-0.8,1.1-1.8,2.3-2.9,3.4c-0.4,0.4-0.8,0.9-1.2,1.3c-23.1,22.4-91.4,42.6-177.3,42.6c-85.8,0-154.1-20.2-177.3-42.6
		c-0.5-0.5-0.9-1-1.4-1.4c-1-1.1-2-2.2-2.8-3.3c-0.6-0.9-1.2-1.7-1.7-2.6c-0.4-0.8-0.9-1.6-1.2-2.3c-0.4-1-0.7-2-1-3
		c-0.3-1.2-0.6-2.4-0.6-3.6c0-0.8,0.1-1.6,0.2-2.3c0.2-1.4,0.1-2.8-0.2-4.2v-54.3c0.1,0.1,0.3,0.2,0.4,0.3
		C3088.9,552.7,3091,554.2,3093.3,555.6z M3456.6,716.5c-0.3,0.8-0.8,1.7-1.3,2.5c-0.5,0.8-1,1.7-1.6,2.5c-0.8,1.1-1.8,2.3-2.9,3.4
		c-0.4,0.4-0.8,0.9-1.2,1.3c-23.1,22.4-91.4,42.6-177.3,42.6c-85.8,0-154.1-20.2-177.3-42.6c-0.5-0.5-0.9-1-1.4-1.4
		c-1-1.1-2-2.2-2.8-3.3c-0.6-0.9-1.2-1.7-1.7-2.6c-0.4-0.8-0.9-1.6-1.2-2.3c-0.4-1-0.7-2-1-3c-0.3-1-0.5-2.1-0.5-3.1v-1.3
		c0-0.5,0.1-1,0.1-1.5c0.2-0.9-0.1-1.9-0.2-2.8l-0.1-53.6v-2c0.4,0.3,1,0.7,1.4,1c1.4,1,2.8,2,4.3,3c1.2,0.8,2.4,1.6,3.7,2.4
		c2,1.2,3.9,2.4,6,3.5c0,0,0,0,0.1,0c22.8,12.4,54.2,21.4,88.8,26.8c0.3,0,0.5,0.1,0.8,0.1c11.2,1.7,22.7,3.1,34.3,4.1
		c2.5,0.2,5,0.4,7.5,0.6c2.4,0.2,4.9,0.3,7.3,0.5c3.3,0.2,6.6,0.3,9.9,0.5c1.9,0.1,3.8,0.2,5.8,0.2c5.3,0.2,10.6,0.3,15.9,0.3
		c5.3,0,10.6-0.1,15.9-0.3c1.9-0.1,3.9-0.1,5.8-0.2c3.3-0.1,6.5-0.3,9.8-0.5c2.5-0.1,4.9-0.3,7.4-0.5c2.5-0.2,4.9-0.4,7.3-0.6
		c11.8-1,23.4-2.4,34.7-4.1c0.2,0,0.3-0.1,0.5-0.1c37.9-5.9,71.8-16.1,94.9-30.4c1.3-0.8,2.5-1.6,3.7-2.4c1.5-1,2.9-2,4.3-3
		c0.5-0.4,1-0.7,1.5-1.1v54.5c-0.3,1.3-0.4,2.6-0.2,3.9c0.1,0.8,0.2,1.6,0.2,2.4c0,1.2-0.3,2.4-0.6,3.6
		C3457.3,714.6,3457,715.5,3456.6,716.5z M2874.5,858.9c-15.7,0-28.5-12.8-28.5-28.5V701.6c0-15.7,12.8-28.5,28.5-28.5h190.1v32.8
		v4.1v4.1v98.4v10.9h3.2c0.2,0.4,0.4,0.8,0.6,1.2c0.4,0.8,0.8,1.6,1.2,2.4c0.9,1.6,1.9,3.2,3,4.8c1.1,1.6,2.4,3.1,3.7,4.6
		c0.7,0.8,1.4,1.5,2.1,2.3c4.2,4.3,9.2,8.4,15,12.1c0.2,0.1,0.4,0.3,0.6,0.4c4.2,2.7,8.7,5.3,13.6,7.7L2874.5,858.9L2874.5,858.9z
		 M3458.1,809.7c-0.1,0.3-0.2,0.7-0.2,1c-4.5,27.3-80.1,56.4-185.6,56.4c-33.7,0-64.2-3-90.5-7.9l0-0.1
		c-54.4-10.3-84.4-27.7-92.9-42.3c0,0,0,0,0,0c-0.4-0.7-0.7-1.3-1-2c-0.6-1.4-1.1-2.7-1.3-4.1l-0.1-63c0.4,0.3,0.9,0.6,1.3,0.9
		c1.4,1,2.8,2,4.3,3c1.2,0.8,2.4,1.6,3.7,2.4c2,1.2,3.9,2.4,6,3.5c0,0,0,0,0.1,0c22.8,12.4,54.2,21.4,88.8,26.8
		c0.3,0,0.5,0.1,0.8,0.1c11.2,1.7,22.7,3.1,34.3,4.1c2.5,0.2,5,0.4,7.5,0.6c2.4,0.2,4.9,0.3,7.3,0.5c3.3,0.2,6.6,0.3,9.9,0.5
		c1.9,0.1,3.8,0.2,5.8,0.2c5.3,0.2,10.6,0.3,15.9,0.3c5.3,0,10.6-0.1,15.9-0.3c1.9-0.1,3.9-0.1,5.8-0.2c3.3-0.1,6.5-0.3,9.8-0.5
		c2.5-0.1,4.9-0.3,7.4-0.5c2.5-0.2,4.9-0.4,7.3-0.6c11.8-1,23.4-2.4,34.7-4.1c0.2,0,0.3-0.1,0.5-0.1c37.9-5.9,71.8-16.1,94.9-30.4
		c1.3-0.8,2.5-1.6,3.7-2.4c1.5-1,2.9-2,4.3-3c0.5-0.4,1-0.7,1.5-1.1L3458.1,809.7L3458.1,809.7z M3458.1,513.2
		c0,27.7-79.5,58.8-185.8,58.8c-106.4,0-185.8-31-185.8-58.8c0-1.4,0.3-2.8,0.7-4.2c0.4-1.4,1-2.9,1.9-4.3c0-0.1,0.1-0.1,0.1-0.2
		c3.6-6.1,11-12.6,22.3-18.9c0.5-0.3,1-0.5,1.5-0.8c1.9-1,4-2.1,6.1-3.1c2.5-1.2,5.1-2.3,7.8-3.5c0.5-0.2,1.1-0.4,1.7-0.7
		c12.7-5.1,28-9.6,45.2-13.2c5.4-1.1,10.9-2.2,16.5-3.1c1.5-0.3,3-0.5,4.5-0.8c48.9-7.5,106-7.5,155,0c1.5,0.2,3,0.5,4.5,0.8
		c5.6,0.9,11.1,2,16.4,3.1C3424,475.6,3458.1,495.1,3458.1,513.2z M3458.1,415c0,15.7-12.8,28.5-28.5,28.5H3379
		c-0.6-0.1-1.3-0.2-2-0.4c-7.2-1.6-14.5-2.9-22.1-4.1c-0.7-0.1-1.5-0.2-2.2-0.3c-25.8-4-53.4-6.1-80.5-6.1s-54.6,2.1-80.4,6.1
		c-0.8,0.1-1.5,0.2-2.3,0.3c-7.5,1.2-14.9,2.6-22,4.1c-0.6,0.1-1.4,0.2-2,0.4h-291.1c-15.7,0-28.5-12.8-28.5-28.5V286.2
		c0-15.7,12.8-28.5,28.5-28.5h555.1c15.7,0,28.5,12.8,28.5,28.5V415z"/>
</g>
</svg>
