<svg id="Layer_1" data-name="Layer 1" xmlns="http://www.w3.org/2000/svg" viewBox="0 0 2087 1125"><defs><style>.cls-1,.cls-3,.cls-4,.cls-6{fill:none;}.cls-1,.cls-3,.cls-4,.cls-5{stroke:#4285f4;}.cls-1,.cls-4,.cls-5{stroke-miterlimit:10;}.cls-1,.cls-3,.cls-4{stroke-width:20px;}.cls-2{fill:#4285f4;}.cls-3,.cls-6{stroke-linejoin:round;}.cls-4,.cls-6{stroke-linecap:round;}.cls-5{fill:#fff;stroke-width:9px;}.cls-6{stroke:#fff;stroke-width:10px;}</style></defs><title>Artboard 3</title><path class="cls-1" d="M1174.64,561.55a19.59,19.59,0,0,1-19.59,19.59H624.34a19.59,19.59,0,0,1-19.58-19.59V213.74a19.58,19.58,0,0,1,19.58-19.58h530.71a19.59,19.59,0,0,1,19.59,19.58Z"/><path class="cls-1" d="M1127,523.5c0,8.45-7.3,15.31-16.31,15.31h-442c-9,0-16.32-6.86-16.32-15.31V251.79c0-8.45,7.31-15.3,16.32-15.3h442c9,0,16.31,6.85,16.31,15.3Z"/><polyline class="cls-1" points="856.95 581.14 856.95 669.49 906.28 669.49 906.28 581.14"/><line class="cls-1" x1="848.54" y1="669.49" x2="734.78" y2="669.49"/><line class="cls-1" x1="1038.95" y1="669.49" x2="916.28" y2="669.49"/><path class="cls-2" d="M1125.16,748.86l40.58,132.44-552.63-1.82,40.81-130.62h471.24m9.56-20H644.42a7.4,7.4,0,0,0-6.95,5.58L589.19,889c-1.49,5.16,2,10.42,6.94,10.42l586.54,1.93c4.91,0,8.41-5.23,7-10.37l-48-156.51a7.41,7.41,0,0,0-7-5.62Z"/><polyline class="cls-3" points="603.33 886.02 603.33 932.69 1174.83 932.69 1174.83 886.02"/><path class="cls-2" d="M1096.2,798l10.29,36.68H673.64L686.33,798H1096.2m6.55-20H680.17a11.35,11.35,0,0,0-10.73,7.65l-18.66,54a11.37,11.37,0,0,0,10.74,15.08h456.36a11.36,11.36,0,0,0,10.94-14.43l-15.13-54a11.35,11.35,0,0,0-10.94-8.29Z"/><rect class="cls-1" x="1250.16" y="192.31" width="248" height="471" rx="9.5" ry="9.5"/><line class="cls-4" x1="1299.49" y1="228.98" x2="1448.83" y2="228.98"/><line class="cls-4" x1="1299.49" y1="268.98" x2="1448.83" y2="268.98"/><line class="cls-4" x1="1299.49" y1="308.98" x2="1448.83" y2="308.98"/><line class="cls-4" x1="1299.49" y1="585.57" x2="1448.83" y2="585.57"/><line class="cls-4" x1="1299.49" y1="625.57" x2="1448.83" y2="625.57"/><rect class="cls-4" x="1405.26" y="388.82" width="52" height="52" rx="18.33" ry="18.33"/><path class="cls-4" d="M1250.16,609.31s-57,34-32,77c16.6,19.36,57,25.12,63.2,25.9a10.41,10.41,0,0,0,1.48.09c7.31,0,71.53.88,91.32,48"/><ellipse class="cls-4" cx="1390.46" cy="842.74" rx="59.65" ry="75.97" transform="translate(-225.15 660.02) rotate(-24.77)"/><line class="cls-4" x1="1330.14" y1="850.09" x2="1441.81" y2="812.14"/><line class="cls-4" x1="1366.8" y1="770.87" x2="1385.98" y2="831.11"/><line class="cls-5" x1="1366.8" y1="770.87" x2="1385.98" y2="831.11"/><line class="cls-6" x1="1373.3" y1="791.97" x2="1379.97" y2="812.93"/></svg>
