<svg id="Layer_1" data-name="Layer 1" xmlns="http://www.w3.org/2000/svg" viewBox="0 0 2087 1125"><defs><style>.cls-1,.cls-3,.cls-6{fill:none;stroke:#4285f4;stroke-miterlimit:10;}.cls-1{stroke-width:20px;}.cls-2,.cls-4{fill:#4285f4;}.cls-3{stroke-width:7px;}.cls-4{opacity:0.4;}.cls-5{fill:#3a76cc;}.cls-6{stroke-width:12px;}</style></defs><title>Artboard 3 copy 2</title><rect class="cls-1" x="611.1" y="550.04" width="864.8" height="360.42" rx="37.97" ry="37.97"/><path class="cls-2" d="M867.05,410H813.56a19.11,19.11,0,0,0-11.34,3.75l-182,135.37,11.93,16.05L813.88,430h53.17Z"/><path class="cls-2" d="M1284.1,413.79a19.12,19.12,0,0,0-11.35-3.75h-48.7v20h48.38l181.74,135.17,11.94-16.05Z"/><path class="cls-3" d="M1223.2,470c6.15,0,13.43,5.09,16.25,11.48l3.23,7.32c3,6.81.13,12.53-6.47,12.53H854.88c-6.6,0-9.47-5.72-6.47-12.53l3.23-7.32c2.82-6.39,10.1-11.48,16.25-11.48"/><polygon class="cls-2" points="1220.55 292.29 1220.55 497.87 870.54 497.87 870.54 221.54 1139.71 221.54 1139.71 214.54 863.54 214.54 863.54 504.87 1227.55 504.87 1227.55 292.29 1220.55 292.29"/><rect class="cls-2" x="989.05" y="246.04" width="113" height="18.5"/><rect class="cls-2" x="939.55" y="283.04" width="182.17" height="18.5"/><rect class="cls-2" x="939.55" y="308.54" width="136.5" height="18.5"/><rect class="cls-2" x="939.55" y="337.54" width="136.5" height="18.5"/><rect class="cls-2" x="939.55" y="366.54" width="212" height="18.5"/><rect class="cls-2" x="939.55" y="395.54" width="212" height="18.5"/><rect class="cls-2" x="939.55" y="424.54" width="212" height="18.5"/><rect class="cls-2" x="939.55" y="453.54" width="126.5" height="18.5"/><polygon class="cls-2" points="1139.71 214.54 1139.71 292.29 1227.55 292.29 1139.71 214.54"/><polygon class="cls-4" points="1139.71 292.29 1221.8 372.7 1221.8 292.29 1139.71 292.29"/><circle class="cls-2" cx="1375.05" cy="657.04" r="25.5"/><circle class="cls-5" cx="1375.05" cy="736.04" r="36"/><rect class="cls-6" x="761.67" y="842.7" width="563.67" height="67.76"/><polygon class="cls-6" points="1267.45 842.7 819.54 842.7 761.67 910.46 1325.33 910.46 1267.45 842.7"/></svg>