<?xml version="1.0" encoding="utf-8"?>
<!-- Generator: Adobe Illustrator 22.1.0, SVG Export Plug-In . SVG Version: 6.00 Build 0)  -->
<svg version="1.1" id="Layer_1" xmlns="http://www.w3.org/2000/svg" xmlns:xlink="http://www.w3.org/1999/xlink" x="0px" y="0px"
	 viewBox="0 0 2087 1125" style="enable-background:new 0 0 2087 1125;" xml:space="preserve">
<style type="text/css">
	.st0{fill:none;stroke:#4285F4;stroke-width:20;stroke-miterlimit:10;}
	.st1{fill:#4285F4;}
	.st2{fill:none;stroke:#4285F4;stroke-width:20;stroke-linejoin:round;stroke-miterlimit:10;}
	.st3{fill:none;stroke:#4285F4;stroke-width:20;stroke-linecap:round;stroke-miterlimit:10;}
	.st4{fill:#FFFFFF;stroke:#4285F4;stroke-width:9;stroke-miterlimit:10;}
	.st5{fill:none;stroke:#FFFFFF;stroke-width:10;stroke-linecap:round;stroke-linejoin:round;stroke-miterlimit:10;}
	.st6{fill:none;stroke:#4285F4;stroke-width:10;stroke-miterlimit:10;}
	.st7{fill:none;stroke:#4285F4;stroke-width:4;stroke-miterlimit:10;}
	.st8{fill:none;stroke:#4285F4;stroke-width:9;stroke-miterlimit:10;}
	.st9{fill:#4285F4;stroke:#4285F4;stroke-miterlimit:10;}
	.st10{fill:#FFFFFF;stroke:#FFFFFF;stroke-miterlimit:10;}
	.st11{fill:none;stroke:#4285F4;stroke-width:7;stroke-miterlimit:10;}
	.st12{opacity:0.4;fill:#4285F4;}
	.st13{fill:#3A76CC;}
	.st14{fill:none;stroke:#4285F4;stroke-width:12;stroke-miterlimit:10;}
	.st15{opacity:0.33;fill:#4285F4;}
	.st16{fill:none;stroke:#4285F4;stroke-width:11;stroke-miterlimit:10;}
	.st17{fill:none;stroke:#4285F4;stroke-width:11;stroke-linejoin:round;stroke-miterlimit:10;}
	.st18{fill:none;stroke:#4285F4;stroke-width:15;stroke-miterlimit:10;}
	.st19{fill:none;stroke:#4285F4;stroke-width:6;stroke-miterlimit:10;}
	.st20{fill:none;stroke:#4285F4;stroke-width:5;stroke-miterlimit:10;}
	.st21{fill:none;stroke:#4285F4;stroke-width:23;stroke-linecap:round;stroke-linejoin:round;stroke-miterlimit:10;}
	.st22{fill:none;stroke:#4285F4;stroke-width:16;stroke-linecap:round;stroke-linejoin:round;stroke-miterlimit:10;}
	.st23{fill:#3164AD;}
	.st24{fill:none;stroke:#3164AD;stroke-width:13;stroke-miterlimit:10;}
	.st25{fill:none;stroke:#4285F4;stroke-width:7;stroke-linecap:round;stroke-linejoin:round;stroke-miterlimit:10;}
	.st26{fill:none;stroke:#4285F4;stroke-width:4;stroke-linecap:round;stroke-linejoin:round;stroke-miterlimit:10;}
	.st27{fill:#006DF0;}
</style>
<g>
	<path class="st0" d="M-932.4-2873.4c0,10.8-8.8,19.6-19.6,19.6h-286.8h-243.9c-10.8,0-19.6-8.8-19.6-19.6v-347.8
		c0-10.8,8.8-19.6,19.6-19.6h530.7c10.8,0,19.6,8.8,19.6,19.6V-2873.4z"/>
	<path class="st0" d="M-980-2911.5c0,8.5-7.3,15.3-16.3,15.3h-238.8h-203.2c-9,0-16.3-6.9-16.3-15.3v-271.7
		c0-8.5,7.3-15.3,16.3-15.3h442c9,0,16.3,6.9,16.3,15.3V-2911.5z"/>
	<polyline class="st0" points="-1250.1,-2853.9 -1250.1,-2765.5 -1200.7,-2765.5 -1200.7,-2853.9 	"/>
	<line class="st0" x1="-1258.5" y1="-2765.5" x2="-1372.2" y2="-2765.5"/>
	<line class="st0" x1="-1068.1" y1="-2765.5" x2="-1190.7" y2="-2765.5"/>
</g>
<g>
	<g>
		<path class="st1" d="M-981.8-2686.1l40.6,132.4l-552.6-1.8l40.8-130.6H-981.8 M-972.3-2706.1h-490.3c-3.2,0-6,2.3-6.9,5.6
			l-48.3,154.6c-1.5,5.2,2,10.4,6.9,10.4l586.5,1.9c4.9,0,8.4-5.2,7-10.4l-48-156.5C-966.3-2703.9-969.1-2706.1-972.3-2706.1
			L-972.3-2706.1z"/>
	</g>
	<polyline class="st2" points="-1503.7,-2549 -1503.7,-2502.3 -932.2,-2502.3 -932.2,-2549 	"/>
	<g>
		<path class="st1" d="M-1010.8-2637l10.3,36.7h-432.8l12.7-36.7H-1010.8 M-1004.2-2657h-422.6c-4.8,0-9.2,3.1-10.7,7.6l-18.7,54
			c-2.6,7.4,2.9,15.1,10.7,15.1h456.4c7.5,0,13-7.2,10.9-14.4l-15.1-54C-994.7-2653.6-999.2-2657-1004.2-2657L-1004.2-2657z"/>
	</g>
</g>
<path class="st0" d="M-618.3-2771.7h-229c-5.2,0-9.5-4.3-9.5-9.5v-452c0-5.2,4.3-9.5,9.5-9.5h229c5.2,0,9.5,4.3,9.5,9.5v452
	C-608.8-2775.9-613.1-2771.7-618.3-2771.7z"/>
<line class="st3" x1="-807.5" y1="-3206" x2="-658.2" y2="-3206"/>
<line class="st3" x1="-807.5" y1="-3166" x2="-658.2" y2="-3166"/>
<line class="st3" x1="-807.5" y1="-3126" x2="-658.2" y2="-3126"/>
<line class="st3" x1="-807.5" y1="-2849.4" x2="-658.2" y2="-2849.4"/>
<line class="st3" x1="-807.5" y1="-2809.4" x2="-658.2" y2="-2809.4"/>
<path class="st3" d="M-668.1-2994.2h-15.3c-10.1,0-18.3-8.2-18.3-18.3v-15.3c0-10.1,8.2-18.3,18.3-18.3h15.3
	c10.1,0,18.3,8.2,18.3,18.3v15.3C-649.7-3002.4-657.9-2994.2-668.1-2994.2z"/>
<path class="st3" d="M-856.8-2825.7c0,0-57,34-32,77c16.6,19.4,57,25.1,63.2,25.9c0.5,0.1,1,0.1,1.5,0.1c7.3,0,71.5,0.9,91.3,48"/>
<ellipse transform="matrix(0.908 -0.4189 0.4189 0.908 1020.0638 -538.6174)" class="st3" cx="-716.5" cy="-2592.3" rx="59.7" ry="76"/>
<line class="st3" x1="-776.9" y1="-2584.9" x2="-665.2" y2="-2622.9"/>
<line class="st3" x1="-740.2" y1="-2664.1" x2="-721" y2="-2603.9"/>
<line class="st4" x1="-740.2" y1="-2664.1" x2="-721" y2="-2603.9"/>
<line class="st5" x1="-733.7" y1="-2643" x2="-727" y2="-2622.1"/>
<path class="st0" d="M1448.9-2485.6H634c-13.8,0-25-11.2-25-25v-723.9c0-13.8,11.2-25,25-25h814.8c13.8,0,25,11.2,25,25v723.9
	C1473.9-2496.8,1462.7-2485.6,1448.9-2485.6z"/>
<path class="st0" d="M609.1-3112.2"/>
<rect x="609.1" y="-3060.4" class="st0" width="864.8" height="375.8"/>
<g>
	<polyline class="st6" points="808.5,-3223.9 791.4,-3223.9 779.5,-3207.5 779.5,-3172.3 837.4,-3172.3 837.4,-3207.5 
		825.5,-3223.9 808.5,-3223.9 	"/>
	<line class="st7" x1="789.7" y1="-3172.3" x2="789.7" y2="-3192.4"/>
	<line class="st7" x1="798.7" y1="-3172.3" x2="798.7" y2="-3192.4"/>
	<line class="st7" x1="807.6" y1="-3172.3" x2="807.6" y2="-3192.4"/>
	<line class="st7" x1="816.5" y1="-3172.3" x2="816.5" y2="-3192.4"/>
	<line class="st7" x1="825.4" y1="-3172.3" x2="825.4" y2="-3192.4"/>
</g>
<g>
	<polyline class="st6" points="716.9,-3223.9 699.9,-3223.9 687.9,-3207.5 687.9,-3172.3 745.8,-3172.3 745.8,-3207.5 
		733.9,-3223.9 716.9,-3223.9 	"/>
	<line class="st7" x1="698.1" y1="-3172.3" x2="698.1" y2="-3192.4"/>
	<line class="st7" x1="707.1" y1="-3172.3" x2="707.1" y2="-3192.4"/>
	<line class="st7" x1="716" y1="-3172.3" x2="716" y2="-3192.4"/>
	<line class="st7" x1="724.9" y1="-3172.3" x2="724.9" y2="-3192.4"/>
	<line class="st7" x1="733.8" y1="-3172.3" x2="733.8" y2="-3192.4"/>
</g>
<g>
	<polyline class="st6" points="808.3,-3141.8 791.2,-3141.8 779.3,-3125.4 779.3,-3090.3 837.2,-3090.3 837.2,-3125.4 
		825.3,-3141.8 808.3,-3141.8 	"/>
	<line class="st7" x1="789.5" y1="-3090.3" x2="789.5" y2="-3110.4"/>
	<line class="st7" x1="798.4" y1="-3090.3" x2="798.4" y2="-3110.4"/>
	<line class="st7" x1="807.4" y1="-3090.3" x2="807.4" y2="-3110.4"/>
	<line class="st7" x1="816.3" y1="-3090.3" x2="816.3" y2="-3110.4"/>
	<line class="st7" x1="825.2" y1="-3090.3" x2="825.2" y2="-3110.4"/>
</g>
<g>
	<polyline class="st6" points="716.5,-3141.8 699.5,-3141.8 687.6,-3125.4 687.6,-3090.3 745.5,-3090.3 745.5,-3125.4 
		733.5,-3141.8 716.5,-3141.8 	"/>
	<line class="st7" x1="697.8" y1="-3090.3" x2="697.8" y2="-3110.4"/>
	<line class="st7" x1="706.7" y1="-3090.3" x2="706.7" y2="-3110.4"/>
	<line class="st7" x1="715.6" y1="-3090.3" x2="715.6" y2="-3110.4"/>
	<line class="st7" x1="724.5" y1="-3090.3" x2="724.5" y2="-3110.4"/>
	<line class="st7" x1="733.5" y1="-3090.3" x2="733.5" y2="-3110.4"/>
</g>
<g>
	<polyline class="st6" points="899.5,-3223.9 882.4,-3223.9 870.5,-3207.5 870.5,-3172.3 928.4,-3172.3 928.4,-3207.5 
		916.5,-3223.9 899.5,-3223.9 	"/>
	<line class="st7" x1="880.7" y1="-3172.3" x2="880.7" y2="-3192.4"/>
	<line class="st7" x1="889.7" y1="-3172.3" x2="889.7" y2="-3192.4"/>
	<line class="st7" x1="898.6" y1="-3172.3" x2="898.6" y2="-3192.4"/>
	<line class="st7" x1="907.5" y1="-3172.3" x2="907.5" y2="-3192.4"/>
	<line class="st7" x1="916.4" y1="-3172.3" x2="916.4" y2="-3192.4"/>
</g>
<g>
	<polyline class="st6" points="899.3,-3141.8 882.2,-3141.8 870.3,-3125.4 870.3,-3090.3 928.2,-3090.3 928.2,-3125.4 
		916.3,-3141.8 899.3,-3141.8 	"/>
	<line class="st7" x1="880.5" y1="-3090.3" x2="880.5" y2="-3110.4"/>
	<line class="st7" x1="889.4" y1="-3090.3" x2="889.4" y2="-3110.4"/>
	<line class="st7" x1="898.4" y1="-3090.3" x2="898.4" y2="-3110.4"/>
	<line class="st7" x1="907.3" y1="-3090.3" x2="907.3" y2="-3110.4"/>
	<line class="st7" x1="916.2" y1="-3090.3" x2="916.2" y2="-3110.4"/>
</g>
<g>
	<polyline class="st6" points="990.5,-3223.9 973.4,-3223.9 961.5,-3207.5 961.5,-3172.3 1019.4,-3172.3 1019.4,-3207.5 
		1007.5,-3223.9 990.5,-3223.9 	"/>
	<line class="st7" x1="971.7" y1="-3172.3" x2="971.7" y2="-3192.4"/>
	<line class="st7" x1="980.7" y1="-3172.3" x2="980.7" y2="-3192.4"/>
	<line class="st7" x1="989.6" y1="-3172.3" x2="989.6" y2="-3192.4"/>
	<line class="st7" x1="998.5" y1="-3172.3" x2="998.5" y2="-3192.4"/>
	<line class="st7" x1="1007.4" y1="-3172.3" x2="1007.4" y2="-3192.4"/>
</g>
<g>
	<polyline class="st6" points="990.3,-3141.8 973.2,-3141.8 961.3,-3125.4 961.3,-3090.3 1019.2,-3090.3 1019.2,-3125.4 
		1007.3,-3141.8 990.3,-3141.8 	"/>
	<line class="st7" x1="971.5" y1="-3090.3" x2="971.5" y2="-3110.4"/>
	<line class="st7" x1="980.4" y1="-3090.3" x2="980.4" y2="-3110.4"/>
	<line class="st7" x1="989.4" y1="-3090.3" x2="989.4" y2="-3110.4"/>
	<line class="st7" x1="998.3" y1="-3090.3" x2="998.3" y2="-3110.4"/>
	<line class="st7" x1="1007.2" y1="-3090.3" x2="1007.2" y2="-3110.4"/>
</g>
<line class="st8" x1="609.1" y1="-3155.5" x2="1473.9" y2="-3155.5"/>
<line class="st8" x1="763.1" y1="-3259.4" x2="763.1" y2="-3060.4"/>
<line class="st8" x1="854.1" y1="-3255" x2="854.1" y2="-3056"/>
<line class="st8" x1="945.1" y1="-3250.5" x2="945.1" y2="-3051.5"/>
<line class="st8" x1="1036.1" y1="-3257.3" x2="1036.1" y2="-3058.3"/>
<rect x="1266.6" y="-3117.7" class="st9" width="158" height="30.9"/>
<rect x="1074" y="-3117.7" class="st9" width="158" height="30.9"/>
<g>
	<rect x="1352.1" y="-3229.6" class="st9" width="72.5" height="59.7"/>
	<rect x="1371" y="-3214" class="st10" width="34.6" height="28.5"/>
</g>
<line class="st4" x1="1194.8" y1="-3155.5" x2="1284.9" y2="-3256.8"/>
<g>
	<path class="st1" d="M811.8-3049.3v167.8h-93.4v-167.8H811.8 M820.8-3058.3H709.4v185.8h111.4V-3058.3L820.8-3058.3z"/>
</g>
<g>
	<path class="st1" d="M714.1-3049.3v167.8h-93.4v-167.8H714.1 M723.1-3058.3H611.7v185.8h111.4V-3058.3L723.1-3058.3z"/>
</g>
<g>
	<path class="st1" d="M920.4-3049.3v167.8H827v-167.8H920.4 M929.4-3058.3H818v185.8h111.4V-3058.3L929.4-3058.3z"/>
</g>
<g>
	<path class="st1" d="M1029.1-3049.3v167.8h-93.4v-167.8H1029.1 M1038.1-3058.3H926.7v185.8h111.4V-3058.3L1038.1-3058.3z"/>
</g>
<g>
	<path class="st1" d="M1137.8-3049.3v167.8h-93.4v-167.8H1137.8 M1146.8-3058.3h-111.4v185.8h111.4V-3058.3L1146.8-3058.3z"/>
</g>
<g>
	<path class="st1" d="M1246.4-3049.3v167.8H1153v-167.8H1246.4 M1255.4-3058.3H1144v185.8h111.4V-3058.3L1255.4-3058.3z"/>
</g>
<g>
	<path class="st1" d="M1355.1-3049.3v167.8h-93.4v-167.8H1355.1 M1364.1-3058.3h-111.4v185.8h111.4V-3058.3L1364.1-3058.3z"/>
</g>
<g>
	<path class="st1" d="M1463.7-3049.3v167.8h-93.4v-167.8H1463.7 M1472.7-3058.3h-111.4v185.8h111.4V-3058.3L1472.7-3058.3z"/>
</g>
<rect x="636.7" y="-3023.7" class="st11" width="60.4" height="41.2"/>
<rect x="734.3" y="-3023.7" class="st11" width="60.4" height="41.2"/>
<rect x="843.5" y="-3023.7" class="st11" width="60.4" height="41.2"/>
<rect x="952.7" y="-3023.7" class="st11" width="60.4" height="41.2"/>
<rect x="1061.9" y="-3023.7" class="st11" width="60.4" height="41.2"/>
<rect x="1168.9" y="-3023.7" class="st11" width="60.4" height="41.2"/>
<g>
	<rect x="1277.6" y="-3023.7" class="st11" width="60.4" height="41.2"/>
</g>
<g>
	<rect x="1386.3" y="-3023.7" class="st11" width="60.4" height="41.2"/>
</g>
<g>
	<path class="st1" d="M811.8-2864.7v165.2h-93.6v-165.2H811.8 M820.8-2873.7H709.2v183.2h111.6V-2873.7L820.8-2873.7z"/>
</g>
<g>
	<path class="st1" d="M714-2864.7v165.2h-93.6v-165.2H714 M723-2873.7H611.4v183.2H723V-2873.7L723-2873.7z"/>
</g>
<g>
	<path class="st1" d="M920.6-2864.7v165.2H827v-165.2H920.6 M929.6-2873.7H818v183.2h111.6V-2873.7L929.6-2873.7z"/>
</g>
<g>
	<path class="st1" d="M1029.5-2864.7v165.2h-93.6v-165.2H1029.5 M1038.5-2873.7H926.9v183.2h111.6V-2873.7L1038.5-2873.7z"/>
</g>
<g>
	<path class="st1" d="M1138.3-2864.7v165.2h-93.6v-165.2H1138.3 M1147.3-2873.7h-111.6v183.2h111.6V-2873.7L1147.3-2873.7z"/>
</g>
<g>
	<path class="st1" d="M1247.2-2864.7v165.2h-93.6v-165.2H1247.2 M1256.2-2873.7h-111.6v183.2h111.6V-2873.7L1256.2-2873.7z"/>
</g>
<g>
	<path class="st1" d="M1356-2864.7v165.2h-93.6v-165.2H1356 M1365-2873.7h-111.6v183.2H1365V-2873.7L1365-2873.7z"/>
</g>
<g>
	<path class="st1" d="M1464.8-2864.7v165.2h-93.6v-165.2H1464.8 M1473.8-2873.7h-111.6v183.2h111.6V-2873.7L1473.8-2873.7z"/>
</g>
<rect x="634.5" y="-2848.4" class="st11" width="60.5" height="41.2"/>
<rect x="732.2" y="-2848.4" class="st11" width="60.5" height="41.2"/>
<rect x="841.6" y="-2848.4" class="st11" width="60.5" height="41.2"/>
<rect x="951" y="-2848.4" class="st11" width="60.5" height="41.2"/>
<rect x="1060.4" y="-2848.4" class="st11" width="60.5" height="41.2"/>
<rect x="1167.6" y="-2848.4" class="st11" width="60.5" height="41.2"/>
<g>
	<rect x="1276.5" y="-2848.4" class="st11" width="60.5" height="41.2"/>
</g>
<g>
	<rect x="1385.3" y="-2848.4" class="st11" width="60.5" height="41.2"/>
</g>
<rect x="671" y="-2634.1" class="st11" width="214" height="104.6"/>
<rect x="925.7" y="-2637.4" class="st11" width="214" height="104.6"/>
<rect x="1180.4" y="-2640.7" class="st11" width="214" height="104.6"/>
<g>
	<g>
		<path class="st0" d="M-669.1-1379.5h-788.9c-21,0-38-17-38-38V-1702c0-21,17-38,38-38h788.9c21,0,38,17,38,38v284.5
			C-631.1-1396.5-648.1-1379.5-669.1-1379.5z"/>
		<path class="st0" d="M-1239-1870"/>
		<g>
			<path class="st1" d="M-1240-1880h-53.5c-4.1,0-8.1,1.3-11.3,3.8l-182,135.4l11.9,16l181.7-135.2h53.2V-1880z"/>
			<path class="st1" d="M-822.9-1876.2c-3.3-2.4-7.3-3.8-11.3-3.8H-883v20h48.4l181.7,135.2l11.9-16L-822.9-1876.2z"/>
		</g>
	</g>
	<path class="st11" d="M-883.8-1820c6.1,0,13.4,5.1,16.2,11.5l3.2,7.3c3,6.8,0.1,12.5-6.5,12.5h-381.3c-6.6,0-9.5-5.7-6.5-12.5
		l3.2-7.3c2.8-6.4,10.1-11.5,16.2-11.5"/>
	<polygon class="st1" points="-886.5,-1997.7 -886.5,-1792.1 -1236.5,-1792.1 -1236.5,-2068.5 -967.3,-2068.5 -967.3,-2075.5 
		-1243.5,-2075.5 -1243.5,-1785.1 -879.5,-1785.1 -879.5,-1997.7 	"/>
	<rect x="-1118" y="-2044" class="st1" width="113" height="18.5"/>
	<rect x="-1167.5" y="-2007" class="st1" width="182.2" height="18.5"/>
	<rect x="-1167.5" y="-1981.5" class="st1" width="136.5" height="18.5"/>
	<rect x="-1167.5" y="-1952.5" class="st1" width="136.5" height="18.5"/>
	<rect x="-1167.5" y="-1923.5" class="st1" width="212" height="18.5"/>
	<rect x="-1167.5" y="-1894.5" class="st1" width="212" height="18.5"/>
	<rect x="-1167.5" y="-1865.5" class="st1" width="212" height="18.5"/>
	<rect x="-1167.5" y="-1836.5" class="st1" width="126.5" height="18.5"/>
	<polygon class="st1" points="-967.3,-2075.5 -967.3,-1997.7 -879.5,-1997.7 	"/>
	<polygon class="st12" points="-967.3,-1997.7 -885.2,-1917.3 -885.2,-1997.7 	"/>
	<circle class="st1" cx="-732" cy="-1633" r="25.5"/>
	<circle class="st13" cx="-732" cy="-1554" r="36"/>
	<rect x="-1345.3" y="-1447.3" class="st14" width="563.7" height="67.8"/>
	<polygon class="st14" points="-839.5,-1447.3 -1287.5,-1447.3 -1345.3,-1379.5 -781.7,-1379.5 	"/>
</g>
<polygon class="st15" points="611.2,-1818.1 924.7,-2116.6 1146,-2116.6 610.8,-1607 "/>
<path class="st0" d="M1438-1341H649.1c-21,0-38-17-38-38v-697.4c0-21,17-38,38-38H1438c21,0,38,17,38,38v697.4
	C1475.9-1358,1458.9-1341,1438-1341z"/>
<g>
	<path class="st16" d="M1328.9-1962h-108.7c-6.6,0-12-5.4-12-12v-81.4c0-6.6,5.4-12,12-12h108.7c6.6,0,12,5.4,12,12v81.4
		C1340.9-1967.4,1335.5-1962,1328.9-1962z"/>
	<polygon class="st17" points="1340.9,-2014.7 1395,-2068.8 1395,-1962 	"/>
</g>
<line class="st17" x1="611.1" y1="-1620" x2="1475.9" y2="-1620"/>
<circle class="st17" cx="1040.2" cy="-1483.3" r="81"/>
<g id="call_1_">
	<path class="st1" d="M1055.3-1504.7c-1-1.5-1.5-3.4-1-4.9c1.9-5.8,2.9-11.7,2.9-17.5c0-2.9,1.9-4.9,4.9-4.9h17
		c2.9,0,4.9,1.9,4.9,4.9c0,45.8-37,82.8-82.8,82.8c-2.9,0-4.9-1.9-4.9-4.9v-16.6c0-2.9,1.9-4.9,4.9-4.9c6.3,0,12.2-1,17.5-2.9
		c1.5-1,3.4-0.5,4.9,1l10.7,10.7c13.6-7.3,25.3-18.5,32.1-32.1L1055.3-1504.7z"/>
</g>
<path class="st18" d="M1092.9-1795.2c32.5-15.5,54.9-48.7,54.9-87c0-53.3-43.2-96.4-96.4-96.4s-96.4,43.2-96.4,96.4
	c0,38.7,22.8,72.1,55.8,87.5C887.8-1766.8,869.8-1620,869.8-1620h347.5C1217.3-1620,1214.7-1768.4,1092.9-1795.2z"/>
<circle class="st7" cx="1306.8" cy="-2043.5" r="11.8"/>
<text transform="matrix(0.7071 -0.7071 0.7071 0.7071 736.7571 -1761.6007)" style="opacity:0.55;fill:#4285F4; font-family:'MyriadPro-Regular'; font-size:146.5113px;">IPTEL</text>
<g>
	<path class="st0" d="M1329.1-524.3c0,10.8-8.8,19.6-19.6,19.6h-286.8H778.8c-10.8,0-19.6-8.8-19.6-19.6v-347.8
		c0-10.8,8.8-19.6,19.6-19.6h530.7c10.8,0,19.6,8.8,19.6,19.6V-524.3z"/>
	<path class="st0" d="M1430.7-262.4c4.1,9.8-4.6,17.9-19.6,17.9h-397.3h-338c-15,0-23.7-8.1-19.6-17.9l98.2-232.7
		c2.3-5.4,12.8-9.6,23.7-9.6h530.7c10.8,0,21.4,4.3,23.7,9.6L1430.7-262.4z"/>
	<path class="st0" d="M1281.5-562.4c0,8.5-7.3,15.3-16.3,15.3h-238.8H823.2c-9,0-16.3-6.9-16.3-15.3v-271.7
		c0-8.5,7.3-15.3,16.3-15.3h442c9,0,16.3,6.9,16.3,15.3V-562.4z"/>
	<polygon class="st19" points="1110.5,-252.4 982.6,-252.4 985.7,-334.7 1107.2,-334.7 	"/>
	<g>
		<polygon class="st20" points="788,-442.8 758.3,-442.8 766.6,-466.8 795.4,-466.8 		"/>
		<polygon class="st20" points="833.5,-442.8 803.9,-442.8 810.8,-466.8 839.6,-466.8 		"/>
		<polygon class="st20" points="879.1,-442.8 849.4,-442.8 855,-466.8 883.9,-466.8 		"/>
		<polygon class="st20" points="924.6,-442.8 895,-442.8 899.3,-466.8 928.1,-466.8 		"/>
		<polygon class="st20" points="970.2,-442.8 940.5,-442.8 943.5,-466.8 972.3,-466.8 		"/>
		<polygon class="st20" points="1015.7,-442.8 986,-442.8 987.7,-466.8 1016.5,-466.8 		"/>
		<polygon class="st20" points="1061.3,-442.8 1031.6,-442.8 1031.9,-466.8 1060.8,-466.8 		"/>
		<polygon class="st20" points="1106.8,-442.8 1077.1,-442.8 1076.2,-466.8 1105,-466.8 		"/>
		<polygon class="st20" points="1152.4,-442.8 1122.7,-442.8 1120.4,-466.8 1149.2,-466.8 		"/>
		<polygon class="st20" points="1197.9,-442.8 1168.2,-442.8 1164.6,-466.8 1193.4,-466.8 		"/>
		<polygon class="st20" points="1243.4,-442.8 1213.8,-442.8 1208.8,-466.8 1237.6,-466.8 		"/>
		<polygon class="st20" points="1289,-442.8 1259.3,-442.8 1253.1,-466.8 1281.9,-466.8 		"/>
		<polygon class="st20" points="1328.7,-442.8 1299,-442.8 1291.6,-466.8 1320.4,-466.8 		"/>
		<polygon class="st20" points="776.1,-404.3 745.1,-404.3 754.1,-430.6 784.2,-430.6 		"/>
		<polygon class="st20" points="823.8,-404.3 792.7,-404.3 800.3,-430.6 830.4,-430.6 		"/>
		<polygon class="st20" points="871.4,-404.3 840.4,-404.3 846.6,-430.6 876.7,-430.6 		"/>
		<polygon class="st20" points="919.1,-404.3 888.1,-404.3 892.8,-430.6 922.9,-430.6 		"/>
		<polygon class="st20" points="966.8,-404.3 935.7,-404.3 939,-430.6 969.1,-430.6 		"/>
		<polygon class="st20" points="1014.4,-404.3 983.4,-404.3 985.2,-430.6 1015.3,-430.6 		"/>
		<polygon class="st20" points="1062.1,-404.3 1031,-404.3 1031.4,-430.6 1061.5,-430.6 		"/>
		<polygon class="st20" points="1109.8,-404.3 1078.7,-404.3 1077.6,-430.6 1107.7,-430.6 		"/>
		<polygon class="st20" points="1157.4,-404.3 1126.4,-404.3 1123.9,-430.6 1154,-430.6 		"/>
		<polygon class="st20" points="1252.7,-404.3 1174,-404.3 1170.1,-430.6 1246.4,-430.6 		"/>
		<polygon class="st20" points="1300.4,-404.3 1269.3,-404.3 1262.5,-430.6 1292.6,-430.6 		"/>
		<polygon class="st20" points="1341.1,-404.3 1310.1,-404.3 1302,-430.6 1332.1,-430.6 		"/>
		<polygon class="st20" points="763.8,-364.3 731.3,-364.3 741.2,-393.1 772.7,-393.1 		"/>
		<polygon class="st20" points="813.7,-364.3 781.2,-364.3 789.5,-393.1 821,-393.1 		"/>
		<polygon class="st20" points="863.5,-364.3 831,-364.3 837.8,-393.1 869.2,-393.1 		"/>
		<polygon class="st20" points="1132.6,-364.3 880.9,-364.3 886.1,-393.1 1129.8,-393.1 		"/>
		<polygon class="st20" points="1212.5,-364.3 1148.7,-364.3 1145.4,-393.1 1207.2,-393.1 		"/>
		<polygon class="st20" points="1268.6,-364.3 1236.2,-364.3 1230.1,-393.1 1261.5,-393.1 		"/>
		<polygon class="st20" points="1312.2,-364.3 1279.7,-364.3 1272.3,-393.1 1303.7,-393.1 		"/>
		<polygon class="st20" points="1355.7,-364.3 1323.2,-364.3 1314.3,-393.1 1345.8,-393.1 		"/>
	</g>
</g>
<g>
	<path class="st0" d="M-779.2-259.2c0,8.1-6.6,14.7-14.7,14.7h-215.3h-183.1c-8.1,0-14.7-6.6-14.7-14.7v-261.1
		c0-8.1,6.6-14.7,14.7-14.7h398.4c8.1,0,14.7,6.6,14.7,14.7V-259.2z"/>
	<path class="st0" d="M-814.9-287.7c0,6.3-5.5,11.5-12.2,11.5h-179.3h-152.5c-6.8,0-12.2-5.1-12.2-11.5v-203.9
		c0-6.3,5.5-11.5,12.2-11.5h331.8c6.8,0,12.2,5.1,12.2,11.5V-287.7z"/>
</g>
<path class="st21" d="M-697.1-890.7v70.6c0,0,0.5,8.9-6.9,14.8c-7.4,5.9-15.5,4.8-15.5,4.8H-777"/>
<path class="st21" d="M-938.6-920.5h301.8L-777-851.3v71.9h-281.2c0,0-103.3-5.9-103.3-70.6c0-74.7,116.6-70.6,116.6-70.6"/>
<path class="st22" d="M-1019.3-779.4v83.2c0,0,2.5,15.4-10,23c-12.5,7.7-28.5,7.7-28.5,7.7h-49v-34.8c0,0-7.5-17.2-32.4-17.2
	c-24.9,0-32.1,14.8-32.1,14.8v72c0,0,2.5,18.3,31.3,18.3s31.8-16.4,31.8-16.4l1.4-36.7"/>
<path class="st22" d="M-1171.2-664.8c0,0-188.5-25.1-188.5,129.8s152.8,138.6,152.8,138.6"/>
<path class="st23" d="M-962.6-327h-66.1c-9.7,0-17.5-7.9-17.5-17.5v-46.7c0-9.7,7.9-17.5,17.5-17.5h66.1c9.7,0,17.5,7.9,17.5,17.5
	v46.7C-945-334.9-952.9-327-962.6-327z"/>
<path class="st24" d="M-1032.1-403.6c0,0-4.1-50.1,36.5-50.1c40.6,0,36.8,50.1,36.8,50.1H-1032.1z"/>
<g>
	<circle class="st0" cx="-1384.5" cy="565.7" r="42.5"/>
	<circle class="st0" cx="-735" cy="565.7" r="42.5"/>
	<circle class="st0" cx="-980.5" cy="344.8" r="34.5"/>
	<circle class="st0" cx="-1009.5" cy="437.3" r="29"/>
	<circle class="st0" cx="-908" cy="716.6" r="29"/>
	<path class="st0" d="M-1384.5,523.2c0,0,28-85.9,94.8-85.9s186.8,0,186.8,0"/>
	<path class="st0" d="M-1356.4,597.6c0,0,3.6,80.5,80.5,80.5c76.9,0,172.9,0,172.9,0"/>
	<path class="st0" d="M-1255,443.7c0,0,25.3-98.9,83.6-98.9s156.4,0,156.4,0"/>
	<path class="st0" d="M-735,520.9c0,0-25.3-83.6-83.6-83.6s-156.4,0-156.4,0"/>
	<path class="st0" d="M-1181,678.1c0,0,25.9-79.4,73.9-79.4c48.1,0,170.1,0,170.1,0"/>
	<path class="st0" d="M-1143,678.1c0,0,7.1,38.6,38.6,38.6c31.4,0,167.4,0,167.4,0"/>
	<polygon class="st1" points="-1106.7,653.1 -1081.7,678.1 -1106.7,703.1 	"/>
	<polygon class="st1" points="-819,741.9 -844,716.9 -819,691.9 	"/>
	<polygon class="st1" points="-937,573.7 -912,598.7 -937,623.7 	"/>
	<polygon class="st1" points="-1106.7,412.3 -1081.7,437.3 -1106.7,462.3 	"/>
	<path class="st0" d="M-777.5,565.7c0,0-3.5,33-22.4,33s-34.7,0-34.7,0"/>
	<circle class="st0" cx="-861.7" cy="598.7" r="27.1"/>
	<path class="st0" d="M-735,608.2v69.9c0,0,6.4,38.8-38.8,38.8c-45.2,0-45.2,0-45.2,0"/>
</g>
<circle class="st25" cx="-827.4" cy="-820.5" r="20.1"/>
<circle class="st26" cx="-877.1" cy="-811.7" r="12.8"/>
<g>
	<path class="st27" d="M831.9,301.4c-27.1,0-49.2,22.1-49.2,49.2c0,27.1,22.1,49.2,49.2,49.2c27.1,0,49.2-22.1,49.2-49.2
		C881.1,323.5,859,301.4,831.9,301.4z M831.9,378c-15.1,0-27.3-12.3-27.3-27.3s12.3-27.3,27.3-27.3s27.3,12.3,27.3,27.3
		S847,378,831.9,378z"/>
	<circle class="st27" cx="1263.7" cy="334.2" r="10.9"/>
	<circle class="st27" cx="1220" cy="334.2" r="10.9"/>
	<circle class="st27" cx="1285.5" cy="367" r="10.9"/>
	<circle class="st27" cx="1241.8" cy="367" r="10.9"/>
	<circle class="st27" cx="1176.2" cy="334.2" r="10.9"/>
	<circle class="st27" cx="1198.1" cy="367" r="10.9"/>
	<circle class="st27" cx="1132.5" cy="334.2" r="10.9"/>
	<circle class="st27" cx="1154.4" cy="367" r="10.9"/>
	<circle class="st27" cx="1088.8" cy="334.2" r="10.9"/>
	<circle class="st27" cx="1110.6" cy="367" r="10.9"/>
	<path class="st27" d="M831.9,509.1c-27.1,0-49.2,22.1-49.2,49.2s22.1,49.2,49.2,49.2c27.1,0,49.2-22.1,49.2-49.2
		S859,509.1,831.9,509.1z M831.9,585.7c-15.1,0-27.3-12.3-27.3-27.3s12.3-27.3,27.3-27.3s27.3,12.3,27.3,27.3S847,585.7,831.9,585.7
		z"/>
	<path class="st27" d="M831.9,716.8c-27.1,0-49.2,22.1-49.2,49.2s22.1,49.2,49.2,49.2c27.1,0,49.2-22.1,49.2-49.2
		S859,716.8,831.9,716.8z M831.9,793.3c-15.1,0-27.3-12.3-27.3-27.3c0-15.1,12.3-27.3,27.3-27.3s27.3,12.3,27.3,27.3
		C859.2,781.1,847,793.3,831.9,793.3z"/>
	<path class="st27" d="M1373,415V286.2c0-27.8-22.6-50.4-50.4-50.4H767.5c-27.8,0-50.4,22.6-50.4,50.4V415
		c0,16.1,7.7,30.2,19.4,39.4c-11.7,9.2-19.4,23.4-19.4,39.5v128.8c0,16.1,7.7,30.2,19.4,39.4c-11.7,9.2-19.4,23.4-19.4,39.5v128.8
		c0,27.8,22.6,50.4,50.4,50.4h304.7c29.3,5.4,61.5,8.2,93.1,8.2c94.8,0,194.8-24.6,206.5-71.6c0.7-1.5,1.1-3.1,1.1-4.9v-98.4V710
		v-4.1v-90.2v-4.1v-4.1v-94.3v-4.1c0-1.6-0.4-3.2-1-4.5c-3.8-16-18-29.5-38.9-40.3C1355.8,459.5,1373,439.2,1373,415z M739,622.7
		V493.9c0-15.7,12.8-28.5,28.5-28.5h228c-19.8,10.6-33.2,23.7-36.9,39.2c-0.6,1.4-1,2.9-1,4.5v4.1v94.3v4.1v4.1v35.5H767.5
		C751.8,651.2,739,638.5,739,622.7z M986.3,555.6c0.5,0.3,1,0.6,1.5,1c1.9,1.2,3.9,2.4,6,3.5c0.6,0.3,1.2,0.7,1.8,1
		c2.5,1.4,5.2,2.7,7.9,4c0.4,0.2,0.9,0.4,1.3,0.6c2.4,1.1,4.9,2.2,7.5,3.2c0.8,0.3,1.5,0.6,2.3,0.9c3,1.2,6.1,2.3,9.3,3.4
		c0.2,0.1,0.3,0.1,0.5,0.2c3,1,6.2,2,9.3,3c0.9,0.3,1.7,0.5,2.6,0.8c3.1,0.9,6.3,1.8,9.6,2.7c0.3,0.1,0.5,0.1,0.8,0.2
		c3.5,0.9,7.1,1.7,10.8,2.6c0.9,0.2,1.8,0.4,2.8,0.6c3.1,0.7,6.3,1.3,9.5,1.9c0.6,0.1,1.3,0.3,1.9,0.4c3.7,0.7,7.5,1.3,11.4,2
		c0.9,0.1,1.8,0.3,2.7,0.4c3.2,0.5,6.4,1,9.6,1.4c0.9,0.1,1.8,0.2,2.7,0.3c3.9,0.5,7.8,1,11.8,1.4c0.8,0.1,1.6,0.2,2.4,0.2
		c3.3,0.3,6.7,0.6,10,0.9c1,0.1,2,0.2,3,0.2c4,0.3,8,0.6,12.1,0.8c0.6,0,1.1,0,1.7,0.1c3.6,0.2,7.1,0.3,10.7,0.4
		c1.1,0,2.1,0.1,3.2,0.1c4.1,0.1,8.2,0.2,12.2,0.2s8.1-0.1,12.2-0.2c1.1,0,2.1-0.1,3.2-0.1c3.6-0.1,7.1-0.2,10.7-0.4
		c0.6,0,1.1,0,1.7-0.1c4-0.2,8.1-0.5,12.1-0.8c1-0.1,2-0.2,3-0.2c3.4-0.3,6.7-0.6,10-0.9c0.8-0.1,1.6-0.2,2.4-0.2
		c4-0.4,7.9-0.9,11.8-1.4c0.9-0.1,1.8-0.2,2.7-0.3c3.2-0.4,6.4-0.9,9.6-1.4c0.9-0.1,1.8-0.3,2.7-0.4c3.8-0.6,7.6-1.3,11.4-2
		c0.6-0.1,1.3-0.3,1.9-0.4c3.2-0.6,6.4-1.3,9.5-1.9c0.9-0.2,1.8-0.4,2.8-0.6c3.6-0.8,7.2-1.7,10.8-2.6c0.3-0.1,0.5-0.1,0.8-0.2
		c3.3-0.8,6.5-1.7,9.6-2.7c0.9-0.3,1.7-0.5,2.6-0.8c3.2-1,6.3-2,9.3-3c0.2-0.1,0.3-0.1,0.5-0.2c3.2-1.1,6.3-2.3,9.3-3.4
		c0.8-0.3,1.5-0.6,2.3-0.9c2.6-1,5-2.1,7.5-3.2c0.4-0.2,0.9-0.4,1.3-0.6c2.8-1.3,5.4-2.6,7.9-4c0.6-0.3,1.2-0.7,1.8-1
		c2.1-1.1,4.1-2.3,6-3.5c0.5-0.3,1-0.6,1.5-1c2.3-1.5,4.4-3,6.4-4.5c0.1-0.1,0.3-0.2,0.4-0.3v54.5c-0.3,1.3-0.4,2.6-0.2,3.9
		c0.2,0.8,0.3,1.6,0.3,2.4c0,1.2-0.3,2.4-0.6,3.6c-0.2,0.9-0.5,1.9-0.9,2.8c-0.3,0.8-0.8,1.7-1.3,2.5c-0.5,0.8-1,1.7-1.6,2.5
		c-0.8,1.1-1.8,2.3-2.9,3.4c-0.4,0.4-0.8,0.9-1.2,1.3c-23.1,22.4-91.4,42.6-177.3,42.6c-85.8,0-154.1-20.2-177.3-42.6
		c-0.5-0.5-0.9-1-1.4-1.4c-1-1.1-2-2.2-2.8-3.3c-0.6-0.9-1.2-1.7-1.7-2.6c-0.4-0.8-0.9-1.6-1.2-2.3c-0.4-1-0.7-2-1-3
		c-0.3-1.2-0.6-2.4-0.6-3.6c0-0.8,0.1-1.6,0.2-2.3c0.2-1.4,0.1-2.8-0.2-4.2v-54.3c0.1,0.1,0.3,0.2,0.4,0.3
		C981.9,552.7,984,554.2,986.3,555.6z M1349.6,716.5c-0.3,0.8-0.8,1.7-1.3,2.5c-0.5,0.8-1,1.7-1.6,2.5c-0.8,1.1-1.8,2.3-2.9,3.4
		c-0.4,0.4-0.8,0.9-1.2,1.3c-23.1,22.4-91.4,42.6-177.3,42.6c-85.8,0-154.1-20.2-177.3-42.6c-0.5-0.5-0.9-1-1.4-1.4
		c-1-1.1-2-2.2-2.8-3.3c-0.6-0.9-1.2-1.7-1.7-2.6c-0.4-0.8-0.9-1.6-1.2-2.3c-0.4-1-0.7-2-1-3c-0.3-1-0.5-2.1-0.5-3.1v-1.3
		c0-0.5,0.1-1,0.1-1.5c0.2-0.9-0.1-1.9-0.2-2.8l-0.1-53.6v-2c0.4,0.3,1,0.7,1.4,1c1.4,1,2.8,2,4.3,3c1.2,0.8,2.4,1.6,3.7,2.4
		c2,1.2,3.9,2.4,6,3.5c0,0,0,0,0.1,0c22.8,12.4,54.2,21.4,88.8,26.8c0.3,0,0.5,0.1,0.8,0.1c11.2,1.7,22.7,3.1,34.3,4.1
		c2.5,0.2,5,0.4,7.5,0.6c2.4,0.2,4.9,0.3,7.3,0.5c3.3,0.2,6.6,0.3,9.9,0.5c1.9,0.1,3.8,0.2,5.8,0.2c5.3,0.2,10.6,0.3,15.9,0.3
		c5.3,0,10.6-0.1,15.9-0.3c1.9-0.1,3.9-0.1,5.8-0.2c3.3-0.1,6.5-0.3,9.8-0.5c2.5-0.1,4.9-0.3,7.4-0.5c2.5-0.2,4.9-0.4,7.3-0.6
		c11.8-1,23.4-2.4,34.7-4.1c0.2,0,0.3-0.1,0.5-0.1c37.9-5.9,71.8-16.1,94.9-30.4c1.3-0.8,2.5-1.6,3.7-2.4c1.5-1,2.9-2,4.3-3
		c0.5-0.4,1-0.7,1.5-1.1v54.5c-0.3,1.3-0.4,2.6-0.2,3.9c0.1,0.8,0.2,1.6,0.2,2.4c0,1.2-0.3,2.4-0.6,3.6
		C1350.3,714.6,1350,715.5,1349.6,716.5z M767.5,858.9c-15.7,0-28.5-12.8-28.5-28.5V701.6c0-15.7,12.8-28.5,28.5-28.5h190.1v32.8
		v4.1v4.1v98.4v10.9h3.2c0.2,0.4,0.4,0.8,0.6,1.2c0.4,0.8,0.8,1.6,1.2,2.4c0.9,1.6,1.9,3.2,3,4.8c1.1,1.6,2.4,3.1,3.7,4.6
		c0.7,0.8,1.4,1.5,2.1,2.3c4.2,4.3,9.2,8.4,15,12.1c0.2,0.1,0.4,0.3,0.6,0.4c4.2,2.7,8.7,5.3,13.6,7.7L767.5,858.9L767.5,858.9z
		 M1351.1,809.7c-0.1,0.3-0.2,0.7-0.2,1c-4.5,27.3-80.1,56.4-185.6,56.4c-33.7,0-64.2-3-90.5-7.9l0-0.1
		c-54.4-10.3-84.4-27.7-92.9-42.3c0,0,0,0,0,0c-0.4-0.7-0.7-1.3-1-2c-0.6-1.4-1.1-2.7-1.3-4.1l-0.1-63c0.4,0.3,0.9,0.6,1.3,0.9
		c1.4,1,2.8,2,4.3,3c1.2,0.8,2.4,1.6,3.7,2.4c2,1.2,3.9,2.4,6,3.5c0,0,0,0,0.1,0c22.8,12.4,54.2,21.4,88.8,26.8
		c0.3,0,0.5,0.1,0.8,0.1c11.2,1.7,22.7,3.1,34.3,4.1c2.5,0.2,5,0.4,7.5,0.6c2.4,0.2,4.9,0.3,7.3,0.5c3.3,0.2,6.6,0.3,9.9,0.5
		c1.9,0.1,3.8,0.2,5.8,0.2c5.3,0.2,10.6,0.3,15.9,0.3c5.3,0,10.6-0.1,15.9-0.3c1.9-0.1,3.9-0.1,5.8-0.2c3.3-0.1,6.5-0.3,9.8-0.5
		c2.5-0.1,4.9-0.3,7.4-0.5c2.5-0.2,4.9-0.4,7.3-0.6c11.8-1,23.4-2.4,34.7-4.1c0.2,0,0.3-0.1,0.5-0.1c37.9-5.9,71.8-16.1,94.9-30.4
		c1.3-0.8,2.5-1.6,3.7-2.4c1.5-1,2.9-2,4.3-3c0.5-0.4,1-0.7,1.5-1.1L1351.1,809.7L1351.1,809.7z M1351.1,513.2
		c0,27.7-79.5,58.8-185.8,58.8c-106.4,0-185.8-31-185.8-58.8c0-1.4,0.3-2.8,0.7-4.2c0.4-1.4,1-2.9,1.9-4.3c0-0.1,0.1-0.1,0.1-0.2
		c3.6-6.1,11-12.6,22.3-18.9c0.5-0.3,1-0.5,1.5-0.8c1.9-1,4-2.1,6.1-3.1c2.5-1.2,5.1-2.3,7.8-3.5c0.5-0.2,1.1-0.4,1.7-0.7
		c12.7-5.1,28-9.6,45.2-13.2c5.4-1.1,10.9-2.2,16.5-3.1c1.5-0.3,3-0.5,4.5-0.8c48.9-7.5,106-7.5,155,0c1.5,0.2,3,0.5,4.5,0.8
		c5.6,0.9,11.1,2,16.4,3.1C1317,475.6,1351.1,495.1,1351.1,513.2z M1351.1,415c0,15.7-12.8,28.5-28.5,28.5H1272
		c-0.6-0.1-1.3-0.2-2-0.4c-7.2-1.6-14.5-2.9-22.1-4.1c-0.7-0.1-1.5-0.2-2.2-0.3c-25.8-4-53.4-6.1-80.5-6.1
		c-27.1,0-54.6,2.1-80.4,6.1c-0.8,0.1-1.5,0.2-2.3,0.3c-7.5,1.2-14.9,2.6-22,4.1c-0.6,0.1-1.4,0.2-2,0.4H767.5
		c-15.7,0-28.5-12.8-28.5-28.5V286.2c0-15.7,12.8-28.5,28.5-28.5h555.1c15.7,0,28.5,12.8,28.5,28.5V415z"/>
</g>
</svg>
