<svg xmlns="http://www.w3.org/2000/svg" viewBox="0 0 1375.34 1294.38"><defs><style>.a,.c,.e,.f{fill:none;}.b,.f{opacity:0.56;}.c,.e,.f{stroke:#2f78a9;stroke-linejoin:round;}.c,.f{stroke-width:0.5px;}.d{fill:#2f78a9;}</style></defs><title>background-1</title><path class="a" d="M618,576" transform="translate(3.29 -222.47)"/><path class="a" d="M1208,41" transform="translate(3.29 -222.47)"/><g class="b"><polygon class="c" points="2.95 3.29 144.29 3.29 40.63 86.29 2.95 3.29"/><path class="d" d="M-.33,227.47A1.7,1.7,0,0,1-2,225.76a1.71,1.71,0,0,1,1.71-1.71,1.72,1.72,0,0,1,1.71,1.71A1.71,1.71,0,0,1-.33,227.47Z" transform="translate(3.29 -222.47)"/><path class="d" d="M.91,225.19a1.37,1.37,0,0,0-1.81-.68,1.38,1.38,0,0,0-.68,1.82A1.37,1.37,0,0,0,.23,227,1.37,1.37,0,0,0,.91,225.19Z" transform="translate(3.29 -222.47)"/></g><g class="b"><polyline class="c" points="2.95 3.29 3.29 102.79 40.63 86.29 92.96 123.95 144.29 3.29 279.96 165.29 183.96 143.29 144.29 3.29"/><path class="d" d="M-2,225.77a1.7,1.7,0,0,1,1.7-1.72,1.72,1.72,0,0,1,1.72,1.7,1.71,1.71,0,0,1-1.71,1.72A1.71,1.71,0,0,1-2,225.77Z" transform="translate(3.29 -222.47)"/><path class="d" d="M142.32,225.39a1.37,1.37,0,1,0-.94,1.69A1.37,1.37,0,0,0,142.32,225.39Z" transform="translate(3.29 -222.47)"/></g><g class="b"><polygon class="c" points="3.29 102.79 3.29 228.45 92.96 123.95 3.29 102.79"/><circle class="d" cx="3.29" cy="102.79" r="1.71"/><path class="d" d="M.31,323.93a1.36,1.36,0,0,0-1.64,1,1.37,1.37,0,0,0,1,1.65,1.37,1.37,0,0,0,1.64-1A1.37,1.37,0,0,0,.31,323.93Z" transform="translate(3.29 -222.47)"/></g><g class="b"><polyline class="c" points="238.63 219.95 214.96 222.95 183.96 143.29 134.29 202.62 214.96 222.95 155.96 311.79"/><path class="d" d="M235.12,440.73a1.71,1.71,0,1,1-1.48,1.91A1.71,1.71,0,0,1,235.12,440.73Z" transform="translate(3.29 -222.47)"/><path class="d" d="M151.53,533.5a1.37,1.37,0,1,0,1.9-.38A1.38,1.38,0,0,0,151.53,533.5Z" transform="translate(3.29 -222.47)"/></g><g class="b"><polyline class="c" points="279.96 165.29 238.63 219.95 183.96 143.29 92.96 123.95 134.29 202.62 98.63 209.95 92.96 123.95"/><path class="d" d="M275.31,386.73a1.71,1.71,0,1,1,.33,2.39A1.71,1.71,0,0,1,275.31,386.73Z" transform="translate(3.29 -222.47)"/><path class="d" d="M91,346.34a1.37,1.37,0,1,0-1.28,1.45A1.37,1.37,0,0,0,91,346.34Z" transform="translate(3.29 -222.47)"/></g><g class="b"><polygon class="c" points="3.29 228.45 98.63 209.95 84.63 289.95 63.63 261.29 98.63 209.95 21.29 246.95 3.29 228.45"/><path class="d" d="M.33,452.6a1.71,1.71,0,0,1-2-1.35,1.71,1.71,0,0,1,1.35-2,1.71,1.71,0,0,1,2,1.35A1.71,1.71,0,0,1,.33,452.6Z" transform="translate(3.29 -222.47)"/><path class="d" d="M1,450a1.37,1.37,0,0,0-1.93,0,1.36,1.36,0,0,0,0,1.94,1.37,1.37,0,0,0,1.93,0A1.36,1.36,0,0,0,1,450Z" transform="translate(3.29 -222.47)"/></g><g class="b"><polyline class="c" points="63.63 261.29 21.29 246.95 84.63 289.95 134.29 202.62 155.96 311.79 84.63 289.95 103.96 369.79 155.96 311.79 186.46 405.79 125.96 374.79 155.96 311.79"/><path class="d" d="M60.89,482.14a1.71,1.71,0,1,1-2.17,1.07A1.71,1.71,0,0,1,60.89,482.14Z" transform="translate(3.29 -222.47)"/><path class="d" d="M153.91,534.85a1.39,1.39,0,0,0-.65-1.83,1.37,1.37,0,1,0,.65,1.83Z" transform="translate(3.29 -222.47)"/></g><g class="b"><polygon class="c" points="125.96 374.79 103.96 369.79 119.46 518.29 125.96 374.79"/><path class="d" d="M123.05,595.59a1.71,1.71,0,1,1-2,1.29A1.72,1.72,0,0,1,123.05,595.59Z" transform="translate(3.29 -222.47)"/><path class="d" d="M124,597.32a1.37,1.37,0,1,0-1.43,1.31A1.38,1.38,0,0,0,124,597.32Z" transform="translate(3.29 -222.47)"/></g><g class="b"><polyline class="c" points="21.29 246.95 34.96 381.79 84.63 289.95"/><path class="d" d="M16.3,469.6a1.71,1.71,0,1,1,1.88,1.53A1.71,1.71,0,0,1,16.3,469.6Z" transform="translate(3.29 -222.47)"/><path class="d" d="M82.54,513.08a1.37,1.37,0,1,0-1.85.55A1.38,1.38,0,0,0,82.54,513.08Z" transform="translate(3.29 -222.47)"/></g><g class="b"><polyline class="c" points="103.96 369.79 34.96 381.79 119.46 518.29 186.46 405.79"/><path class="d" d="M100.38,590.58a1.71,1.71,0,1,1-1.39,2A1.7,1.7,0,0,1,100.38,590.58Z" transform="translate(3.29 -222.47)"/><path class="d" d="M184.35,629a1.38,1.38,0,0,0-.48-1.88,1.37,1.37,0,0,0-1.4,2.36A1.38,1.38,0,0,0,184.35,629Z" transform="translate(3.29 -222.47)"/></g><g class="b"><polygon class="c" points="3.29 228.45 34.96 381.79 3.29 480.69 3.29 228.45"/><path class="d" d="M-1.68,451.27a1.72,1.72,0,0,1,1.33-2,1.72,1.72,0,0,1,2,1.33,1.72,1.72,0,0,1-1.33,2A1.72,1.72,0,0,1-1.68,451.27Z" transform="translate(3.29 -222.47)"/><path class="d" d="M1.37,450.93A1.37,1.37,0,0,0,0,449.56a1.37,1.37,0,0,0-1.37,1.37A1.36,1.36,0,0,0,0,452.29,1.36,1.36,0,0,0,1.37,450.93Z" transform="translate(3.29 -222.47)"/></g><g class="b"><polyline class="c" points="3.29 480.41 119.46 518.29 23.46 627.79 3.29 480.69 3.29 625.88 23.46 627.79 106.46 644.29 119.46 518.29 151.96 652.29 106.46 644.29"/><path class="d" d="M-.53,704.51a1.72,1.72,0,0,1-1.1-2.16,1.72,1.72,0,0,1,2.16-1.09,1.71,1.71,0,0,1,1.1,2.15A1.72,1.72,0,0,1-.53,704.51Z" transform="translate(3.29 -222.47)"/><path class="d" d="M103.41,865.41a1.37,1.37,0,1,0,1.11,1.59A1.37,1.37,0,0,0,103.41,865.41Z" transform="translate(3.29 -222.47)"/></g><g class="b"><polyline class="c" points="3.29 625.88 4.1 797.53 23.46 627.79"/><path class="d" d="M-1.71,848.36A1.72,1.72,0,0,1,0,846.64a1.71,1.71,0,0,1,1.72,1.71A1.72,1.72,0,0,1,0,850.07,1.71,1.71,0,0,1-1.71,848.36Z" transform="translate(3.29 -222.47)"/><path class="d" d="M21.53,850.42a1.37,1.37,0,1,0-1.51,1.2A1.36,1.36,0,0,0,21.53,850.42Z" transform="translate(3.29 -222.47)"/></g><g class="b"><polyline class="c" points="106.46 644.29 4.1 797.53 151.96 652.29"/><circle class="d" cx="103.17" cy="866.76" r="1.71" transform="translate(-571.11 93.99) rotate(-44.13)"/><path class="d" d="M149.63,875.74a1.37,1.37,0,1,0-1.93,0A1.37,1.37,0,0,0,149.63,875.74Z" transform="translate(3.29 -222.47)"/></g><g class="b"><polygon class="c" points="1267.67 311.2 1317.89 290.3 1264.16 259.56 1267.67 311.2"/><polygon class="c" points="1264.16 259.56 1199.72 226.2 1369.17 238.27 1264.16 259.56"/><polygon class="c" points="1317.89 290.3 1369.17 238.27 1372.63 397.66 1317.89 290.3"/><polyline class="c" points="1317.89 290.3 1318.52 351.36 1372.63 397.66 1360.41 591.81 1282.62 597.15 1372.63 397.66 1215.81 575.81 1187.83 599.08 1282.62 597.15 1215.81 575.81"/><polyline class="c" points="1372.63 397.66 1370.04 735.37 1360.41 591.81 1319.31 719.67 1370.04 735.37 1278.89 799.8 1319.31 719.67 1282.62 597.15 1181.64 714.52 1187.83 599.08 1124.58 493.41 1215.81 575.81"/><polyline class="c" points="1319.31 719.67 1181.64 714.52 1278.89 799.8 1280.31 854.58 1370.04 735.37 1370.04 903.44 1280.31 854.58 1171.77 903.44 1074.72 815.75 1181.64 714.52 1171.77 903.44 1278.89 799.8"/><polyline class="c" points="1318.52 351.36 1267.67 311.2 1199.72 226.2 1156.27 359.28 1267.67 311.2 1151.68 383.99 1156.27 359.28 1091.94 346.97 1151.68 383.99 1215.81 575.81 1318.52 351.36 1151.68 383.99 1124.58 493.41"/><path class="e" d="M1088.66,569.44" transform="translate(3.29 -222.47)"/><line class="c" x1="1091.94" y1="346.97" x2="1199.72" y2="226.2"/><path class="e" d="M1148.39,606.46" transform="translate(3.29 -222.47)"/><path class="e" d="M1184.54,821.55" transform="translate(3.29 -222.47)"/><path class="e" d="M1178.35,937" transform="translate(3.29 -222.47)"/><path class="e" d="M1071.44,1038.22" transform="translate(3.29 -222.47)"/><path class="e" d="M1121.29,715.89" transform="translate(3.29 -222.47)"/></g><circle class="d" cx="144.29" cy="3.29" r="3.29"/><circle class="d" cx="92.96" cy="123.95" r="3.29"/><circle class="d" cx="40.79" cy="86.29" r="3.29"/><circle class="d" cx="3.29" cy="102.79" r="3.29"/><circle class="d" cx="183.88" cy="143.29" r="3.29"/><circle class="d" cx="279.96" cy="165.29" r="3.29"/><circle class="d" cx="238.63" cy="219.95" r="3.29"/><circle class="d" cx="214.58" cy="222.91" r="3.29"/><circle class="d" cx="134.37" cy="203.01" r="3.29"/><circle class="d" cx="98.63" cy="209.95" r="3.29"/><circle class="d" cx="3.29" cy="228.45" r="3.29"/><circle class="d" cx="21.29" cy="246.95" r="3.29"/><circle class="d" cx="63.71" cy="261.29" r="3.29"/><circle class="d" cx="84.63" cy="290.15" r="3.29"/><circle class="d" cx="155.94" cy="312" r="3.29"/><circle class="d" cx="34.96" cy="381.79" r="3.29"/><circle class="d" cx="103.88" cy="369.79" r="3.29"/><circle class="d" cx="125.96" cy="374.79" r="3.29"/><circle class="d" cx="186.46" cy="405.79" r="3.29"/><circle class="d" cx="3.29" cy="480.41" r="3.29"/><circle class="d" cx="119.38" cy="518.29" r="3.29"/><circle class="d" cx="3.29" cy="625.88" r="3.29"/><circle class="d" cx="23.46" cy="628" r="3.29"/><circle class="d" cx="4.1" cy="797.64" r="3.29"/><circle class="d" cx="151.96" cy="652.29" r="3.29"/><circle class="d" cx="106.54" cy="644.29" r="3.29"/><g class="b"><polyline class="c" points="1368.02 973.86 1161.93 973.86 1347.85 1121.24 1368.02 974.15 1368.02 1119.34 1347.85 1121.24 1264.85 1137.74 1161.93 973.86 1134.87 1125.38 1264.85 1137.74"/><circle class="d" cx="1368.02" cy="973.86" r="1.71"/><path class="d" d="M1261.43,1361.58a1.37,1.37,0,1,0-1.23-1.5A1.37,1.37,0,0,0,1261.43,1361.58Z" transform="translate(3.29 -222.47)"/></g><g class="b"><polyline class="c" points="1368.02 1119.34 1369.29 1290.98 1347.85 1121.24"/><path class="d" d="M1363,1341.82a1.71,1.71,0,1,1,1.72,1.7A1.71,1.71,0,0,1,1363,1341.82Z" transform="translate(3.29 -222.47)"/><path class="d" d="M1345.92,1343.54a1.37,1.37,0,1,0-1.19,1.53A1.36,1.36,0,0,0,1345.92,1343.54Z" transform="translate(3.29 -222.47)"/></g><g class="b"><polyline class="c" points="1264.85 1137.74 1369.29 1290.98 1134.87 1125.38"/><path class="d" d="M1260.15,1361.18a1.71,1.71,0,1,1,2.37.45A1.71,1.71,0,0,1,1260.15,1361.18Z" transform="translate(3.29 -222.47)"/><path class="d" d="M1132.37,1346.73a1.37,1.37,0,1,0,.33,1.91A1.36,1.36,0,0,0,1132.37,1346.73Z" transform="translate(3.29 -222.47)"/></g><circle class="d" cx="1368.02" cy="1119.34" r="3.29"/><circle class="d" cx="1347.85" cy="1121.45" r="3.29"/><circle class="d" cx="1369.29" cy="1291.09" r="3.29"/><circle class="d" cx="1134.87" cy="1125.38" r="3.29"/><circle class="d" cx="1088.29" cy="1083" r="3.29"/><circle class="d" cx="1264.76" cy="1137.74" r="3.29"/><circle class="d" cx="1124.58" cy="493.41" r="3.29"/><circle class="d" cx="1215.58" cy="575.81" r="3.29"/><circle class="d" cx="1187.82" cy="599.08" r="3.29"/><circle class="d" cx="1281.93" cy="597.12" r="3.29"/><circle class="d" cx="1319.43" cy="720.37" r="3.29"/><circle class="d" cx="1280.43" cy="854.87" r="3.29"/><circle class="d" cx="1370.04" cy="903.44" r="3.29"/><circle class="d" cx="1161.93" cy="973.53" r="3.29"/><circle class="d" cx="1171.18" cy="903.44" r="3.29"/><circle class="d" cx="1074.72" cy="815.75" r="3.29"/><circle class="d" cx="967.28" cy="973.53" r="3.29"/><circle class="d" cx="1181.64" cy="714.52" r="3.29"/><circle class="d" cx="1278.67" cy="799.8" r="3.29"/><circle class="d" cx="1370.04" cy="734.87" r="3.29"/><circle class="d" cx="1360.43" cy="592.5" r="3.29"/><polyline class="f" points="1171.77 903.44 1161.43 973.53 1074.72 815.75 967.28 973.53 1161.43 973.53 1280.31 854.58 1161.43 973.53 1370.04 903.44 1370.04 973.53 1161.24 973.11 1293.66 929.11"/><path class="f" d="M993.35,1152.89" transform="translate(3.29 -222.47)"/><path class="f" d="M1071.44,1196" transform="translate(3.29 -222.47)"/><path class="f" d="M1071.44,1038.22" transform="translate(3.29 -222.47)"/><circle class="d" cx="1091.94" cy="346.97" r="3.29"/><circle class="d" cx="1199.72" cy="226.2" r="3.29"/><circle class="d" cx="1317.89" cy="290.71" r="3.29"/><circle class="d" cx="1368.77" cy="238.71" r="3.29"/><circle class="d" cx="1264.44" cy="259.56" r="3.29"/><circle class="d" cx="1267.79" cy="311.2" r="3.29"/><circle class="d" cx="1317.89" cy="351.12" r="3.29"/><circle class="d" cx="1372.06" cy="397.66" r="3.29"/><circle class="d" cx="1156.23" cy="359.25" r="3.29"/><circle class="d" cx="1151.68" cy="383.99" r="3.29"/><polyline class="f" points="967.28 973.53 1134.87 1125.38 1161.93 973.86 1088 1082.91"/></svg>