<?xml version="1.0" encoding="utf-8"?>
<!-- Generator: Adobe Illustrator 23.0.1, SVG Export Plug-In . SVG Version: 6.00 Build 0)  -->
<svg version="1.1" id="Layer_1" xmlns="http://www.w3.org/2000/svg" xmlns:xlink="http://www.w3.org/1999/xlink" x="0px" y="0px"
	 viewBox="0 0 1036.3 704" style="enable-background:new 0 0 1036.3 704;" xml:space="preserve">
<style type="text/css">
	.st0{fill:#B0CEFF;stroke:#00CFFF;stroke-width:0.5;stroke-linecap:round;stroke-linejoin:round;}
	.st1{fill:#B0CEFF;stroke:#00CFFF;stroke-width:0.37;stroke-linecap:round;stroke-linejoin:round;}
	.st2{fill:none;stroke:#00CFFF;stroke-width:2.93;stroke-miterlimit:10;}
	.st3{fill:none;stroke:#00CFFF;stroke-width:2.93;stroke-miterlimit:10;stroke-dasharray:14.81,14.81;}
	.st4{fill:url(#SVGID_1_);}
	.st5{fill:#100754;}
	.st6{fill:url(#SVGID_2_);}
	.st7{fill:url(#SVGID_3_);}
	.st8{fill:url(#SVGID_4_);}
	.st9{fill:url(#SVGID_5_);}
	.st10{fill:#00EB83;}
	.st11{fill:#DC0000;}
	.st12{opacity:0.48;enable-background:new    ;}
	.st13{opacity:0.63;enable-background:new    ;}
	.st14{fill:none;stroke:#00CFFF;stroke-width:2.32;stroke-miterlimit:10;}
	.st15{fill:none;stroke:#00CFFF;stroke-width:2.32;stroke-miterlimit:10;stroke-dasharray:16.26,16.26;}
	.st16{fill:#FFFFFF;}
	.st17{fill:none;stroke:#00CFFF;stroke-width:1.21;stroke-miterlimit:10;}
	.st18{fill:url(#SVGID_6_);}
	.st19{fill:url(#SVGID_7_);}
	.st20{opacity:0.82;fill:#0E1835;enable-background:new    ;}
	.st21{fill:url(#SVGID_8_);}
	.st22{fill:#4C4C4C;}
	.st23{fill:url(#SVGID_9_);}
	.st24{fill:url(#SVGID_10_);stroke:url(#SVGID_11_);stroke-width:1.19;stroke-miterlimit:10;}
	.st25{fill:none;stroke:#00CFFF;stroke-miterlimit:10;}
	.st26{fill:#114D5B;}
	.st27{fill:#156D8C;}
	.st28{fill:url(#SVGID_12_);}
	.st29{fill:url(#SVGID_13_);}
	.st30{fill:url(#SVGID_14_);}
	.st31{fill:url(#SVGID_15_);}
	.st32{fill:url(#SVGID_16_);}
	.st33{fill:url(#SVGID_17_);}
	.st34{fill:url(#SVGID_18_);}
	.st35{fill:url(#SVGID_19_);}
	.st36{fill:#70E4FB;}
	.st37{fill:url(#SVGID_20_);}
	.st38{fill:url(#SVGID_21_);}
	.st39{fill:url(#SVGID_22_);}
	.st40{fill:url(#SVGID_23_);}
	.st41{fill:#2D2D2D;}
	.st42{fill:url(#SVGID_24_);}
	.st43{fill:url(#SVGID_25_);}
	.st44{fill:#00DBFF;}
	.st45{fill:url(#SVGID_26_);}
	.st46{fill:url(#SVGID_27_);}
	.st47{fill:url(#SVGID_28_);}
	.st48{fill:none;stroke:#00CFFF;stroke-width:3;stroke-miterlimit:10;}
	.st49{fill:none;stroke:#00CFFF;stroke-width:3;stroke-miterlimit:10;stroke-dasharray:14.9,14.9;}
	.st50{fill:#11669F;}
	.st51{fill:#00CFFF;}
	.st52{fill:url(#SVGID_29_);}
	.st53{fill:url(#SVGID_30_);}
	.st54{fill:url(#SVGID_31_);}
	.st55{fill:url(#SVGID_32_);}
	.st56{fill:url(#SVGID_33_);}
	.st57{fill:url(#SVGID_34_);}
	.st58{fill:url(#SVGID_35_);}
	.st59{fill:url(#SVGID_36_);}
	.st60{fill:url(#SVGID_37_);}
	.st61{fill:url(#SVGID_38_);}
	.st62{fill:url(#SVGID_39_);}
	.st63{fill:#4975BA;}
	.st64{fill:url(#SVGID_40_);}
	.st65{fill:#DDDDDD;}
	.st66{fill:#E5E5E5;}
	.st67{fill:#07052D;}
	.st68{opacity:0.35;fill:#FFFFFF;enable-background:new    ;}
	.st69{fill:url(#SVGID_41_);}
	.st70{fill:url(#SVGID_42_);}
	.st71{fill:url(#SVGID_43_);}
	.st72{fill:url(#SVGID_44_);}
	.st73{fill:url(#SVGID_45_);}
	.st74{fill:url(#SVGID_46_);}
	.st75{fill:url(#SVGID_47_);}
	.st76{fill:url(#SVGID_48_);}
	.st77{fill:url(#SVGID_49_);}
	.st78{fill:url(#SVGID_50_);}
	.st79{fill:url(#SVGID_51_);}
	.st80{fill:url(#SVGID_52_);}
</style>
<title>solution_hero_imgage</title>
<g>
	<path class="st0" d="M621.6,133.5"/>
	<path class="st1" d="M177.4,292.6"/>
	<line class="st2" x1="574.2" y1="464.5" x2="580.7" y2="468.5"/>
	<path class="st3" d="M593.2,476.4l106.4,66.4c7.2,4.5,11.5,12.4,11.3,20.8l-1,62.6c-0.2,13.2-10.9,23.7-24.1,23.7h-97.8"/>
	<line class="st2" x1="580.7" y1="649.9" x2="573" y2="649.9"/>
	<line class="st2" x1="456.2" y1="464.5" x2="449.7" y2="468.5"/>
	<path class="st3" d="M437.1,476.4l-106.3,66.4c-7.2,4.5-11.5,12.4-11.3,20.8l1,62.6c0.2,13.2,10.9,23.7,24.1,23.7h97.8"/>
	<line class="st2" x1="449.8" y1="649.9" x2="457.4" y2="649.9"/>
	
		<linearGradient id="SVGID_1_" gradientUnits="userSpaceOnUse" x1="490.3966" y1="151.96" x2="490.3566" y2="75.19" gradientTransform="matrix(1 0 0 -1 0 706)">
		<stop  offset="0" style="stop-color:#E5E5E5"/>
		<stop  offset="0.35" style="stop-color:#E3E3E3"/>
		<stop  offset="0.55" style="stop-color:#DBDBDB"/>
		<stop  offset="0.71" style="stop-color:#CDCDCD"/>
		<stop  offset="0.84" style="stop-color:#B9B9B9"/>
		<stop  offset="0.97" style="stop-color:#A0A0A0"/>
		<stop  offset="0.99" style="stop-color:#999999"/>
	</linearGradient>
	<path class="st4" d="M490,550.5h0.8c1.7,0,3.1,1.4,3.1,3.1v64.5c0,1.7-1.4,3.1-3.1,3.1H490c-1.7,0-3.1-1.4-3.1-3.1v-64.5
		C486.8,551.9,488.2,550.5,490,550.5z"/>
	<path class="st5" d="M490,550.5h0.8c1.7,0,3.1,1.4,3.1,3.1v10l0,0h-7.1l0,0v-10C486.9,551.9,488.3,550.5,490,550.5
		C490,550.5,490,550.5,490,550.5z"/>
	
		<linearGradient id="SVGID_2_" gradientUnits="userSpaceOnUse" x1="515.1454" y1="154.19" x2="515.0554" y2="86.69" gradientTransform="matrix(1 0 0 -1 0 706)">
		<stop  offset="0" style="stop-color:#E5E5E5"/>
		<stop  offset="0.35" style="stop-color:#E3E3E3"/>
		<stop  offset="0.55" style="stop-color:#DBDBDB"/>
		<stop  offset="0.71" style="stop-color:#CDCDCD"/>
		<stop  offset="0.84" style="stop-color:#B9B9B9"/>
		<stop  offset="0.97" style="stop-color:#A0A0A0"/>
		<stop  offset="0.99" style="stop-color:#999999"/>
	</linearGradient>
	<path class="st6" d="M514.7,550.5h0.8c1.7,0,3.1,1.4,3.1,3.1v64.5c0,1.7-1.4,3.1-3.1,3.1h-0.8c-1.7,0-3.1-1.4-3.1-3.1v-64.5
		C511.6,551.9,513,550.5,514.7,550.5z"/>
	<path class="st5" d="M514.7,550.5h0.8c1.7,0,3.1,1.4,3.1,3.1v10l0,0h-7.1l0,0v-10C511.6,551.9,512.9,550.5,514.7,550.5
		C514.7,550.5,514.7,550.5,514.7,550.5z"/>
	
		<linearGradient id="SVGID_3_" gradientUnits="userSpaceOnUse" x1="539.6833" y1="150.9601" x2="540.3633" y2="82.5301" gradientTransform="matrix(1 0 0 -1 0 706)">
		<stop  offset="0" style="stop-color:#E5E5E5"/>
		<stop  offset="0.35" style="stop-color:#E3E3E3"/>
		<stop  offset="0.55" style="stop-color:#DBDBDB"/>
		<stop  offset="0.71" style="stop-color:#CDCDCD"/>
		<stop  offset="0.84" style="stop-color:#B9B9B9"/>
		<stop  offset="0.97" style="stop-color:#A0A0A0"/>
		<stop  offset="0.99" style="stop-color:#999999"/>
	</linearGradient>
	<path class="st7" d="M539.6,550.5h0.8c1.7,0,3.1,1.4,3.1,3.1v64.5c0,1.7-1.4,3.1-3.1,3.1h-0.8c-1.7,0-3.1-1.4-3.1-3.1v-64.5
		C536.5,551.9,537.8,550.5,539.6,550.5z"/>
	<path class="st5" d="M539.6,550.5h0.8c1.7,0,3.1,1.4,3.1,3.1v10l0,0h-7.1l0,0v-10C536.5,551.9,537.8,550.5,539.6,550.5
		C539.6,550.5,539.6,550.5,539.6,550.5z"/>
	
		<linearGradient id="SVGID_4_" gradientUnits="userSpaceOnUse" x1="618.48" y1="32.8411" x2="741.48" y2="32.8411" gradientTransform="matrix(1 0 0 -1 -164.85 673.98)">
		<stop  offset="0" style="stop-color:#F7F7F7"/>
		<stop  offset="0.53" style="stop-color:#F4F4F4"/>
		<stop  offset="0.87" style="stop-color:#EBEBEB"/>
		<stop  offset="1" style="stop-color:#E6E6E6"/>
	</linearGradient>
	<path class="st8" d="M557.2,611h-84c-2.5-0.1-4.7,1.5-5.4,3.9l-14.2,56.4h123l-14.2-56.4C561.8,612.5,559.6,610.9,557.2,611z"/>
	
		<linearGradient id="SVGID_5_" gradientUnits="userSpaceOnUse" x1="453.3" y1="21.715" x2="577.11" y2="21.715" gradientTransform="matrix(1 0 0 -1 0 706)">
		<stop  offset="0" style="stop-color:#F7F7F7"/>
		<stop  offset="0.53" style="stop-color:#F4F4F4"/>
		<stop  offset="0.87" style="stop-color:#EBEBEB"/>
		<stop  offset="1" style="stop-color:#E6E6E6"/>
	</linearGradient>
	<path class="st9" d="M462.6,664.6h105.2c5.1,0,9.3,4.2,9.3,9.3v20.8c0,5.1-4.2,9.3-9.3,9.3H462.6c-5.1,0-9.3-4.2-9.3-9.3v-20.8
		C453.3,668.8,457.5,664.6,462.6,664.6z"/>
	<circle class="st10" cx="471.5" cy="684.3" r="5.8"/>
	<circle class="st11" cx="490.4" cy="684.3" r="5.8"/>
	<path class="st12" d="M567.8,664.6H462.6c-1.8,0-3.5,0.5-5,1.5l0,0c-0.4,0.2-0.7,0.5-1.1,0.8l-0.3,0.2c-0.3,0.3-0.6,0.6-0.9,1l0,0
		c-1.3,1.6-2,3.7-2,5.8v20.8c0,2.8,1.3,5.5,3.5,7.3c-1.3-1.6-2-3.7-2-5.8v-20.8c0-5.1,4.2-9.3,9.3-9.3h102.1c5.1,0,9.3,4.2,9.3,9.3
		v20.8c0,2.1-0.7,4.1-2,5.8c2.2-1.8,3.5-4.4,3.5-7.3v-20.8C577.1,668.8,572.9,664.6,567.8,664.6z M456.5,667l-0.2,0.2L456.5,667z"/>
	<path class="st13" d="M501,682.7h61.4c0.9,0,1.6,0.7,1.6,1.6v0c0,0.9-0.7,1.6-1.6,1.6H501c-0.9,0-1.6-0.7-1.6-1.6v0
		C499.4,683.4,500.1,682.7,501,682.7z"/>
	<polyline class="st14" points="327.8,375.9 321,379.8 327.8,383.7 	"/>
	<line class="st15" x1="341.9" y1="391.8" x2="503.8" y2="485.3"/>
	<polyline class="st14" points="510.8,489.3 517.6,493.2 524.3,489.3 	"/>
	<line class="st15" x1="538.4" y1="481.2" x2="700.3" y2="387.7"/>
	<polyline class="st14" points="707.4,383.7 714.1,379.8 707.4,375.9 	"/>
	<line class="st15" x1="693.3" y1="367.7" x2="531.4" y2="274.2"/>
	<polyline class="st14" points="524.3,270.2 517.6,266.3 510.8,270.2 	"/>
	<line class="st15" x1="496.7" y1="278.3" x2="334.8" y2="371.8"/>
	
		<image style="overflow:visible;enable-background:new    ;" width="258" height="156" xlink:href="73EAC3C.png"  transform="matrix(1 0 0 1 399.15 290.98)">
	</image>
	<path class="st16" d="M418.1,377.9l94.4,52.9c1.5,0.8,3.2,0.8,4.7,0L639,361.1c2.3-1.3,3.1-4.2,1.8-6.5c-0.4-0.8-1.1-1.4-1.8-1.8
		l-81.4-44.7c-1.3-0.7-2.9-0.8-4.3-0.2l-134.8,61.4c-2.4,1.1-3.4,3.9-2.3,6.3C416.6,376.6,417.3,377.4,418.1,377.9z"/>
	<path class="st17" d="M418.1,377.9l94.4,52.9c1.5,0.8,3.2,0.8,4.7,0L639,361.1c2.3-1.3,3.1-4.2,1.8-6.5c-0.4-0.8-1.1-1.4-1.8-1.8
		l-81.4-44.7c-1.3-0.7-2.9-0.8-4.3-0.2l-134.8,61.4c-2.4,1.1-3.4,3.9-2.3,6.3C416.6,376.6,417.3,377.4,418.1,377.9z"/>
	
		<linearGradient id="SVGID_6_" gradientUnits="userSpaceOnUse" x1="641.1174" y1="339.2827" x2="761.8774" y2="296.2126" gradientTransform="matrix(1 0 0 -1 -164.85 673.98)">
		<stop  offset="0" style="stop-color:#00CFFF"/>
		<stop  offset="6.000000e-02" style="stop-color:#02B9E7"/>
		<stop  offset="0.18" style="stop-color:#058FB8"/>
		<stop  offset="0.3" style="stop-color:#086A90"/>
		<stop  offset="0.43" style="stop-color:#0A4C6F"/>
		<stop  offset="0.56" style="stop-color:#0C3555"/>
		<stop  offset="0.7" style="stop-color:#0D2543"/>
		<stop  offset="0.84" style="stop-color:#0E1B38"/>
		<stop  offset="1" style="stop-color:#0E1835"/>
	</linearGradient>
	<path class="st18" d="M437.6,362.2l77.8,43.5c1.2,0.7,2.7,0.7,3.9,0l100.3-57.3c1.9-1.1,2.5-3.5,1.5-5.3c-0.4-0.6-0.9-1.1-1.5-1.5
		l-67-36.8c-1.1-0.6-2.4-0.6-3.5-0.1l-111,50.6c-2,0.9-2.8,3.2-2,5.2C436.3,361.1,436.9,361.8,437.6,362.2z"/>
	
		<linearGradient id="SVGID_7_" gradientUnits="userSpaceOnUse" x1="641.1174" y1="351.2827" x2="761.8774" y2="308.2126" gradientTransform="matrix(1 0 0 -1 -164.85 673.98)">
		<stop  offset="0" style="stop-color:#00CFFF"/>
		<stop  offset="6.000000e-02" style="stop-color:#02B9E7"/>
		<stop  offset="0.18" style="stop-color:#058FB8"/>
		<stop  offset="0.3" style="stop-color:#086A90"/>
		<stop  offset="0.43" style="stop-color:#0A4C6F"/>
		<stop  offset="0.56" style="stop-color:#0C3555"/>
		<stop  offset="0.7" style="stop-color:#0D2543"/>
		<stop  offset="0.84" style="stop-color:#0E1B38"/>
		<stop  offset="1" style="stop-color:#0E1835"/>
	</linearGradient>
	<path class="st19" d="M437.6,350.2l77.8,43.5c1.2,0.7,2.7,0.7,3.9,0l100.3-57.3c1.9-1.1,2.5-3.5,1.5-5.3c-0.4-0.6-0.9-1.1-1.5-1.5
		l-67-36.8c-1.1-0.6-2.4-0.6-3.5-0.1l-111,50.6c-2,0.9-2.8,3.2-2,5.2C436.3,349.1,436.9,349.8,437.6,350.2z"/>
	<polygon class="st20" points="449.1,340.1 519.6,379.5 607.9,329.1 546.9,295.5 	"/>
	
		<linearGradient id="SVGID_8_" gradientUnits="userSpaceOnUse" x1="598.7117" y1="584.9112" x2="789.8417" y2="622.1512" gradientTransform="matrix(1 0 0 -1 -164.85 673.98)">
		<stop  offset="0.31" style="stop-color:#00CFFF"/>
		<stop  offset="1" style="stop-color:#0E1835"/>
	</linearGradient>
	<path class="st21" d="M432.6,75.3l105.6-61.5c0.9-0.5,2-0.5,2.8,0l83.5,48c1.4,0.8,1.8,2.5,1,3.9c-0.2,0.4-0.6,0.8-1,1l-106.9,61.1
		c0,0-0.1,0-0.1,0l-84.9-47.7c-1.4-0.8-1.9-2.5-1.1-3.8C431.8,75.9,432.1,75.5,432.6,75.3z"/>
	<path class="st22" d="M450.4,105.9l57.2,31c3.2,1.8,5.3,5.2,5.3,8.9v183.9c0,5.6-4.5,10.1-10.1,10.1c-1.7,0-3.3-0.4-4.8-1.2
		l-57.2-31c-3.2-1.8-5.3-5.2-5.3-8.9V114.8c0-5.6,4.5-10.1,10.1-10.1C447.3,104.7,448.9,105.1,450.4,105.9z"/>
	
		<linearGradient id="SVGID_9_" gradientUnits="userSpaceOnUse" x1="447.0712" y1="534.7933" x2="630.5012" y2="469.3633" gradientTransform="matrix(1 0 0 -1 0 706)">
		<stop  offset="0" style="stop-color:#00CFFF"/>
		<stop  offset="1" style="stop-color:#0E1835"/>
	</linearGradient>
	<polygon class="st23" points="517.6,126.4 517.6,126.4 431.2,78 431.2,318.4 517.6,366.8 517.6,366.8 625.9,304.9 625.9,64.6 	"/>
	
		<linearGradient id="SVGID_10_" gradientUnits="userSpaceOnUse" x1="696.3915" y1="465.8579" x2="783.3115" y2="449.5279" gradientTransform="matrix(1 0 0 -1 -164.85 673.98)">
		<stop  offset="0" style="stop-color:#00CFFF"/>
		<stop  offset="0.1" style="stop-color:#01C7F6"/>
		<stop  offset="0.26" style="stop-color:#02B1DE"/>
		<stop  offset="0.47" style="stop-color:#058DB6"/>
		<stop  offset="0.71" style="stop-color:#095C80"/>
		<stop  offset="0.98" style="stop-color:#0E1D3A"/>
		<stop  offset="1" style="stop-color:#0E1835"/>
	</linearGradient>
	
		<linearGradient id="SVGID_11_" gradientUnits="userSpaceOnUse" x1="691.785" y1="458.3" x2="781.455" y2="458.3" gradientTransform="matrix(1 0 0 -1 -164.85 673.98)">
		<stop  offset="0" style="stop-color:#50A0C3"/>
		<stop  offset="0.48" style="stop-color:#0E1835"/>
		<stop  offset="1" style="stop-color:#3F7D9E"/>
	</linearGradient>
	<path class="st24" d="M531.4,140.6l73-41.7c3.7-2.1,8.4-0.8,10.6,2.9c0.7,1.2,1,2.5,1,3.8v178.5c0,2.8-1.5,5.3-3.9,6.7l-73,41.7
		c-3.7,2.1-8.4,0.8-10.6-2.9c-0.7-1.2-1-2.5-1-3.8V147.3C527.5,144.5,529,141.9,531.4,140.6z"/>
	<line class="st25" x1="603.3" y1="192.8" x2="603.3" y2="222.2"/>
	<path class="st26" d="M449.7,96.8l57.2,32.4c3.3,1.9,5.3,5.5,5.3,9.3v192.2c0,8-8.2,13.1-14.9,9.3l-57.2-32.4
		c-3.3-1.9-5.3-5.5-5.3-9.3V106.1C434.8,98.1,443,93,449.7,96.8z"/>
	<path class="st27" d="M452.8,96.8l57.2,32.4c3.3,1.9,5.3,5.5,5.3,9.3v192.2c0,8-8.2,13.1-14.9,9.3l-57.2-32.4
		c-3.3-1.9-5.3-5.5-5.3-9.3V106.1C437.9,98.1,446.1,93,452.8,96.8z"/>
	
		<linearGradient id="SVGID_12_" gradientUnits="userSpaceOnUse" x1="443.21" y1="557.835" x2="504.36" y2="557.835" gradientTransform="matrix(1 0 0 -1 0 706)">
		<stop  offset="0" style="stop-color:#00CFFF;stop-opacity:0.8"/>
		<stop  offset="0.22" style="stop-color:#6DE4FF;stop-opacity:0.8"/>
		<stop  offset="0.5" style="stop-color:#FFFFFF;stop-opacity:0.8"/>
		<stop  offset="0.66" style="stop-color:#A0EDFF;stop-opacity:0.87"/>
		<stop  offset="0.83" style="stop-color:#4ADDFF;stop-opacity:0.94"/>
		<stop  offset="0.94" style="stop-color:#14D3FF;stop-opacity:0.98"/>
		<stop  offset="1" style="stop-color:#00CFFF"/>
	</linearGradient>
	<polygon class="st28" points="504.4,167.4 443.4,134.1 443.2,129 504.2,162.2 	"/>
	
		<linearGradient id="SVGID_13_" gradientUnits="userSpaceOnUse" x1="483.5789" y1="542.1832" x2="464.7823" y2="595.5037" gradientTransform="matrix(1 0 0 -1 0 706)">
		<stop  offset="0" style="stop-color:#00CFFF;stop-opacity:0.8"/>
		<stop  offset="0.22" style="stop-color:#6DE4FF;stop-opacity:0.8"/>
		<stop  offset="0.5" style="stop-color:#FFFFFF;stop-opacity:0.8"/>
		<stop  offset="0.66" style="stop-color:#A0EDFF;stop-opacity:0.87"/>
		<stop  offset="0.83" style="stop-color:#4ADDFF;stop-opacity:0.94"/>
		<stop  offset="0.94" style="stop-color:#14D3FF;stop-opacity:0.98"/>
		<stop  offset="1" style="stop-color:#00CFFF"/>
	</linearGradient>
	<polygon class="st29" points="504.8,156.4 443.8,123.1 443.6,118 504.6,151.2 	"/>
	
		<linearGradient id="SVGID_14_" gradientUnits="userSpaceOnUse" x1="443.01" y1="543.565" x2="475.75" y2="543.565" gradientTransform="matrix(1 0 0 -1 0 706)">
		<stop  offset="0" style="stop-color:#00CFFF;stop-opacity:0.8"/>
		<stop  offset="0.22" style="stop-color:#6DE4FF;stop-opacity:0.8"/>
		<stop  offset="0.5" style="stop-color:#FFFFFF;stop-opacity:0.8"/>
		<stop  offset="0.66" style="stop-color:#A0EDFF;stop-opacity:0.87"/>
		<stop  offset="0.83" style="stop-color:#4ADDFF;stop-opacity:0.94"/>
		<stop  offset="0.94" style="stop-color:#14D3FF;stop-opacity:0.98"/>
		<stop  offset="1" style="stop-color:#00CFFF"/>
	</linearGradient>
	<polygon class="st30" points="475.8,173.9 443.2,156.1 443,151 475.6,168.7 	"/>
	
		<linearGradient id="SVGID_15_" gradientUnits="userSpaceOnUse" x1="443.41" y1="546.83" x2="504.56" y2="546.83" gradientTransform="matrix(1 0 0 -1 0 706)">
		<stop  offset="0" style="stop-color:#00CFFF;stop-opacity:0.8"/>
		<stop  offset="0.22" style="stop-color:#6DE4FF;stop-opacity:0.8"/>
		<stop  offset="0.5" style="stop-color:#FFFFFF;stop-opacity:0.8"/>
		<stop  offset="0.66" style="stop-color:#A0EDFF;stop-opacity:0.87"/>
		<stop  offset="0.83" style="stop-color:#4ADDFF;stop-opacity:0.94"/>
		<stop  offset="0.94" style="stop-color:#14D3FF;stop-opacity:0.98"/>
		<stop  offset="1" style="stop-color:#00CFFF"/>
	</linearGradient>
	<polygon class="st31" points="504.6,178.4 443.6,145.1 443.4,140 504.4,173.2 	"/>
	
		<linearGradient id="SVGID_16_" gradientUnits="userSpaceOnUse" x1="443.01" y1="468.295" x2="504.16" y2="468.295" gradientTransform="matrix(1 0 0 -1 0 706)">
		<stop  offset="0" style="stop-color:#00CFFF;stop-opacity:0.8"/>
		<stop  offset="0.22" style="stop-color:#6DE4FF;stop-opacity:0.8"/>
		<stop  offset="0.5" style="stop-color:#FFFFFF;stop-opacity:0.8"/>
		<stop  offset="0.66" style="stop-color:#A0EDFF;stop-opacity:0.87"/>
		<stop  offset="0.83" style="stop-color:#4ADDFF;stop-opacity:0.94"/>
		<stop  offset="0.94" style="stop-color:#14D3FF;stop-opacity:0.98"/>
		<stop  offset="1" style="stop-color:#00CFFF"/>
	</linearGradient>
	<polygon class="st32" points="504.2,256.9 443.2,223.7 443,218.5 504,251.8 	"/>
	
		<linearGradient id="SVGID_17_" gradientUnits="userSpaceOnUse" x1="443.41" y1="479.3" x2="504.56" y2="479.3" gradientTransform="matrix(1 0 0 -1 0 706)">
		<stop  offset="0" style="stop-color:#00CFFF;stop-opacity:0.8"/>
		<stop  offset="0.22" style="stop-color:#6DE4FF;stop-opacity:0.8"/>
		<stop  offset="0.5" style="stop-color:#FFFFFF;stop-opacity:0.8"/>
		<stop  offset="0.66" style="stop-color:#A0EDFF;stop-opacity:0.87"/>
		<stop  offset="0.83" style="stop-color:#4ADDFF;stop-opacity:0.94"/>
		<stop  offset="0.94" style="stop-color:#14D3FF;stop-opacity:0.98"/>
		<stop  offset="1" style="stop-color:#00CFFF"/>
	</linearGradient>
	<polygon class="st33" points="504.6,245.9 443.6,212.7 443.4,207.5 504.4,240.7 	"/>
	
		<linearGradient id="SVGID_18_" gradientUnits="userSpaceOnUse" x1="442.81" y1="454.025" x2="475.55" y2="454.025" gradientTransform="matrix(1 0 0 -1 0 706)">
		<stop  offset="0" style="stop-color:#00CFFF;stop-opacity:0.8"/>
		<stop  offset="0.22" style="stop-color:#6DE4FF;stop-opacity:0.8"/>
		<stop  offset="0.5" style="stop-color:#FFFFFF;stop-opacity:0.8"/>
		<stop  offset="0.66" style="stop-color:#A0EDFF;stop-opacity:0.87"/>
		<stop  offset="0.83" style="stop-color:#4ADDFF;stop-opacity:0.94"/>
		<stop  offset="0.94" style="stop-color:#14D3FF;stop-opacity:0.98"/>
		<stop  offset="1" style="stop-color:#00CFFF"/>
	</linearGradient>
	<polygon class="st34" points="475.5,263.4 443,245.7 442.8,240.5 475.4,258.3 	"/>
	
		<linearGradient id="SVGID_19_" gradientUnits="userSpaceOnUse" x1="443.21" y1="457.285" x2="504.36" y2="457.285" gradientTransform="matrix(1 0 0 -1 0 706)">
		<stop  offset="0" style="stop-color:#00CFFF;stop-opacity:0.8"/>
		<stop  offset="0.22" style="stop-color:#6DE4FF;stop-opacity:0.8"/>
		<stop  offset="0.5" style="stop-color:#FFFFFF;stop-opacity:0.8"/>
		<stop  offset="0.66" style="stop-color:#A0EDFF;stop-opacity:0.87"/>
		<stop  offset="0.83" style="stop-color:#4ADDFF;stop-opacity:0.94"/>
		<stop  offset="0.94" style="stop-color:#14D3FF;stop-opacity:0.98"/>
		<stop  offset="1" style="stop-color:#00CFFF"/>
	</linearGradient>
	<polygon class="st35" points="504.4,267.9 443.4,234.7 443.2,229.5 504.2,262.8 	"/>
	<polygon class="st36" points="503.8,332.1 442.8,298.9 442.9,278 503.9,311.3 	"/>
	
		<linearGradient id="SVGID_20_" gradientUnits="userSpaceOnUse" x1="443.11" y1="512.915" x2="504.26" y2="512.915" gradientTransform="matrix(1 0 0 -1 0 706)">
		<stop  offset="0" style="stop-color:#00CFFF;stop-opacity:0.8"/>
		<stop  offset="0.22" style="stop-color:#6DE4FF;stop-opacity:0.8"/>
		<stop  offset="0.5" style="stop-color:#FFFFFF;stop-opacity:0.8"/>
		<stop  offset="0.66" style="stop-color:#A0EDFF;stop-opacity:0.87"/>
		<stop  offset="0.83" style="stop-color:#4ADDFF;stop-opacity:0.94"/>
		<stop  offset="0.94" style="stop-color:#14D3FF;stop-opacity:0.98"/>
		<stop  offset="1" style="stop-color:#00CFFF"/>
	</linearGradient>
	<polygon class="st37" points="504.3,212.3 443.3,179 443.1,173.9 504.1,207.1 	"/>
	
		<linearGradient id="SVGID_21_" gradientUnits="userSpaceOnUse" x1="443.51" y1="530.18" x2="481.46" y2="530.18" gradientTransform="matrix(1 0 0 -1 0 706)">
		<stop  offset="0" style="stop-color:#00CFFF;stop-opacity:0.8"/>
		<stop  offset="0.22" style="stop-color:#6DE4FF;stop-opacity:0.8"/>
		<stop  offset="0.5" style="stop-color:#FFFFFF;stop-opacity:0.8"/>
		<stop  offset="0.66" style="stop-color:#A0EDFF;stop-opacity:0.87"/>
		<stop  offset="0.83" style="stop-color:#4ADDFF;stop-opacity:0.94"/>
		<stop  offset="0.94" style="stop-color:#14D3FF;stop-opacity:0.98"/>
		<stop  offset="1" style="stop-color:#00CFFF"/>
	</linearGradient>
	<polygon class="st38" points="481.5,188.8 443.7,168 443.5,162.9 481.3,183.6 	"/>
	
		<linearGradient id="SVGID_22_" gradientUnits="userSpaceOnUse" x1="442.91" y1="499.83" x2="471.17" y2="499.83" gradientTransform="matrix(1 0 0 -1 0 706)">
		<stop  offset="0" style="stop-color:#00CFFF;stop-opacity:0.8"/>
		<stop  offset="0.22" style="stop-color:#6DE4FF;stop-opacity:0.8"/>
		<stop  offset="0.5" style="stop-color:#FFFFFF;stop-opacity:0.8"/>
		<stop  offset="0.66" style="stop-color:#A0EDFF;stop-opacity:0.87"/>
		<stop  offset="0.83" style="stop-color:#4ADDFF;stop-opacity:0.94"/>
		<stop  offset="0.94" style="stop-color:#14D3FF;stop-opacity:0.98"/>
		<stop  offset="1" style="stop-color:#00CFFF"/>
	</linearGradient>
	<polygon class="st39" points="471.2,216.4 443.1,201.1 442.9,195.9 471,211.3 	"/>
	
		<linearGradient id="SVGID_23_" gradientUnits="userSpaceOnUse" x1="443.31" y1="501.91" x2="504.46" y2="501.91" gradientTransform="matrix(1 0 0 -1 0 706)">
		<stop  offset="0" style="stop-color:#00CFFF;stop-opacity:0.8"/>
		<stop  offset="0.22" style="stop-color:#6DE4FF;stop-opacity:0.8"/>
		<stop  offset="0.5" style="stop-color:#FFFFFF;stop-opacity:0.8"/>
		<stop  offset="0.66" style="stop-color:#A0EDFF;stop-opacity:0.87"/>
		<stop  offset="0.83" style="stop-color:#4ADDFF;stop-opacity:0.94"/>
		<stop  offset="0.94" style="stop-color:#14D3FF;stop-opacity:0.98"/>
		<stop  offset="1" style="stop-color:#00CFFF"/>
	</linearGradient>
	<polygon class="st40" points="504.5,223.3 443.5,190.1 443.3,184.9 504.3,218.1 	"/>
	<path class="st41" d="M531.2,75.3"/>
	
		<linearGradient id="SVGID_24_" gradientUnits="userSpaceOnUse" x1="540.6517" y1="650.2696" x2="549.4617" y2="688.2596" gradientTransform="matrix(1 0 0 -1 0 706)">
		<stop  offset="0" style="stop-color:#00CFFF;stop-opacity:0.8"/>
		<stop  offset="3.000000e-02" style="stop-color:#0DD1FF;stop-opacity:0.76"/>
		<stop  offset="0.16" style="stop-color:#4CDDFF;stop-opacity:0.56"/>
		<stop  offset="0.3" style="stop-color:#83E8FF;stop-opacity:0.39"/>
		<stop  offset="0.44" style="stop-color:#B0F0FF;stop-opacity:0.25"/>
		<stop  offset="0.58" style="stop-color:#D3F7FF;stop-opacity:0.14"/>
		<stop  offset="0.72" style="stop-color:#EBFBFF;stop-opacity:6.000000e-02"/>
		<stop  offset="0.86" style="stop-color:#FAFEFF;stop-opacity:2.000000e-02"/>
		<stop  offset="1" style="stop-color:#FFFFFF;stop-opacity:0"/>
	</linearGradient>
	<polygon class="st42" points="527.5,50.5 527.5,0 563.4,20.5 563.2,70.6 	"/>
	
		<linearGradient id="SVGID_25_" gradientUnits="userSpaceOnUse" x1="514.3195" y1="647.6498" x2="503.1595" y2="679.3198" gradientTransform="matrix(1 0 0 -1 0 706)">
		<stop  offset="0" style="stop-color:#00CFFF;stop-opacity:0.8"/>
		<stop  offset="0" style="stop-color:#01CFFF;stop-opacity:0.8"/>
		<stop  offset="0.15" style="stop-color:#44DCFF;stop-opacity:0.59"/>
		<stop  offset="0.29" style="stop-color:#7DE7FF;stop-opacity:0.41"/>
		<stop  offset="0.44" style="stop-color:#ACEFFF;stop-opacity:0.26"/>
		<stop  offset="0.58" style="stop-color:#D0F6FF;stop-opacity:0.15"/>
		<stop  offset="0.72" style="stop-color:#EAFBFF;stop-opacity:7.000000e-02"/>
		<stop  offset="0.86" style="stop-color:#FAFEFF;stop-opacity:2.000000e-02"/>
		<stop  offset="1" style="stop-color:#FFFFFF;stop-opacity:0"/>
	</linearGradient>
	<polygon class="st43" points="488.5,73.4 488.1,29.3 527.2,6.4 527.5,50.5 	"/>
	<polygon class="st44" points="527.5,50.5 488.5,73.4 523.9,93.5 563.2,70.6 	"/>
	
		<linearGradient id="SVGID_26_" gradientUnits="userSpaceOnUse" x1="498.9113" y1="629.4895" x2="511.2713" y2="662.9395" gradientTransform="matrix(1 0 0 -1 0 706)">
		<stop  offset="0" style="stop-color:#00CFFF;stop-opacity:0.8"/>
		<stop  offset="0.12" style="stop-color:#36D9FF;stop-opacity:0.63"/>
		<stop  offset="0.28" style="stop-color:#73E5FF;stop-opacity:0.44"/>
		<stop  offset="0.44" style="stop-color:#A5EEFF;stop-opacity:0.28"/>
		<stop  offset="0.59" style="stop-color:#CCF5FF;stop-opacity:0.16"/>
		<stop  offset="0.74" style="stop-color:#E8FBFF;stop-opacity:7.000000e-02"/>
		<stop  offset="0.88" style="stop-color:#F9FEFF;stop-opacity:2.000000e-02"/>
		<stop  offset="1" style="stop-color:#FFFFFF;stop-opacity:0"/>
	</linearGradient>
	<polygon class="st45" points="488.5,20.1 488.5,73.4 523.9,93.5 524.1,40.1 	"/>
	
		<linearGradient id="SVGID_27_" gradientUnits="userSpaceOnUse" x1="550.4882" y1="627.8995" x2="537.9682" y2="669.5895" gradientTransform="matrix(1 0 0 -1 0 706)">
		<stop  offset="0" style="stop-color:#00CFFF;stop-opacity:0.8"/>
		<stop  offset="2.000000e-02" style="stop-color:#06D0FF;stop-opacity:0.78"/>
		<stop  offset="0.21" style="stop-color:#51DEFF;stop-opacity:0.55"/>
		<stop  offset="0.41" style="stop-color:#8FEAFF;stop-opacity:0.35"/>
		<stop  offset="0.58" style="stop-color:#C0F3FF;stop-opacity:0.2"/>
		<stop  offset="0.75" style="stop-color:#E2FAFF;stop-opacity:9.000000e-02"/>
		<stop  offset="0.89" style="stop-color:#F8FEFF;stop-opacity:2.000000e-02"/>
		<stop  offset="1" style="stop-color:#FFFFFF;stop-opacity:0"/>
	</linearGradient>
	<polygon class="st46" points="523.9,93.5 563.2,70.6 563.4,17.3 524.1,40.1 	"/>
	
		<linearGradient id="SVGID_28_" gradientUnits="userSpaceOnUse" x1="616.0807" y1="300.0328" x2="748.3007" y2="305.0628" gradientTransform="matrix(1 0 0 -1 -164.85 673.98)">
		<stop  offset="0" style="stop-color:#00CFFF"/>
		<stop  offset="7.000000e-02" style="stop-color:#02B2DF"/>
		<stop  offset="0.28" style="stop-color:#096084"/>
		<stop  offset="0.42" style="stop-color:#0C2C4B"/>
		<stop  offset="0.49" style="stop-color:#0E1835"/>
		<stop  offset="0.57" style="stop-color:#0B3D5E"/>
		<stop  offset="0.68" style="stop-color:#077097"/>
		<stop  offset="0.78" style="stop-color:#0499C4"/>
		<stop  offset="0.87" style="stop-color:#02B7E4"/>
		<stop  offset="0.95" style="stop-color:#00C9F8"/>
		<stop  offset="1" style="stop-color:#00CFFF"/>
	</linearGradient>
	<path class="st47" d="M435.6,346.5v11.8c-0.2,1.6,0.6,3.1,2,3.9l77.8,43.5c1.2,0.7,2.7,0.7,3.9,0l100.3-57.3c0,0,2-0.7,2-3.7
		c0-0.6,0-12.1,0-12.1s0.5,2.4-3.2,4.4c-1.3,0.7-99.1,56.6-99.1,56.6c-1.5,0.8-3.3,0.6-4.6-0.4c-2.8-1.3-77.2-43.3-77.2-43.3
		C436.2,349.3,435.5,347.9,435.6,346.5z"/>
	<line class="st48" x1="627.2" y1="430.2" x2="634" y2="434.1"/>
	<path class="st49" d="M646.9,441.6l112.9,65.2c10.4,6,23.3,6,33.7-0.1l56.4-32.8"/>
	<line class="st48" x1="856.3" y1="470.2" x2="863.1" y2="466.3"/>
	<line class="st48" x1="409.1" y1="430.6" x2="402.3" y2="434.5"/>
	<path class="st49" d="M389.4,441.9l-112.9,65.2c-10.4,6-23.3,6-33.7,0l-56.4-32.8"/>
	<line class="st48" x1="180" y1="470.5" x2="173.2" y2="466.6"/>
	<path class="st50" d="M1032,446.3L896.2,368c-0.9-0.5-1.4-1.5-1.4-2.5V258c0-1.6,1.3-2.8,2.9-2.8c0.5,0,1,0.1,1.4,0.4l135.8,79.8
		c0.9,0.5,1.4,1.4,1.4,2.5v106.1c0,1.6-1.3,2.8-2.9,2.8C1032.9,446.7,1032.5,446.6,1032,446.3z"/>
	<polygon class="st51" points="1032.3,441.8 898.8,364.8 898.8,258.6 1032.3,337 	"/>
	
		<linearGradient id="SVGID_29_" gradientUnits="userSpaceOnUse" x1="942.9882" y1="386.5561" x2="928.6361" y2="427.2619" gradientTransform="matrix(1 0 0 -1 0 706)">
		<stop  offset="0.55" style="stop-color:#FFFFFF"/>
		<stop  offset="0.72" style="stop-color:#94EBFF;stop-opacity:0.58"/>
		<stop  offset="0.86" style="stop-color:#44DCFF;stop-opacity:0.27"/>
		<stop  offset="0.95" style="stop-color:#13D3FF;stop-opacity:7.000000e-02"/>
		<stop  offset="1" style="stop-color:#00CFFF;stop-opacity:0"/>
	</linearGradient>
	<polygon class="st52" points="958.4,314 913.4,288 913.2,284.2 958.3,310.1 	"/>
	
		<linearGradient id="SVGID_30_" gradientUnits="userSpaceOnUse" x1="957.0397" y1="363.4907" x2="936.3613" y2="422.1361" gradientTransform="matrix(1 0 0 -1 0 706)">
		<stop  offset="0.67" style="stop-color:#FFFFFF"/>
		<stop  offset="0.79" style="stop-color:#94EBFF;stop-opacity:0.58"/>
		<stop  offset="0.89" style="stop-color:#44DCFF;stop-opacity:0.27"/>
		<stop  offset="0.97" style="stop-color:#13D3FF;stop-opacity:7.000000e-02"/>
		<stop  offset="1" style="stop-color:#00CFFF;stop-opacity:0"/>
	</linearGradient>
	<polygon class="st53" points="980.2,334.4 913.4,295.9 913.2,292 980,330.5 	"/>
	
		<linearGradient id="SVGID_31_" gradientUnits="userSpaceOnUse" x1="935.9399" y1="378.5002" x2="924.7711" y2="410.1967" gradientTransform="matrix(1 0 0 -1 0 706)">
		<stop  offset="0.55" style="stop-color:#FFFFFF"/>
		<stop  offset="0.72" style="stop-color:#94EBFF;stop-opacity:0.58"/>
		<stop  offset="0.86" style="stop-color:#44DCFF;stop-opacity:0.27"/>
		<stop  offset="0.95" style="stop-color:#13D3FF;stop-opacity:7.000000e-02"/>
		<stop  offset="1" style="stop-color:#00CFFF;stop-opacity:0"/>
	</linearGradient>
	<polygon class="st54" points="947.5,323.4 913.4,303.7 913.2,299.9 947.3,319.6 	"/>
	
		<linearGradient id="SVGID_32_" gradientUnits="userSpaceOnUse" x1="938.7094" y1="367.5918" x2="926.2706" y2="402.8682" gradientTransform="matrix(1 0 0 -1 0 706)">
		<stop  offset="0.55" style="stop-color:#FFFFFF"/>
		<stop  offset="0.72" style="stop-color:#94EBFF;stop-opacity:0.58"/>
		<stop  offset="0.86" style="stop-color:#44DCFF;stop-opacity:0.27"/>
		<stop  offset="0.95" style="stop-color:#13D3FF;stop-opacity:7.000000e-02"/>
		<stop  offset="1" style="stop-color:#00CFFF;stop-opacity:0"/>
	</linearGradient>
	<polygon class="st55" points="951.8,333.8 913.4,311.6 913.2,307.7 951.6,330 	"/>
	
		<linearGradient id="SVGID_33_" gradientUnits="userSpaceOnUse" x1="936.0214" y1="362.561" x2="924.7628" y2="394.487" gradientTransform="matrix(1 0 0 -1 0 706)">
		<stop  offset="0.55" style="stop-color:#FFFFFF"/>
		<stop  offset="0.72" style="stop-color:#94EBFF;stop-opacity:0.58"/>
		<stop  offset="0.86" style="stop-color:#44DCFF;stop-opacity:0.27"/>
		<stop  offset="0.95" style="stop-color:#13D3FF;stop-opacity:7.000000e-02"/>
		<stop  offset="1" style="stop-color:#00CFFF;stop-opacity:0"/>
	</linearGradient>
	<polygon class="st56" points="947.6,339.4 913.4,319.4 913.2,315.6 947.4,335.5 	"/>
	
		<linearGradient id="SVGID_34_" gradientUnits="userSpaceOnUse" x1="950.8593" y1="338.682" x2="932.9307" y2="389.518" gradientTransform="matrix(1 0 0 -1 0 706)">
		<stop  offset="0.72" style="stop-color:#FFFFFF"/>
		<stop  offset="0.82" style="stop-color:#94EBFF;stop-opacity:0.58"/>
		<stop  offset="0.91" style="stop-color:#44DCFF;stop-opacity:0.27"/>
		<stop  offset="0.97" style="stop-color:#13D3FF;stop-opacity:7.000000e-02"/>
		<stop  offset="1" style="stop-color:#00CFFF;stop-opacity:0"/>
	</linearGradient>
	<polygon class="st57" points="970.6,360.4 913.4,327.3 913.2,323.4 970.4,356.5 	"/>
	
		<linearGradient id="SVGID_35_" gradientUnits="userSpaceOnUse" x1="930.6989" y1="352.8831" x2="921.9222" y2="377.7838" gradientTransform="matrix(1 0 0 -1 0 706)">
		<stop  offset="0.55" style="stop-color:#FFFFFF"/>
		<stop  offset="0.72" style="stop-color:#94EBFF;stop-opacity:0.58"/>
		<stop  offset="0.86" style="stop-color:#44DCFF;stop-opacity:0.27"/>
		<stop  offset="0.95" style="stop-color:#13D3FF;stop-opacity:7.000000e-02"/>
		<stop  offset="1" style="stop-color:#00CFFF;stop-opacity:0"/>
	</linearGradient>
	<polygon class="st58" points="939.4,350 913.4,335.1 913.2,331.3 939.3,346.2 	"/>
	
		<linearGradient id="SVGID_36_" gradientUnits="userSpaceOnUse" x1="937.8992" y1="337.1922" x2="925.8718" y2="371.3246" gradientTransform="matrix(1 0 0 -1 0 706)">
		<stop  offset="0.55" style="stop-color:#FFFFFF"/>
		<stop  offset="0.72" style="stop-color:#94EBFF;stop-opacity:0.58"/>
		<stop  offset="0.86" style="stop-color:#44DCFF;stop-opacity:0.27"/>
		<stop  offset="0.95" style="stop-color:#13D3FF;stop-opacity:7.000000e-02"/>
		<stop  offset="1" style="stop-color:#00CFFF;stop-opacity:0"/>
	</linearGradient>
	<polygon class="st59" points="950.5,364.4 913.4,343 913.2,339.1 950.4,360.5 	"/>
	
		<linearGradient id="SVGID_37_" gradientUnits="userSpaceOnUse" x1="942.9866" y1="323.7455" x2="928.6345" y2="364.4513" gradientTransform="matrix(1 0 0 -1 0 706)">
		<stop  offset="0.55" style="stop-color:#FFFFFF"/>
		<stop  offset="0.72" style="stop-color:#94EBFF;stop-opacity:0.58"/>
		<stop  offset="0.86" style="stop-color:#44DCFF;stop-opacity:0.27"/>
		<stop  offset="0.95" style="stop-color:#13D3FF;stop-opacity:7.000000e-02"/>
		<stop  offset="1" style="stop-color:#00CFFF;stop-opacity:0"/>
	</linearGradient>
	<polygon class="st60" points="958.4,376.8 913.4,350.8 913.2,347 958.3,373 	"/>
	
		<linearGradient id="SVGID_38_" gradientUnits="userSpaceOnUse" x1="942.985" y1="315.895" x2="928.633" y2="356.6008" gradientTransform="matrix(1 0 0 -1 0 706)">
		<stop  offset="0.55" style="stop-color:#FFFFFF"/>
		<stop  offset="0.72" style="stop-color:#94EBFF;stop-opacity:0.58"/>
		<stop  offset="0.86" style="stop-color:#44DCFF;stop-opacity:0.27"/>
		<stop  offset="0.95" style="stop-color:#13D3FF;stop-opacity:7.000000e-02"/>
		<stop  offset="1" style="stop-color:#00CFFF;stop-opacity:0"/>
	</linearGradient>
	<polygon class="st61" points="958.4,384.7 913.4,358.7 913.2,354.8 958.3,380.8 	"/>
	
		<linearGradient id="SVGID_39_" gradientUnits="userSpaceOnUse" x1="894.4608" y1="339.8402" x2="937.3007" y2="203.7102" gradientTransform="matrix(1 0 0 -1 0 706)">
		<stop  offset="0" style="stop-color:#F7F7F7"/>
		<stop  offset="0.53" style="stop-color:#F4F4F4"/>
		<stop  offset="0.87" style="stop-color:#EBEBEB"/>
		<stop  offset="1" style="stop-color:#E6E6E6"/>
	</linearGradient>
	<polygon class="st62" points="894.8,365.3 1036.3,447 937.3,504.1 795.8,422.5 	"/>
	<polygon class="st63" points="1019,460.4 1019,457.6 1015.2,459.8 1015.2,462.5 	"/>
	<polygon class="st63" points="1014.4,463 1014.4,460.3 1010.6,462.5 1010.6,465.2 	"/>
	
		<linearGradient id="SVGID_40_" gradientUnits="userSpaceOnUse" x1="246.3742" y1="220.5401" x2="311.5243" y2="229.9201" gradientTransform="matrix(-1 0 0 -1 1163.02 673.98)">
		<stop  offset="0" style="stop-color:#FFFFFF;stop-opacity:0.2"/>
		<stop  offset="0.36" style="stop-color:#F6F6F6;stop-opacity:0.49"/>
		<stop  offset="1" style="stop-color:#E6E6E6"/>
	</linearGradient>
	<path class="st64" d="M917.5,451.4L878.8,429c-0.6-0.3-1.3-0.3-1.9,0l-24.6,14.2c-0.9,0.5-1.2,1.7-0.7,2.6c0.2,0.3,0.4,0.5,0.7,0.7
		l38.7,22.4c0.6,0.3,1.3,0.3,1.9,0l24.6-14.2c0.9-0.5,1.2-1.7,0.6-2.6C918,451.7,917.7,451.5,917.5,451.4z"/>
	<path class="st65" d="M892.3,468.8l24.6-14.2c0.9-0.5,1.2-1.7,0.7-2.5c-0.2-0.3-0.4-0.5-0.7-0.7L878.2,429
		c-0.2-0.1-0.4-0.2-0.7-0.2c0.4-0.1,0.8,0,1.2,0.2l38.7,22.4c0.9,0.5,1.2,1.7,0.7,2.5c-0.2,0.3-0.4,0.5-0.7,0.7l-24.6,14.2
		c-0.4,0.2-0.8,0.3-1.2,0.2C891.9,468.9,892.1,468.9,892.3,468.8z"/>
	<polygon class="st66" points="880.1,378.1 837.2,402.8 964.6,476.3 1006.9,451.7 	"/>
	<path class="st67" d="M881.2,393.6l-4.6-2.7c-0.6-0.3-0.5-0.9,0.2-1.3l4.3-2.5c0.7-0.4,1.5-0.4,2.2-0.1l4.6,2.7
		c0.6,0.3,0.5,0.9-0.2,1.3l-4.3,2.5C882.7,393.9,881.9,394,881.2,393.6z"/>
	<path class="st5" d="M881.7,393.6l-4.6-2.7c-0.6-0.3-0.5-0.9,0.2-1.3l4.3-2.5c0.7-0.4,1.5-0.4,2.3-0.1l4.6,2.7
		c0.6,0.3,0.5,0.9-0.2,1.3l-4.3,2.5C883.2,393.9,882.4,393.9,881.7,393.6z"/>
	<path class="st67" d="M889.7,398.4l-4.6-2.7c-0.6-0.3-0.5-0.9,0.2-1.3l4.3-2.5c0.7-0.4,1.5-0.4,2.3-0.1l4.6,2.7
		c0.6,0.3,0.5,0.9-0.2,1.3l-4.3,2.5C891.2,398.7,890.4,398.7,889.7,398.4z"/>
	<path class="st5" d="M890.2,398.3l-4.7-2.7c-0.6-0.3-0.5-0.9,0.2-1.3l4.3-2.5c0.7-0.4,1.5-0.4,2.2-0.1l4.6,2.7
		c0.6,0.3,0.5,0.9-0.2,1.3l-4.3,2.5C891.7,398.6,890.9,398.7,890.2,398.3z"/>
	<path class="st67" d="M898.2,403.1l-4.6-2.7c-0.6-0.3-0.5-0.9,0.2-1.3l4.3-2.5c0.7-0.4,1.5-0.4,2.2-0.1l4.6,2.7
		c0.6,0.3,0.5,0.9-0.2,1.3l-4.3,2.5C899.8,403.4,898.9,403.5,898.2,403.1z"/>
	<path class="st5" d="M898.7,403.1l-4.6-2.7c-0.6-0.3-0.5-0.9,0.2-1.3l4.3-2.5c0.7-0.4,1.5-0.4,2.3-0.1l4.6,2.7
		c0.6,0.3,0.5,0.9-0.2,1.3L901,403C900.3,403.4,899.4,403.4,898.7,403.1z"/>
	<path class="st67" d="M906.7,407.9l-4.6-2.7c-0.6-0.3-0.5-0.9,0.2-1.3l4.3-2.5c0.7-0.4,1.5-0.4,2.3-0.1l4.6,2.7
		c0.6,0.3,0.5,0.9-0.2,1.3l-4.3,2.5C908.3,408.2,907.5,408.2,906.7,407.9z"/>
	<path class="st5" d="M907.2,407.8l-4.6-2.7c-0.6-0.3-0.5-0.9,0.2-1.3l4.3-2.5c0.7-0.4,1.5-0.4,2.2-0.1l4.6,2.7
		c0.6,0.3,0.5,0.9-0.2,1.3l-4.3,2.5C908.8,408.1,908,408.2,907.2,407.8z"/>
	<path class="st67" d="M915.3,412.6l-4.6-2.7c-0.6-0.3-0.5-0.9,0.2-1.3l4.3-2.5c0.7-0.4,1.5-0.4,2.2-0.1l4.6,2.7
		c0.6,0.3,0.5,0.9-0.2,1.3l-4.3,2.5C916.8,412.9,916,413,915.3,412.6z"/>
	<path class="st5" d="M915.8,412.6l-4.6-2.7c-0.6-0.3-0.5-0.9,0.2-1.3l4.3-2.5c0.7-0.4,1.5-0.4,2.3-0.1l4.6,2.7
		c0.6,0.3,0.5,0.9-0.2,1.3l-4.3,2.5C917.3,412.9,916.5,412.9,915.8,412.6z"/>
	<path class="st67" d="M923.8,417.4l-4.6-2.7c-0.6-0.3-0.5-0.9,0.2-1.3l4.3-2.5c0.7-0.4,1.5-0.4,2.3-0.1l4.6,2.7
		c0.6,0.3,0.5,0.9-0.2,1.3l-4.3,2.5C925.3,417.7,924.5,417.7,923.8,417.4z"/>
	<path class="st5" d="M924.3,417.3l-4.6-2.7c-0.6-0.3-0.5-0.9,0.2-1.3l4.3-2.5c0.7-0.4,1.5-0.4,2.2-0.1l4.6,2.7
		c0.6,0.3,0.5,0.9-0.2,1.3l-4.3,2.5C925.8,417.6,925,417.7,924.3,417.3z"/>
	<path class="st67" d="M932.3,422.1l-4.6-2.7c-0.6-0.3-0.5-0.9,0.2-1.3l4.3-2.5c0.7-0.4,1.5-0.4,2.2-0.1l4.6,2.7
		c0.6,0.3,0.5,0.9-0.2,1.3l-4.3,2.5C933.9,422.4,933,422.5,932.3,422.1z"/>
	<path class="st5" d="M932.8,422.1l-4.6-2.7c-0.6-0.3-0.5-0.9,0.2-1.3l4.3-2.5c0.7-0.4,1.5-0.4,2.3-0.1l4.6,2.7
		c0.6,0.3,0.5,0.9-0.2,1.3l-4.3,2.5C934.4,422.4,933.5,422.4,932.8,422.1z"/>
	<path class="st67" d="M940.8,426.9l-4.6-2.7c-0.6-0.3-0.5-0.9,0.2-1.3l4.3-2.5c0.7-0.4,1.5-0.4,2.3-0.1l4.6,2.7
		c0.6,0.3,0.5,0.9-0.2,1.3l-4.3,2.5C942.4,427.2,941.6,427.2,940.8,426.9z"/>
	<path class="st5" d="M941.3,426.8l-4.6-2.7c-0.6-0.3-0.5-0.9,0.2-1.3l4.3-2.5c0.7-0.4,1.5-0.4,2.2-0.1l4.6,2.7
		c0.6,0.3,0.5,0.9-0.2,1.3l-4.3,2.5C942.9,427.1,942.1,427.2,941.3,426.8z"/>
	<path class="st67" d="M949.4,431.6l-4.6-2.7c-0.6-0.3-0.5-0.9,0.2-1.3l4.3-2.5c0.7-0.4,1.5-0.4,2.2-0.1l4.7,2.7
		c0.6,0.3,0.5,0.9-0.2,1.3l-4.3,2.5C950.9,431.9,950.1,432,949.4,431.6z"/>
	<path class="st5" d="M949.9,431.6l-4.6-2.7c-0.6-0.3-0.5-0.9,0.2-1.3l4.3-2.5c0.7-0.4,1.5-0.4,2.3-0.1l4.6,2.7
		c0.6,0.3,0.5,0.9-0.2,1.3l-4.3,2.5C951.4,431.9,950.6,431.9,949.9,431.6z"/>
	<path class="st67" d="M878.7,402l-10.7-6.2c-0.6-0.3-0.5-0.9,0.2-1.3l4.3-2.5c0.7-0.4,1.5-0.4,2.3-0.1l10.7,6.2
		c0.6,0.3,0.5,0.9-0.2,1.3l-4.3,2.5C880.2,402.3,879.4,402.3,878.7,402z"/>
	<path class="st5" d="M879.3,402.1l-10.8-6.2c-0.6-0.3-0.5-0.9,0.2-1.3l4.3-2.5c0.7-0.4,1.5-0.4,2.3-0.1l10.7,6.2
		c0.6,0.3,0.5,0.9-0.2,1.3l-4.3,2.5C880.9,402.4,880.1,402.4,879.3,402.1z"/>
	<path class="st67" d="M889.6,408l-4.6-2.7c-0.6-0.3-0.5-0.9,0.2-1.3l4.3-2.5c0.7-0.4,1.5-0.4,2.3-0.1l4.6,2.7
		c0.6,0.3,0.5,0.9-0.2,1.3l-4.3,2.5C891.2,408.3,890.3,408.3,889.6,408z"/>
	<path class="st5" d="M890.2,408l-4.6-2.7c-0.6-0.3-0.5-0.9,0.2-1.3l4.3-2.5c0.7-0.4,1.5-0.4,2.3-0.1l4.6,2.7
		c0.6,0.3,0.5,0.9-0.2,1.3l-4.3,2.5C891.7,408.3,890.9,408.3,890.2,408z"/>
	<path class="st67" d="M898.2,412.7l-4.6-2.7c-0.6-0.3-0.5-0.9,0.2-1.3l4.3-2.5c0.7-0.4,1.5-0.4,2.3-0.1l4.6,2.7
		c0.6,0.3,0.5,0.9-0.2,1.3l-4.3,2.5C899.7,413,898.9,413.1,898.2,412.7z"/>
	<path class="st5" d="M898.6,412.7L894,410c-0.6-0.3-0.5-0.9,0.2-1.3l4.3-2.5c0.7-0.4,1.5-0.4,2.3-0.1l4.6,2.7
		c0.6,0.3,0.5,0.9-0.2,1.3l-4.3,2.5C900.2,413,899.4,413,898.6,412.7z"/>
	<path class="st67" d="M906.7,417.5l-4.6-2.7c-0.6-0.3-0.5-0.9,0.2-1.3l4.3-2.5c0.7-0.4,1.5-0.4,2.3-0.1l4.6,2.7
		c0.6,0.3,0.5,0.9-0.2,1.3l-4.3,2.5C908.2,417.8,907.4,417.8,906.7,417.5z"/>
	<path class="st5" d="M907.2,417.4l-4.6-2.7c-0.6-0.3-0.5-0.9,0.2-1.3l4.3-2.5c0.7-0.4,1.5-0.4,2.3-0.1l4.6,2.7
		c0.6,0.3,0.5,0.9-0.2,1.3l-4.3,2.5C908.7,417.7,907.9,417.8,907.2,417.4z"/>
	<path class="st67" d="M915.2,422.2l-4.6-2.7c-0.6-0.3-0.5-0.9,0.2-1.3l4.3-2.5c0.7-0.4,1.5-0.4,2.3-0.1l4.6,2.7
		c0.6,0.3,0.5,0.9-0.2,1.3l-4.3,2.5C916.7,422.5,915.9,422.6,915.2,422.2z"/>
	<path class="st5" d="M915.7,422.2l-4.6-2.7c-0.6-0.3-0.5-0.9,0.2-1.3l4.3-2.5c0.7-0.4,1.5-0.4,2.3-0.1l4.6,2.7
		c0.6,0.3,0.5,0.9-0.2,1.3l-4.3,2.5C917.2,422.5,916.4,422.5,915.7,422.2z"/>
	<path class="st67" d="M923.7,427l-4.6-2.7c-0.6-0.3-0.5-0.9,0.2-1.3l4.3-2.5c0.7-0.4,1.5-0.4,2.3-0.1l4.6,2.7
		c0.6,0.3,0.5,0.9-0.2,1.3l-4.3,2.5C925.3,427.3,924.4,427.3,923.7,427z"/>
	<path class="st5" d="M924.2,427l-4.6-2.7c-0.6-0.3-0.5-0.9,0.2-1.3l4.3-2.5c0.7-0.4,1.5-0.4,2.3-0.1l4.6,2.7
		c0.6,0.3,0.5,0.9-0.2,1.3l-4.3,2.5C925.8,427.3,924.9,427.3,924.2,427z"/>
	<path class="st67" d="M932.2,431.7l-4.6-2.7c-0.6-0.3-0.5-0.9,0.2-1.3l4.3-2.5c0.7-0.4,1.5-0.4,2.3-0.1l4.6,2.7
		c0.6,0.3,0.5,0.9-0.2,1.3l-4.3,2.5C933.8,432,933,432.1,932.2,431.7z"/>
	<path class="st5" d="M932.7,431.7l-4.6-2.7c-0.6-0.3-0.5-0.9,0.2-1.3l4.3-2.5c0.7-0.4,1.5-0.4,2.3-0.1l4.6,2.7
		c0.6,0.3,0.5,0.9-0.2,1.3l-4.3,2.5C934.3,432,933.5,432,932.7,431.7z"/>
	<path class="st67" d="M932.3,441.4l-4.6-2.7c-0.6-0.3-0.5-0.9,0.2-1.3l12.5-7.2c0.7-0.4,1.5-0.4,2.3-0.1l4.6,2.7
		c0.6,0.3,0.5,0.9-0.2,1.3l-12.5,7.2C933.8,441.7,933,441.7,932.3,441.4z"/>
	<path class="st5" d="M933.2,441.1l-4.7-2.7c-0.6-0.3-0.5-0.9,0.2-1.3l12.5-7.2c0.7-0.4,1.5-0.4,2.3-0.1l4.6,2.7
		c0.6,0.3,0.5,0.9-0.2,1.3l-12.5,7.2C934.7,441.4,933.9,441.5,933.2,441.1z"/>
	<path class="st67" d="M872.2,408.1l-12.9-7.4c-0.6-0.3-0.5-0.9,0.2-1.3l4.3-2.5c0.7-0.4,1.5-0.4,2.3-0.1l12.9,7.4
		c0.6,0.3,0.5,0.9-0.2,1.3l-4.3,2.5C873.7,408.4,872.9,408.4,872.2,408.1z"/>
	<path class="st5" d="M872.9,408.2l-12.9-7.4c-0.6-0.3-0.5-0.9,0.2-1.3l4.3-2.5c0.7-0.4,1.5-0.4,2.2-0.1l12.9,7.4
		c0.6,0.3,0.5,0.9-0.2,1.3l-4.3,2.5C874.5,408.5,873.6,408.5,872.9,408.2z"/>
	<path class="st67" d="M881,412.9l-4.6-2.7c-0.6-0.3-0.5-0.9,0.2-1.3l4.3-2.5c0.7-0.4,1.5-0.4,2.3-0.1l4.6,2.7
		c0.6,0.3,0.5,0.9-0.2,1.3l-4.3,2.5C882.6,413.1,881.7,413.2,881,412.9z"/>
	<path class="st5" d="M881.5,412.8l-4.6-2.7c-0.6-0.3-0.5-0.9,0.2-1.3l4.3-2.5c0.7-0.4,1.5-0.4,2.2-0.1l4.6,2.7
		c0.6,0.3,0.5,0.9-0.2,1.3l-4.3,2.5C883,413.1,882.2,413.1,881.5,412.8z"/>
	<path class="st67" d="M889.5,417.6l-4.6-2.7c-0.6-0.3-0.5-0.9,0.2-1.3l4.3-2.5c0.7-0.4,1.5-0.4,2.2-0.1l4.6,2.7
		c0.6,0.3,0.5,0.9-0.2,1.3l-4.3,2.5C891.1,417.9,890.2,417.9,889.5,417.6z"/>
	<path class="st5" d="M890,417.5l-4.6-2.7c-0.6-0.3-0.5-0.9,0.2-1.3l4.3-2.5c0.7-0.4,1.5-0.4,2.3-0.1l4.6,2.7
		c0.6,0.3,0.5,0.9-0.2,1.3l-4.3,2.5C891.6,417.8,890.7,417.9,890,417.5z"/>
	<path class="st67" d="M898.1,422.4l-4.6-2.7c-0.6-0.3-0.5-0.9,0.2-1.3l4.3-2.5c0.7-0.4,1.5-0.4,2.3-0.1l4.6,2.7
		c0.6,0.3,0.5,0.9-0.2,1.3l-4.3,2.5C899.6,422.6,898.8,422.7,898.1,422.4z"/>
	<path class="st5" d="M898.6,422.3l-4.6-2.7c-0.6-0.3-0.5-0.9,0.2-1.3l4.3-2.5c0.7-0.4,1.5-0.4,2.2-0.1l4.6,2.7
		c0.6,0.3,0.5,0.9-0.2,1.3l-4.3,2.5C900.1,422.6,899.3,422.6,898.6,422.3z"/>
	<path class="st67" d="M906.6,427.1l-4.6-2.7c-0.6-0.3-0.5-0.9,0.2-1.3l4.3-2.5c0.7-0.4,1.5-0.4,2.2-0.1l4.6,2.7
		c0.6,0.3,0.5,0.9-0.2,1.3l-4.3,2.5C908.1,427.4,907.3,427.4,906.6,427.1z"/>
	<path class="st5" d="M907.1,427l-4.6-2.7c-0.6-0.3-0.5-0.9,0.2-1.3l4.3-2.5c0.7-0.4,1.5-0.4,2.3-0.1l4.6,2.7
		c0.6,0.3,0.5,0.9-0.2,1.3l-4.3,2.5C908.6,427.3,907.8,427.4,907.1,427z"/>
	<path class="st67" d="M915.2,431.9l-4.6-2.7c-0.6-0.3-0.5-0.9,0.2-1.3l4.3-2.5c0.7-0.4,1.5-0.4,2.3-0.1l4.6,2.7
		c0.6,0.3,0.5,0.9-0.2,1.3l-4.3,2.5C916.7,432.1,915.9,432.2,915.2,431.9z"/>
	<path class="st5" d="M915.6,431.8l-4.6-2.7c-0.6-0.3-0.5-0.9,0.2-1.3l4.3-2.5c0.7-0.4,1.5-0.4,2.2-0.1l4.6,2.7
		c0.6,0.3,0.5,0.9-0.2,1.3l-4.3,2.5C917.1,432.1,916.3,432.1,915.6,431.8z"/>
	<path class="st67" d="M931.9,441.4l-12.9-7.4c-0.6-0.3-0.5-0.9,0.2-1.3l4.3-2.5c0.7-0.4,1.5-0.4,2.2-0.1l12.9,7.4
		c0.6,0.3,0.5,0.9-0.2,1.3l-4.3,2.5C933.4,441.6,932.6,441.7,931.9,441.4z"/>
	<path class="st5" d="M932.6,441.4l-12.9-7.5c-0.6-0.3-0.5-0.9,0.2-1.3l4.3-2.5c0.7-0.4,1.5-0.4,2.3-0.1l12.9,7.4
		c0.6,0.3,0.5,0.9-0.2,1.3l-4.3,2.5C934.2,441.7,933.3,441.8,932.6,441.4z"/>
	<path class="st67" d="M855.3,408.2l-4.6-2.7c-0.6-0.3-0.5-0.9,0.2-1.3l4.3-2.5c0.7-0.4,1.5-0.4,2.3-0.1l4.6,2.7
		c0.6,0.3,0.5,0.9-0.2,1.3l-4.3,2.5C856.9,408.5,856.1,408.5,855.3,408.2z"/>
	<path class="st5" d="M855.8,408.1l-4.6-2.7c-0.6-0.3-0.5-0.9,0.2-1.3l4.3-2.5c0.7-0.4,1.5-0.4,2.3-0.1l4.6,2.7
		c0.6,0.3,0.5,0.9-0.2,1.3l-4.3,2.5C857.4,408.4,856.6,408.5,855.8,408.1z"/>
	<path class="st67" d="M863.9,413l-4.6-2.7c-0.6-0.3-0.5-0.9,0.2-1.3l4.3-2.5c0.7-0.4,1.5-0.4,2.3-0.1l4.6,2.7
		c0.6,0.3,0.5,0.9-0.2,1.3l-4.3,2.5C865.4,413.3,864.6,413.3,863.9,413z"/>
	<path class="st5" d="M864.4,412.9l-4.6-2.7c-0.6-0.3-0.5-0.9,0.2-1.3l4.3-2.5c0.7-0.4,1.5-0.4,2.3-0.1l4.6,2.7
		c0.6,0.3,0.5,0.9-0.2,1.3l-4.3,2.5C865.9,413.2,865.1,413.2,864.4,412.9z"/>
	<path class="st67" d="M872.4,417.7l-4.6-2.7c-0.6-0.3-0.5-0.9,0.2-1.3l4.3-2.5c0.7-0.4,1.5-0.4,2.3-0.1l4.6,2.7
		c0.6,0.3,0.5,0.9-0.2,1.3l-4.3,2.5C874,418,873.1,418,872.4,417.7z"/>
	<path class="st5" d="M872.9,417.6l-4.6-2.7c-0.6-0.3-0.5-0.9,0.2-1.3l4.3-2.5c0.7-0.4,1.5-0.4,2.3-0.1l4.6,2.7
		c0.6,0.3,0.5,0.9-0.2,1.3l-4.3,2.5C874.4,418,873.6,418,872.9,417.6z"/>
	<path class="st67" d="M880.9,422.5l-4.6-2.7c-0.6-0.3-0.5-0.9,0.2-1.3l4.3-2.5c0.7-0.4,1.5-0.4,2.3-0.1l4.6,2.7
		c0.6,0.3,0.5,0.9-0.2,1.3l-4.3,2.5C882.5,422.7,881.6,422.8,880.9,422.5z"/>
	<path class="st5" d="M881.4,422.4l-4.6-2.7c-0.6-0.3-0.5-0.9,0.2-1.3l4.3-2.5c0.7-0.4,1.5-0.4,2.3-0.1l4.6,2.7
		c0.6,0.3,0.5,0.9-0.2,1.3l-4.3,2.5C883,422.7,882.1,422.7,881.4,422.4z"/>
	<path class="st67" d="M889.4,427.2l-4.6-2.7c-0.6-0.3-0.5-0.9,0.2-1.3l4.3-2.5c0.7-0.4,1.5-0.4,2.3-0.1l4.6,2.7
		c0.6,0.3,0.5,0.9-0.2,1.3l-4.3,2.5C891,427.5,890.2,427.5,889.4,427.2z"/>
	<path class="st5" d="M889.9,427.1l-4.6-2.7c-0.6-0.3-0.5-0.9,0.2-1.3l4.3-2.5c0.7-0.4,1.5-0.4,2.3-0.1l4.6,2.7
		c0.6,0.3,0.5,0.9-0.2,1.3l-4.3,2.5C891.5,427.4,890.7,427.5,889.9,427.1z"/>
	<path class="st67" d="M898,432l-4.6-2.7c-0.6-0.3-0.5-0.9,0.2-1.3l4.3-2.5c0.7-0.4,1.5-0.4,2.3-0.1l4.6,2.7
		c0.6,0.3,0.5,0.9-0.2,1.3l-4.3,2.5C899.5,432.3,898.7,432.3,898,432z"/>
	<path class="st5" d="M898.5,431.9l-4.6-2.7c-0.6-0.3-0.5-0.9,0.2-1.3l4.3-2.5c0.7-0.4,1.5-0.4,2.3-0.1l4.6,2.6
		c0.6,0.3,0.5,0.9-0.2,1.3l-4.3,2.5C900,432.2,899.2,432.2,898.5,431.9z"/>
	<path class="st67" d="M906.5,436.7l-4.6-2.7c-0.6-0.3-0.5-0.9,0.2-1.3l4.3-2.5c0.7-0.4,1.5-0.4,2.3-0.1l4.6,2.7
		c0.6,0.3,0.5,0.9-0.2,1.3l-4.3,2.5C908.1,437,907.2,437,906.5,436.7z"/>
	<path class="st5" d="M907,436.7l-4.6-2.7c-0.6-0.3-0.5-0.9,0.2-1.3l4.3-2.5c0.7-0.4,1.5-0.4,2.3-0.1l4.6,2.7
		c0.6,0.3,0.5,0.9-0.2,1.3l-4.3,2.5C908.5,436.9,907.7,437,907,436.7z"/>
	<path class="st67" d="M915,441.5l-4.6-2.7c-0.6-0.3-0.5-0.9,0.2-1.3l4.3-2.5c0.7-0.4,1.5-0.4,2.3-0.1l4.6,2.7
		c0.6,0.3,0.5,0.9-0.2,1.3l-4.3,2.5C916.6,441.7,915.7,441.8,915,441.5z"/>
	<path class="st5" d="M915.5,441.4l-4.6-2.7c-0.6-0.3-0.5-0.9,0.2-1.3l4.3-2.5c0.7-0.4,1.5-0.4,2.3-0.1l4.6,2.7
		c0.6,0.3,0.5,0.9-0.2,1.3l-4.3,2.5C917.1,441.7,916.2,441.7,915.5,441.4z"/>
	<path class="st67" d="M963.2,439.5l-10-5.8c-0.6-0.3-0.5-0.9,0.2-1.3l4.3-2.5c0.7-0.4,1.5-0.4,2.3-0.1l10,5.8
		c0.6,0.3,0.5,0.9-0.2,1.3l-4.3,2.5C964.8,439.8,963.9,439.8,963.2,439.5z"/>
	<path class="st5" d="M963.9,439.5l-10-5.8c-0.6-0.3-0.5-0.9,0.2-1.3l4.3-2.5c0.7-0.4,1.5-0.4,2.3-0.1l10,5.8
		c0.6,0.3,0.5,0.9-0.2,1.3l-4.3,2.5C965.4,439.8,964.6,439.8,963.9,439.5z"/>
	<path class="st67" d="M970.9,443.9l-3.3-1.9c-0.6-0.3-0.5-0.9,0.2-1.3l4.3-2.5c0.7-0.4,1.5-0.4,2.3-0.1l3.3,1.9
		c0.6,0.3,0.5,0.9-0.2,1.3l-4.3,2.5C972.4,444.2,971.6,444.2,970.9,443.9z"/>
	<path class="st5" d="M971.3,443.8l-3.3-1.9c-0.6-0.3-0.5-0.9,0.2-1.3l4.3-2.5c0.7-0.4,1.5-0.4,2.3-0.1l3.3,1.9
		c0.6,0.3,0.5,0.9-0.2,1.3l-4.3,2.5C972.9,444.1,972.1,444.1,971.3,443.8z"/>
	<path class="st67" d="M978.6,448.3l-3.3-1.9c-0.6-0.3-0.5-0.9,0.2-1.3l4.3-2.5c0.7-0.4,1.5-0.4,2.3-0.1l3.3,1.9
		c0.6,0.3,0.5,0.9-0.2,1.3l-4.3,2.5C980.1,448.6,979.3,448.7,978.6,448.3z"/>
	<path class="st5" d="M979,448.3l-3.3-1.9c-0.6-0.3-0.5-0.9,0.2-1.3l4.3-2.5c0.7-0.4,1.5-0.4,2.3-0.1l3.3,1.9
		c0.6,0.3,0.5,0.9-0.2,1.3l-4.3,2.5C980.6,448.5,979.8,448.6,979,448.3z"/>
	<path class="st67" d="M986.3,452.8l-3.3-1.9c-0.6-0.3-0.5-0.9,0.2-1.3l4.3-2.5c0.7-0.4,1.5-0.4,2.3-0.1l3.3,1.9
		c0.6,0.3,0.5,0.9-0.2,1.3l-4.3,2.5C987.8,453.1,987,453.1,986.3,452.8z"/>
	<path class="st5" d="M986.7,452.7l-3.3-1.9c-0.6-0.3-0.5-0.9,0.2-1.3l4.3-2.5c0.7-0.4,1.5-0.4,2.3-0.1l3.3,1.9
		c0.6,0.3,0.5,0.9-0.2,1.3l-4.3,2.5C988.3,453,987.4,453,986.7,452.7z"/>
	<path class="st67" d="M962.6,448.8l-3.3-1.9c-0.6-0.3-0.5-0.9,0.2-1.3l4.3-2.5c0.7-0.4,1.5-0.4,2.3-0.1l3.3,1.9
		c0.6,0.3,0.5,0.9-0.2,1.3l-4.3,2.5C964.2,449.1,963.3,449.1,962.6,448.8z"/>
	<path class="st5" d="M963.1,448.7l-3.3-1.9c-0.6-0.3-0.5-0.9,0.2-1.3l4.3-2.5c0.7-0.4,1.5-0.4,2.3-0.1l3.3,1.9
		c0.6,0.3,0.5,0.9-0.2,1.3l-4.3,2.5C964.6,449,963.8,449,963.1,448.7z"/>
	<path class="st67" d="M970.3,453.2l-3.3-1.9c-0.6-0.3-0.5-0.9,0.2-1.3l4.3-2.5c0.7-0.4,1.5-0.4,2.2-0.1l3.3,1.9
		c0.6,0.3,0.5,0.9-0.2,1.3l-4.3,2.5C971.8,453.5,971,453.5,970.3,453.2z"/>
	<path class="st5" d="M970.8,453.1l-3.3-1.9c-0.6-0.3-0.5-0.9,0.2-1.3l4.3-2.5c0.7-0.4,1.5-0.4,2.3-0.1l3.3,1.9
		c0.6,0.3,0.5,0.9-0.2,1.3L973,453C972.3,453.4,971.5,453.4,970.8,453.1z"/>
	<path class="st67" d="M978,457.6l-3.3-1.9c-0.6-0.3-0.5-0.9,0.2-1.3l4.3-2.4c0.7-0.4,1.5-0.4,2.3-0.1l3.3,1.9
		c0.6,0.3,0.5,0.9-0.2,1.3l-4.3,2.5C979.5,458,978.7,458,978,457.6z"/>
	<path class="st5" d="M978.4,457.6l-3.3-1.9c-0.6-0.3-0.5-0.9,0.2-1.3l4.3-2.5c0.7-0.4,1.5-0.4,2.3-0.1l3.3,1.9
		c0.6,0.3,0.5,0.9-0.2,1.3l-4.3,2.5C980,457.9,979.2,457.9,978.4,457.6z"/>
	<path class="st67" d="M954.3,453.6l-3.3-1.9c-0.6-0.3-0.5-0.9,0.2-1.3l4.3-2.5c0.7-0.4,1.5-0.4,2.3-0.1l3.3,1.9
		c0.6,0.3,0.5,0.9-0.2,1.3l-4.3,2.5C955.9,453.9,955,454,954.3,453.6z"/>
	<path class="st5" d="M954.8,453.6l-3.3-1.9c-0.6-0.3-0.5-0.9,0.2-1.3l4.3-2.5c0.7-0.4,1.5-0.4,2.3-0.1l3.3,1.9
		c0.6,0.3,0.5,0.9-0.2,1.3l-4.3,2.5C956.3,453.9,955.5,453.9,954.8,453.6z"/>
	<path class="st67" d="M962,458.1l-3.3-1.9c-0.6-0.3-0.5-0.9,0.2-1.3l4.3-2.5c0.7-0.4,1.5-0.4,2.2-0.1l3.3,1.9
		c0.6,0.3,0.5,0.9-0.2,1.3l-4.3,2.5C963.6,458.4,962.7,458.4,962,458.1z"/>
	<path class="st5" d="M962.5,458l-3.3-1.9c-0.6-0.3-0.5-0.9,0.2-1.3l4.3-2.5c0.7-0.4,1.5-0.4,2.3-0.1l3.3,1.9
		c0.6,0.3,0.5,0.9-0.2,1.3l-4.3,2.5C964,458.3,963.2,458.3,962.5,458z"/>
	<path class="st67" d="M969.7,462.5l-3.3-1.9c-0.6-0.3-0.5-0.9,0.2-1.3l4.3-2.5c0.7-0.4,1.5-0.4,2.3-0.1l3.3,1.9
		c0.6,0.3,0.5,0.9-0.2,1.3l-4.3,2.5C971.2,462.8,970.4,462.8,969.7,462.5z"/>
	<path class="st5" d="M970.2,462.4l-3.3-1.9c-0.6-0.3-0.5-0.9,0.2-1.3l4.3-2.5c0.7-0.4,1.5-0.4,2.2-0.1l3.3,1.9
		c0.6,0.3,0.5,0.9-0.2,1.3l-4.3,2.5C971.7,462.7,970.9,462.8,970.2,462.4z"/>
	<path class="st67" d="M953.7,463l-3.3-1.9c-0.6-0.3-0.5-0.9,0.2-1.3l4.3-2.5c0.7-0.4,1.5-0.4,2.2-0.1l3.3,1.9
		c0.6,0.3,0.5,0.9-0.2,1.3l-4.3,2.5C955.3,463.3,954.5,463.3,953.7,463z"/>
	<path class="st5" d="M954.2,462.9l-3.3-1.9c-0.6-0.3-0.5-0.9,0.2-1.3l4.3-2.5c0.7-0.4,1.5-0.4,2.3-0.1l3.3,1.9
		c0.6,0.3,0.5,0.9-0.2,1.3l-4.3,2.5C955.7,463.2,954.9,463.2,954.2,462.9z"/>
	<path class="st67" d="M961.4,467.4l-3.3-1.9c-0.6-0.3-0.5-0.9,0.2-1.3l4.3-2.5c0.7-0.4,1.5-0.4,2.3-0.1l3.3,1.9
		c0.6,0.3,0.5,0.9-0.2,1.3l-4.3,2.5C963,467.7,962.1,467.7,961.4,467.4z"/>
	<path class="st5" d="M961.9,467.3l-3.3-1.9c-0.6-0.3-0.5-0.9,0.2-1.3l4.3-2.5c0.7-0.4,1.5-0.4,2.2-0.1l3.3,1.9
		c0.6,0.3,0.5,0.9-0.2,1.3l-4.3,2.5C963.4,467.6,962.6,467.6,961.9,467.3z"/>
	<path class="st67" d="M943.1,447.4l-3.3-1.9c-0.6-0.3-0.5-0.9,0.2-1.3l4.3-2.5c0.7-0.4,1.5-0.4,2.3-0.1l3.3,1.9
		c0.6,0.3,0.5,0.9-0.2,1.3l-4.3,2.5C944.6,447.7,943.8,447.7,943.1,447.4z"/>
	<path class="st5" d="M943.5,447.3l-3.3-1.9c-0.6-0.3-0.5-0.9,0.2-1.3l4.3-2.5c0.7-0.4,1.5-0.4,2.2-0.1l3.3,1.9
		c0.6,0.3,0.5,0.9-0.2,1.3l-4.3,2.5C945.1,447.6,944.2,447.6,943.5,447.3z"/>
	<path class="st67" d="M926.6,448.1l-3.3-1.9c-0.6-0.3-0.5-0.9,0.2-1.3l4.3-2.5c0.7-0.4,1.5-0.4,2.2-0.1l3.3,1.9
		c0.6,0.3,0.5,0.9-0.2,1.3l-4.3,2.5C928.1,448.4,927.3,448.5,926.6,448.1z"/>
	<path class="st5" d="M927,448.1l-3.3-1.9c-0.6-0.3-0.5-0.9,0.2-1.3l4.3-2.5c0.7-0.4,1.5-0.4,2.3-0.1l3.3,1.9
		c0.6,0.3,0.5,0.9-0.2,1.3l-4.3,2.5C928.6,448.3,927.8,448.4,927,448.1z"/>
	<path class="st67" d="M934.3,452.6l-3.3-1.9c-0.6-0.3-0.5-0.9,0.2-1.3l4.3-2.5c0.7-0.4,1.5-0.4,2.3-0.1l3.3,1.9
		c0.6,0.3,0.5,0.9-0.2,1.3l-4.3,2.5C935.8,452.9,935,452.9,934.3,452.6z"/>
	<path class="st5" d="M934.7,452.5l-3.3-1.9c-0.6-0.3-0.5-0.9,0.2-1.3l4.3-2.5c0.7-0.4,1.5-0.4,2.2-0.1l3.3,1.9
		c0.6,0.3,0.5,0.9-0.2,1.3l-4.3,2.5C936.3,452.8,935.4,452.8,934.7,452.5z"/>
	<path class="st67" d="M942,457l-3.3-1.9c-0.6-0.3-0.5-0.9,0.2-1.3l4.3-2.5c0.7-0.4,1.5-0.4,2.2-0.1l3.3,1.9
		c0.6,0.3,0.5,0.9-0.2,1.3l-4.3,2.5C943.5,457.3,942.7,457.3,942,457z"/>
	<path class="st5" d="M942.4,456.9l-3.3-1.9c-0.6-0.3-0.5-0.9,0.2-1.3l4.3-2.5c0.7-0.4,1.5-0.4,2.3-0.1l3.3,1.9
		c0.6,0.3,0.5,0.9-0.2,1.3l-4.3,2.5C944,457.2,943.1,457.2,942.4,456.9z"/>
	<path class="st1" d="M894.8,365.3"/>
	<polygon class="st68" points="898.8,258.6 898.8,364.8 924.8,379.8 980.7,306.7 	"/>
	<path class="st50" d="M4.3,446.6l135.8-78.3c0.9-0.5,1.4-1.5,1.4-2.5V258.3c0-1.6-1.3-2.9-2.8-2.9c-0.5,0-1.1,0.1-1.5,0.4
		L1.4,335.6c-0.9,0.5-1.4,1.4-1.4,2.5v106.1c0,1.6,1.3,2.8,2.9,2.8C3.3,447,3.8,446.9,4.3,446.6z"/>
	<polygon class="st51" points="4,442.1 137.5,365.1 137.5,258.9 4,337.3 	"/>
	
		<linearGradient id="SVGID_41_" gradientUnits="userSpaceOnUse" x1="1375.715" y1="354.225" x2="1361.365" y2="394.925" gradientTransform="matrix(-1 0 0 -1 1469.03 673.98)">
		<stop  offset="0.55" style="stop-color:#FFFFFF"/>
		<stop  offset="0.72" style="stop-color:#94EBFF;stop-opacity:0.58"/>
		<stop  offset="0.86" style="stop-color:#44DCFF;stop-opacity:0.27"/>
		<stop  offset="0.95" style="stop-color:#13D3FF;stop-opacity:7.000000e-02"/>
		<stop  offset="1" style="stop-color:#00CFFF;stop-opacity:0"/>
	</linearGradient>
	<polygon class="st69" points="77.9,314.3 122.9,288.3 123.1,284.5 78,310.5 	"/>
	
		<linearGradient id="SVGID_42_" gradientUnits="userSpaceOnUse" x1="1389.7722" y1="331.1537" x2="1369.0898" y2="389.8005" gradientTransform="matrix(-1 0 0 -1 1469.03 673.98)">
		<stop  offset="0.67" style="stop-color:#FFFFFF"/>
		<stop  offset="0.79" style="stop-color:#94EBFF;stop-opacity:0.58"/>
		<stop  offset="0.89" style="stop-color:#44DCFF;stop-opacity:0.27"/>
		<stop  offset="0.97" style="stop-color:#13D3FF;stop-opacity:7.000000e-02"/>
		<stop  offset="1" style="stop-color:#00CFFF;stop-opacity:0"/>
	</linearGradient>
	<polygon class="st70" points="56.1,334.7 122.9,296.2 123.1,292.3 56.3,330.8 	"/>
	
		<linearGradient id="SVGID_43_" gradientUnits="userSpaceOnUse" x1="1368.67" y1="346.1602" x2="1357.5" y2="377.8599" gradientTransform="matrix(-1 0 0 -1 1469.03 673.98)">
		<stop  offset="0.55" style="stop-color:#FFFFFF"/>
		<stop  offset="0.72" style="stop-color:#94EBFF;stop-opacity:0.58"/>
		<stop  offset="0.86" style="stop-color:#44DCFF;stop-opacity:0.27"/>
		<stop  offset="0.95" style="stop-color:#13D3FF;stop-opacity:7.000000e-02"/>
		<stop  offset="1" style="stop-color:#00CFFF;stop-opacity:0"/>
	</linearGradient>
	<polygon class="st71" points="88.8,323.8 122.9,304 123.1,300.2 88.9,319.9 	"/>
	
		<linearGradient id="SVGID_44_" gradientUnits="userSpaceOnUse" x1="1371.4365" y1="335.2508" x2="1358.9935" y2="370.5392" gradientTransform="matrix(-1 0 0 -1 1469.03 673.98)">
		<stop  offset="0.55" style="stop-color:#FFFFFF"/>
		<stop  offset="0.72" style="stop-color:#94EBFF;stop-opacity:0.58"/>
		<stop  offset="0.86" style="stop-color:#44DCFF;stop-opacity:0.27"/>
		<stop  offset="0.95" style="stop-color:#13D3FF;stop-opacity:7.000000e-02"/>
		<stop  offset="1" style="stop-color:#00CFFF;stop-opacity:0"/>
	</linearGradient>
	<polygon class="st72" points="84.6,334.1 122.9,311.9 123.1,308 84.7,330.3 	"/>
	
		<linearGradient id="SVGID_45_" gradientUnits="userSpaceOnUse" x1="1368.7515" y1="330.2209" x2="1357.4886" y2="362.159" gradientTransform="matrix(-1 0 0 -1 1469.03 673.98)">
		<stop  offset="0.55" style="stop-color:#FFFFFF"/>
		<stop  offset="0.72" style="stop-color:#94EBFF;stop-opacity:0.58"/>
		<stop  offset="0.86" style="stop-color:#44DCFF;stop-opacity:0.27"/>
		<stop  offset="0.95" style="stop-color:#13D3FF;stop-opacity:7.000000e-02"/>
		<stop  offset="1" style="stop-color:#00CFFF;stop-opacity:0"/>
	</linearGradient>
	<polygon class="st73" points="88.7,339.7 122.9,319.8 123.1,315.9 88.9,335.8 	"/>
	
		<linearGradient id="SVGID_46_" gradientUnits="userSpaceOnUse" x1="1383.5864" y1="306.341" x2="1365.6569" y2="357.1801" gradientTransform="matrix(-1 0 0 -1 1469.03 673.98)">
		<stop  offset="0.72" style="stop-color:#FFFFFF"/>
		<stop  offset="0.82" style="stop-color:#94EBFF;stop-opacity:0.58"/>
		<stop  offset="0.91" style="stop-color:#44DCFF;stop-opacity:0.27"/>
		<stop  offset="0.97" style="stop-color:#13D3FF;stop-opacity:7.000000e-02"/>
		<stop  offset="1" style="stop-color:#00CFFF;stop-opacity:0"/>
	</linearGradient>
	<polygon class="st74" points="65.7,360.7 122.9,327.6 123.1,323.8 65.9,356.8 	"/>
	
		<linearGradient id="SVGID_47_" gradientUnits="userSpaceOnUse" x1="1363.4298" y1="320.5457" x2="1354.6492" y2="345.4474" gradientTransform="matrix(-1 0 0 -1 1469.03 673.98)">
		<stop  offset="0.55" style="stop-color:#FFFFFF"/>
		<stop  offset="0.72" style="stop-color:#94EBFF;stop-opacity:0.58"/>
		<stop  offset="0.86" style="stop-color:#44DCFF;stop-opacity:0.27"/>
		<stop  offset="0.95" style="stop-color:#13D3FF;stop-opacity:7.000000e-02"/>
		<stop  offset="1" style="stop-color:#00CFFF;stop-opacity:0"/>
	</linearGradient>
	<polygon class="st75" points="96.9,350.4 122.9,335.5 123.1,331.6 97,346.5 	"/>
	
		<linearGradient id="SVGID_48_" gradientUnits="userSpaceOnUse" x1="1370.6312" y1="304.8516" x2="1358.5989" y2="338.9884" gradientTransform="matrix(-1 0 0 -1 1469.03 673.98)">
		<stop  offset="0.55" style="stop-color:#FFFFFF"/>
		<stop  offset="0.72" style="stop-color:#94EBFF;stop-opacity:0.58"/>
		<stop  offset="0.86" style="stop-color:#44DCFF;stop-opacity:0.27"/>
		<stop  offset="0.95" style="stop-color:#13D3FF;stop-opacity:7.000000e-02"/>
		<stop  offset="1" style="stop-color:#00CFFF;stop-opacity:0"/>
	</linearGradient>
	<polygon class="st76" points="85.8,364.7 122.9,343.3 123.1,339.5 85.9,360.8 	"/>
	
		<linearGradient id="SVGID_49_" gradientUnits="userSpaceOnUse" x1="1375.7181" y1="291.4061" x2="1361.365" y2="332.115" gradientTransform="matrix(-1 0 0 -1 1469.03 673.98)">
		<stop  offset="0.55" style="stop-color:#FFFFFF"/>
		<stop  offset="0.72" style="stop-color:#94EBFF;stop-opacity:0.58"/>
		<stop  offset="0.86" style="stop-color:#44DCFF;stop-opacity:0.27"/>
		<stop  offset="0.95" style="stop-color:#13D3FF;stop-opacity:7.000000e-02"/>
		<stop  offset="1" style="stop-color:#00CFFF;stop-opacity:0"/>
	</linearGradient>
	<polygon class="st77" points="77.9,377.1 122.9,351.1 123.1,347.3 78,373.3 	"/>
	
		<linearGradient id="SVGID_50_" gradientUnits="userSpaceOnUse" x1="1375.7146" y1="283.5562" x2="1361.3655" y2="324.2638" gradientTransform="matrix(-1 0 0 -1 1469.03 673.98)">
		<stop  offset="0.55" style="stop-color:#FFFFFF"/>
		<stop  offset="0.72" style="stop-color:#94EBFF;stop-opacity:0.58"/>
		<stop  offset="0.86" style="stop-color:#44DCFF;stop-opacity:0.27"/>
		<stop  offset="0.95" style="stop-color:#13D3FF;stop-opacity:7.000000e-02"/>
		<stop  offset="1" style="stop-color:#00CFFF;stop-opacity:0"/>
	</linearGradient>
	<polygon class="st78" points="77.9,385 122.9,359 123.1,355.1 78,381.1 	"/>
	
		<linearGradient id="SVGID_51_" gradientUnits="userSpaceOnUse" x1="141.3297" y1="339.7501" x2="99.8197" y2="204.1801" gradientTransform="matrix(1 0 0 -1 0 706)">
		<stop  offset="0" style="stop-color:#F7F7F7"/>
		<stop  offset="0.53" style="stop-color:#F4F4F4"/>
		<stop  offset="0.87" style="stop-color:#EBEBEB"/>
		<stop  offset="1" style="stop-color:#E6E6E6"/>
	</linearGradient>
	<polygon class="st79" points="141.5,365.6 0,447.3 99,504.5 240.5,422.8 	"/>
	
		<linearGradient id="SVGID_52_" gradientUnits="userSpaceOnUse" x1="-21.4997" y1="220.1781" x2="43.6403" y2="229.5682" gradientTransform="matrix(1 0 0 -1 141.17 673.98)">
		<stop  offset="0" style="stop-color:#FFFFFF;stop-opacity:0.2"/>
		<stop  offset="0.36" style="stop-color:#F6F6F6;stop-opacity:0.49"/>
		<stop  offset="1" style="stop-color:#E6E6E6"/>
	</linearGradient>
	<path class="st80" d="M118.8,451.7l38.7-22.4c0.6-0.3,1.3-0.3,1.9,0l24.6,14.2c0.9,0.5,1.2,1.7,0.7,2.5c-0.2,0.3-0.4,0.5-0.7,0.7
		l-38.7,22.4c-0.6,0.3-1.3,0.3-1.9,0l-24.6-14.2c-0.9-0.5-1.3-1.5-0.8-2.5C118.2,452.1,118.4,451.8,118.8,451.7z"/>
	<path class="st65" d="M143.9,469.1l-24.6-14.2c-0.9-0.5-1.2-1.7-0.7-2.5c0.2-0.3,0.4-0.5,0.7-0.7l38.8-22.4
		c0.2-0.1,0.4-0.2,0.6-0.2c-0.4-0.1-0.8,0-1.2,0.2l-38.7,22.4c-0.9,0.5-1.2,1.7-0.7,2.5c0.2,0.3,0.4,0.5,0.7,0.7l24.6,14.2
		c0.4,0.2,0.8,0.3,1.2,0.2C144.4,469.3,144.2,469.2,143.9,469.1z"/>
	<polygon class="st66" points="156.2,378.4 199.1,403.1 71.7,476.6 29.4,452 	"/>
	<path class="st67" d="M155.1,394l4.6-2.7c0.6-0.3,0.5-0.9-0.2-1.3l-4.3-2.5c-0.7-0.4-1.5-0.4-2.2-0.1l-4.6,2.7
		c-0.6,0.3-0.5,0.9,0.2,1.3l4.3,2.5C153.6,394.3,154.4,394.3,155.1,394z"/>
	<path class="st5" d="M154.6,393.9l4.6-2.7c0.6-0.3,0.5-0.9-0.2-1.3l-4.3-2.5c-0.7-0.4-1.5-0.4-2.3-0.1l-4.6,2.6
		c-0.6,0.3-0.5,0.9,0.2,1.3l4.3,2.5C153.1,394.2,153.9,394.2,154.6,393.9z"/>
	<path class="st67" d="M146.6,398.7l4.6-2.7c0.6-0.3,0.5-0.9-0.2-1.3l-4.3-2.5c-0.7-0.4-1.5-0.4-2.3-0.1l-4.6,2.7
		c-0.6,0.3-0.5,0.9,0.2,1.3l4.3,2.5C145,399,145.9,399,146.6,398.7z"/>
	<path class="st5" d="M146.1,398.7l4.6-2.7c0.6-0.3,0.5-0.9-0.2-1.3l-4.3-2.5c-0.7-0.4-1.5-0.4-2.2-0.1l-4.6,2.7
		c-0.6,0.3-0.5,0.9,0.2,1.3l4.3,2.5C144.6,398.9,145.4,399,146.1,398.7z"/>
	<path class="st67" d="M138.1,403.5l4.6-2.7c0.6-0.3,0.5-0.9-0.2-1.3l-4.3-2.5c-0.7-0.4-1.5-0.4-2.2-0.1l-4.6,2.7
		c-0.6,0.3-0.5,0.9,0.2,1.3l4.3,2.5C136.5,403.7,137.4,403.8,138.1,403.5z"/>
	<path class="st5" d="M137.6,403.4l4.6-2.7c0.6-0.3,0.5-0.9-0.2-1.3l-4.3-2.4c-0.7-0.4-1.5-0.4-2.3-0.1l-4.6,2.7
		c-0.6,0.3-0.5,0.9,0.2,1.3l4.3,2.5C136,403.7,136.9,403.7,137.6,403.4z"/>
	<path class="st67" d="M129.6,408.2l4.6-2.7c0.6-0.3,0.5-0.9-0.2-1.3l-4.3-2.5c-0.7-0.4-1.5-0.4-2.3-0.1l-4.6,2.7
		c-0.6,0.3-0.5,0.9,0.2,1.3l4.3,2.5C128,408.5,128.8,408.5,129.6,408.2z"/>
	<path class="st5" d="M129.1,408.2l4.6-2.7c0.6-0.3,0.5-0.9-0.2-1.3l-4.3-2.5c-0.7-0.4-1.5-0.4-2.2-0.1l-4.6,2.7
		c-0.6,0.3-0.5,0.9,0.2,1.3l4.3,2.5C127.5,408.4,128.3,408.5,129.1,408.2z"/>
	<path class="st67" d="M121,413l4.6-2.7c0.6-0.3,0.5-0.9-0.2-1.3l-4.4-2.5c-0.7-0.4-1.5-0.4-2.2-0.1l-4.6,2.7
		c-0.6,0.3-0.5,0.9,0.2,1.3l4.3,2.5C119.4,413.3,120.3,413.3,121,413z"/>
	<path class="st5" d="M120.5,412.9l4.6-2.7c0.6-0.3,0.5-0.9-0.2-1.3l-4.3-2.5c-0.7-0.4-1.5-0.4-2.3-0.1l-4.6,2.6
		c-0.6,0.3-0.5,0.9,0.2,1.3l4.3,2.5C119,413.2,119.8,413.2,120.5,412.9z"/>
	<path class="st67" d="M112.5,417.7l4.6-2.7c0.6-0.3,0.5-0.9-0.2-1.3l-4.3-2.5c-0.7-0.4-1.5-0.4-2.3-0.1l-4.6,2.7
		c-0.6,0.3-0.5,0.9,0.2,1.3l4.3,2.5C111,418,111.8,418,112.5,417.7z"/>
	<path class="st5" d="M112,417.7l4.6-2.7c0.6-0.3,0.5-0.9-0.2-1.3l-4.3-2.5c-0.7-0.4-1.5-0.4-2.2-0.1l-4.6,2.7
		c-0.6,0.3-0.5,0.9,0.2,1.3l4.3,2.5C110.4,417.9,111.3,418,112,417.7z"/>
	<path class="st67" d="M104,422.5l4.6-2.7c0.6-0.3,0.5-0.9-0.2-1.3l-4.3-2.5c-0.7-0.4-1.5-0.4-2.2-0.1l-4.6,2.7
		c-0.6,0.3-0.5,0.9,0.2,1.3l4.3,2.5C102.4,422.7,103.3,422.8,104,422.5z"/>
	<path class="st5" d="M103.5,422.4l4.6-2.7c0.6-0.3,0.5-0.9-0.2-1.3l-4.3-2.4c-0.7-0.4-1.5-0.4-2.3-0.1l-4.6,2.7
		c-0.6,0.3-0.5,0.9,0.2,1.3l4.3,2.5C101.9,422.7,102.8,422.7,103.5,422.4z"/>
	<path class="st67" d="M95.5,427.2l4.6-2.7c0.6-0.3,0.5-0.9-0.2-1.3l-4.3-2.5c-0.7-0.4-1.5-0.4-2.3-0.1l-4.6,2.7
		c-0.6,0.3-0.5,0.9,0.2,1.3l4.3,2.5C93.9,427.5,94.7,427.5,95.5,427.2z"/>
	<path class="st5" d="M95,427.2l4.6-2.7c0.6-0.3,0.5-0.9-0.2-1.3l-4.3-2.5c-0.7-0.4-1.5-0.4-2.2-0.1l-4.6,2.7
		c-0.6,0.3-0.5,0.9,0.2,1.3l4.3,2.5C93.4,427.4,94.2,427.5,95,427.2z"/>
	<path class="st67" d="M86.9,432l4.6-2.7c0.6-0.3,0.5-0.9-0.2-1.3l-4.3-2.5c-0.7-0.4-1.5-0.4-2.2-0.1l-4.6,2.7
		c-0.6,0.3-0.5,0.9,0.2,1.3l4.3,2.5C85.4,432.3,86.2,432.3,86.9,432z"/>
	<path class="st5" d="M86.4,431.9l4.6-2.7c0.6-0.3,0.5-0.9-0.2-1.3l-4.3-2.5c-0.7-0.4-1.5-0.4-2.3-0.1l-4.6,2.6
		c-0.6,0.3-0.5,0.9,0.2,1.3l4.3,2.5C84.9,432.2,85.7,432.2,86.4,431.9z"/>
	<path class="st67" d="M157.6,402.3l10.7-6.2c0.6-0.3,0.5-0.9-0.2-1.3l-4.3-2.5c-0.7-0.4-1.5-0.4-2.3-0.1l-10.7,6.2
		c-0.6,0.3-0.5,0.9,0.2,1.3l4.3,2.5C156.1,402.6,156.9,402.7,157.6,402.3z"/>
	<path class="st5" d="M157,402.4l10.8-6.2c0.6-0.3,0.5-0.9-0.2-1.3l-4.3-2.5c-0.7-0.4-1.5-0.4-2.3-0.1l-10.7,6.2
		c-0.6,0.3-0.5,0.9,0.2,1.3l4.3,2.5C155.4,402.7,156.2,402.7,157,402.4z"/>
	<path class="st67" d="M146.7,408.3l4.6-2.7c0.6-0.3,0.5-0.9-0.2-1.3l-4.3-2.5c-0.7-0.4-1.5-0.4-2.3-0.1l-4.6,2.7
		c-0.6,0.3-0.5,0.9,0.2,1.3l4.3,2.5C145.1,408.6,146,408.6,146.7,408.3z"/>
	<path class="st5" d="M146.2,408.3l4.6-2.7c0.6-0.3,0.5-0.9-0.2-1.3l-4.3-2.5c-0.7-0.4-1.5-0.4-2.3-0.1l-4.6,2.7
		c-0.6,0.3-0.5,0.9,0.2,1.3l4.3,2.5C144.6,408.5,145.5,408.6,146.2,408.3z"/>
	<path class="st67" d="M138.1,413.1l4.6-2.7c0.6-0.3,0.5-0.9-0.2-1.3l-4.3-2.5c-0.7-0.4-1.5-0.4-2.3-0.1l-4.6,2.7
		c-0.6,0.3-0.5,0.9,0.2,1.3l4.3,2.5C136.6,413.4,137.4,413.4,138.1,413.1z"/>
	<path class="st5" d="M137.7,413l4.6-2.7c0.6-0.3,0.5-0.9-0.2-1.3l-4.3-2.5c-0.7-0.4-1.5-0.4-2.3-0.1l-4.6,2.7
		c-0.6,0.3-0.5,0.9,0.2,1.3l4.3,2.5C136.1,413.3,136.9,413.3,137.7,413z"/>
	<path class="st67" d="M129.6,417.8l4.6-2.7c0.6-0.3,0.5-0.9-0.2-1.3l-4.3-2.5c-0.7-0.4-1.5-0.4-2.3-0.1l-4.6,2.7
		c-0.6,0.3-0.5,0.9,0.2,1.3l4.3,2.5C128.1,418.1,128.9,418.2,129.6,417.8z"/>
	<path class="st5" d="M129.1,417.8l4.6-2.7c0.6-0.3,0.5-0.9-0.2-1.3l-4.3-2.5c-0.7-0.4-1.5-0.4-2.3-0.1l-4.6,2.7
		c-0.6,0.3-0.5,0.9,0.2,1.3l4.3,2.5C127.6,418,128.4,418.1,129.1,417.8z"/>
	<path class="st67" d="M121.1,422.6l4.6-2.7c0.6-0.3,0.5-0.9-0.2-1.3l-4.3-2.5c-0.7-0.4-1.5-0.4-2.3-0.1l-4.6,2.7
		c-0.6,0.3-0.5,0.9,0.2,1.3l4.3,2.5C119.6,422.9,120.4,422.9,121.1,422.6z"/>
	<path class="st5" d="M120.6,422.5l4.6-2.7c0.6-0.3,0.5-0.9-0.2-1.3l-4.3-2.5c-0.7-0.4-1.5-0.4-2.3-0.1l-4.6,2.7
		c-0.6,0.3-0.5,0.9,0.2,1.3l4.3,2.5C119.1,422.8,119.9,422.8,120.6,422.5z"/>
	<path class="st67" d="M112.6,427.3l4.6-2.7c0.6-0.3,0.5-0.9-0.2-1.3l-4.3-2.5c-0.7-0.4-1.5-0.4-2.3-0.1l-4.6,2.7
		c-0.6,0.3-0.5,0.9,0.2,1.3l4.3,2.5C111,427.6,111.9,427.6,112.6,427.3z"/>
	<path class="st5" d="M112.1,427.3l4.6-2.7c0.6-0.3,0.5-0.9-0.2-1.3l-4.3-2.5c-0.7-0.4-1.5-0.4-2.3-0.1l-4.6,2.7
		c-0.6,0.3-0.5,0.9,0.2,1.3l4.3,2.5C110.6,427.5,111.4,427.6,112.1,427.3z"/>
	<path class="st67" d="M104.1,432.1l4.6-2.7c0.6-0.3,0.5-0.9-0.2-1.3l-4.3-2.5c-0.7-0.4-1.5-0.4-2.3-0.1l-4.6,2.7
		c-0.6,0.3-0.5,0.9,0.2,1.3l4.3,2.5C102.5,432.4,103.3,432.4,104.1,432.1z"/>
	<path class="st5" d="M103.6,432l4.6-2.7c0.6-0.3,0.5-0.9-0.2-1.3l-4.3-2.5c-0.7-0.4-1.5-0.4-2.3-0.1l-4.6,2.7
		c-0.6,0.3-0.5,0.9,0.2,1.3l4.3,2.5C102,432.3,102.8,432.3,103.6,432z"/>
	<path class="st67" d="M104,441.7l4.6-2.7c0.6-0.3,0.5-0.9-0.2-1.3l-12.5-7.2c-0.7-0.4-1.5-0.4-2.3-0.1l-4.7,2.7
		c-0.6,0.3-0.5,0.9,0.2,1.3l12.5,7.2C102.5,442,103.3,442.1,104,441.7z"/>
	<path class="st5" d="M103.1,441.5l4.6-2.7c0.6-0.3,0.5-0.9-0.2-1.3l-12.5-7.2c-0.7-0.4-1.5-0.4-2.3-0.1l-4.6,2.7
		c-0.6,0.3-0.5,0.9,0.2,1.3l12.5,7.2C101.6,441.8,102.4,441.8,103.1,441.5z"/>
	<path class="st67" d="M164.1,408.4L177,401c0.6-0.3,0.5-0.9-0.2-1.3l-4.3-2.5c-0.7-0.4-1.5-0.4-2.3-0.1l-12.9,7.4
		c-0.6,0.3-0.5,0.9,0.2,1.3l4.3,2.5C162.6,408.7,163.4,408.8,164.1,408.4z"/>
	<path class="st5" d="M163.4,408.5l12.9-7.4c0.6-0.3,0.5-0.9-0.2-1.3l-4.3-2.5c-0.7-0.4-1.5-0.4-2.2-0.1l-12.9,7.4
		c-0.6,0.3-0.5,0.9,0.2,1.3l4.3,2.5C161.8,408.8,162.7,408.8,163.4,408.5z"/>
	<path class="st67" d="M155.3,413.2l4.6-2.7c0.6-0.3,0.5-0.9-0.2-1.3l-4.3-2.5c-0.7-0.4-1.5-0.4-2.3-0.1l-4.6,2.7
		c-0.6,0.3-0.5,0.9,0.2,1.3l4.3,2.5C153.7,413.5,154.6,413.5,155.3,413.2z"/>
	<path class="st5" d="M154.8,413.1l4.6-2.7c0.6-0.3,0.5-0.9-0.2-1.3l-4.3-2.5c-0.7-0.4-1.5-0.4-2.2-0.1l-4.6,2.7
		c-0.6,0.3-0.5,0.9,0.2,1.3l4.3,2.5C153.2,413.4,154.1,413.4,154.8,413.1z"/>
	<path class="st67" d="M146.8,417.9l4.6-2.7c0.6-0.3,0.5-0.9-0.2-1.3l-4.3-2.5c-0.7-0.4-1.5-0.4-2.2-0.1L140,414
		c-0.6,0.3-0.5,0.9,0.2,1.3l4.3,2.5C145.2,418.2,146.1,418.2,146.8,417.9z"/>
	<path class="st5" d="M146.3,417.9l4.6-2.7c0.6-0.3,0.5-0.9-0.2-1.3l-4.3-2.5c-0.7-0.4-1.5-0.4-2.3-0.1l-4.6,2.7
		c-0.6,0.3-0.5,0.9,0.2,1.3l4.3,2.5C144.7,418.2,145.6,418.2,146.3,417.9z"/>
	<path class="st67" d="M138.3,422.7l4.6-2.7c0.6-0.3,0.5-0.9-0.2-1.3l-4.3-2.5c-0.7-0.4-1.5-0.4-2.3-0.1l-4.6,2.7
		c-0.6,0.3-0.5,0.9,0.2,1.3l4.3,2.5C136.7,423,137.5,423,138.3,422.7z"/>
	<path class="st5" d="M137.8,422.6l4.6-2.7c0.6-0.3,0.5-0.9-0.2-1.3l-4.3-2.5c-0.7-0.4-1.5-0.4-2.2-0.1l-4.6,2.7
		c-0.6,0.3-0.5,0.9,0.2,1.3l4.3,2.5C136.2,422.9,137,422.9,137.8,422.6z"/>
	<path class="st67" d="M129.7,427.4l4.6-2.7c0.6-0.3,0.5-0.9-0.2-1.3l-4.3-2.5c-0.7-0.4-1.5-0.4-2.2-0.1l-4.6,2.7
		c-0.6,0.3-0.5,0.9,0.2,1.3l4.3,2.5C128.2,427.7,129,427.7,129.7,427.4z"/>
	<path class="st5" d="M129.2,427.4l4.6-2.7c0.6-0.3,0.5-0.9-0.2-1.3l-4.3-2.5c-0.7-0.4-1.5-0.4-2.3-0.1l-4.6,2.7
		c-0.6,0.3-0.5,0.9,0.2,1.3l4.3,2.5C127.7,427.7,128.5,427.7,129.2,427.4z"/>
	<path class="st67" d="M121.2,432.2l4.6-2.7c0.6-0.3,0.5-0.9-0.2-1.3l-4.3-2.5c-0.7-0.4-1.5-0.4-2.3-0.1l-4.6,2.7
		c-0.6,0.3-0.5,0.9,0.2,1.3l4.3,2.5C119.6,432.5,120.5,432.5,121.2,432.2z"/>
	<path class="st5" d="M120.7,432.1l4.6-2.7c0.6-0.3,0.5-0.9-0.2-1.3l-4.3-2.5c-0.7-0.4-1.5-0.4-2.2-0.1l-4.6,2.7
		c-0.6,0.3-0.5,0.9,0.2,1.3l4.3,2.5C119.2,432.4,120,432.4,120.7,432.1z"/>
	<path class="st67" d="M104.4,441.7l12.9-7.4c0.6-0.3,0.5-0.9-0.2-1.3l-4.3-2.5c-0.7-0.4-1.5-0.4-2.2-0.1l-12.9,7.4
		c-0.6,0.3-0.5,0.9,0.2,1.3l4.3,2.5C102.9,442,103.7,442,104.4,441.7z"/>
	<path class="st5" d="M103.7,441.8l12.9-7.4c0.6-0.3,0.5-0.9-0.2-1.3l-4.3-2.5c-0.7-0.4-1.5-0.4-2.3-0.1L97,437.9
		c-0.6,0.3-0.5,0.9,0.2,1.3l4.3,2.5C102.2,442,103,442.1,103.7,441.8z"/>
	<path class="st67" d="M181,408.5l4.6-2.7c0.6-0.3,0.5-0.9-0.2-1.3l-4.3-2.5c-0.7-0.4-1.5-0.4-2.3-0.1l-4.6,2.7
		c-0.6,0.3-0.5,0.9,0.2,1.3l4.3,2.5C179.4,408.8,180.2,408.8,181,408.5z"/>
	<path class="st5" d="M180.5,408.5l4.7-2.7c0.6-0.3,0.5-0.9-0.2-1.3l-4.4-2.5c-0.7-0.4-1.5-0.4-2.3-0.1l-4.6,2.7
		c-0.6,0.3-0.5,0.9,0.2,1.3l4.3,2.5C178.9,408.7,179.7,408.8,180.5,408.5z"/>
	<path class="st67" d="M172.4,413.3l4.6-2.7c0.6-0.3,0.5-0.9-0.2-1.3l-4.3-2.5c-0.7-0.4-1.5-0.4-2.3-0.1l-4.6,2.7
		c-0.6,0.3-0.5,0.9,0.2,1.3l4.3,2.5C170.9,413.6,171.7,413.6,172.4,413.3z"/>
	<path class="st5" d="M171.9,413.2l4.6-2.7c0.6-0.3,0.5-0.9-0.2-1.3l-4.3-2.5c-0.7-0.4-1.5-0.4-2.3-0.1l-4.6,2.7
		c-0.6,0.3-0.5,0.9,0.2,1.3l4.3,2.5C170.4,413.5,171.2,413.5,171.9,413.2z"/>
	<path class="st67" d="M163.9,418l4.6-2.7c0.6-0.3,0.5-0.9-0.2-1.3l-4.3-2.5c-0.7-0.4-1.5-0.4-2.3-0.1l-4.7,2.7
		c-0.6,0.3-0.5,0.9,0.2,1.3l4.3,2.5C162.3,418.3,163.2,418.3,163.9,418z"/>
	<path class="st5" d="M163.4,418l4.6-2.7c0.6-0.3,0.5-0.9-0.2-1.3l-4.3-2.5c-0.7-0.4-1.5-0.4-2.3-0.1l-4.6,2.7
		c-0.6,0.3-0.5,0.9,0.2,1.3l4.3,2.5C161.9,418.3,162.7,418.3,163.4,418z"/>
	<path class="st67" d="M155.4,422.8l4.6-2.7c0.6-0.3,0.5-0.9-0.2-1.3l-4.3-2.5c-0.7-0.4-1.5-0.4-2.3-0.1l-4.6,2.7
		c-0.6,0.3-0.5,0.9,0.2,1.3l4.3,2.5C153.8,423.1,154.7,423.1,155.4,422.8z"/>
	<path class="st5" d="M154.9,422.7l4.6-2.7c0.6-0.3,0.5-0.9-0.2-1.3l-4.3-2.5c-0.7-0.4-1.5-0.4-2.3-0.1l-4.6,2.7
		c-0.6,0.3-0.5,0.9,0.2,1.3l4.3,2.5C153.3,423,154.2,423,154.9,422.7z"/>
	<path class="st67" d="M146.9,427.5l4.6-2.7c0.6-0.3,0.5-0.9-0.2-1.3l-4.3-2.5c-0.7-0.4-1.5-0.4-2.3-0.1l-4.6,2.7
		c-0.6,0.3-0.5,0.9,0.2,1.3l4.3,2.5C145.3,427.8,146.1,427.8,146.9,427.5z"/>
	<path class="st5" d="M146.4,427.5l4.6-2.7c0.6-0.3,0.5-0.9-0.2-1.3l-4.3-2.5c-0.7-0.4-1.5-0.4-2.3-0.1l-4.6,2.7
		c-0.6,0.3-0.5,0.9,0.2,1.3l4.3,2.5C144.8,427.8,145.6,427.8,146.4,427.5z"/>
	<path class="st67" d="M138.3,432.3l4.6-2.7c0.6-0.3,0.5-0.9-0.2-1.3l-4.3-2.5c-0.7-0.4-1.5-0.4-2.3-0.1l-4.6,2.7
		c-0.6,0.3-0.5,0.9,0.2,1.3l4.3,2.5C136.8,432.6,137.6,432.6,138.3,432.3z"/>
	<path class="st5" d="M137.8,432.2l4.6-2.7c0.6-0.3,0.5-0.9-0.2-1.3l-4.3-2.5c-0.7-0.4-1.5-0.4-2.3-0.1l-4.6,2.7
		c-0.6,0.3-0.5,0.9,0.2,1.3l4.3,2.5C136.3,432.5,137.1,432.5,137.8,432.2z"/>
	<path class="st67" d="M129.8,437l4.6-2.7c0.6-0.3,0.5-0.9-0.2-1.3l-4.3-2.5c-0.7-0.4-1.5-0.4-2.3-0.1l-4.6,2.7
		c-0.6,0.3-0.5,0.9,0.2,1.3l4.3,2.5C128.3,437.3,129.1,437.3,129.8,437z"/>
	<path class="st5" d="M129.3,437l4.6-2.7c0.6-0.3,0.5-0.9-0.2-1.3l-4.3-2.5c-0.7-0.4-1.5-0.4-2.3-0.1l-4.6,2.7
		c-0.6,0.3-0.5,0.9,0.2,1.3l4.3,2.5C127.8,437.3,128.6,437.3,129.3,437z"/>
	<path class="st67" d="M121.3,441.8l4.6-2.7c0.6-0.3,0.5-0.9-0.2-1.3l-4.3-2.5c-0.7-0.4-1.5-0.4-2.3-0.1l-4.6,2.7
		c-0.6,0.3-0.5,0.9,0.2,1.3l4.3,2.5C119.7,442.1,120.6,442.1,121.3,441.8z"/>
	<path class="st5" d="M120.8,441.7l4.6-2.7c0.6-0.3,0.5-0.9-0.2-1.3l-4.3-2.5c-0.7-0.4-1.5-0.4-2.3-0.1l-4.6,2.7
		c-0.6,0.3-0.5,0.9,0.2,1.3l4.3,2.5C119.2,442,120.1,442,120.8,441.7z"/>
	<path class="st67" d="M73.1,439.8l10-5.8c0.6-0.3,0.5-0.9-0.2-1.3l-4.3-2.5c-0.7-0.4-1.5-0.4-2.3-0.1l-10,5.8
		c-0.6,0.3-0.5,0.9,0.2,1.3l4.3,2.5C71.5,440.1,72.4,440.1,73.1,439.8z"/>
	<path class="st5" d="M72.4,439.8l10-5.8c0.6-0.3,0.5-0.9-0.2-1.3l-4.3-2.5c-0.7-0.4-1.5-0.4-2.3-0.1l-10,5.8
		c-0.6,0.3-0.5,0.9,0.2,1.3l4.3,2.5C70.9,440.1,71.7,440.1,72.4,439.8z"/>
	<path class="st67" d="M65.4,444.2l3.3-1.9c0.6-0.3,0.5-0.9-0.2-1.3l-4.3-2.5c-0.7-0.4-1.5-0.4-2.3-0.1l-3.3,1.9
		c-0.6,0.3-0.5,0.9,0.2,1.3l4.3,2.5C63.9,444.5,64.7,444.5,65.4,444.2z"/>
	<path class="st5" d="M65,444.1l3.3-1.9c0.6-0.3,0.5-0.9-0.2-1.3l-4.3-2.5c-0.7-0.4-1.5-0.4-2.3-0.1l-3.3,1.9
		c-0.6,0.3-0.5,0.9,0.2,1.3l4.3,2.5C63.4,444.4,64.2,444.5,65,444.1z"/>
	<path class="st67" d="M57.7,448.7l3.3-1.9c0.6-0.3,0.5-0.9-0.2-1.3l-4.3-2.5c-0.7-0.4-1.5-0.4-2.3-0.1l-3.3,1.9
		c-0.6,0.3-0.5,0.9,0.2,1.3l4.3,2.5C56.2,449,57,449,57.7,448.7z"/>
	<path class="st5" d="M57.3,448.6l3.3-1.9c0.6-0.3,0.5-0.9-0.2-1.3l-4.3-2.5c-0.7-0.4-1.5-0.4-2.3-0.1l-3.3,1.9
		c-0.6,0.3-0.5,0.9,0.2,1.3l4.3,2.5C55.7,448.8,56.6,448.9,57.3,448.6z"/>
	<path class="st67" d="M50,453.1l3.3-1.9c0.6-0.3,0.5-0.9-0.2-1.3l-4.3-2.5c-0.7-0.4-1.5-0.4-2.3-0.1l-3.3,1.9
		c-0.6,0.3-0.5,0.9,0.2,1.3l4.3,2.5C48.5,453.4,49.3,453.4,50,453.1z"/>
	<path class="st5" d="M49.6,453l3.3-1.9c0.6-0.3,0.5-0.9-0.2-1.3l-4.3-2.5c-0.7-0.4-1.5-0.4-2.3-0.1l-3.3,1.9
		c-0.6,0.3-0.5,0.9,0.2,1.3l4.3,2.5C48,453.3,48.9,453.3,49.6,453z"/>
	<path class="st67" d="M73.7,449.1l3.3-1.9c0.6-0.3,0.5-0.9-0.2-1.3l-4.3-2.5c-0.7-0.4-1.5-0.4-2.3-0.1l-3.3,1.9
		c-0.6,0.3-0.5,0.9,0.2,1.3l4.3,2.5C72.1,449.4,73,449.4,73.7,449.1z"/>
	<path class="st5" d="M73.2,449l3.3-1.9c0.6-0.3,0.5-0.9-0.2-1.3l-4.3-2.5c-0.7-0.4-1.5-0.4-2.3-0.1l-3.3,1.9
		c-0.6,0.3-0.5,0.9,0.2,1.3l4.3,2.5C71.7,449.3,72.5,449.3,73.2,449z"/>
	<path class="st67" d="M66,453.5l3.3-1.9c0.6-0.3,0.5-0.9-0.2-1.3l-4.3-2.5c-0.7-0.4-1.5-0.4-2.2-0.1l-3.3,1.9
		c-0.6,0.3-0.5,0.9,0.2,1.3l4.3,2.5C64.5,453.8,65.3,453.8,66,453.5z"/>
	<path class="st5" d="M65.5,453.4l3.3-1.9c0.6-0.3,0.5-0.9-0.2-1.3l-4.3-2.5c-0.7-0.4-1.5-0.4-2.3-0.1l-3.3,1.9
		c-0.6,0.3-0.5,0.9,0.2,1.3l4.3,2.5C64,453.7,64.8,453.8,65.5,453.4z"/>
	<path class="st67" d="M58.3,458l3.3-1.9c0.6-0.3,0.5-0.9-0.2-1.3l-4.3-2.5c-0.7-0.4-1.5-0.4-2.3-0.1l-3.3,1.9
		c-0.6,0.3-0.5,0.9,0.2,1.3l4.3,2.5C56.7,458.3,57.6,458.3,58.3,458z"/>
	<path class="st5" d="M57.9,457.9l3.3-1.9c0.6-0.3,0.5-0.9-0.2-1.3l-4.3-2.5c-0.7-0.4-1.5-0.4-2.3-0.1l-3.3,1.9
		c-0.6,0.3-0.5,0.9,0.2,1.3l4.3,2.5C56.3,458.2,57.1,458.2,57.9,457.9z"/>
	<path class="st67" d="M82,454l3.3-1.9c0.6-0.3,0.5-0.9-0.2-1.3l-4.3-2.5c-0.7-0.4-1.5-0.4-2.3-0.1l-3.3,1.9
		c-0.6,0.3-0.5,0.9,0.2,1.3l4.3,2.5C80.4,454.3,81.3,454.3,82,454z"/>
	<path class="st5" d="M81.5,453.9l3.3-1.9c0.6-0.3,0.5-0.9-0.2-1.3l-4.3-2.5c-0.7-0.4-1.5-0.4-2.3-0.1l-3.3,1.9
		c-0.6,0.3-0.5,0.9,0.2,1.3l4.3,2.5C80,454.2,80.8,454.2,81.5,453.9z"/>
	<path class="st67" d="M74.3,458.4l3.3-1.9c0.6-0.3,0.5-0.9-0.2-1.3l-4.3-2.5c-0.7-0.4-1.5-0.4-2.2-0.1l-3.3,1.9
		c-0.6,0.3-0.5,0.9,0.2,1.3l4.3,2.5C72.7,458.7,73.6,458.7,74.3,458.4z"/>
	<path class="st5" d="M73.8,458.3l3.3-1.9c0.6-0.3,0.5-0.9-0.2-1.3l-4.3-2.5c-0.7-0.4-1.5-0.4-2.3-0.1l-3.3,1.9
		c-0.6,0.3-0.5,0.9,0.2,1.3l4.3,2.5C72.3,458.6,73.1,458.6,73.8,458.3z"/>
	<path class="st67" d="M66.6,462.8l3.3-1.9c0.6-0.3,0.5-0.9-0.2-1.3l-4.3-2.5c-0.7-0.4-1.5-0.4-2.3-0.1l-3.3,1.9
		c-0.6,0.3-0.5,0.9,0.2,1.3l4.3,2.5C65.1,463.1,65.9,463.2,66.6,462.8z"/>
	<path class="st5" d="M66.1,462.8l3.3-1.9c0.6-0.3,0.5-0.9-0.2-1.3L65,457c-0.7-0.4-1.5-0.4-2.2-0.1l-3.3,1.9
		c-0.6,0.3-0.5,0.9,0.2,1.3l4.3,2.5C64.6,463,65.4,463.1,66.1,462.8z"/>
	<path class="st67" d="M82.6,463.3l3.3-1.9c0.6-0.3,0.5-0.9-0.2-1.3l-4.3-2.5c-0.7-0.4-1.5-0.4-2.2-0.1l-3.3,1.9
		c-0.6,0.3-0.5,0.9,0.2,1.3l4.3,2.5C81,463.6,81.8,463.6,82.6,463.3z"/>
	<path class="st5" d="M82.1,463.2l3.3-1.9c0.6-0.3,0.5-0.9-0.2-1.3l-4.3-2.5c-0.7-0.4-1.5-0.4-2.3-0.1l-3.3,1.9
		c-0.6,0.3-0.5,0.9,0.2,1.3l4.3,2.5C80.6,463.5,81.4,463.5,82.1,463.2z"/>
	<path class="st67" d="M74.9,467.7l3.3-1.9c0.6-0.3,0.5-0.9-0.2-1.3l-4.3-2.5c-0.7-0.4-1.5-0.4-2.3-0.1l-3.3,1.9
		c-0.6,0.3-0.5,0.9,0.2,1.3l4.3,2.5C73.3,468,74.2,468,74.9,467.7z"/>
	<path class="st5" d="M74.4,467.6l3.3-1.9c0.6-0.3,0.5-0.9-0.2-1.3l-4.3-2.5c-0.7-0.4-1.5-0.4-2.2-0.1l-3.3,1.9
		c-0.6,0.3-0.5,0.9,0.2,1.3l4.3,2.5C72.9,467.9,73.7,467.9,74.4,467.6z"/>
	<path class="st67" d="M93.2,447.7l3.3-1.9c0.6-0.3,0.5-0.9-0.2-1.3l-4.3-2.5c-0.7-0.4-1.5-0.4-2.3-0.1l-3.3,1.9
		c-0.6,0.3-0.5,0.9,0.2,1.3l4.3,2.5C91.7,448,92.5,448,93.2,447.7z"/>
	<path class="st5" d="M92.8,447.6l3.3-1.9c0.6-0.3,0.5-0.9-0.2-1.3l-4.3-2.5c-0.7-0.4-1.5-0.4-2.2-0.1l-3.3,1.9
		c-0.6,0.3-0.5,0.9,0.2,1.3l4.3,2.5C91.2,447.9,92.1,448,92.8,447.6z"/>
	<path class="st67" d="M109.7,448.5l3.3-1.9c0.6-0.3,0.5-0.9-0.2-1.3l-4.3-2.5c-0.7-0.4-1.5-0.4-2.2-0.1l-3.3,1.9
		c-0.6,0.3-0.5,0.9,0.2,1.3l4.3,2.5C108.2,448.7,109,448.8,109.7,448.5z"/>
	<path class="st5" d="M109.3,448.4l3.3-1.9c0.6-0.3,0.5-0.9-0.2-1.3l-4.3-2.5c-0.7-0.4-1.5-0.4-2.3-0.1l-3.3,1.9
		c-0.6,0.3-0.5,0.9,0.2,1.3l4.3,2.5C107.7,448.6,108.6,448.7,109.3,448.4z"/>
	<path class="st67" d="M102,452.9l3.3-1.9c0.6-0.3,0.5-0.9-0.2-1.3l-4.3-2.5c-0.7-0.4-1.5-0.4-2.3-0.1l-3.3,1.9
		c-0.6,0.3-0.5,0.9,0.2,1.3l4.3,2.5C100.5,453.2,101.3,453.2,102,452.9z"/>
	<path class="st5" d="M101.6,452.8l3.3-1.9c0.6-0.3,0.5-0.9-0.2-1.3l-4.3-2.5c-0.7-0.4-1.5-0.4-2.3-0.1l-3.3,1.9
		c-0.6,0.3-0.5,0.9,0.2,1.3l4.3,2.5C100,453.1,100.8,453.1,101.6,452.8z"/>
	<path class="st67" d="M94.4,457.3l3.3-1.9c0.6-0.3,0.5-0.9-0.2-1.3l-4.4-2.5c-0.7-0.4-1.5-0.4-2.2-0.1l-3.3,1.9
		c-0.6,0.3-0.5,0.9,0.2,1.3l4.3,2.5C92.8,457.6,93.6,457.7,94.4,457.3z"/>
	<path class="st5" d="M93.9,457.2l3.3-1.9c0.6-0.3,0.5-0.9-0.2-1.3l-4.3-2.5c-0.7-0.4-1.5-0.4-2.3-0.1l-3.3,1.9
		c-0.6,0.3-0.5,0.9,0.2,1.3l4.3,2.5C92.3,457.5,93.2,457.6,93.9,457.2z"/>
	<polygon class="st68" points="137.3,258.9 137.3,365.1 111.4,380.1 55.4,307 	"/>
	<polygon class="st63" points="15.2,459.5 15.2,456.8 19,458.9 19,461.6 	"/>
	<polygon class="st63" points="19.8,462.1 19.8,459.4 23.6,461.6 23.6,464.3 	"/>
	<polygon class="st66" points="1036.3,447 1034.9,451.9 937.3,508.2 797.3,427.4 795.8,422.5 937.3,504.1 	"/>
	<polygon class="st66" points="0,447.3 1.4,452.2 99,508.5 239,427.7 240.5,422.8 99,504.5 	"/>
</g>
</svg>
